<?xml version="1.0" encoding="utf-8" standalone="yes"?>
<!DOCTYPE svg PUBLIC "-//W3C//DTD SVG 1.1//EN" "http://www.w3.org/Graphics/SVG/1.1/DTD/svg11.dtd">
<svg width="564" height="408" viewBox="0 0 564 408" style="fill:none;stroke:none;fill-rule:evenodd;clip-rule:evenodd;stroke-linecap:round;stroke-linejoin:round;stroke-miterlimit:1.5;" version="1.1" xmlns="http://www.w3.org/2000/svg" xmlns:xlink="http://www.w3.org/1999/xlink"><style id="fontImports">@import url("https://fonts.googleapis.com/css2?family=Roboto:wght@400;700&amp;display=block");</style><g id="items" style="isolation: isolate"><g id="blend" style="mix-blend-mode:normal"><g id="g-root-0.cu_sy_1umrylpi2r094-fill" data-item-order="999921164" data-item-id="0.cu_sy_1umrylpi2r094" data-item-class="Part Indexed_0 Fill Stroke" data-item-index="0" data-renderer-id="0" transform="translate(206, 74)"><g id="0.cu_sy_1umrylpi2r094-fill" stroke="none" fill="#e6efff"><g><path d="M 82 154C 121.765 154 154 121.765 154 82C 154 42.2355 121.765 10 82 10C 42.2355 10 10 42.2355 10 82C 10 96.1129 14.0605 109.2775 21.0769 120.389C 25.088 118.846 29.4452 118 34 118C 53.5486 118 69.4579 133.581 69.9864 153.002C 73.8932 153.658 77.9067 154 82 154Z"></path></g></g></g><g id="g-root-0.cu_sy_1umrylpi2r094-fill" data-item-order="999921164" data-item-id="0.cu_sy_1umrylpi2r094" data-item-class="Part Indexed_0 Fill Stroke" data-item-index="0" data-renderer-id="0" transform="translate(206, 74)"><g id="0.cu_sy_1umrylpi2r094-fill" stroke="none" fill="#e6efff"><g><path d="M 82 154C 121.765 154 154 121.765 154 82C 154 42.2355 121.765 10 82 10C 42.2355 10 10 42.2355 10 82C 10 96.1129 14.0605 109.2775 21.0769 120.389C 25.088 118.846 29.4452 118 34 118C 53.5486 118 69.4579 133.581 69.9864 153.002C 73.8932 153.658 77.9067 154 82 154Z"></path></g></g></g><g id="g-root-2.cu_sy_1q6ygh9i2r11e-fill" data-item-order="999921166" data-item-id="2.cu_sy_1q6ygh9i2r11e" data-item-class="Part Indexed Fill Stroke" data-item-index="2" data-renderer-id="0" transform="translate(194, 182)"><g id="2.cu_sy_1q6ygh9i2r11e-fill" stroke="none" fill="#e9fbf3"><g><path d="M 82 46C 82 65.8823 65.8823 82 46 82C 26.1177 82 10 65.8823 10 46C 10 26.1177 26.1177 10 46 10C 65.8823 10 82 26.1177 82 46Z"></path></g></g></g><g id="g-root-2.cu_sy_1q6ygh9i2r11e-fill" data-item-order="999921166" data-item-id="2.cu_sy_1q6ygh9i2r11e" data-item-class="Part Indexed Fill Stroke" data-item-index="2" data-renderer-id="0" transform="translate(194, 182)"><g id="2.cu_sy_1q6ygh9i2r11e-fill" stroke="none" fill="#e9fbf3"><g><path d="M 82 46C 82 65.8823 65.8823 82 46 82C 26.1177 82 10 65.8823 10 46C 10 26.1177 26.1177 10 46 10C 65.8823 10 82 26.1177 82 46Z"></path></g></g></g><g id="g-root-3.cu_sy_1q6ygh9i2r11f-fill" data-item-order="999921168" data-item-id="3.cu_sy_1q6ygh9i2r11f" data-item-class="Part Indexed Fill Stroke" data-item-index="3" data-renderer-id="0" transform="translate(452, 116)"><g id="3.cu_sy_1q6ygh9i2r11f-fill" stroke="none" fill="#f5fbe9"><g><path d="M 70 40C 70 56.5685 56.5685 70 40 70C 23.4315 70 10 56.5685 10 40C 10 23.4315 23.4315 10 40 10C 56.5685 10 70 23.4315 70 40Z"></path></g></g></g><g id="g-root-3.cu_sy_1q6ygh9i2r11f-fill" data-item-order="999921168" data-item-id="3.cu_sy_1q6ygh9i2r11f" data-item-class="Part Indexed Fill Stroke" data-item-index="3" data-renderer-id="0" transform="translate(452, 116)"><g id="3.cu_sy_1q6ygh9i2r11f-fill" stroke="none" fill="#f5fbe9"><g><path d="M 70 40C 70 56.5685 56.5685 70 40 70C 23.4315 70 10 56.5685 10 40C 10 23.4315 23.4315 10 40 10C 56.5685 10 70 23.4315 70 40Z"></path></g></g></g><g id="g-root-1.cu_sy_1q6ygh9i2r11d-fill" data-item-order="999921170" data-item-id="1.cu_sy_1q6ygh9i2r11d" data-item-class="Part Indexed Indexed_1 Fill Stroke" data-item-index="1" data-renderer-id="0" transform="translate(74, 86)"><g id="1.cu_sy_1q6ygh9i2r11d-fill" stroke="none" fill="#e6f9ff"><g><path d="M 58 34C 58 47.2548 47.2548 58 34 58C 20.7452 58 10 47.2548 10 34C 10 20.7452 20.7452 10 34 10C 47.2548 10 58 20.7452 58 34Z"></path></g></g></g><g id="g-root-1.cu_sy_1q6ygh9i2r11d-fill" data-item-order="999921170" data-item-id="1.cu_sy_1q6ygh9i2r11d" data-item-class="Part Indexed Indexed_1 Fill Stroke" data-item-index="1" data-renderer-id="0" transform="translate(74, 86)"><g id="1.cu_sy_1q6ygh9i2r11d-fill" stroke="none" fill="#e6f9ff"><g><path d="M 58 34C 58 47.2548 47.2548 58 34 58C 20.7452 58 10 47.2548 10 34C 10 20.7452 20.7452 10 34 10C 47.2548 10 58 20.7452 58 34Z"></path></g></g></g><g id="g-root--1.cu_sy_1umrylpi2r093-fill" data-item-order="999921173" data-item-id="-1.cu_sy_1umrylpi2r093" data-item-class="Part Stroke ColorFillGray ColorStrokeGray" data-item-index="-1" data-renderer-id="0" transform="translate(74, 74.26025390625)"></g><g id="g-root--1.cu_sy_1umrylpi2r093-fill" data-item-order="999921173" data-item-id="-1.cu_sy_1umrylpi2r093" data-item-class="Part Stroke ColorFillGray ColorStrokeGray" data-item-index="-1" data-renderer-id="0" transform="translate(74, 74.26025390625)"></g><g id="g-root-1_1lw4r1pi2tv5z-fill" data-item-order="1000000000" data-item-id="1_1lw4r1pi2tv5z" data-item-class="Icon Stroke Indexed Indexed_0 InsideFill InsideColorFill" data-item-index="0" data-renderer-id="0" transform="translate(242, 110)"></g><g id="g-root-1_1lw4r1pi2tv5z-fill" data-item-order="1000000000" data-item-id="1_1lw4r1pi2tv5z" data-item-class="Icon Stroke Indexed Indexed_0 InsideFill InsideColorFill" data-item-index="0" data-renderer-id="0" transform="translate(242, 110)"></g><g id="g-root-1_1qby965i2tudp-fill" data-item-order="1000000000" data-item-id="1_1qby965i2tudp" data-item-class="Icon Stroke Indexed Indexed_1 InsideFill InsideColorFill" data-item-index="1" data-renderer-id="0" transform="translate(83, 95)"></g><g id="g-root-1_1qby965i2tudp-fill" data-item-order="1000000000" data-item-id="1_1qby965i2tudp" data-item-class="Icon Stroke Indexed Indexed_1 InsideFill InsideColorFill" data-item-index="1" data-renderer-id="0" transform="translate(83, 95)"></g><g id="g-root-2_1qby965i2tudq-fill" data-item-order="1000000000" data-item-id="2_1qby965i2tudq" data-item-class="Icon Stroke Indexed InsideFill InsideColorFill" data-item-index="3" data-renderer-id="0" transform="translate(464, 128)"></g><g id="g-root-2_1qby965i2tudq-fill" data-item-order="1000000000" data-item-id="2_1qby965i2tudq" data-item-class="Icon Stroke Indexed InsideFill InsideColorFill" data-item-index="3" data-renderer-id="0" transform="translate(464, 128)"></g><g id="g-root-tx_corechar_1q6ygh9i2r11g-fill" data-item-order="1000000000" data-item-id="tx_corechar_1q6ygh9i2r11g" data-item-class="Label Stroke Title" data-item-index="none" data-renderer-id="0" transform="translate(146, 2)"><g id="tx_corechar_1q6ygh9i2r11g-fill" stroke="none" fill="#484848"><g><text style="font: 20px Roboto, sans-serif; white-space: pre;" font-weight="20px" font-size="Roboto," font-family="sans-serif"><tspan x="16.95" y="34" dominant-baseline="ideographic">Core Characteristics of APIs</tspan></text></g></g></g><g id="g-root-modu_6h7fxi2tts4-fill" data-item-order="1000000000" data-item-id="modu_6h7fxi2tts4" data-item-class="Icon Stroke Indexed InsideFill InsideColorFill" data-item-index="2" data-renderer-id="0" transform="translate(209, 197)"></g><g id="g-root-modu_6h7fxi2tts4-fill" data-item-order="1000000000" data-item-id="modu_6h7fxi2tts4" data-item-class="Icon Stroke Indexed InsideFill InsideColorFill" data-item-index="2" data-renderer-id="0" transform="translate(209, 197)"></g><g id="g-root-tx_abstract_18gax2li2r08w-fill" data-item-order="1000000000" data-item-id="tx_abstract_18gax2li2r08w" data-item-class="Label Stroke Indexed Indexed_1" data-item-index="1" data-renderer-id="0" transform="translate(32, 266)"><g id="tx_abstract_18gax2li2r08w-fill" stroke="none" fill="#17b0e3"><g><text style="font: bold 20px Roboto, sans-serif; white-space: pre;" font-weight="bold" font-size="20" font-family="Roboto, sans-serif"><tspan x="11.76" y="34" dominant-baseline="ideographic">Abstraction</tspan></text></g></g></g><g id="g-root-tx_abstract_18gax2li2r08w-fill" data-item-order="1000000000" data-item-id="tx_abstract_18gax2li2r08w" data-item-class="Label Stroke Indexed Indexed_1" data-item-index="1" data-renderer-id="0" transform="translate(32, 266)"><g id="tx_abstract_18gax2li2r08w-fill" stroke="none" fill="#17b0e3"><g><text style="font: bold 20px Roboto, sans-serif; white-space: pre;" font-weight="bold" font-size="20" font-family="Roboto, sans-serif"><tspan x="11.76" y="34" dominant-baseline="ideographic">Abstraction</tspan></text></g></g></g><g id="g-root-tx_contract_18gax2li2r08x-fill" data-item-order="1000000000" data-item-id="tx_contract_18gax2li2r08x" data-item-class="Label Stroke Indexed" data-item-index="2" data-renderer-id="0" transform="translate(200, 278)"><g id="tx_contract_18gax2li2r08x-fill" stroke="none" fill="#3bc482"><g><text style="font: bold 20px Roboto, sans-serif; white-space: pre;" font-weight="bold" font-size="20" font-family="Roboto, sans-serif"><tspan x="17.56" y="34" dominant-baseline="ideographic">Contract-Based</tspan></text></g></g></g><g id="g-root-tx_contract_18gax2li2r08x-fill" data-item-order="1000000000" data-item-id="tx_contract_18gax2li2r08x" data-item-class="Label Stroke Indexed" data-item-index="2" data-renderer-id="0" transform="translate(200, 278)"><g id="tx_contract_18gax2li2r08x-fill" stroke="none" fill="#3bc482"><g><text style="font: bold 20px Roboto, sans-serif; white-space: pre;" font-weight="bold" font-size="20" font-family="Roboto, sans-serif"><tspan x="17.56" y="34" dominant-baseline="ideographic">Contract-Based</tspan></text></g></g></g><g id="g-root-tx_reusabil_zknwtpi2r11m-fill" data-item-order="1000000000" data-item-id="tx_reusabil_zknwtpi2r11m" data-item-class="Label Stroke Indexed" data-item-index="3" data-renderer-id="0" transform="translate(416, 266)"><g id="tx_reusabil_zknwtpi2r11m-fill" stroke="none" fill="#93c131"><g><text style="font: bold 20px Roboto, sans-serif; white-space: pre;" font-weight="bold" font-size="20" font-family="Roboto, sans-serif"><tspan x="14.13" y="34" dominant-baseline="ideographic">Reusability</tspan></text></g></g></g><g id="g-root-tx_reusabil_zknwtpi2r11m-fill" data-item-order="1000000000" data-item-id="tx_reusabil_zknwtpi2r11m" data-item-class="Label Stroke Indexed" data-item-index="3" data-renderer-id="0" transform="translate(416, 266)"><g id="tx_reusabil_zknwtpi2r11m-fill" stroke="none" fill="#93c131"><g><text style="font: bold 20px Roboto, sans-serif; white-space: pre;" font-weight="bold" font-size="20" font-family="Roboto, sans-serif"><tspan x="14.13" y="34" dominant-baseline="ideographic">Reusability</tspan></text></g></g></g><g id="g-root-tx_promotes_1hbbg8di2r1u5-fill" data-item-order="1000000000" data-item-id="tx_promotes_1hbbg8di2r1u5" data-item-class="Label Stroke Indexed" data-item-index="3" data-renderer-id="0" transform="translate(398, 302)"><g id="tx_promotes_1hbbg8di2r1u5-fill" stroke="none" fill="#484848"><g><text style="font: 20px Roboto, sans-serif; white-space: pre;" font-weight="20px" font-size="Roboto," font-family="sans-serif"><tspan x="36.03" y="34" dominant-baseline="ideographic">Promotes </tspan><tspan x="13.16" y="58" dominant-baseline="ideographic">modularity and </tspan><tspan x="34.94" y="82" dominant-baseline="ideographic">scalability</tspan></text></g></g></g><g id="g-root-tx_hidescom_1hbbg8di2r1u6-fill" data-item-order="1000000000" data-item-id="tx_hidescom_1hbbg8di2r1u6" data-item-class="Label Stroke Indexed Indexed_1" data-item-index="1" data-renderer-id="0" transform="translate(2, 302)"><g id="tx_hidescom_1hbbg8di2r1u6-fill" stroke="none" fill="#484848"><g><text style="font: 20px Roboto, sans-serif; white-space: pre;" font-weight="20px" font-size="Roboto," font-family="sans-serif"><tspan x="14.98" y="34" dominant-baseline="ideographic">Hides complexity </tspan><tspan x="37.01" y="58" dominant-baseline="ideographic">and reduces </tspan><tspan x="53.48" y="82" dominant-baseline="ideographic">coupling</tspan></text></g></g></g><g id="g-root-tx_definesi_1cw4f71i2qzgn-fill" data-item-order="1000000000" data-item-id="tx_definesi_1cw4f71i2qzgn" data-item-class="Label Stroke Indexed" data-item-index="2" data-renderer-id="0" transform="translate(194, 314)"><g id="tx_definesi_1cw4f71i2qzgn-fill" stroke="none" fill="#484848"><g><text style="font: 20px Roboto, sans-serif; white-space: pre;" font-weight="20px" font-size="Roboto," font-family="sans-serif"><tspan x="27" y="34" dominant-baseline="ideographic">Defines inputs, </tspan><tspan x="13.7" y="58" dominant-baseline="ideographic">outputs, and error </tspan><tspan x="54.2" y="82" dominant-baseline="ideographic">handling</tspan></text></g></g></g><g id="g-root-tx_definesi_1cw4f71i2qzgn-fill" data-item-order="1000000000" data-item-id="tx_definesi_1cw4f71i2qzgn" data-item-class="Label Stroke Indexed" data-item-index="2" data-renderer-id="0" transform="translate(194, 314)"><g id="tx_definesi_1cw4f71i2qzgn-fill" stroke="none" fill="#484848"><g><text style="font: 20px Roboto, sans-serif; white-space: pre;" font-weight="20px" font-size="Roboto," font-family="sans-serif"><tspan x="27" y="34" dominant-baseline="ideographic">Defines inputs, </tspan><tspan x="13.7" y="58" dominant-baseline="ideographic">outputs, and error </tspan><tspan x="54.2" y="82" dominant-baseline="ideographic">handling</tspan></text></g></g></g><g id="g-root-tx_promotes_1hbbg8di2r1u5-fill" data-item-order="1000000000" data-item-id="tx_promotes_1hbbg8di2r1u5" data-item-class="Label Stroke Indexed" data-item-index="3" data-renderer-id="0" transform="translate(398, 302)"><g id="tx_promotes_1hbbg8di2r1u5-fill" stroke="none" fill="#484848"><g><text style="font: 20px Roboto, sans-serif; white-space: pre;" font-weight="20px" font-size="Roboto," font-family="sans-serif"><tspan x="36.03" y="34" dominant-baseline="ideographic">Promotes </tspan><tspan x="13.16" y="58" dominant-baseline="ideographic">modularity and </tspan><tspan x="34.94" y="82" dominant-baseline="ideographic">scalability</tspan></text></g></g></g><g id="g-root-tx_corechar_1q6ygh9i2r11g-fill" data-item-order="1000000000" data-item-id="tx_corechar_1q6ygh9i2r11g" data-item-class="Label Stroke Title" data-item-index="none" data-renderer-id="0" transform="translate(146, 2)"><g id="tx_corechar_1q6ygh9i2r11g-fill" stroke="none" fill="#484848"><g><text style="font: 20px Roboto, sans-serif; white-space: pre;" font-weight="20px" font-size="Roboto," font-family="sans-serif"><tspan x="16.95" y="34" dominant-baseline="ideographic">Core Characteristics of APIs</tspan></text></g></g></g><g id="g-root-tx_hidescom_1hbbg8di2r1u6-fill" data-item-order="1000000000" data-item-id="tx_hidescom_1hbbg8di2r1u6" data-item-class="Label Stroke Indexed Indexed_1" data-item-index="1" data-renderer-id="0" transform="translate(2, 302)"><g id="tx_hidescom_1hbbg8di2r1u6-fill" stroke="none" fill="#484848"><g><text style="font: 20px Roboto, sans-serif; white-space: pre;" font-weight="20px" font-size="Roboto," font-family="sans-serif"><tspan x="14.98" y="34" dominant-baseline="ideographic">Hides complexity </tspan><tspan x="37.01" y="58" dominant-baseline="ideographic">and reduces </tspan><tspan x="53.48" y="82" dominant-baseline="ideographic">coupling</tspan></text></g></g></g><g id="g-root-0.cu_sy_1umrylpi2r094-stroke" data-item-order="999921164" data-item-id="0.cu_sy_1umrylpi2r094" data-item-class="Part Indexed_0 Fill Stroke" data-item-index="0" data-renderer-id="0" transform="translate(206, 74)"><g id="0.cu_sy_1umrylpi2r094-stroke" fill="none" stroke-linecap="round" stroke-linejoin="round" stroke-miterlimit="4" stroke="#4682e3" stroke-width="2"><g><path d="M 82 154C 121.7645 154 154 121.7645 154 82C 154 42.2355 121.7645 10 82 10C 42.2355 10 10 42.2355 10 82C 10 96.1129 14.0605 109.2775 21.0769 120.3891C 25.088 118.8459 29.4452 118 34 118C 53.5486 118 69.4579 133.5813 69.9864 153.0022C 73.8932 153.6584 77.9067 154 82 154Z"></path></g></g></g><g id="g-root-0.cu_sy_1umrylpi2r094-stroke" data-item-order="999921164" data-item-id="0.cu_sy_1umrylpi2r094" data-item-class="Part Indexed_0 Fill Stroke" data-item-index="0" data-renderer-id="0" transform="translate(206, 74)"><g id="0.cu_sy_1umrylpi2r094-stroke" fill="none" stroke-linecap="round" stroke-linejoin="round" stroke-miterlimit="4" stroke="#4682e3" stroke-width="2"><g><path d="M 82 154C 121.7645 154 154 121.7645 154 82C 154 42.2355 121.7645 10 82 10C 42.2355 10 10 42.2355 10 82C 10 96.1129 14.0605 109.2775 21.0769 120.3891C 25.088 118.8459 29.4452 118 34 118C 53.5486 118 69.4579 133.5813 69.9864 153.0022C 73.8932 153.6584 77.9067 154 82 154Z"></path></g></g></g><g id="g-root-2.cu_sy_1q6ygh9i2r11e-stroke" data-item-order="999921166" data-item-id="2.cu_sy_1q6ygh9i2r11e" data-item-class="Part Indexed Fill Stroke" data-item-index="2" data-renderer-id="0" transform="translate(194, 182)"><g id="2.cu_sy_1q6ygh9i2r11e-stroke" fill="none" stroke-linecap="round" stroke-linejoin="round" stroke-miterlimit="4" stroke="#3bc482" stroke-width="2"><g><path d="M 82 46C 82 65.8823 65.8823 82 46 82C 26.1177 82 10 65.8823 10 46C 10 26.1177 26.1177 10 46 10C 65.8823 10 82 26.1177 82 46Z"></path></g></g></g><g id="g-root-2.cu_sy_1q6ygh9i2r11e-stroke" data-item-order="999921166" data-item-id="2.cu_sy_1q6ygh9i2r11e" data-item-class="Part Indexed Fill Stroke" data-item-index="2" data-renderer-id="0" transform="translate(194, 182)"><g id="2.cu_sy_1q6ygh9i2r11e-stroke" fill="none" stroke-linecap="round" stroke-linejoin="round" stroke-miterlimit="4" stroke="#3bc482" stroke-width="2"><g><path d="M 82 46C 82 65.8823 65.8823 82 46 82C 26.1177 82 10 65.8823 10 46C 10 26.1177 26.1177 10 46 10C 65.8823 10 82 26.1177 82 46Z"></path></g></g></g><g id="g-root-3.cu_sy_1q6ygh9i2r11f-stroke" data-item-order="999921168" data-item-id="3.cu_sy_1q6ygh9i2r11f" data-item-class="Part Indexed Fill Stroke" data-item-index="3" data-renderer-id="0" transform="translate(452, 116)"><g id="3.cu_sy_1q6ygh9i2r11f-stroke" fill="none" stroke-linecap="round" stroke-linejoin="round" stroke-miterlimit="4" stroke="#93c131" stroke-width="2"><g><path d="M 70 40C 70 56.5685 56.5685 70 40 70C 23.4315 70 10 56.5685 10 40C 10 23.4315 23.4315 10 40 10C 56.5685 10 70 23.4315 70 40Z"></path></g></g></g><g id="g-root-3.cu_sy_1q6ygh9i2r11f-stroke" data-item-order="999921168" data-item-id="3.cu_sy_1q6ygh9i2r11f" data-item-class="Part Indexed Fill Stroke" data-item-index="3" data-renderer-id="0" transform="translate(452, 116)"><g id="3.cu_sy_1q6ygh9i2r11f-stroke" fill="none" stroke-linecap="round" stroke-linejoin="round" stroke-miterlimit="4" stroke="#93c131" stroke-width="2"><g><path d="M 70 40C 70 56.5685 56.5685 70 40 70C 23.4315 70 10 56.5685 10 40C 10 23.4315 23.4315 10 40 10C 56.5685 10 70 23.4315 70 40Z"></path></g></g></g><g id="g-root-1.cu_sy_1q6ygh9i2r11d-stroke" data-item-order="999921170" data-item-id="1.cu_sy_1q6ygh9i2r11d" data-item-class="Part Indexed Indexed_1 Fill Stroke" data-item-index="1" data-renderer-id="0" transform="translate(74, 86)"><g id="1.cu_sy_1q6ygh9i2r11d-stroke" fill="none" stroke-linecap="round" stroke-linejoin="round" stroke-miterlimit="4" stroke="#17b0e3" stroke-width="2"><g><path d="M 58 34C 58 47.2548 47.2548 58 34 58C 20.7452 58 10 47.2548 10 34C 10 20.7452 20.7452 10 34 10C 47.2548 10 58 20.7452 58 34Z"></path></g></g></g><g id="g-root-1.cu_sy_1q6ygh9i2r11d-stroke" data-item-order="999921170" data-item-id="1.cu_sy_1q6ygh9i2r11d" data-item-class="Part Indexed Indexed_1 Fill Stroke" data-item-index="1" data-renderer-id="0" transform="translate(74, 86)"><g id="1.cu_sy_1q6ygh9i2r11d-stroke" fill="none" stroke-linecap="round" stroke-linejoin="round" stroke-miterlimit="4" stroke="#17b0e3" stroke-width="2"><g><path d="M 58 34C 58 47.2548 47.2548 58 34 58C 20.7452 58 10 47.2548 10 34C 10 20.7452 20.7452 10 34 10C 47.2548 10 58 20.7452 58 34Z"></path></g></g></g><g id="g-root--1.cu_sy_1umrylpi2r093-stroke" data-item-order="999921173" data-item-id="-1.cu_sy_1umrylpi2r093" data-item-class="Part Stroke ColorFillGray ColorStrokeGray" data-item-index="-1" data-renderer-id="0" transform="translate(74, 74.26025390625)"><g id="-1.cu_sy_1umrylpi2r093-stroke" fill="none" stroke-linecap="round" stroke-linejoin="round" stroke-miterlimit="4" stroke="#888888" stroke-width="2" stroke-dasharray="5.0, 7.0"><g><path d="M 144.3938 122.5313C 106.9361 114.0615 82 98.9595 82 81.7395C 82 63.1262 111.1351 46.9874 153.7264 39.0244M 128.7609 147.1723C 58.6613 135.7781 10 110.7645 10 81.7395C 10 75.7665 12.0608 69.9633 15.9452 64.4137M 194.39 129.2135C 200.7883 129.56 207.3365 129.7395 214 129.7395C 286.9016 129.7395 346 108.2492 346 81.7395C 346 63.0996 316.7815 46.9412 274.0908 38.9903M 204.1285 153.6567C 207.3994 153.7117 210.6905 153.7395 214 153.7395C 298.7492 153.7395 371.4281 135.4998 402.2421 109.5359M 57.841 35.4084C 91.7475 21.1874 140.9628 11.6636 196.5255 10M 232.4007 10.0285C 309.1626 12.4506 373.6831 29.8794 402.2421 53.9432"></path></g></g></g><g id="g-root--1.cu_sy_1umrylpi2r093-stroke" data-item-order="999921173" data-item-id="-1.cu_sy_1umrylpi2r093" data-item-class="Part Stroke ColorFillGray ColorStrokeGray" data-item-index="-1" data-renderer-id="0" transform="translate(74, 74.26025390625)"><g id="-1.cu_sy_1umrylpi2r093-stroke" fill="none" stroke-linecap="round" stroke-linejoin="round" stroke-miterlimit="4" stroke="#888888" stroke-width="2" stroke-dasharray="5.0, 7.0"><g><path d="M 144.3938 122.5313C 106.9361 114.0615 82 98.9595 82 81.7395C 82 63.1262 111.1351 46.9874 153.7264 39.0244M 128.7609 147.1723C 58.6613 135.7781 10 110.7645 10 81.7395C 10 75.7665 12.0608 69.9633 15.9452 64.4137M 194.39 129.2135C 200.7883 129.56 207.3365 129.7395 214 129.7395C 286.9016 129.7395 346 108.2492 346 81.7395C 346 63.0996 316.7815 46.9412 274.0908 38.9903M 204.1285 153.6567C 207.3994 153.7117 210.6905 153.7395 214 153.7395C 298.7492 153.7395 371.4281 135.4998 402.2421 109.5359M 57.841 35.4084C 91.7475 21.1874 140.9628 11.6636 196.5255 10M 232.4007 10.0285C 309.1626 12.4506 373.6831 29.8794 402.2421 53.9432"></path></g></g></g><g id="g-root-1_1lw4r1pi2tv5z-stroke" data-item-order="1000000000" data-item-id="1_1lw4r1pi2tv5z" data-item-class="Icon Stroke Indexed Indexed_0 InsideFill InsideColorFill" data-item-index="0" data-renderer-id="0" transform="translate(242, 110)"><g id="1_1lw4r1pi2tv5z-stroke" fill="none" stroke-linecap="round" stroke-linejoin="round" stroke-miterlimit="4" stroke="#4682e3" stroke-width="2"><g><path d="M 37 47.496998C 37 52.467564 41.029438 56.497002 46 56.497002C 50.970566 56.497002 55 52.467564 55 47.497002C 55 42.526436 50.970566 38.497002 46 38.497002C 41.029438 38.497002 37 42.526436 37 47.497002ZM 59.5 80.5C 58.563999 70.323997 52.801003 62.5 46 62.5C 39.198997 62.5 33.436001 70.323997 32.5 80.5ZM 61.899998 61.899998C 70.694847 53.1161 70.70076 38.864799 61.913204 30.073603C 53.125652 21.282406 38.874352 21.282406 30.0868 30.073603C 21.29925 38.864799 21.305161 53.1161 30.1 61.900002M 70.395996 70.393005C 83.868423 56.919674 83.867935 35.075901 70.394913 21.603178C 56.921886 8.130452 35.078114 8.130452 21.605089 21.603178C 8.132063 35.075901 8.131576 56.919674 21.604 70.393005"></path></g></g></g><g id="g-root-1_1lw4r1pi2tv5z-stroke" data-item-order="1000000000" data-item-id="1_1lw4r1pi2tv5z" data-item-class="Icon Stroke Indexed Indexed_0 InsideFill InsideColorFill" data-item-index="0" data-renderer-id="0" transform="translate(242, 110)"><g id="1_1lw4r1pi2tv5z-stroke" fill="none" stroke-linecap="round" stroke-linejoin="round" stroke-miterlimit="4" stroke="#4682e3" stroke-width="2"><g><path d="M 37 47.496998C 37 52.467564 41.029438 56.497002 46 56.497002C 50.970566 56.497002 55 52.467564 55 47.497002C 55 42.526436 50.970566 38.497002 46 38.497002C 41.029438 38.497002 37 42.526436 37 47.497002ZM 59.5 80.5C 58.563999 70.323997 52.801003 62.5 46 62.5C 39.198997 62.5 33.436001 70.323997 32.5 80.5ZM 61.899998 61.899998C 70.694847 53.1161 70.70076 38.864799 61.913204 30.073603C 53.125652 21.282406 38.874352 21.282406 30.0868 30.073603C 21.29925 38.864799 21.305161 53.1161 30.1 61.900002M 70.395996 70.393005C 83.868423 56.919674 83.867935 35.075901 70.394913 21.603178C 56.921886 8.130452 35.078114 8.130452 21.605089 21.603178C 8.132063 35.075901 8.131576 56.919674 21.604 70.393005"></path></g></g></g><g id="g-root-1_1qby965i2tudp-stroke" data-item-order="1000000000" data-item-id="1_1qby965i2tudp" data-item-class="Icon Stroke Indexed Indexed_1 InsideFill InsideColorFill" data-item-index="1" data-renderer-id="0" transform="translate(83, 95)"><g id="1_1qby965i2tudp-stroke" fill="none" stroke-linecap="round" stroke-linejoin="round" stroke-miterlimit="4" stroke="#17b0e3" stroke-width="2"><g><path d="M 11.071428 38.92857L 19.642857 30.357141M 12.142857 30.357141L 19.642857 30.357141L 19.642857 37.857143M 38.92857 38.92857L 30.357141 30.357141M 37.857143 30.357141L 30.357141 30.357141L 30.357141 37.857143M 11.071428 11.071428L 19.642857 19.642857M 12.142857 19.642857L 19.642857 19.642857L 19.642857 12.142857M 38.92857 11.071428L 30.357141 19.642857M 37.857143 19.642857L 30.357141 19.642857L 30.357141 12.142857"></path></g></g></g><g id="g-root-1_1qby965i2tudp-stroke" data-item-order="1000000000" data-item-id="1_1qby965i2tudp" data-item-class="Icon Stroke Indexed Indexed_1 InsideFill InsideColorFill" data-item-index="1" data-renderer-id="0" transform="translate(83, 95)"><g id="1_1qby965i2tudp-stroke" fill="none" stroke-linecap="round" stroke-linejoin="round" stroke-miterlimit="4" stroke="#17b0e3" stroke-width="2"><g><path d="M 11.071428 38.92857L 19.642857 30.357141M 12.142857 30.357141L 19.642857 30.357141L 19.642857 37.857143M 38.92857 38.92857L 30.357141 30.357141M 37.857143 30.357141L 30.357141 30.357141L 30.357141 37.857143M 11.071428 11.071428L 19.642857 19.642857M 12.142857 19.642857L 19.642857 19.642857L 19.642857 12.142857M 38.92857 11.071428L 30.357141 19.642857M 37.857143 19.642857L 30.357141 19.642857L 30.357141 12.142857"></path></g></g></g><g id="g-root-2_1qby965i2tudq-stroke" data-item-order="1000000000" data-item-id="2_1qby965i2tudq" data-item-class="Icon Stroke Indexed InsideFill InsideColorFill" data-item-index="3" data-renderer-id="0" transform="translate(464, 128)"><g id="2_1qby965i2tudq-stroke" fill="none" stroke-linecap="round" stroke-linejoin="round" stroke-miterlimit="4" stroke="#93c131" stroke-width="2"><g><path d="M 12.25 10.7455L 42.25 10.7455C 42.25 10.7455 43.75 10.7455 43.75 12.2455L 43.75 42.245499C 43.75 42.245499 43.75 43.745499 42.25 43.745499L 12.25 43.745499C 12.25 43.745499 10.75 43.745499 10.75 42.245499L 10.75 12.2455C 10.75 12.2455 10.75 10.7455 12.25 10.7455M 27.25 10.7455L 27.25 43.745499M 43.75 27.245499L 10.75 27.245499"></path></g></g></g><g id="g-root-2_1qby965i2tudq-stroke" data-item-order="1000000000" data-item-id="2_1qby965i2tudq" data-item-class="Icon Stroke Indexed InsideFill InsideColorFill" data-item-index="3" data-renderer-id="0" transform="translate(464, 128)"><g id="2_1qby965i2tudq-stroke" fill="none" stroke-linecap="round" stroke-linejoin="round" stroke-miterlimit="4" stroke="#93c131" stroke-width="2"><g><path d="M 12.25 10.7455L 42.25 10.7455C 42.25 10.7455 43.75 10.7455 43.75 12.2455L 43.75 42.245499C 43.75 42.245499 43.75 43.745499 42.25 43.745499L 12.25 43.745499C 12.25 43.745499 10.75 43.745499 10.75 42.245499L 10.75 12.2455C 10.75 12.2455 10.75 10.7455 12.25 10.7455M 27.25 10.7455L 27.25 43.745499M 43.75 27.245499L 10.75 27.245499"></path></g></g></g><g id="g-root-tx_corechar_1q6ygh9i2r11g-stroke" data-item-order="1000000000" data-item-id="tx_corechar_1q6ygh9i2r11g" data-item-class="Label Stroke Title" data-item-index="none" data-renderer-id="0" transform="translate(146, 2)"></g><g id="g-root-modu_6h7fxi2tts4-stroke" data-item-order="1000000000" data-item-id="modu_6h7fxi2tts4" data-item-class="Icon Stroke Indexed InsideFill InsideColorFill" data-item-index="2" data-renderer-id="0" transform="translate(209, 197)"><g id="modu_6h7fxi2tts4-stroke" fill="none" stroke-linecap="round" stroke-linejoin="round" stroke-miterlimit="4" stroke="#3bc482" stroke-width="2"><g><path d="M 49.8125 17.4375C 50.605598 17.64184 51.150902 18.36891 51.125 19.1875L 51.125 42.8125C 51.126942 43.564854 50.647797 44.234249 49.934998 44.475002L 31.577499 51.037502C 31.203594 51.168213 30.796406 51.168213 30.422501 51.037502L 12.03 44.4925C 11.337092 44.241989 10.875314 43.584305 10.875 42.8475L 10.875 19.135C 10.849099 18.316408 11.394401 17.58934 12.1875 17.385L 30.5625 10.9275C 30.849991 10.857726 31.150005 10.857726 31.437498 10.9275ZM 31 24.8225L 31 51.125M 50.6525 17.945L 31 24.8225L 11.3475 17.945"></path></g></g></g><g id="g-root-modu_6h7fxi2tts4-stroke" data-item-order="1000000000" data-item-id="modu_6h7fxi2tts4" data-item-class="Icon Stroke Indexed InsideFill InsideColorFill" data-item-index="2" data-renderer-id="0" transform="translate(209, 197)"><g id="modu_6h7fxi2tts4-stroke" fill="none" stroke-linecap="round" stroke-linejoin="round" stroke-miterlimit="4" stroke="#3bc482" stroke-width="2"><g><path d="M 49.8125 17.4375C 50.605598 17.64184 51.150902 18.36891 51.125 19.1875L 51.125 42.8125C 51.126942 43.564854 50.647797 44.234249 49.934998 44.475002L 31.577499 51.037502C 31.203594 51.168213 30.796406 51.168213 30.422501 51.037502L 12.03 44.4925C 11.337092 44.241989 10.875314 43.584305 10.875 42.8475L 10.875 19.135C 10.849099 18.316408 11.394401 17.58934 12.1875 17.385L 30.5625 10.9275C 30.849991 10.857726 31.150005 10.857726 31.437498 10.9275ZM 31 24.8225L 31 51.125M 50.6525 17.945L 31 24.8225L 11.3475 17.945"></path></g></g></g><g id="g-root-tx_abstract_18gax2li2r08w-stroke" data-item-order="1000000000" data-item-id="tx_abstract_18gax2li2r08w" data-item-class="Label Stroke Indexed Indexed_1" data-item-index="1" data-renderer-id="0" transform="translate(32, 266)"></g><g id="g-root-tx_abstract_18gax2li2r08w-stroke" data-item-order="1000000000" data-item-id="tx_abstract_18gax2li2r08w" data-item-class="Label Stroke Indexed Indexed_1" data-item-index="1" data-renderer-id="0" transform="translate(32, 266)"></g><g id="g-root-tx_contract_18gax2li2r08x-stroke" data-item-order="1000000000" data-item-id="tx_contract_18gax2li2r08x" data-item-class="Label Stroke Indexed" data-item-index="2" data-renderer-id="0" transform="translate(200, 278)"></g><g id="g-root-tx_contract_18gax2li2r08x-stroke" data-item-order="1000000000" data-item-id="tx_contract_18gax2li2r08x" data-item-class="Label Stroke Indexed" data-item-index="2" data-renderer-id="0" transform="translate(200, 278)"></g><g id="g-root-tx_reusabil_zknwtpi2r11m-stroke" data-item-order="1000000000" data-item-id="tx_reusabil_zknwtpi2r11m" data-item-class="Label Stroke Indexed" data-item-index="3" data-renderer-id="0" transform="translate(416, 266)"></g><g id="g-root-tx_reusabil_zknwtpi2r11m-stroke" data-item-order="1000000000" data-item-id="tx_reusabil_zknwtpi2r11m" data-item-class="Label Stroke Indexed" data-item-index="3" data-renderer-id="0" transform="translate(416, 266)"></g><g id="g-root-tx_promotes_1hbbg8di2r1u5-stroke" data-item-order="1000000000" data-item-id="tx_promotes_1hbbg8di2r1u5" data-item-class="Label Stroke Indexed" data-item-index="3" data-renderer-id="0" transform="translate(398, 302)"></g><g id="g-root-tx_hidescom_1hbbg8di2r1u6-stroke" data-item-order="1000000000" data-item-id="tx_hidescom_1hbbg8di2r1u6" data-item-class="Label Stroke Indexed Indexed_1" data-item-index="1" data-renderer-id="0" transform="translate(2, 302)"></g><g id="g-root-tx_definesi_1cw4f71i2qzgn-stroke" data-item-order="1000000000" data-item-id="tx_definesi_1cw4f71i2qzgn" data-item-class="Label Stroke Indexed" data-item-index="2" data-renderer-id="0" transform="translate(194, 314)"></g><g id="g-root-tx_definesi_1cw4f71i2qzgn-stroke" data-item-order="1000000000" data-item-id="tx_definesi_1cw4f71i2qzgn" data-item-class="Label Stroke Indexed" data-item-index="2" data-renderer-id="0" transform="translate(194, 314)"></g><g id="g-root-tx_promotes_1hbbg8di2r1u5-stroke" data-item-order="1000000000" data-item-id="tx_promotes_1hbbg8di2r1u5" data-item-class="Label Stroke Indexed" data-item-index="3" data-renderer-id="0" transform="translate(398, 302)"></g><g id="g-root-tx_corechar_1q6ygh9i2r11g-stroke" data-item-order="1000000000" data-item-id="tx_corechar_1q6ygh9i2r11g" data-item-class="Label Stroke Title" data-item-index="none" data-renderer-id="0" transform="translate(146, 2)"></g><g id="g-root-tx_hidescom_1hbbg8di2r1u6-stroke" data-item-order="1000000000" data-item-id="tx_hidescom_1hbbg8di2r1u6" data-item-class="Label Stroke Indexed Indexed_1" data-item-index="1" data-renderer-id="0" transform="translate(2, 302)"></g></g></g></svg>