<?xml version="1.0" encoding="utf-8" standalone="yes"?>
<!DOCTYPE svg PUBLIC "-//W3C//DTD SVG 1.1//EN" "http://www.w3.org/Graphics/SVG/1.1/DTD/svg11.dtd">
<svg width="624" height="624" viewBox="0 0 624 624" style="fill:none;stroke:none;fill-rule:evenodd;clip-rule:evenodd;stroke-linecap:round;stroke-linejoin:round;stroke-miterlimit:1.5;" version="1.1" xmlns="http://www.w3.org/2000/svg" xmlns:xlink="http://www.w3.org/1999/xlink"><style id="fontImports">@import url("https://fonts.googleapis.com/css2?family=Shantell+Sans:wght@300..800&amp;display=block");</style><g id="items" style="isolation: isolate"><g id="blend" style="mix-blend-mode:normal"><g id="g-root-3.cu_sy_1d1s088vo4aa4-fill" data-item-order="999850244" data-item-id="3.cu_sy_1d1s088vo4aa4" data-item-class="Part Indexed Fill Stroke" data-item-index="3" data-renderer-id="0" transform="translate(94, 92)"><g id="3.cu_sy_1d1s088vo4aa4-fill" stroke="none" fill="#ecf7d5"><g><path d="M 218.3 12.6L 221.3 12.6L 206.2 32.8L 218.6 32.6ZM 206.2 32.8L 211.3 50.9L 228.2 37.1L 221.3 12.6ZM 228.2 37.1L 211.4 28.5L 194.6 42.3L 211.3 50.9ZM 194.6 42.3L 206.6 83.4L 223.9 71.3L 211.4 28.5ZM 223.9 71.3L 195.2 50.2L 180.3 64.1L 206.6 83.4ZM 180.3 64.1L 207.7 107.7L 222.6 93.7L 195.2 50.2ZM 222.6 93.7L 188.1 69.1L 173.9 83.6L 207.7 107.7ZM 173.9 83.6L 211.4 134L 225.2 119L 188.1 69.1ZM 225.2 119L 179.6 90.4L 166.4 105.8L 211.4 134ZM 166.4 105.8L 209.4 155.1L 222.2 139.4L 179.6 90.4ZM 222.2 139.4L 166 107.3L 153.6 123.2L 209.4 155.1ZM 153.6 123.2L 202.6 174.1L 215.1 158.3L 166 107.3ZM 215.1 158.3L 152.4 121.5L 139 136.8L 202.6 174.1ZM 139 136.8L 184.1 194.2L 197.8 179.3L 152.4 121.5ZM 197.8 179.3L 144.8 144.8L 131.5 160L 184.1 194.2ZM 131.5 160L 176 211.9L 188.4 195.7L 144.8 144.8ZM 188.4 195.7L 130.3 167.6L 119.2 184.4L 176 211.9ZM 119.2 184.4L 170.2 229.2L 181.9 212.9L 130.3 167.6ZM 181.9 212.9L 123.7 179.1L 110.1 194.3L 170.2 229.2ZM 110.1 194.3L 152.5 250.8L 166.1 235.5L 123.7 179.1ZM 166.1 235.5L 113.8 205.3L 100.6 220.7L 152.5 250.8ZM 100.6 220.7L 141.1 270.3L 154.4 255.1L 113.8 205.3ZM 154.4 255.1L 97.3 219.8L 84.3 235.3L 141.1 270.3ZM 84.3 235.3L 129.7 286.1L 142.5 270.5L 97.3 219.8ZM 142.5 270.5L 90.2 239.8L 77.2 255.4L 129.7 286.1ZM 77.2 255.4L 121.5 306.4L 134.6 291L 90.2 239.8ZM 134.6 291L 77 255.9L 62.9 270.6L 121.5 306.4ZM 62.9 270.6L 94.2 317.6L 108.9 303.6L 77 255.9ZM 108.9 303.6L 69.9 275.1L 54.9 288.9L 94.2 317.6ZM 54.9 288.9L 80.7 330.9L 94.5 315.2L 69.9 275.1ZM 94.5 315.2L 56.4 298.3L 42.6 314L 80.7 330.9ZM 42.6 314L 59.1 340.6L 73.3 325.6L 56.4 298.3ZM 73.3 325.6L 50.2 313L 28.8 324.2L 59.1 340.6ZM 28.8 324.2L 25.4 353.5L 46.7 343.9L 50.2 313ZM 46.7 343.9L 36.5 336.8L 14.1 345.5L 25.4 353.5ZM 14.1 345.5L 10 364.8L 31.8 358.2L 36.5 336.8ZM 31.8 358.2L 21 347.7L 7 361.9L 10 364.8Z" fill-rule="nonzero"></path></g></g></g><g id="g-root-3.cu_sy_1d1s088vo4aa4-fill" data-item-order="999850244" data-item-id="3.cu_sy_1d1s088vo4aa4" data-item-class="Part Indexed Fill Stroke" data-item-index="3" data-renderer-id="0" transform="translate(94, 92)"><g id="3.cu_sy_1d1s088vo4aa4-fill" stroke="none" fill="#ecf7d5"><g><path d="M 218.3 12.6L 221.3 12.6L 206.2 32.8L 218.6 32.6ZM 206.2 32.8L 211.3 50.9L 228.2 37.1L 221.3 12.6ZM 228.2 37.1L 211.4 28.5L 194.6 42.3L 211.3 50.9ZM 194.6 42.3L 206.6 83.4L 223.9 71.3L 211.4 28.5ZM 223.9 71.3L 195.2 50.2L 180.3 64.1L 206.6 83.4ZM 180.3 64.1L 207.7 107.7L 222.6 93.7L 195.2 50.2ZM 222.6 93.7L 188.1 69.1L 173.9 83.6L 207.7 107.7ZM 173.9 83.6L 211.4 134L 225.2 119L 188.1 69.1ZM 225.2 119L 179.6 90.4L 166.4 105.8L 211.4 134ZM 166.4 105.8L 209.4 155.1L 222.2 139.4L 179.6 90.4ZM 222.2 139.4L 166 107.3L 153.6 123.2L 209.4 155.1ZM 153.6 123.2L 202.6 174.1L 215.1 158.3L 166 107.3ZM 215.1 158.3L 152.4 121.5L 139 136.8L 202.6 174.1ZM 139 136.8L 184.1 194.2L 197.8 179.3L 152.4 121.5ZM 197.8 179.3L 144.8 144.8L 131.5 160L 184.1 194.2ZM 131.5 160L 176 211.9L 188.4 195.7L 144.8 144.8ZM 188.4 195.7L 130.3 167.6L 119.2 184.4L 176 211.9ZM 119.2 184.4L 170.2 229.2L 181.9 212.9L 130.3 167.6ZM 181.9 212.9L 123.7 179.1L 110.1 194.3L 170.2 229.2ZM 110.1 194.3L 152.5 250.8L 166.1 235.5L 123.7 179.1ZM 166.1 235.5L 113.8 205.3L 100.6 220.7L 152.5 250.8ZM 100.6 220.7L 141.1 270.3L 154.4 255.1L 113.8 205.3ZM 154.4 255.1L 97.3 219.8L 84.3 235.3L 141.1 270.3ZM 84.3 235.3L 129.7 286.1L 142.5 270.5L 97.3 219.8ZM 142.5 270.5L 90.2 239.8L 77.2 255.4L 129.7 286.1ZM 77.2 255.4L 121.5 306.4L 134.6 291L 90.2 239.8ZM 134.6 291L 77 255.9L 62.9 270.6L 121.5 306.4ZM 62.9 270.6L 94.2 317.6L 108.9 303.6L 77 255.9ZM 108.9 303.6L 69.9 275.1L 54.9 288.9L 94.2 317.6ZM 54.9 288.9L 80.7 330.9L 94.5 315.2L 69.9 275.1ZM 94.5 315.2L 56.4 298.3L 42.6 314L 80.7 330.9ZM 42.6 314L 59.1 340.6L 73.3 325.6L 56.4 298.3ZM 73.3 325.6L 50.2 313L 28.8 324.2L 59.1 340.6ZM 28.8 324.2L 25.4 353.5L 46.7 343.9L 50.2 313ZM 46.7 343.9L 36.5 336.8L 14.1 345.5L 25.4 353.5ZM 14.1 345.5L 10 364.8L 31.8 358.2L 36.5 336.8ZM 31.8 358.2L 21 347.7L 7 361.9L 10 364.8Z" fill-rule="nonzero"></path></g></g></g><g id="g-root-2.cu_sy_1lwsje0vo4cn7-fill" data-item-order="999850246" data-item-id="2.cu_sy_1lwsje0vo4cn7" data-item-class="Part Indexed Fill Stroke" data-item-index="2" data-renderer-id="0" transform="translate(94, 380)"><g id="2.cu_sy_1lwsje0vo4cn7-fill" stroke="none" fill="#d5f7e8"><g><path d="M 17.8 68.7L 12.4 76.2L 26.8 90.6L 34.1 80.2ZM 26.8 90.6L 51.8 72.7L 31.4 62.7L 12.4 76.2ZM 31.4 62.7L 32.1 80L 52.4 86.8L 51.8 72.7ZM 52.4 86.8L 78.4 55.5L 58.2 48.5L 32.1 80ZM 58.2 48.5L 59 76L 79.1 79.5L 78.4 55.5ZM 79.1 79.5L 95.1 37.6L 74.6 35.2L 59 76ZM 74.6 35.2L 81 80.3L 101.4 81.8L 95.1 37.6ZM 101.4 81.8L 118.4 23.1L 98.5 20.1L 81 80.3ZM 98.5 20.1L 97.6 76.5L 117.5 80.1L 118.4 23.1ZM 117.5 80.1L 142.4 10.3L 122.6 6.5L 97.6 76.5ZM 122.6 6.5L 119.9 79.1L 139.8 82.8L 142.4 10.3ZM 139.8 82.8L 162.7 15.5L 142.6 12.5L 119.9 79.1ZM 142.6 12.5L 145 76.8L 165.1 80L 162.7 15.5ZM 165.1 80L 189 13.9L 169 10.5L 145 76.8ZM 169 10.5L 169.7 81.4L 189.7 84.1L 189 13.9ZM 189.7 84.1L 211.3 9.1L 191.4 5.7L 169.7 81.4ZM 191.4 5.7L 187.5 75.3L 207.4 78.9L 211.3 9.1ZM 207.4 78.9L 228.8 10.9L 209 7L 187.5 75.3ZM 209 7L 203.2 76.5L 222.9 80.8L 228.8 10.9ZM 222.9 80.8L 246.9 15.6L 227 11.7L 203.2 76.5ZM 227 11.7L 224.8 77.1L 244.6 81.4L 246.9 15.6ZM 244.6 81.4L 272.4 15L 252.3 11.1L 224.8 77.1ZM 252.3 11.1L 253.2 80.7L 273.3 83.6L 272.4 15ZM 273.3 83.6L 294.1 16.6L 274.3 13L 253.2 80.7ZM 274.3 13L 270.6 75.1L 290.3 80.2L 294.1 16.6ZM 290.3 80.2L 319.5 18.5L 299.8 13.5L 270.6 75.1ZM 299.8 13.5L 296.5 74L 316.2 79.3L 319.5 18.5ZM 316.2 79.3L 341.9 28.9L 321.8 24.3L 296.5 74ZM 321.8 24.3L 322.7 74.9L 342.8 79.6L 341.9 28.9ZM 342.8 79.6L 361.3 44L 341.4 38.8L 322.7 74.9ZM 341.4 38.8L 340.1 82L 360 86.2L 361.3 44ZM 360 86.2L 375.7 48.3L 354.9 46.3L 340.1 82ZM 354.9 46.3L 361.3 78.2L 383.3 86L 375.7 48.3ZM 383.3 86L 404.7 68.2L 387.8 56.2L 361.3 78.2ZM 387.8 56.2L 382 71.6L 397.6 86.9L 404.7 68.2ZM 397.6 86.9L 421.7 77L 403.1 63L 382 71.6ZM 403.1 63L 400.6 85.9L 420.5 88L 421.7 77Z" fill-rule="nonzero"></path></g></g></g><g id="g-root-2.cu_sy_1lwsje0vo4cn7-fill" data-item-order="999850246" data-item-id="2.cu_sy_1lwsje0vo4cn7" data-item-class="Part Indexed Fill Stroke" data-item-index="2" data-renderer-id="0" transform="translate(94, 380)"><g id="2.cu_sy_1lwsje0vo4cn7-fill" stroke="none" fill="#d5f7e8"><g><path d="M 17.8 68.7L 12.4 76.2L 26.8 90.6L 34.1 80.2ZM 26.8 90.6L 51.8 72.7L 31.4 62.7L 12.4 76.2ZM 31.4 62.7L 32.1 80L 52.4 86.8L 51.8 72.7ZM 52.4 86.8L 78.4 55.5L 58.2 48.5L 32.1 80ZM 58.2 48.5L 59 76L 79.1 79.5L 78.4 55.5ZM 79.1 79.5L 95.1 37.6L 74.6 35.2L 59 76ZM 74.6 35.2L 81 80.3L 101.4 81.8L 95.1 37.6ZM 101.4 81.8L 118.4 23.1L 98.5 20.1L 81 80.3ZM 98.5 20.1L 97.6 76.5L 117.5 80.1L 118.4 23.1ZM 117.5 80.1L 142.4 10.3L 122.6 6.5L 97.6 76.5ZM 122.6 6.5L 119.9 79.1L 139.8 82.8L 142.4 10.3ZM 139.8 82.8L 162.7 15.5L 142.6 12.5L 119.9 79.1ZM 142.6 12.5L 145 76.8L 165.1 80L 162.7 15.5ZM 165.1 80L 189 13.9L 169 10.5L 145 76.8ZM 169 10.5L 169.7 81.4L 189.7 84.1L 189 13.9ZM 189.7 84.1L 211.3 9.1L 191.4 5.7L 169.7 81.4ZM 191.4 5.7L 187.5 75.3L 207.4 78.9L 211.3 9.1ZM 207.4 78.9L 228.8 10.9L 209 7L 187.5 75.3ZM 209 7L 203.2 76.5L 222.9 80.8L 228.8 10.9ZM 222.9 80.8L 246.9 15.6L 227 11.7L 203.2 76.5ZM 227 11.7L 224.8 77.1L 244.6 81.4L 246.9 15.6ZM 244.6 81.4L 272.4 15L 252.3 11.1L 224.8 77.1ZM 252.3 11.1L 253.2 80.7L 273.3 83.6L 272.4 15ZM 273.3 83.6L 294.1 16.6L 274.3 13L 253.2 80.7ZM 274.3 13L 270.6 75.1L 290.3 80.2L 294.1 16.6ZM 290.3 80.2L 319.5 18.5L 299.8 13.5L 270.6 75.1ZM 299.8 13.5L 296.5 74L 316.2 79.3L 319.5 18.5ZM 316.2 79.3L 341.9 28.9L 321.8 24.3L 296.5 74ZM 321.8 24.3L 322.7 74.9L 342.8 79.6L 341.9 28.9ZM 342.8 79.6L 361.3 44L 341.4 38.8L 322.7 74.9ZM 341.4 38.8L 340.1 82L 360 86.2L 361.3 44ZM 360 86.2L 375.7 48.3L 354.9 46.3L 340.1 82ZM 354.9 46.3L 361.3 78.2L 383.3 86L 375.7 48.3ZM 383.3 86L 404.7 68.2L 387.8 56.2L 361.3 78.2ZM 387.8 56.2L 382 71.6L 397.6 86.9L 404.7 68.2ZM 397.6 86.9L 421.7 77L 403.1 63L 382 71.6ZM 403.1 63L 400.6 85.9L 420.5 88L 421.7 77Z" fill-rule="nonzero"></path></g></g></g><g id="g-root-1.cu_sy_1lwsje0vo4cn6-fill" data-item-order="999850248" data-item-id="1.cu_sy_1lwsje0vo4cn6" data-item-class="Part Indexed Indexed_1 Fill Stroke" data-item-index="1" data-renderer-id="0" transform="translate(302, 92)"><g id="1.cu_sy_1lwsje0vo4cn6-fill" stroke="none" fill="#cef3ff"><g><path d="M 206.9 371.2L 215.5 367.4L 214 346.3L 198.9 352.8ZM 214 346.3L 189.3 339.4L 196.2 362.1L 215.5 367.4ZM 196.2 362.1L 203.8 353.2L 196.4 331L 189.3 339.4ZM 196.4 331L 159.1 322.8L 161.5 343.8L 203.8 353.2ZM 161.5 343.8L 191.5 329.5L 185.9 310L 159.1 322.8ZM 185.9 310L 141.6 315.2L 149.2 334.5L 191.5 329.5ZM 149.2 334.5L 178.5 312.9L 171 293.6L 141.6 315.2ZM 171 293.6L 116.2 299.2L 121.3 318.8L 178.5 312.9ZM 121.3 318.8L 170.3 298.2L 165.3 278.6L 116.2 299.2ZM 165.3 278.6L 95.6 285.7L 101.1 305.3L 170.3 298.2ZM 101.1 305.3L 164 275.4L 156.8 256.7L 95.6 285.7ZM 156.8 256.7L 89.9 276.4L 98.4 294.8L 164 275.4ZM 98.4 294.8L 153.8 258.8L 146.5 239.7L 89.9 276.4ZM 146.5 239.7L 77.2 250.6L 84 269.8L 153.8 258.8ZM 84 269.8L 138.1 238.9L 131 219.9L 77.2 250.6ZM 131 219.9L 63.7 233.1L 70.4 252.2L 138.1 238.9ZM 70.4 252.2L 130.4 220.9L 123.9 201.8L 63.7 233.1ZM 123.9 201.8L 50.9 215.1L 58.3 234.1L 130.4 220.9ZM 58.3 234.1L 114.8 198.5L 107.3 179.5L 50.9 215.1ZM 107.3 179.5L 41.9 191.6L 48.4 210.8L 114.8 198.5ZM 48.4 210.8L 106.9 180.9L 100.6 161.7L 41.9 191.6ZM 100.6 161.7L 31.2 173.4L 37.2 192.6L 106.9 180.9ZM 37.2 192.6L 91.6 166.8L 85.6 147.5L 31.2 173.4ZM 85.6 147.5L 20.5 157.6L 27.7 176.8L 91.6 166.8ZM 27.7 176.8L 87.5 138.9L 79.2 120.5L 20.5 157.6ZM 79.2 120.5L 6.3 141.8L 14.6 160.3L 87.5 138.9ZM 14.6 160.3L 72.6 123.5L 65 104.7L 6.3 141.8ZM 65 104.7L 4.3 117.2L 11.9 136L 72.6 123.5ZM 11.9 136L 60.6 105L 54 85.5L 4.3 117.2ZM 54 85.5L 6.4 89.8L 13.2 109.2L 60.6 105ZM 13.2 109.2L 51.6 83.7L 45.6 63.7L 6.4 89.8ZM 45.6 63.7L 10.5 63.6L 15.3 83.6L 51.6 83.7ZM 15.3 83.6L 39.6 71.1L 38.8 49L 10.5 63.6ZM 38.8 49L 7.9 35.8L 7.7 57.5L 39.6 71.1ZM 7.7 57.5L 28.4 49L 30.1 26.7L 7.9 35.8ZM 30.1 26.7L 7.6 13.3L 6.6 36L 28.4 49ZM 6.6 36L 25.4 26.9L 16.7 8.9L 7.6 13.3Z" fill-rule="nonzero"></path></g></g></g><g id="g-root-1.cu_sy_1lwsje0vo4cn6-fill" data-item-order="999850248" data-item-id="1.cu_sy_1lwsje0vo4cn6" data-item-class="Part Indexed Indexed_1 Fill Stroke" data-item-index="1" data-renderer-id="0" transform="translate(302, 92)"><g id="1.cu_sy_1lwsje0vo4cn6-fill" stroke="none" fill="#cef3ff"><g><path d="M 206.9 371.2L 215.5 367.4L 214 346.3L 198.9 352.8ZM 214 346.3L 189.3 339.4L 196.2 362.1L 215.5 367.4ZM 196.2 362.1L 203.8 353.2L 196.4 331L 189.3 339.4ZM 196.4 331L 159.1 322.8L 161.5 343.8L 203.8 353.2ZM 161.5 343.8L 191.5 329.5L 185.9 310L 159.1 322.8ZM 185.9 310L 141.6 315.2L 149.2 334.5L 191.5 329.5ZM 149.2 334.5L 178.5 312.9L 171 293.6L 141.6 315.2ZM 171 293.6L 116.2 299.2L 121.3 318.8L 178.5 312.9ZM 121.3 318.8L 170.3 298.2L 165.3 278.6L 116.2 299.2ZM 165.3 278.6L 95.6 285.7L 101.1 305.3L 170.3 298.2ZM 101.1 305.3L 164 275.4L 156.8 256.7L 95.6 285.7ZM 156.8 256.7L 89.9 276.4L 98.4 294.8L 164 275.4ZM 98.4 294.8L 153.8 258.8L 146.5 239.7L 89.9 276.4ZM 146.5 239.7L 77.2 250.6L 84 269.8L 153.8 258.8ZM 84 269.8L 138.1 238.9L 131 219.9L 77.2 250.6ZM 131 219.9L 63.7 233.1L 70.4 252.2L 138.1 238.9ZM 70.4 252.2L 130.4 220.9L 123.9 201.8L 63.7 233.1ZM 123.9 201.8L 50.9 215.1L 58.3 234.1L 130.4 220.9ZM 58.3 234.1L 114.8 198.5L 107.3 179.5L 50.9 215.1ZM 107.3 179.5L 41.9 191.6L 48.4 210.8L 114.8 198.5ZM 48.4 210.8L 106.9 180.9L 100.6 161.7L 41.9 191.6ZM 100.6 161.7L 31.2 173.4L 37.2 192.6L 106.9 180.9ZM 37.2 192.6L 91.6 166.8L 85.6 147.5L 31.2 173.4ZM 85.6 147.5L 20.5 157.6L 27.7 176.8L 91.6 166.8ZM 27.7 176.8L 87.5 138.9L 79.2 120.5L 20.5 157.6ZM 79.2 120.5L 6.3 141.8L 14.6 160.3L 87.5 138.9ZM 14.6 160.3L 72.6 123.5L 65 104.7L 6.3 141.8ZM 65 104.7L 4.3 117.2L 11.9 136L 72.6 123.5ZM 11.9 136L 60.6 105L 54 85.5L 4.3 117.2ZM 54 85.5L 6.4 89.8L 13.2 109.2L 60.6 105ZM 13.2 109.2L 51.6 83.7L 45.6 63.7L 6.4 89.8ZM 45.6 63.7L 10.5 63.6L 15.3 83.6L 51.6 83.7ZM 15.3 83.6L 39.6 71.1L 38.8 49L 10.5 63.6ZM 38.8 49L 7.9 35.8L 7.7 57.5L 39.6 71.1ZM 7.7 57.5L 28.4 49L 30.1 26.7L 7.9 35.8ZM 30.1 26.7L 7.6 13.3L 6.6 36L 28.4 49ZM 6.6 36L 25.4 26.9L 16.7 8.9L 7.6 13.3Z" fill-rule="nonzero"></path></g></g></g><g id="g-root-tx_changema_1464zzcvo4bup-fill" data-item-order="1000000000" data-item-id="tx_changema_1464zzcvo4bup" data-item-class="Label Stroke Indexed" data-item-index="3" data-renderer-id="0" transform="translate(14, 170)"><g id="tx_changema_1464zzcvo4bup-fill" stroke="none" fill="#93c131"><g><text style="font: bold 20px &quot;Shantell Sans&quot;, cursive; white-space: pre;" font-weight="bold" font-size="20" font-family="'Shantell Sans', cursive"><tspan x="74.59" y="35.5" dominant-baseline="ideographic">Change </tspan><tspan x="12.92" y="59.5" dominant-baseline="ideographic">Management</tspan></text></g></g></g><g id="g-root-tx_changema_1464zzcvo4bup-fill" data-item-order="1000000000" data-item-id="tx_changema_1464zzcvo4bup" data-item-class="Label Stroke Indexed" data-item-index="3" data-renderer-id="0" transform="translate(14, 170)"><g id="tx_changema_1464zzcvo4bup-fill" stroke="none" fill="#93c131"><g><text style="font: bold 20px &quot;Shantell Sans&quot;, cursive; white-space: pre;" font-weight="bold" font-size="20" font-family="'Shantell Sans', cursive"><tspan x="74.59" y="35.5" dominant-baseline="ideographic">Change </tspan><tspan x="12.92" y="59.5" dominant-baseline="ideographic">Management</tspan></text></g></g></g><g id="g-root-tx_governan_vahzqgvo4cnf-fill" data-item-order="1000000000" data-item-id="tx_governan_vahzqgvo4cnf" data-item-class="Label Stroke Indexed Indexed_1" data-item-index="1" data-renderer-id="0" transform="translate(446, 170)"><g id="tx_governan_vahzqgvo4cnf-fill" stroke="none" fill="#17b0e3"><g><text style="font: bold 20px &quot;Shantell Sans&quot;, cursive; white-space: pre;" font-weight="bold" font-size="20" font-family="'Shantell Sans', cursive"><tspan x="12" y="35.5" dominant-baseline="ideographic">Governance </tspan><tspan x="12" y="59.5" dominant-baseline="ideographic">Framework</tspan></text></g></g></g><g id="g-root-tx_governan_vahzqgvo4cnf-fill" data-item-order="1000000000" data-item-id="tx_governan_vahzqgvo4cnf" data-item-class="Label Stroke Indexed Indexed_1" data-item-index="1" data-renderer-id="0" transform="translate(446, 170)"><g id="tx_governan_vahzqgvo4cnf-fill" stroke="none" fill="#17b0e3"><g><text style="font: bold 20px &quot;Shantell Sans&quot;, cursive; white-space: pre;" font-weight="bold" font-size="20" font-family="'Shantell Sans', cursive"><tspan x="12" y="35.5" dominant-baseline="ideographic">Governance </tspan><tspan x="12" y="59.5" dominant-baseline="ideographic">Framework</tspan></text></g></g></g><g id="g-root-tx_managesc_18lyi3svo4b2e-fill" data-item-order="1000000000" data-item-id="tx_managesc_18lyi3svo4b2e" data-item-class="Label Stroke Indexed ColorFillBlack ColorStrokeBlack" data-item-index="3" data-renderer-id="0" transform="translate(2, 230)"><g id="tx_managesc_18lyi3svo4b2e-fill" stroke="none" fill="#484848"><g><text style="font: 15px &quot;Shantell Sans&quot;, cursive; white-space: pre;" font-weight="15px" font-size="&quot;Shantell" font-family="Sans', cursive"><tspan x="32.37" y="29" dominant-baseline="ideographic">Manages changes </tspan><tspan x="36.89" y="47" dominant-baseline="ideographic">with a structured </tspan><tspan x="20.07" y="65" dominant-baseline="ideographic">process and version </tspan><tspan x="108.58" y="83" dominant-baseline="ideographic">control.</tspan></text></g></g></g><g id="g-root-tx_managesc_18lyi3svo4b2e-fill" data-item-order="1000000000" data-item-id="tx_managesc_18lyi3svo4b2e" data-item-class="Label Stroke Indexed ColorFillBlack ColorStrokeBlack" data-item-index="3" data-renderer-id="0" transform="translate(2, 230)"><g id="tx_managesc_18lyi3svo4b2e-fill" stroke="none" fill="#484848"><g><text style="font: 15px &quot;Shantell Sans&quot;, cursive; white-space: pre;" font-weight="15px" font-size="&quot;Shantell" font-family="Sans', cursive"><tspan x="32.37" y="29" dominant-baseline="ideographic">Manages changes </tspan><tspan x="36.89" y="47" dominant-baseline="ideographic">with a structured </tspan><tspan x="20.07" y="65" dominant-baseline="ideographic">process and version </tspan><tspan x="108.58" y="83" dominant-baseline="ideographic">control.</tspan></text></g></g></g><g id="g-root-tx_establis_1464zzcvo4buo-fill" data-item-order="1000000000" data-item-id="tx_establis_1464zzcvo4buo" data-item-class="Label Stroke Indexed Indexed_1 ColorFillBlack ColorStrokeBlack" data-item-index="1" data-renderer-id="0" transform="translate(446, 230)"><g id="tx_establis_1464zzcvo4buo-fill" stroke="none" fill="#484848"><g><text style="font: 15px &quot;Shantell Sans&quot;, cursive; white-space: pre;" font-weight="15px" font-size="&quot;Shantell" font-family="Sans', cursive"><tspan x="12" y="29" dominant-baseline="ideographic">Establishes policies, </tspan><tspan x="12" y="47" dominant-baseline="ideographic">standards, and </tspan><tspan x="12" y="65" dominant-baseline="ideographic">compliance for API </tspan><tspan x="12" y="83" dominant-baseline="ideographic">governance.</tspan></text></g></g></g><g id="g-root-tx_establis_1464zzcvo4buo-fill" data-item-order="1000000000" data-item-id="tx_establis_1464zzcvo4buo" data-item-class="Label Stroke Indexed Indexed_1 ColorFillBlack ColorStrokeBlack" data-item-index="1" data-renderer-id="0" transform="translate(446, 230)"><g id="tx_establis_1464zzcvo4buo-fill" stroke="none" fill="#484848"><g><text style="font: 15px &quot;Shantell Sans&quot;, cursive; white-space: pre;" font-weight="15px" font-size="&quot;Shantell" font-family="Sans', cursive"><tspan x="12" y="29" dominant-baseline="ideographic">Establishes policies, </tspan><tspan x="12" y="47" dominant-baseline="ideographic">standards, and </tspan><tspan x="12" y="65" dominant-baseline="ideographic">compliance for API </tspan><tspan x="12" y="83" dominant-baseline="ideographic">governance.</tspan></text></g></g></g><g id="g-root-arro_dik6qwvygkr0-fill" data-item-order="1000000000" data-item-id="arro_dik6qwvygkr0" data-item-class="Icon Stroke Indexed InsideFill" data-item-index="3" data-renderer-id="0" transform="translate(206, 260)"></g><g id="g-root-arro_dik6qwvygkr0-fill" data-item-order="1000000000" data-item-id="arro_dik6qwvygkr0" data-item-class="Icon Stroke Indexed InsideFill" data-item-index="3" data-renderer-id="0" transform="translate(206, 260)"></g><g id="g-root-tx_ensuresd_18lyi3svo4b2f-fill" data-item-order="1000000000" data-item-id="tx_ensuresd_18lyi3svo4b2f" data-item-class="Label Stroke Indexed ColorFillBlack ColorStrokeBlack" data-item-index="2" data-renderer-id="0" transform="translate(218, 530)"><g id="tx_ensuresd_18lyi3svo4b2f-fill" stroke="none" fill="#484848"><g><text style="font: 15px &quot;Shantell Sans&quot;, cursive; white-space: pre;" font-weight="15px" font-size="&quot;Shantell" font-family="Sans', cursive"><tspan x="20.86" y="29" dominant-baseline="ideographic">Ensures design and </tspan><tspan x="14.79" y="47" dominant-baseline="ideographic">implementation meet </tspan><tspan x="20.89" y="65" dominant-baseline="ideographic">quality metrics and </tspan><tspan x="52.83" y="83" dominant-baseline="ideographic">standards.</tspan></text></g></g></g><g id="g-root-1_me76zsvygjyb-fill" data-item-order="1000000000" data-item-id="1_me76zsvygjyb" data-item-class="Icon Stroke Indexed Indexed_1 InsideFill" data-item-index="1" data-renderer-id="0" transform="translate(350, 260)"></g><g id="g-root-mana_qu0p48vygj62-fill" data-item-order="1000000000" data-item-id="mana_qu0p48vygj62" data-item-class="Icon Stroke Title" data-item-index="none" data-renderer-id="0" transform="translate(266, 296)"></g><g id="g-root-mana_qu0p48vygj62-fill" data-item-order="1000000000" data-item-id="mana_qu0p48vygj62" data-item-class="Icon Stroke Title" data-item-index="none" data-renderer-id="0" transform="translate(266, 296)"></g><g id="g-root-tx_apigover_1d1s088vo4aa5-fill" data-item-order="1000000000" data-item-id="tx_apigover_1d1s088vo4aa5" data-item-class="Label Stroke Title" data-item-index="none" data-renderer-id="0" transform="translate(188, 2)"><g id="tx_apigover_1d1s088vo4aa5-fill" stroke="none" fill="#484848"><g><text style="font: bold 25px &quot;Shantell Sans&quot;, cursive; white-space: pre;" font-weight="bold" font-size="25" font-family="'Shantell Sans', cursive"><tspan x="17.27" y="44.5" dominant-baseline="ideographic">API Governance</tspan></text></g></g></g><g id="g-root-circ_dik6qwvygkr1-fill" data-item-order="1000000000" data-item-id="circ_dik6qwvygkr1" data-item-class="Icon Stroke Indexed InsideFill" data-item-index="2" data-renderer-id="0" transform="translate(278, 392)"></g><g id="g-root-circ_dik6qwvygkr1-fill" data-item-order="1000000000" data-item-id="circ_dik6qwvygkr1" data-item-class="Icon Stroke Indexed InsideFill" data-item-index="2" data-renderer-id="0" transform="translate(278, 392)"></g><g id="g-root-tx_qualityc_vahzqgvo4cne-fill" data-item-order="1000000000" data-item-id="tx_qualityc_vahzqgvo4cne" data-item-class="Label Stroke Indexed" data-item-index="2" data-renderer-id="0" transform="translate(218, 494)"><g id="tx_qualityc_vahzqgvo4cne-fill" stroke="none" fill="#3bc482"><g><text style="font: bold 20px &quot;Shantell Sans&quot;, cursive; white-space: pre;" font-weight="bold" font-size="20" font-family="'Shantell Sans', cursive"><tspan x="13.62" y="35.5" dominant-baseline="ideographic">Quality Control</tspan></text></g></g></g><g id="g-root-tx_qualityc_vahzqgvo4cne-fill" data-item-order="1000000000" data-item-id="tx_qualityc_vahzqgvo4cne" data-item-class="Label Stroke Indexed" data-item-index="2" data-renderer-id="0" transform="translate(218, 494)"><g id="tx_qualityc_vahzqgvo4cne-fill" stroke="none" fill="#3bc482"><g><text style="font: bold 20px &quot;Shantell Sans&quot;, cursive; white-space: pre;" font-weight="bold" font-size="20" font-family="'Shantell Sans', cursive"><tspan x="13.62" y="35.5" dominant-baseline="ideographic">Quality Control</tspan></text></g></g></g><g id="g-root-tx_ensuresd_18lyi3svo4b2f-fill" data-item-order="1000000000" data-item-id="tx_ensuresd_18lyi3svo4b2f" data-item-class="Label Stroke Indexed ColorFillBlack ColorStrokeBlack" data-item-index="2" data-renderer-id="0" transform="translate(218, 530)"><g id="tx_ensuresd_18lyi3svo4b2f-fill" stroke="none" fill="#484848"><g><text style="font: 15px &quot;Shantell Sans&quot;, cursive; white-space: pre;" font-weight="15px" font-size="&quot;Shantell" font-family="Sans', cursive"><tspan x="20.86" y="29" dominant-baseline="ideographic">Ensures design and </tspan><tspan x="14.79" y="47" dominant-baseline="ideographic">implementation meet </tspan><tspan x="20.89" y="65" dominant-baseline="ideographic">quality metrics and </tspan><tspan x="52.83" y="83" dominant-baseline="ideographic">standards.</tspan></text></g></g></g><g id="g-root-tx_apigover_1d1s088vo4aa5-fill" data-item-order="1000000000" data-item-id="tx_apigover_1d1s088vo4aa5" data-item-class="Label Stroke Title" data-item-index="none" data-renderer-id="0" transform="translate(188, 2)"><g id="tx_apigover_1d1s088vo4aa5-fill" stroke="none" fill="#484848"><g><text style="font: bold 25px &quot;Shantell Sans&quot;, cursive; white-space: pre;" font-weight="bold" font-size="25" font-family="'Shantell Sans', cursive"><tspan x="17.27" y="44.5" dominant-baseline="ideographic">API Governance</tspan></text></g></g></g><g id="g-root-1_me76zsvygjyb-fill" data-item-order="1000000000" data-item-id="1_me76zsvygjyb" data-item-class="Icon Stroke Indexed Indexed_1 InsideFill" data-item-index="1" data-renderer-id="0" transform="translate(350, 260)"></g><g id="g-root-3.cu_sy_1d1s088vo4aa4-stroke" data-item-order="999850244" data-item-id="3.cu_sy_1d1s088vo4aa4" data-item-class="Part Indexed Fill Stroke" data-item-index="3" data-renderer-id="0" transform="translate(94, 92)"><g id="3.cu_sy_1d1s088vo4aa4-stroke" fill="none" stroke-linecap="round" stroke-linejoin="round" stroke-miterlimit="4" stroke="#484848" stroke-width="4"><g><path d="M 218 10C 208.3 23.3 200.6 38.1 193.2 52.9C 185.2 68.7 176.5 84.3 166.6 99C 156 114.7 147.1 131.6 138.1 148.2C 129.6 164 119.2 178.7 111.2 194.8C 103.3 210.8 92.9 225.6 84.4 241.3C 76.8 255.2 69.4 269.3 60.6 282.4C 51.5 296 43.1 310.2 36 325C 28.5 340.6 19.8 355.7 10 370C 29.5 359.8 47.7 347.4 66.5 336.1C 87.7 323.4 108 309.1 130 298C 136.9 285.4 144.3 273.1 151.5 260.7C 159.3 247.2 168.5 234.3 174.8 220.1C 181 206.2 190.3 193.9 197.5 180.6C 204.1 168.5 210.7 156.5 218 145C 219.7 124 216.9 102.8 218 81.8C 219.2 57.9 217.3 33.9 218 10"></path><path d="M 218 10L 10 370L 130 298L 218 145L 218 10Z"></path></g></g></g><g id="g-root-3.cu_sy_1d1s088vo4aa4-stroke" data-item-order="999850244" data-item-id="3.cu_sy_1d1s088vo4aa4" data-item-class="Part Indexed Fill Stroke" data-item-index="3" data-renderer-id="0" transform="translate(94, 92)"><g id="3.cu_sy_1d1s088vo4aa4-stroke" fill="none" stroke-linecap="round" stroke-linejoin="round" stroke-miterlimit="4" stroke="#484848" stroke-width="4"><g><path d="M 218 10C 208.3 23.3 200.6 38.1 193.2 52.9C 185.2 68.7 176.5 84.3 166.6 99C 156 114.7 147.1 131.6 138.1 148.2C 129.6 164 119.2 178.7 111.2 194.8C 103.3 210.8 92.9 225.6 84.4 241.3C 76.8 255.2 69.4 269.3 60.6 282.4C 51.5 296 43.1 310.2 36 325C 28.5 340.6 19.8 355.7 10 370C 29.5 359.8 47.7 347.4 66.5 336.1C 87.7 323.4 108 309.1 130 298C 136.9 285.4 144.3 273.1 151.5 260.7C 159.3 247.2 168.5 234.3 174.8 220.1C 181 206.2 190.3 193.9 197.5 180.6C 204.1 168.5 210.7 156.5 218 145C 219.7 124 216.9 102.8 218 81.8C 219.2 57.9 217.3 33.9 218 10"></path><path d="M 218 10L 10 370L 130 298L 218 145L 218 10Z"></path></g></g></g><g id="g-root-2.cu_sy_1lwsje0vo4cn7-stroke" data-item-order="999850246" data-item-id="2.cu_sy_1lwsje0vo4cn7" data-item-class="Part Indexed Fill Stroke" data-item-index="2" data-renderer-id="0" transform="translate(94, 380)"><g id="2.cu_sy_1lwsje0vo4cn7-stroke" fill="none" stroke-linecap="round" stroke-linejoin="round" stroke-miterlimit="4" stroke="#484848" stroke-width="4"><g><path d="M 426 82C 405.2 81 384.3 83 363.5 82C 343.3 81 323 83.2 302.9 82C 282.4 80.7 261.8 83.9 241.4 82C 221.1 80.1 200.6 81.2 180.3 82C 160.2 82.8 140.1 81.8 120 82C 102.5 82.2 84.9 82 67.4 82C 48.3 82 29.1 83.1 10 82C 32.3 70.5 52.9 55.8 74.7 43.2C 93.3 32.4 112.3 22.2 130 10C 148.8 8.6 167.8 11.6 186.7 10C 206.3 8.3 226.1 9.1 245.8 10C 265.8 10.9 286 8.8 306 10C 316.3 17.6 327.5 24 338.9 29.8C 350 35.3 359.7 43.3 370.7 48.8C 380.9 53.9 389.7 61.4 399.9 66.3C 409 70.8 417.3 76.7 426 82"></path><path d="M 426 82L 10 82L 130 10L 306 10L 426 82Z"></path></g></g></g><g id="g-root-2.cu_sy_1lwsje0vo4cn7-stroke" data-item-order="999850246" data-item-id="2.cu_sy_1lwsje0vo4cn7" data-item-class="Part Indexed Fill Stroke" data-item-index="2" data-renderer-id="0" transform="translate(94, 380)"><g id="2.cu_sy_1lwsje0vo4cn7-stroke" fill="none" stroke-linecap="round" stroke-linejoin="round" stroke-miterlimit="4" stroke="#484848" stroke-width="4"><g><path d="M 426 82C 405.2 81 384.3 83 363.5 82C 343.3 81 323 83.2 302.9 82C 282.4 80.7 261.8 83.9 241.4 82C 221.1 80.1 200.6 81.2 180.3 82C 160.2 82.8 140.1 81.8 120 82C 102.5 82.2 84.9 82 67.4 82C 48.3 82 29.1 83.1 10 82C 32.3 70.5 52.9 55.8 74.7 43.2C 93.3 32.4 112.3 22.2 130 10C 148.8 8.6 167.8 11.6 186.7 10C 206.3 8.3 226.1 9.1 245.8 10C 265.8 10.9 286 8.8 306 10C 316.3 17.6 327.5 24 338.9 29.8C 350 35.3 359.7 43.3 370.7 48.8C 380.9 53.9 389.7 61.4 399.9 66.3C 409 70.8 417.3 76.7 426 82"></path><path d="M 426 82L 10 82L 130 10L 306 10L 426 82Z"></path></g></g></g><g id="g-root-1.cu_sy_1lwsje0vo4cn6-stroke" data-item-order="999850248" data-item-id="1.cu_sy_1lwsje0vo4cn6" data-item-class="Part Indexed Indexed_1 Fill Stroke" data-item-index="1" data-renderer-id="0" transform="translate(302, 92)"><g id="1.cu_sy_1lwsje0vo4cn6-stroke" fill="none" stroke-linecap="round" stroke-linejoin="round" stroke-miterlimit="4" stroke="#484848" stroke-width="4"><g><path d="M 10 10C 23.6 31.1 33.5 54.4 47.6 75.1C 64.2 99.4 76.6 126.3 91.7 151.5C 105.3 174.1 118.3 197 131.3 219.9C 145.9 245.6 160 271.5 175.5 296.5C 190.5 320.5 203 346 218 370C 205.9 362.8 194.5 354.5 181.9 348.3C 165.8 340.4 151.5 329.5 135.9 320.7C 123.1 313.5 110.8 305.2 98 298C 90.3 281 78.2 266.3 70.1 249.5C 61.3 231.3 50.2 214.5 40 197.1C 29.8 179.9 21.6 161.3 10 145C 10 128.5 9.8 112.1 10 95.6C 10.2 82.1 11.7 68.6 10 55.3C 8.1 40.3 11.6 25 10 10"></path><path d="M 10 10L 218 370L 98 298L 10 145L 10 10Z"></path></g></g></g><g id="g-root-1.cu_sy_1lwsje0vo4cn6-stroke" data-item-order="999850248" data-item-id="1.cu_sy_1lwsje0vo4cn6" data-item-class="Part Indexed Indexed_1 Fill Stroke" data-item-index="1" data-renderer-id="0" transform="translate(302, 92)"><g id="1.cu_sy_1lwsje0vo4cn6-stroke" fill="none" stroke-linecap="round" stroke-linejoin="round" stroke-miterlimit="4" stroke="#484848" stroke-width="4"><g><path d="M 10 10C 23.6 31.1 33.5 54.4 47.6 75.1C 64.2 99.4 76.6 126.3 91.7 151.5C 105.3 174.1 118.3 197 131.3 219.9C 145.9 245.6 160 271.5 175.5 296.5C 190.5 320.5 203 346 218 370C 205.9 362.8 194.5 354.5 181.9 348.3C 165.8 340.4 151.5 329.5 135.9 320.7C 123.1 313.5 110.8 305.2 98 298C 90.3 281 78.2 266.3 70.1 249.5C 61.3 231.3 50.2 214.5 40 197.1C 29.8 179.9 21.6 161.3 10 145C 10 128.5 9.8 112.1 10 95.6C 10.2 82.1 11.7 68.6 10 55.3C 8.1 40.3 11.6 25 10 10"></path><path d="M 10 10L 218 370L 98 298L 10 145L 10 10Z"></path></g></g></g><g id="g-root-tx_changema_1464zzcvo4bup-stroke" data-item-order="1000000000" data-item-id="tx_changema_1464zzcvo4bup" data-item-class="Label Stroke Indexed" data-item-index="3" data-renderer-id="0" transform="translate(14, 170)"></g><g id="g-root-tx_changema_1464zzcvo4bup-stroke" data-item-order="1000000000" data-item-id="tx_changema_1464zzcvo4bup" data-item-class="Label Stroke Indexed" data-item-index="3" data-renderer-id="0" transform="translate(14, 170)"></g><g id="g-root-tx_governan_vahzqgvo4cnf-stroke" data-item-order="1000000000" data-item-id="tx_governan_vahzqgvo4cnf" data-item-class="Label Stroke Indexed Indexed_1" data-item-index="1" data-renderer-id="0" transform="translate(446, 170)"></g><g id="g-root-tx_governan_vahzqgvo4cnf-stroke" data-item-order="1000000000" data-item-id="tx_governan_vahzqgvo4cnf" data-item-class="Label Stroke Indexed Indexed_1" data-item-index="1" data-renderer-id="0" transform="translate(446, 170)"></g><g id="g-root-tx_managesc_18lyi3svo4b2e-stroke" data-item-order="1000000000" data-item-id="tx_managesc_18lyi3svo4b2e" data-item-class="Label Stroke Indexed ColorFillBlack ColorStrokeBlack" data-item-index="3" data-renderer-id="0" transform="translate(2, 230)"></g><g id="g-root-tx_managesc_18lyi3svo4b2e-stroke" data-item-order="1000000000" data-item-id="tx_managesc_18lyi3svo4b2e" data-item-class="Label Stroke Indexed ColorFillBlack ColorStrokeBlack" data-item-index="3" data-renderer-id="0" transform="translate(2, 230)"></g><g id="g-root-tx_establis_1464zzcvo4buo-stroke" data-item-order="1000000000" data-item-id="tx_establis_1464zzcvo4buo" data-item-class="Label Stroke Indexed Indexed_1 ColorFillBlack ColorStrokeBlack" data-item-index="1" data-renderer-id="0" transform="translate(446, 230)"></g><g id="g-root-tx_establis_1464zzcvo4buo-stroke" data-item-order="1000000000" data-item-id="tx_establis_1464zzcvo4buo" data-item-class="Label Stroke Indexed Indexed_1 ColorFillBlack ColorStrokeBlack" data-item-index="1" data-renderer-id="0" transform="translate(446, 230)"></g><g id="g-root-arro_dik6qwvygkr0-stroke" data-item-order="1000000000" data-item-id="arro_dik6qwvygkr0" data-item-class="Icon Stroke Indexed InsideFill" data-item-index="3" data-renderer-id="0" transform="translate(206, 260)"><g id="arro_dik6qwvygkr0-stroke" fill="none" stroke-linecap="round" stroke-linejoin="round" stroke-miterlimit="4" stroke="#484848" stroke-width="2"><g><path d="M 44 44C 43.400002 46.200001 46 48.799999 48.200001 48.200001C 50.400002 47.599998 52.200001 46.200001 52.400002 44C 52.599998 41.799999 50.599998 40.200001 48.200001 39.799999C 46 39.599998 44.400002 41.799999 44 44M 45.400002 56.599998C 49 57.599998 52.799999 56.400002 56.599998 56.599998C 56.799999 53.799999 54.200001 50.799999 51.599998 50.799999C 49 50.599998 46.200001 49.599998 44 51.200001M 15.6 44C 15 46.200001 17.4 48.200001 19.799999 48.200001C 22 48.200001 23.4 46.200001 24 44C 24.6 41.799999 22 40 19.799999 39.799999C 17.4 39.599998 16 41.799999 15.6 44M 22.4 56.599998C 19 57.799999 15.2 56.599998 11.4 56.599998C 11.6 53.799999 14.4 52.400002 16.4 50.799999C 18.4 49 21.4 50.200001 24 51.200001M 44.200001 56.599998C 44.200001 52.799999 41.799999 50 39.200001 47.599998C 36.400002 45 31.6 45.200001 28.799999 47.599998C 26 50 23.799999 52.799999 23.799999 56.400002C 30.4 54.799999 37.599998 58.400002 44.200001 56.599998M 28.6 34.400002C 30.6 38.200001 36.200001 38.599998 39.799999 36.799999M 27.799999 37.599998C 28.4 40.799999 30.6 44 33.799999 43.599998C 37.200001 43.200001 40.799999 40.799999 39.799999 37.599998C 39 34.400002 37.200001 31 33.799999 31.6C 30.6 32 28.6 34.200001 27.799999 37.599998M 47 35.599998C 47 35.599998 40.799999 29.6 41 24.6C 44 24.799999 47 24.200001 50 24.6C 45.599998 19.200001 40 14.8 34 11.6C 28 14.8 23 19.799999 18 24.6C 21 24.4 24 24.799999 27 24.6C 27.799999 29.4 21 35.599998 21 35.599998"></path><path d="M 44.066002 44C 44.065998 46.300819 45.931183 48.166 48.231998 48.166C 50.532818 48.166 52.397999 46.300819 52.397999 44C 52.397999 41.699181 50.532818 39.834 48.231998 39.834C 45.931183 39.834 44.065998 41.699181 44.065998 44M 45.453999 56.5L 56.563999 56.5C 55.899048 53.89912 54.057701 51.757942 51.585693 50.711067C 49.113686 49.664192 46.294624 49.831722 43.964001 51.164001M 15.602 44C 15.602 46.300819 17.467182 48.166 19.768 48.166C 22.068817 48.166 23.934 46.300819 23.934 44C 23.934 41.699181 22.068817 39.834 19.768 39.834C 17.467182 39.834 15.602 41.699181 15.602 44M 22.487999 56.5L 11.436 56.5C 12.098295 53.912041 13.925614 51.778793 16.381168 50.726917C 18.836721 49.675037 21.641655 49.823986 23.972 51.130005M 44.158001 56.5C 44.209476 52.827229 42.279564 49.411205 39.107155 47.559803C 35.934746 45.708397 32.011253 45.708397 28.838844 47.559803C 25.666435 49.411205 23.736523 52.827229 23.787998 56.499996ZM 28.684 34.461998C 31.572502 37.455845 36.012802 38.348686 39.834 36.704002M 27.85 37.517998C 27.85 40.841652 30.544352 43.536003 33.868004 43.536003C 37.19165 43.536003 39.886002 40.841652 39.886002 37.518002C 39.886002 34.194351 37.19165 31.500002 33.868004 31.500002C 30.544352 31.500002 27.85 34.194351 27.85 37.518002M 46.972 35.5C 46.972 35.5 40.972 29.5 40.972 24.5L 49.972 24.5L 33.972 11.5L 17.972 24.5L 26.972 24.5C 26.972 29.5 20.972 35.5 20.972 35.5"></path></g></g></g><g id="g-root-arro_dik6qwvygkr0-stroke" data-item-order="1000000000" data-item-id="arro_dik6qwvygkr0" data-item-class="Icon Stroke Indexed InsideFill" data-item-index="3" data-renderer-id="0" transform="translate(206, 260)"><g id="arro_dik6qwvygkr0-stroke" fill="none" stroke-linecap="round" stroke-linejoin="round" stroke-miterlimit="4" stroke="#484848" stroke-width="2"><g><path d="M 44 44C 43.400002 46.200001 46 48.799999 48.200001 48.200001C 50.400002 47.599998 52.200001 46.200001 52.400002 44C 52.599998 41.799999 50.599998 40.200001 48.200001 39.799999C 46 39.599998 44.400002 41.799999 44 44M 45.400002 56.599998C 49 57.599998 52.799999 56.400002 56.599998 56.599998C 56.799999 53.799999 54.200001 50.799999 51.599998 50.799999C 49 50.599998 46.200001 49.599998 44 51.200001M 15.6 44C 15 46.200001 17.4 48.200001 19.799999 48.200001C 22 48.200001 23.4 46.200001 24 44C 24.6 41.799999 22 40 19.799999 39.799999C 17.4 39.599998 16 41.799999 15.6 44M 22.4 56.599998C 19 57.799999 15.2 56.599998 11.4 56.599998C 11.6 53.799999 14.4 52.400002 16.4 50.799999C 18.4 49 21.4 50.200001 24 51.200001M 44.200001 56.599998C 44.200001 52.799999 41.799999 50 39.200001 47.599998C 36.400002 45 31.6 45.200001 28.799999 47.599998C 26 50 23.799999 52.799999 23.799999 56.400002C 30.4 54.799999 37.599998 58.400002 44.200001 56.599998M 28.6 34.400002C 30.6 38.200001 36.200001 38.599998 39.799999 36.799999M 27.799999 37.599998C 28.4 40.799999 30.6 44 33.799999 43.599998C 37.200001 43.200001 40.799999 40.799999 39.799999 37.599998C 39 34.400002 37.200001 31 33.799999 31.6C 30.6 32 28.6 34.200001 27.799999 37.599998M 47 35.599998C 47 35.599998 40.799999 29.6 41 24.6C 44 24.799999 47 24.200001 50 24.6C 45.599998 19.200001 40 14.8 34 11.6C 28 14.8 23 19.799999 18 24.6C 21 24.4 24 24.799999 27 24.6C 27.799999 29.4 21 35.599998 21 35.599998"></path><path d="M 44.066002 44C 44.065998 46.300819 45.931183 48.166 48.231998 48.166C 50.532818 48.166 52.397999 46.300819 52.397999 44C 52.397999 41.699181 50.532818 39.834 48.231998 39.834C 45.931183 39.834 44.065998 41.699181 44.065998 44M 45.453999 56.5L 56.563999 56.5C 55.899048 53.89912 54.057701 51.757942 51.585693 50.711067C 49.113686 49.664192 46.294624 49.831722 43.964001 51.164001M 15.602 44C 15.602 46.300819 17.467182 48.166 19.768 48.166C 22.068817 48.166 23.934 46.300819 23.934 44C 23.934 41.699181 22.068817 39.834 19.768 39.834C 17.467182 39.834 15.602 41.699181 15.602 44M 22.487999 56.5L 11.436 56.5C 12.098295 53.912041 13.925614 51.778793 16.381168 50.726917C 18.836721 49.675037 21.641655 49.823986 23.972 51.130005M 44.158001 56.5C 44.209476 52.827229 42.279564 49.411205 39.107155 47.559803C 35.934746 45.708397 32.011253 45.708397 28.838844 47.559803C 25.666435 49.411205 23.736523 52.827229 23.787998 56.499996ZM 28.684 34.461998C 31.572502 37.455845 36.012802 38.348686 39.834 36.704002M 27.85 37.517998C 27.85 40.841652 30.544352 43.536003 33.868004 43.536003C 37.19165 43.536003 39.886002 40.841652 39.886002 37.518002C 39.886002 34.194351 37.19165 31.500002 33.868004 31.500002C 30.544352 31.500002 27.85 34.194351 27.85 37.518002M 46.972 35.5C 46.972 35.5 40.972 29.5 40.972 24.5L 49.972 24.5L 33.972 11.5L 17.972 24.5L 26.972 24.5C 26.972 29.5 20.972 35.5 20.972 35.5"></path></g></g></g><g id="g-root-tx_ensuresd_18lyi3svo4b2f-stroke" data-item-order="1000000000" data-item-id="tx_ensuresd_18lyi3svo4b2f" data-item-class="Label Stroke Indexed ColorFillBlack ColorStrokeBlack" data-item-index="2" data-renderer-id="0" transform="translate(218, 530)"></g><g id="g-root-1_me76zsvygjyb-stroke" data-item-order="1000000000" data-item-id="1_me76zsvygjyb" data-item-class="Icon Stroke Indexed Indexed_1 InsideFill" data-item-index="1" data-renderer-id="0" transform="translate(350, 260)"><g id="1_me76zsvygjyb-stroke" fill="none" stroke-linecap="round" stroke-linejoin="round" stroke-miterlimit="4" stroke="#484848" stroke-width="2"><g><path d="M 27 57C 22.6 55.400002 17.6 57.400002 13 57C 11.8 57 11 56 11 55C 11.6 41 8.4 26.799999 11 13C 11.2 12 12 10.6 13 11C 21.200001 14.2 31 13.2 39.599998 11C 40 10.8 40.799999 11.2 41 11.6C 42.799999 14.6 45.400002 17.4 48.400002 19C 48.799999 19.200001 49.200001 19.799999 49 20.4C 48.400002 23.200001 49.599998 26.200001 49 29M 23 24C 20.799999 25.6 19 28 17 30C 18.200001 32.599998 21 34 23 36M 29 24C 31.200001 25.799999 33.400002 27.6 35 30C 32.799999 31.6 31.6 34.599998 29 36M 48.200001 40.200001C 50 41.599998 52.400002 41.799999 54.200001 43C 55.799999 41.400002 56.400002 39 57 36.799999M 32.599998 40.599998C 32.799999 35.400002 39.400002 34.400002 44.400002 33C 49.400002 31.6 55.400002 37.799999 54.200001 43M 38.799999 49.799999C 37 48.400002 34.599998 48 32.599998 47C 31.6 49 31.4 51.400002 30 53.200001M 54.400002 49.400002C 52.400002 54.400002 47.400002 58.799999 42.599998 57C 37.599998 55 32.400002 52.200001 32.599998 47"></path><path d="M 27 57L 13 57C 11.895431 57 11 56.104568 11 55L 11 13C 11 11.895431 11.895431 11 13 11L 39.580002 11C 40.111607 10.996926 40.622562 11.205627 41 11.58L 48.419998 19C 48.794373 19.377438 49.003075 19.888393 49 20.42L 49 29M 23 24L 17 30L 23 36M 29 24L 35 30L 29 36M 48.18 40.279999L 54.259998 43L 57 36.860001M 32.639999 40.540001C 34.334137 35.591965 39.24229 32.488663 44.438786 33.079941C 49.635284 33.671219 53.720791 37.797844 54.260002 43M 38.760002 49.720001L 32.68 47L 29.940001 53.139999M 54.299999 49.459999C 52.605865 54.408039 47.697712 57.511337 42.501217 56.920063C 37.304718 56.328785 33.219208 52.202156 32.68 47"></path></g></g></g><g id="g-root-mana_qu0p48vygj62-stroke" data-item-order="1000000000" data-item-id="mana_qu0p48vygj62" data-item-class="Icon Stroke Title" data-item-index="none" data-renderer-id="0" transform="translate(266, 296)"><g id="mana_qu0p48vygj62-stroke" fill="none" stroke-linecap="round" stroke-linejoin="round" stroke-miterlimit="4" stroke="#484848" stroke-width="2"><g><path d="M 36.099998 54.699997C 42.699997 53.800003 49.300003 54.099998 55.900002 54.699997C 56.800003 63.399998 58 72.100006 55.900002 80.5C 49.300003 80.199997 42.400002 78.100006 36.099998 80.5C 37.900002 72.100006 37.300003 63.399998 36.099998 54.699997M 27.099998 33.099998C 31.299999 36.699997 33.700001 41.800003 36.099998 46.900002C 42.699997 47.800003 49.300003 47.800003 55.900002 46.900002C 57.699997 41.5 63.100002 38.199997 64.899994 33.099998C 52.599998 30.400002 39.699997 33.400002 27.099998 33.099998M 70 25.299999C 73 20.200001 76 14.8 80.5 11.5C 57.699997 8.2 34.300003 15.1 11.5 11.5C 16.6 14.5 19.6 19.9 22 25.299999C 37.900002 25.900002 54.099998 24.099998 70 25.299999"></path><path d="M 36.034 54.736L 55.966003 54.736L 55.966003 80.5L 36.034 80.5ZM 27.198999 32.965L 36.034 46.764999L 55.966 46.764999L 64.801003 32.965L 27.198999 32.965ZM 69.945999 25.153L 80.5 11.5L 11.5 11.5L 22.054001 25.153L 69.945999 25.153Z"></path></g></g></g><g id="g-root-mana_qu0p48vygj62-stroke" data-item-order="1000000000" data-item-id="mana_qu0p48vygj62" data-item-class="Icon Stroke Title" data-item-index="none" data-renderer-id="0" transform="translate(266, 296)"><g id="mana_qu0p48vygj62-stroke" fill="none" stroke-linecap="round" stroke-linejoin="round" stroke-miterlimit="4" stroke="#484848" stroke-width="2"><g><path d="M 36.099998 54.699997C 42.699997 53.800003 49.300003 54.099998 55.900002 54.699997C 56.800003 63.399998 58 72.100006 55.900002 80.5C 49.300003 80.199997 42.400002 78.100006 36.099998 80.5C 37.900002 72.100006 37.300003 63.399998 36.099998 54.699997M 27.099998 33.099998C 31.299999 36.699997 33.700001 41.800003 36.099998 46.900002C 42.699997 47.800003 49.300003 47.800003 55.900002 46.900002C 57.699997 41.5 63.100002 38.199997 64.899994 33.099998C 52.599998 30.400002 39.699997 33.400002 27.099998 33.099998M 70 25.299999C 73 20.200001 76 14.8 80.5 11.5C 57.699997 8.2 34.300003 15.1 11.5 11.5C 16.6 14.5 19.6 19.9 22 25.299999C 37.900002 25.900002 54.099998 24.099998 70 25.299999"></path><path d="M 36.034 54.736L 55.966003 54.736L 55.966003 80.5L 36.034 80.5ZM 27.198999 32.965L 36.034 46.764999L 55.966 46.764999L 64.801003 32.965L 27.198999 32.965ZM 69.945999 25.153L 80.5 11.5L 11.5 11.5L 22.054001 25.153L 69.945999 25.153Z"></path></g></g></g><g id="g-root-tx_apigover_1d1s088vo4aa5-stroke" data-item-order="1000000000" data-item-id="tx_apigover_1d1s088vo4aa5" data-item-class="Label Stroke Title" data-item-index="none" data-renderer-id="0" transform="translate(188, 2)"></g><g id="g-root-circ_dik6qwvygkr1-stroke" data-item-order="1000000000" data-item-id="circ_dik6qwvygkr1" data-item-class="Icon Stroke Indexed InsideFill" data-item-index="2" data-renderer-id="0" transform="translate(278, 392)"><g id="circ_dik6qwvygkr1-stroke" fill="none" stroke-linecap="round" stroke-linejoin="round" stroke-miterlimit="4" stroke="#484848" stroke-width="2"><g><path d="M 23.714287 37.428574C 25.085714 40.171429 27.828571 41.885715 30.914286 42.914288C 31.257143 43.257141 31.6 43.600002 31.942858 43.257141C 32.628571 43.257141 32.971428 42.914288 33.314285 42.57143C 37.428574 36.399998 38.457146 28.171429 44.285713 23.714287M 11.714286 34C 14.8 46 21.657143 55.600002 34 56.285713C 46.342857 56.971428 55.942856 46.342857 56.285713 34C 56.628574 21.657143 45.657143 15.142858 34 11.714286C 22 8.285714 12.742857 21.657143 11.714286 34"></path><path d="M 23.714287 37.428574L 30.742859 43.05143C 31.125132 43.36623 31.628839 43.492157 32.114285 43.394287C 32.60397 43.302429 33.029465 43.002079 33.279999 42.57143L 44.285713 23.714287M 11.714286 34C 11.714287 46.308064 21.69194 56.285713 34 56.285713C 46.308064 56.285713 56.285713 46.308064 56.285713 34C 56.285713 21.69194 46.308064 11.714287 34 11.714287C 21.69194 11.714287 11.714287 21.69194 11.714287 34"></path></g></g></g><g id="g-root-circ_dik6qwvygkr1-stroke" data-item-order="1000000000" data-item-id="circ_dik6qwvygkr1" data-item-class="Icon Stroke Indexed InsideFill" data-item-index="2" data-renderer-id="0" transform="translate(278, 392)"><g id="circ_dik6qwvygkr1-stroke" fill="none" stroke-linecap="round" stroke-linejoin="round" stroke-miterlimit="4" stroke="#484848" stroke-width="2"><g><path d="M 23.714287 37.428574C 25.085714 40.171429 27.828571 41.885715 30.914286 42.914288C 31.257143 43.257141 31.6 43.600002 31.942858 43.257141C 32.628571 43.257141 32.971428 42.914288 33.314285 42.57143C 37.428574 36.399998 38.457146 28.171429 44.285713 23.714287M 11.714286 34C 14.8 46 21.657143 55.600002 34 56.285713C 46.342857 56.971428 55.942856 46.342857 56.285713 34C 56.628574 21.657143 45.657143 15.142858 34 11.714286C 22 8.285714 12.742857 21.657143 11.714286 34"></path><path d="M 23.714287 37.428574L 30.742859 43.05143C 31.125132 43.36623 31.628839 43.492157 32.114285 43.394287C 32.60397 43.302429 33.029465 43.002079 33.279999 42.57143L 44.285713 23.714287M 11.714286 34C 11.714287 46.308064 21.69194 56.285713 34 56.285713C 46.308064 56.285713 56.285713 46.308064 56.285713 34C 56.285713 21.69194 46.308064 11.714287 34 11.714287C 21.69194 11.714287 11.714287 21.69194 11.714287 34"></path></g></g></g><g id="g-root-tx_qualityc_vahzqgvo4cne-stroke" data-item-order="1000000000" data-item-id="tx_qualityc_vahzqgvo4cne" data-item-class="Label Stroke Indexed" data-item-index="2" data-renderer-id="0" transform="translate(218, 494)"></g><g id="g-root-tx_qualityc_vahzqgvo4cne-stroke" data-item-order="1000000000" data-item-id="tx_qualityc_vahzqgvo4cne" data-item-class="Label Stroke Indexed" data-item-index="2" data-renderer-id="0" transform="translate(218, 494)"></g><g id="g-root-tx_ensuresd_18lyi3svo4b2f-stroke" data-item-order="1000000000" data-item-id="tx_ensuresd_18lyi3svo4b2f" data-item-class="Label Stroke Indexed ColorFillBlack ColorStrokeBlack" data-item-index="2" data-renderer-id="0" transform="translate(218, 530)"></g><g id="g-root-tx_apigover_1d1s088vo4aa5-stroke" data-item-order="1000000000" data-item-id="tx_apigover_1d1s088vo4aa5" data-item-class="Label Stroke Title" data-item-index="none" data-renderer-id="0" transform="translate(188, 2)"></g><g id="g-root-1_me76zsvygjyb-stroke" data-item-order="1000000000" data-item-id="1_me76zsvygjyb" data-item-class="Icon Stroke Indexed Indexed_1 InsideFill" data-item-index="1" data-renderer-id="0" transform="translate(350, 260)"><g id="1_me76zsvygjyb-stroke" fill="none" stroke-linecap="round" stroke-linejoin="round" stroke-miterlimit="4" stroke="#484848" stroke-width="2"><g><path d="M 27 57C 22.6 55.400002 17.6 57.400002 13 57C 11.8 57 11 56 11 55C 11.6 41 8.4 26.799999 11 13C 11.2 12 12 10.6 13 11C 21.200001 14.2 31 13.2 39.599998 11C 40 10.8 40.799999 11.2 41 11.6C 42.799999 14.6 45.400002 17.4 48.400002 19C 48.799999 19.200001 49.200001 19.799999 49 20.4C 48.400002 23.200001 49.599998 26.200001 49 29M 23 24C 20.799999 25.6 19 28 17 30C 18.200001 32.599998 21 34 23 36M 29 24C 31.200001 25.799999 33.400002 27.6 35 30C 32.799999 31.6 31.6 34.599998 29 36M 48.200001 40.200001C 50 41.599998 52.400002 41.799999 54.200001 43C 55.799999 41.400002 56.400002 39 57 36.799999M 32.599998 40.599998C 32.799999 35.400002 39.400002 34.400002 44.400002 33C 49.400002 31.6 55.400002 37.799999 54.200001 43M 38.799999 49.799999C 37 48.400002 34.599998 48 32.599998 47C 31.6 49 31.4 51.400002 30 53.200001M 54.400002 49.400002C 52.400002 54.400002 47.400002 58.799999 42.599998 57C 37.599998 55 32.400002 52.200001 32.599998 47"></path><path d="M 27 57L 13 57C 11.895431 57 11 56.104568 11 55L 11 13C 11 11.895431 11.895431 11 13 11L 39.580002 11C 40.111607 10.996926 40.622562 11.205627 41 11.58L 48.419998 19C 48.794373 19.377438 49.003075 19.888393 49 20.42L 49 29M 23 24L 17 30L 23 36M 29 24L 35 30L 29 36M 48.18 40.279999L 54.259998 43L 57 36.860001M 32.639999 40.540001C 34.334137 35.591965 39.24229 32.488663 44.438786 33.079941C 49.635284 33.671219 53.720791 37.797844 54.260002 43M 38.760002 49.720001L 32.68 47L 29.940001 53.139999M 54.299999 49.459999C 52.605865 54.408039 47.697712 57.511337 42.501217 56.920063C 37.304718 56.328785 33.219208 52.202156 32.68 47"></path></g></g></g></g></g></svg>