<?xml version="1.0" encoding="utf-8" standalone="yes"?>
<!DOCTYPE svg PUBLIC "-//W3C//DTD SVG 1.1//EN" "http://www.w3.org/Graphics/SVG/1.1/DTD/svg11.dtd">
<svg width="746" height="590" viewBox="0 0 746 590" style="fill:none;stroke:none;fill-rule:evenodd;clip-rule:evenodd;stroke-linecap:round;stroke-linejoin:round;stroke-miterlimit:1.5;" version="1.1" xmlns="http://www.w3.org/2000/svg" xmlns:xlink="http://www.w3.org/1999/xlink"><style id="fontImports">@import url("https://fonts.googleapis.com/css2?family=Shantell+Sans:wght@300..800&amp;display=block");</style><g id="items" style="isolation: isolate"><g id="blend" style="mix-blend-mode:normal"><g id="g-root-5.cu_sy_4lobgoxc4pvr-fill" data-item-order="999757940" data-item-id="5.cu_sy_4lobgoxc4pvr" data-item-class="Part Indexed Fill Stroke" data-item-index="5" data-renderer-id="0" transform="translate(230, 74)"><g id="5.cu_sy_4lobgoxc4pvr-fill" stroke="none" fill="#cedfff"><g><path d="M 244.4 517.7L 250 513.2L 237.4 497.6L 231.9 502.1ZM 263.8 518.3L 283.3 519.7L 284.7 499.7L 265.2 498.3ZM 166.7 494.9L 199.9 498.5L 202 478.7L 168.9 475ZM 326.3 490.1L 356.9 491.2L 357.6 471.2L 327 470.1ZM 125 472.9L 146.5 475.1L 151 455.4L 126.9 453ZM 151 455.4L 99.2 436.4L 99.6 457.8L 146.5 475.1ZM 99.6 457.8L 111.8 452.9L 111.9 431.3L 99.2 436.4ZM 111.9 431.3L 86 420.6L 82.6 440.9L 111.8 452.9ZM 82.6 440.9L 93.7 440.2L 99.4 419.9L 86 420.6ZM 99.4 419.9L 63.6 395.7L 58.2 416.1L 93.7 440.2ZM 58.2 416.1L 72.8 415L 78.4 394.6L 63.6 395.7ZM 78.4 394.6L 49.8 374.6L 43.6 394.6L 72.8 415ZM 43.6 394.6L 65.4 394.6L 72 374.5L 49.8 374.6ZM 72 374.5L 42.4 352.8L 37.1 373.7L 65.4 394.6ZM 37.1 373.7L 58.3 370.8L 61.9 350.1L 42.4 352.8ZM 61.9 350.1L 25.5 331.5L 22.6 352.4L 58.3 370.8ZM 22.6 352.4L 56.6 345.6L 58.7 324.8L 25.5 331.5ZM 58.7 324.8L 18 307.6L 15.7 328.3L 56.6 345.6ZM 15.7 328.3L 47 322.7L 50.5 301.7L 18 307.6ZM 50.5 301.7L 22 285.6L 16.9 305.7L 47 322.7ZM 16.9 305.7L 44.4 305.2L 49.3 285.1L 22 285.6ZM 49.3 285.1L 11.7 265L 6.9 285.1L 44.4 305.2ZM 6.9 285.1L 52 284L 57.1 263.9L 11.7 265ZM 57.1 263.9L 14 239L 7.7 258.5L 52 284ZM 7.7 258.5L 54 263.3L 60.1 243.9L 14 239ZM 60.1 243.9L 12.1 217.5L 6.4 237.2L 54 263.3ZM 6.4 237.2L 61.6 240.8L 67.7 221.2L 12.1 217.5ZM 67.7 221.2L 24.5 195.1L 18.9 215.2L 61.6 240.8ZM 18.9 215.2L 74.9 215L 78.1 195L 24.5 195.1ZM 78.1 195L 20.3 175.6L 17.3 195.7L 74.9 215ZM 17.3 195.7L 85.3 193.5L 88.4 173.4L 20.3 175.6ZM 88.4 173.4L 31.9 153.2L 28.8 173.3L 85.3 193.5ZM 28.8 173.3L 106 170.5L 108.6 150.4L 31.9 153.2ZM 108.6 150.4L 42.4 130.6L 40 150.8L 106 170.5ZM 40 150.8L 123.8 146.4L 125.5 126.3L 42.4 130.6ZM 125.5 126.3L 56 110.8L 54.3 130.9L 123.8 146.4ZM 54.3 130.9L 155.3 125.1L 157.7 104.9L 56 110.8ZM 157.7 104.9L 80.9 82.1L 78.1 102.2L 155.3 125.1ZM 78.1 102.2L 244.7 100.9L 246 80.9L 80.9 82.1ZM 246 80.9L 98.5 61.1L 97.4 81.1L 244.7 100.9ZM 97.4 81.1L 405.8 73.9L 405.8 53.9L 98.5 61.1ZM 405.8 53.9L 124.6 45.7L 124.8 65.7L 405.8 73.9ZM 124.8 65.7L 373.8 53.6L 374.5 33.5L 124.6 45.7ZM 374.5 33.5L 191 10.7L 189.4 30.6L 373.8 53.6ZM 189.4 30.6L 302.6 34.5L 303.3 14.5L 191 10.7ZM 386.7 469.5L 399.7 462.8L 408.1 454.8L 414.3 445.1L 416.1 442.4L 424.6 436.1L 432.9 425.9L 436.8 423L 449.8 404.7L 449.7 376L 430.9 396.4L 431.5 405.5L 430.3 405.8L 414.1 418.5L 410.1 425.5L 412.7 424.9L 394.6 440.6L 392.3 446.6L 380.4 450.6ZM 430.9 396.4L 452.6 396L 464.9 375.7L 449.7 376ZM 464.9 375.7L 456.8 359.1L 443.8 378.2L 452.6 396ZM 443.8 378.2L 466.4 380L 476.9 360.7L 456.8 359.1ZM 476.9 360.7L 460.6 339.1L 450.6 359.1L 466.4 380ZM 450.6 359.1L 480.5 359L 489 339L 460.6 339.1ZM 489 339L 464 312.8L 454.3 331.6L 480.5 359ZM 454.3 331.6L 486.6 336.4L 495.1 317.4L 464 312.8ZM 495.1 317.4L 462.1 290.1L 455.3 310.4L 486.6 336.4ZM 455.3 310.4L 494.3 308.7L 498 288.5L 462.1 290.1ZM 498 288.5L 461.8 273.1L 458.6 293.5L 494.3 308.7ZM 458.6 293.5L 497.6 290L 501.5 269.6L 461.8 273.1ZM 501.5 269.6L 456.3 247.4L 450.5 266.8L 497.6 290ZM 450.5 266.8L 500.4 273.1L 506.5 253.7L 456.3 247.4ZM 506.5 253.7L 452.9 225L 447.5 244.8L 500.4 273.1ZM 447.5 244.8L 500.3 247.1L 504.7 227.2L 452.9 225ZM 504.7 227.2L 447.9 203L 443.1 222.7L 500.3 247.1ZM 443.1 222.7L 490.7 226L 494.9 206.3L 447.9 203ZM 494.9 206.3L 434.7 184.4L 431.7 204.6L 490.7 226ZM 431.7 204.6L 487.1 201.8L 489.3 181.7L 434.7 184.4ZM 489.3 181.7L 418.9 162.5L 416.1 182.5L 487.1 201.8ZM 416.1 182.5L 485.6 183.3L 488.6 163.3L 418.9 162.5ZM 488.6 163.3L 398.5 137.5L 396 157.6L 485.6 183.3ZM 396 157.6L 470.2 155.1L 471.9 135L 398.5 137.5ZM 471.9 135L 378.1 116.1L 375.8 136L 470.2 155.1ZM 375.8 136L 461.8 138.5L 463.4 118.6L 378.1 116.1ZM 463.4 118.6L 337.3 102L 336.4 122.1L 461.8 138.5ZM 336.4 122.1L 446.3 117.7L 446.7 97.7L 337.3 102ZM 446.7 97.7L 249.4 82.3L 249.4 102.4L 446.3 117.7ZM 249.4 102.4L 426.9 88.9L 425.3 69L 249.4 82.3Z" fill-rule="nonzero"></path></g></g></g><g id="g-root-5.cu_sy_4lobgoxc4pvr-fill" data-item-order="999757940" data-item-id="5.cu_sy_4lobgoxc4pvr" data-item-class="Part Indexed Fill Stroke" data-item-index="5" data-renderer-id="0" transform="translate(230, 74)"><g id="5.cu_sy_4lobgoxc4pvr-fill" stroke="none" fill="#cedfff"><g><path d="M 244.4 517.7L 250 513.2L 237.4 497.6L 231.9 502.1ZM 263.8 518.3L 283.3 519.7L 284.7 499.7L 265.2 498.3ZM 166.7 494.9L 199.9 498.5L 202 478.7L 168.9 475ZM 326.3 490.1L 356.9 491.2L 357.6 471.2L 327 470.1ZM 125 472.9L 146.5 475.1L 151 455.4L 126.9 453ZM 151 455.4L 99.2 436.4L 99.6 457.8L 146.5 475.1ZM 99.6 457.8L 111.8 452.9L 111.9 431.3L 99.2 436.4ZM 111.9 431.3L 86 420.6L 82.6 440.9L 111.8 452.9ZM 82.6 440.9L 93.7 440.2L 99.4 419.9L 86 420.6ZM 99.4 419.9L 63.6 395.7L 58.2 416.1L 93.7 440.2ZM 58.2 416.1L 72.8 415L 78.4 394.6L 63.6 395.7ZM 78.4 394.6L 49.8 374.6L 43.6 394.6L 72.8 415ZM 43.6 394.6L 65.4 394.6L 72 374.5L 49.8 374.6ZM 72 374.5L 42.4 352.8L 37.1 373.7L 65.4 394.6ZM 37.1 373.7L 58.3 370.8L 61.9 350.1L 42.4 352.8ZM 61.9 350.1L 25.5 331.5L 22.6 352.4L 58.3 370.8ZM 22.6 352.4L 56.6 345.6L 58.7 324.8L 25.5 331.5ZM 58.7 324.8L 18 307.6L 15.7 328.3L 56.6 345.6ZM 15.7 328.3L 47 322.7L 50.5 301.7L 18 307.6ZM 50.5 301.7L 22 285.6L 16.9 305.7L 47 322.7ZM 16.9 305.7L 44.4 305.2L 49.3 285.1L 22 285.6ZM 49.3 285.1L 11.7 265L 6.9 285.1L 44.4 305.2ZM 6.9 285.1L 52 284L 57.1 263.9L 11.7 265ZM 57.1 263.9L 14 239L 7.7 258.5L 52 284ZM 7.7 258.5L 54 263.3L 60.1 243.9L 14 239ZM 60.1 243.9L 12.1 217.5L 6.4 237.2L 54 263.3ZM 6.4 237.2L 61.6 240.8L 67.7 221.2L 12.1 217.5ZM 67.7 221.2L 24.5 195.1L 18.9 215.2L 61.6 240.8ZM 18.9 215.2L 74.9 215L 78.1 195L 24.5 195.1ZM 78.1 195L 20.3 175.6L 17.3 195.7L 74.9 215ZM 17.3 195.7L 85.3 193.5L 88.4 173.4L 20.3 175.6ZM 88.4 173.4L 31.9 153.2L 28.8 173.3L 85.3 193.5ZM 28.8 173.3L 106 170.5L 108.6 150.4L 31.9 153.2ZM 108.6 150.4L 42.4 130.6L 40 150.8L 106 170.5ZM 40 150.8L 123.8 146.4L 125.5 126.3L 42.4 130.6ZM 125.5 126.3L 56 110.8L 54.3 130.9L 123.8 146.4ZM 54.3 130.9L 155.3 125.1L 157.7 104.9L 56 110.8ZM 157.7 104.9L 80.9 82.1L 78.1 102.2L 155.3 125.1ZM 78.1 102.2L 244.7 100.9L 246 80.9L 80.9 82.1ZM 246 80.9L 98.5 61.1L 97.4 81.1L 244.7 100.9ZM 97.4 81.1L 405.8 73.9L 405.8 53.9L 98.5 61.1ZM 405.8 53.9L 124.6 45.7L 124.8 65.7L 405.8 73.9ZM 124.8 65.7L 373.8 53.6L 374.5 33.5L 124.6 45.7ZM 374.5 33.5L 191 10.7L 189.4 30.6L 373.8 53.6ZM 189.4 30.6L 302.6 34.5L 303.3 14.5L 191 10.7ZM 386.7 469.5L 399.7 462.8L 408.1 454.8L 414.3 445.1L 416.1 442.4L 424.6 436.1L 432.9 425.9L 436.8 423L 449.8 404.7L 449.7 376L 430.9 396.4L 431.5 405.5L 430.3 405.8L 414.1 418.5L 410.1 425.5L 412.7 424.9L 394.6 440.6L 392.3 446.6L 380.4 450.6ZM 430.9 396.4L 452.6 396L 464.9 375.7L 449.7 376ZM 464.9 375.7L 456.8 359.1L 443.8 378.2L 452.6 396ZM 443.8 378.2L 466.4 380L 476.9 360.7L 456.8 359.1ZM 476.9 360.7L 460.6 339.1L 450.6 359.1L 466.4 380ZM 450.6 359.1L 480.5 359L 489 339L 460.6 339.1ZM 489 339L 464 312.8L 454.3 331.6L 480.5 359ZM 454.3 331.6L 486.6 336.4L 495.1 317.4L 464 312.8ZM 495.1 317.4L 462.1 290.1L 455.3 310.4L 486.6 336.4ZM 455.3 310.4L 494.3 308.7L 498 288.5L 462.1 290.1ZM 498 288.5L 461.8 273.1L 458.6 293.5L 494.3 308.7ZM 458.6 293.5L 497.6 290L 501.5 269.6L 461.8 273.1ZM 501.5 269.6L 456.3 247.4L 450.5 266.8L 497.6 290ZM 450.5 266.8L 500.4 273.1L 506.5 253.7L 456.3 247.4ZM 506.5 253.7L 452.9 225L 447.5 244.8L 500.4 273.1ZM 447.5 244.8L 500.3 247.1L 504.7 227.2L 452.9 225ZM 504.7 227.2L 447.9 203L 443.1 222.7L 500.3 247.1ZM 443.1 222.7L 490.7 226L 494.9 206.3L 447.9 203ZM 494.9 206.3L 434.7 184.4L 431.7 204.6L 490.7 226ZM 431.7 204.6L 487.1 201.8L 489.3 181.7L 434.7 184.4ZM 489.3 181.7L 418.9 162.5L 416.1 182.5L 487.1 201.8ZM 416.1 182.5L 485.6 183.3L 488.6 163.3L 418.9 162.5ZM 488.6 163.3L 398.5 137.5L 396 157.6L 485.6 183.3ZM 396 157.6L 470.2 155.1L 471.9 135L 398.5 137.5ZM 471.9 135L 378.1 116.1L 375.8 136L 470.2 155.1ZM 375.8 136L 461.8 138.5L 463.4 118.6L 378.1 116.1ZM 463.4 118.6L 337.3 102L 336.4 122.1L 461.8 138.5ZM 336.4 122.1L 446.3 117.7L 446.7 97.7L 337.3 102ZM 446.7 97.7L 249.4 82.3L 249.4 102.4L 446.3 117.7ZM 249.4 102.4L 426.9 88.9L 425.3 69L 249.4 82.3Z" fill-rule="nonzero"></path></g></g></g><g id="g-root-4.cu_sy_91htl4xc4p3i-fill" data-item-order="999757942" data-item-id="4.cu_sy_91htl4xc4p3i" data-item-class="Part Indexed Fill Stroke" data-item-index="4" data-renderer-id="0" transform="translate(272, 158)"><g id="4.cu_sy_91htl4xc4p3i-fill" stroke="none" fill="#cef3ff"><g><path d="M 226.4 435.1L 232.8 436.2L 236 416.4L 229.6 415.4ZM 138.6 416.2L 178.4 421.4L 181 401.5L 141.1 396.4ZM 277.4 413.2L 313.1 404.8L 308.5 385.3L 272.8 393.8ZM 105.7 396L 128 398.5L 132.3 378.8L 107.9 376.1ZM 132.3 378.8L 86.5 364L 87 385.2L 128 398.5ZM 87 385.2L 100 380.2L 102.5 357.8L 86.5 364ZM 102.5 357.8L 72 337.6L 66.7 358.1L 100 380.2ZM 66.7 358.1L 81.1 356.9L 84.5 336.6L 72 337.6ZM 84.5 336.6L 51.4 322L 50.2 343.3L 81.1 356.9ZM 50.2 343.3L 65.1 338.7L 67.4 317L 51.4 322ZM 67.4 317L 35.8 299.1L 32.6 320.3L 65.1 338.7ZM 32.6 320.3L 56.8 315L 58.6 294.2L 35.8 299.1ZM 58.6 294.2L 25 280.5L 22 300.9L 56.8 315ZM 22 300.9L 47.1 298.7L 52.7 278.1L 25 280.5ZM 52.7 278.1L 25.4 258.5L 19.8 279.1L 47.1 298.7ZM 19.8 279.1L 52.4 276.1L 55.8 255.7L 25.4 258.5ZM 55.8 255.7L 17.7 238.6L 13.9 258.8L 52.4 276.1ZM 13.9 258.8L 51.1 256.9L 56.5 236.6L 17.7 238.6ZM 56.5 236.6L 14.5 209.5L 8.6 229.5L 51.1 256.9ZM 8.6 229.5L 55.7 229.6L 59.9 209.6L 14.5 209.5ZM 59.9 209.6L 15.6 190.1L 12.6 210.7L 55.7 229.6ZM 12.6 210.7L 62.4 204.5L 63.3 184.2L 15.6 190.1ZM 63.3 184.2L 15.4 173.6L 14.3 193.8L 62.4 204.5ZM 14.3 193.8L 73.3 187.7L 76.4 167.2L 15.4 173.6ZM 76.4 167.2L 26.6 146L 22.7 166.1L 73.3 187.7ZM 22.7 166.1L 88.2 164.9L 90.8 144.9L 26.6 146ZM 90.8 144.9L 26.5 126.6L 24 146.7L 88.2 164.9ZM 24 146.7L 107.8 144.4L 110.2 124.4L 26.5 126.6ZM 110.2 124.4L 40.2 105.4L 38.9 125.8L 107.8 144.4ZM 38.9 125.8L 143.1 111.6L 143 91.5L 40.2 105.4ZM 143 91.5L 51.2 79.9L 50.6 100L 143.1 111.6ZM 50.6 100L 356.7 78.2L 355.9 58.2L 51.2 79.9ZM 355.9 58.2L 80.5 60.7L 81.3 80.7L 356.7 78.2ZM 81.3 80.7L 325.5 61.2L 325.1 41.2L 80.5 60.7ZM 325.1 41.2L 111.7 32.6L 112 52.6L 325.5 61.2ZM 112 52.6L 292.9 40.4L 293.6 20.3L 111.7 32.6ZM 293.6 20.3L 192.4 5.9L 189.6 25.7L 292.9 40.4ZM 189.6 25.7L 204.8 28L 207.7 8.2L 192.4 5.9ZM 328.1 382.9L 336.3 380L 350.6 369.5L 356.3 360.7L 354.6 359.7L 373 342.7L 374.5 338L 374.2 338.1L 385.8 315.9L 373.2 318L 354.4 338.1L 354.2 340.7L 358.4 340.6L 336.7 356.1L 334.4 362.5L 327.1 362.9ZM 385.8 315.9L 376.3 295.7L 364.6 317.9L 374.2 338.1ZM 364.6 317.9L 389.6 313.7L 396.9 292.2L 376.3 295.7ZM 396.9 292.2L 375.6 269.4L 367.1 289.6L 389.6 313.7ZM 367.1 289.6L 402.1 288.7L 407.2 268.5L 375.6 269.4ZM 407.2 268.5L 380.9 253.5L 376.7 274.1L 402.1 288.7ZM 376.7 274.1L 413 269.8L 416 249.3L 380.9 253.5ZM 416 249.3L 375.8 231.6L 371.7 251.7L 413 269.8ZM 371.7 251.7L 415.3 251.1L 420.1 231.1L 375.8 231.6ZM 420.1 231.1L 370.8 205.4L 366.3 225.6L 415.3 251.1ZM 366.3 225.6L 417 223.9L 419.4 203.8L 370.8 205.4ZM 419.4 203.8L 369.8 190L 368.3 210.3L 417 223.9ZM 368.3 210.3L 411.5 205.1L 413.1 184.7L 369.8 190ZM 413.1 184.7L 358.1 169L 356.9 189.4L 411.5 205.1ZM 356.9 189.4L 414.4 180.2L 415.1 159.9L 358.1 169ZM 415.1 159.9L 342.4 143.1L 341 163.3L 414.4 180.2ZM 341 163.3L 402.8 158L 403.8 137.8L 342.4 143.1ZM 403.8 137.8L 322 122L 320.3 142L 402.8 158ZM 320.3 142L 396.5 140.1L 397.4 120.1L 322 122ZM 397.4 120.1L 297.6 109.2L 297.2 129.3L 396.5 140.1ZM 297.2 129.3L 388.8 123.5L 389.8 103.4L 297.6 109.2ZM 389.8 103.4L 260.6 82.1L 259.6 102.2L 388.8 123.5ZM 259.6 102.2L 366.3 94.9L 364.9 74.9L 260.6 82.1Z" fill-rule="nonzero"></path></g></g></g><g id="g-root-4.cu_sy_91htl4xc4p3i-fill" data-item-order="999757942" data-item-id="4.cu_sy_91htl4xc4p3i" data-item-class="Part Indexed Fill Stroke" data-item-index="4" data-renderer-id="0" transform="translate(272, 158)"><g id="4.cu_sy_91htl4xc4p3i-fill" stroke="none" fill="#cef3ff"><g><path d="M 226.4 435.1L 232.8 436.2L 236 416.4L 229.6 415.4ZM 138.6 416.2L 178.4 421.4L 181 401.5L 141.1 396.4ZM 277.4 413.2L 313.1 404.8L 308.5 385.3L 272.8 393.8ZM 105.7 396L 128 398.5L 132.3 378.8L 107.9 376.1ZM 132.3 378.8L 86.5 364L 87 385.2L 128 398.5ZM 87 385.2L 100 380.2L 102.5 357.8L 86.5 364ZM 102.5 357.8L 72 337.6L 66.7 358.1L 100 380.2ZM 66.7 358.1L 81.1 356.9L 84.5 336.6L 72 337.6ZM 84.5 336.6L 51.4 322L 50.2 343.3L 81.1 356.9ZM 50.2 343.3L 65.1 338.7L 67.4 317L 51.4 322ZM 67.4 317L 35.8 299.1L 32.6 320.3L 65.1 338.7ZM 32.6 320.3L 56.8 315L 58.6 294.2L 35.8 299.1ZM 58.6 294.2L 25 280.5L 22 300.9L 56.8 315ZM 22 300.9L 47.1 298.7L 52.7 278.1L 25 280.5ZM 52.7 278.1L 25.4 258.5L 19.8 279.1L 47.1 298.7ZM 19.8 279.1L 52.4 276.1L 55.8 255.7L 25.4 258.5ZM 55.8 255.7L 17.7 238.6L 13.9 258.8L 52.4 276.1ZM 13.9 258.8L 51.1 256.9L 56.5 236.6L 17.7 238.6ZM 56.5 236.6L 14.5 209.5L 8.6 229.5L 51.1 256.9ZM 8.6 229.5L 55.7 229.6L 59.9 209.6L 14.5 209.5ZM 59.9 209.6L 15.6 190.1L 12.6 210.7L 55.7 229.6ZM 12.6 210.7L 62.4 204.5L 63.3 184.2L 15.6 190.1ZM 63.3 184.2L 15.4 173.6L 14.3 193.8L 62.4 204.5ZM 14.3 193.8L 73.3 187.7L 76.4 167.2L 15.4 173.6ZM 76.4 167.2L 26.6 146L 22.7 166.1L 73.3 187.7ZM 22.7 166.1L 88.2 164.9L 90.8 144.9L 26.6 146ZM 90.8 144.9L 26.5 126.6L 24 146.7L 88.2 164.9ZM 24 146.7L 107.8 144.4L 110.2 124.4L 26.5 126.6ZM 110.2 124.4L 40.2 105.4L 38.9 125.8L 107.8 144.4ZM 38.9 125.8L 143.1 111.6L 143 91.5L 40.2 105.4ZM 143 91.5L 51.2 79.9L 50.6 100L 143.1 111.6ZM 50.6 100L 356.7 78.2L 355.9 58.2L 51.2 79.9ZM 355.9 58.2L 80.5 60.7L 81.3 80.7L 356.7 78.2ZM 81.3 80.7L 325.5 61.2L 325.1 41.2L 80.5 60.7ZM 325.1 41.2L 111.7 32.6L 112 52.6L 325.5 61.2ZM 112 52.6L 292.9 40.4L 293.6 20.3L 111.7 32.6ZM 293.6 20.3L 192.4 5.9L 189.6 25.7L 292.9 40.4ZM 189.6 25.7L 204.8 28L 207.7 8.2L 192.4 5.9ZM 328.1 382.9L 336.3 380L 350.6 369.5L 356.3 360.7L 354.6 359.7L 373 342.7L 374.5 338L 374.2 338.1L 385.8 315.9L 373.2 318L 354.4 338.1L 354.2 340.7L 358.4 340.6L 336.7 356.1L 334.4 362.5L 327.1 362.9ZM 385.8 315.9L 376.3 295.7L 364.6 317.9L 374.2 338.1ZM 364.6 317.9L 389.6 313.7L 396.9 292.2L 376.3 295.7ZM 396.9 292.2L 375.6 269.4L 367.1 289.6L 389.6 313.7ZM 367.1 289.6L 402.1 288.7L 407.2 268.5L 375.6 269.4ZM 407.2 268.5L 380.9 253.5L 376.7 274.1L 402.1 288.7ZM 376.7 274.1L 413 269.8L 416 249.3L 380.9 253.5ZM 416 249.3L 375.8 231.6L 371.7 251.7L 413 269.8ZM 371.7 251.7L 415.3 251.1L 420.1 231.1L 375.8 231.6ZM 420.1 231.1L 370.8 205.4L 366.3 225.6L 415.3 251.1ZM 366.3 225.6L 417 223.9L 419.4 203.8L 370.8 205.4ZM 419.4 203.8L 369.8 190L 368.3 210.3L 417 223.9ZM 368.3 210.3L 411.5 205.1L 413.1 184.7L 369.8 190ZM 413.1 184.7L 358.1 169L 356.9 189.4L 411.5 205.1ZM 356.9 189.4L 414.4 180.2L 415.1 159.9L 358.1 169ZM 415.1 159.9L 342.4 143.1L 341 163.3L 414.4 180.2ZM 341 163.3L 402.8 158L 403.8 137.8L 342.4 143.1ZM 403.8 137.8L 322 122L 320.3 142L 402.8 158ZM 320.3 142L 396.5 140.1L 397.4 120.1L 322 122ZM 397.4 120.1L 297.6 109.2L 297.2 129.3L 396.5 140.1ZM 297.2 129.3L 388.8 123.5L 389.8 103.4L 297.6 109.2ZM 389.8 103.4L 260.6 82.1L 259.6 102.2L 388.8 123.5ZM 259.6 102.2L 366.3 94.9L 364.9 74.9L 260.6 82.1Z" fill-rule="nonzero"></path></g></g></g><g id="g-root-3.cu_sy_91htl4xc4p3h-fill" data-item-order="999757944" data-item-id="3.cu_sy_91htl4xc4p3h" data-item-class="Part Indexed Fill Stroke" data-item-index="3" data-renderer-id="0" transform="translate(314, 242)"><g id="3.cu_sy_91htl4xc4p3h-fill" stroke="none" fill="#d5f7e8"><g><path d="M 179.4 344.9L 199 346.8L 200.9 326.8L 181.3 325ZM 110 334.6L 133.2 330.5L 133.9 310L 106.5 314.9ZM 133.9 310L 85.7 297.7L 83.6 317.8L 133.2 330.5ZM 83.6 317.8L 93.1 317.4L 98.8 297.1L 85.7 297.7ZM 98.8 297.1L 65 274.5L 60.7 295.7L 93.1 317.4ZM 60.7 295.7L 74.9 292.9L 79.4 271.7L 65 274.5ZM 79.4 271.7L 51.5 252L 43.9 271.1L 74.9 292.9ZM 43.9 271.1L 60.4 273.5L 67 254.2L 51.5 252ZM 67 254.2L 33.9 235.5L 28 255.1L 60.4 273.5ZM 28 255.1L 54.8 257.1L 60.8 237.5L 33.9 235.5ZM 60.8 237.5L 21.6 215.3L 15.5 234.9L 54.8 257.1ZM 15.5 234.9L 49.3 237.9L 55.8 218.5L 21.6 215.3ZM 55.8 218.5L 15.9 193.4L 9.8 213.2L 49.3 237.9ZM 9.8 213.2L 51 214.9L 55.9 195.1L 15.9 193.4ZM 55.9 195.1L 12.4 174.6L 10.2 195.6L 51 214.9ZM 10.2 195.6L 55.6 185.1L 56.2 164.4L 12.4 174.6ZM 56.2 164.4L 15.6 152.7L 14.3 173.1L 55.6 185.1ZM 14.3 173.1L 61.1 166.1L 64.2 145.4L 15.6 152.7ZM 64.2 145.4L 21.4 124.9L 17.5 145.2L 61.1 166.1ZM 17.5 145.2L 80.3 141.1L 82.7 121L 21.4 124.9ZM 82.7 121L 26.5 103.8L 24.5 124.1L 80.3 141.1ZM 24.5 124.1L 107.8 115.7L 109 95.5L 26.5 103.8ZM 109 95.5L 33.9 78.9L 32.4 99.1L 107.8 115.7ZM 32.4 99.1L 289.2 79.7L 288.4 59.7L 33.9 78.9ZM 288.4 59.7L 49.8 59.7L 50.7 79.7L 289.2 79.7ZM 50.7 79.7L 272.1 58L 271.4 38L 49.8 59.7ZM 271.4 38L 76.1 31.8L 76.4 51.9L 272.1 58ZM 76.4 51.9L 242.2 43.2L 242.9 23.1L 76.1 31.8ZM 242.9 23.1L 149.5 11.2L 152 31.7L 242.2 43.2ZM 152 31.7L 174.5 23L 167.3 4.3L 149.5 11.2ZM 239.4 319.3L 253.2 318.7L 270.6 308.8L 277.2 299.1L 280.7 294L 287.7 281.2L 290.1 271.5L 294.7 270.6L 306.5 248L 287.8 251.6L 270.1 273.2L 270.2 279.9L 268.9 280.7L 257.9 293.2L 254.5 300.8L 241.6 299.4ZM 306.5 248L 297.9 228.7L 284.4 247.6L 294.7 270.6ZM 284.4 247.6L 317.4 250.3L 323.7 230.8L 297.9 228.7ZM 323.7 230.8L 294 213.2L 289.9 234L 317.4 250.3ZM 289.9 234L 327.3 228.6L 330.5 208L 294 213.2ZM 330.5 208L 292.5 189.7L 289 210.2L 327.3 228.6ZM 289 210.2L 328.9 205.9L 332.4 185.4L 292.5 189.7ZM 332.4 185.4L 289.7 164.9L 285.5 185.1L 328.9 205.9ZM 285.5 185.1L 333.7 183.4L 335.9 163.3L 289.7 164.9ZM 335.9 163.3L 283.7 149.9L 283.2 170.4L 333.7 183.4ZM 283.2 170.4L 330.6 160.6L 331 140.1L 283.7 149.9ZM 331 140.1L 267.7 124.2L 265.1 144.2L 330.6 160.6ZM 265.1 144.2L 327.9 144.4L 329.8 124.4L 267.7 124.2ZM 329.8 124.4L 242.3 107.4L 241.1 127.6L 327.9 144.4ZM 241.1 127.6L 317.8 121.9L 318.3 101.8L 242.3 107.4ZM 318.3 101.8L 220.7 90.1L 220.4 110.2L 317.8 121.9ZM 220.4 110.2L 308.8 102.3L 307 82.3L 220.7 90.1Z" fill-rule="nonzero"></path></g></g></g><g id="g-root-3.cu_sy_91htl4xc4p3h-fill" data-item-order="999757944" data-item-id="3.cu_sy_91htl4xc4p3h" data-item-class="Part Indexed Fill Stroke" data-item-index="3" data-renderer-id="0" transform="translate(314, 242)"><g id="3.cu_sy_91htl4xc4p3h-fill" stroke="none" fill="#d5f7e8"><g><path d="M 179.4 344.9L 199 346.8L 200.9 326.8L 181.3 325ZM 110 334.6L 133.2 330.5L 133.9 310L 106.5 314.9ZM 133.9 310L 85.7 297.7L 83.6 317.8L 133.2 330.5ZM 83.6 317.8L 93.1 317.4L 98.8 297.1L 85.7 297.7ZM 98.8 297.1L 65 274.5L 60.7 295.7L 93.1 317.4ZM 60.7 295.7L 74.9 292.9L 79.4 271.7L 65 274.5ZM 79.4 271.7L 51.5 252L 43.9 271.1L 74.9 292.9ZM 43.9 271.1L 60.4 273.5L 67 254.2L 51.5 252ZM 67 254.2L 33.9 235.5L 28 255.1L 60.4 273.5ZM 28 255.1L 54.8 257.1L 60.8 237.5L 33.9 235.5ZM 60.8 237.5L 21.6 215.3L 15.5 234.9L 54.8 257.1ZM 15.5 234.9L 49.3 237.9L 55.8 218.5L 21.6 215.3ZM 55.8 218.5L 15.9 193.4L 9.8 213.2L 49.3 237.9ZM 9.8 213.2L 51 214.9L 55.9 195.1L 15.9 193.4ZM 55.9 195.1L 12.4 174.6L 10.2 195.6L 51 214.9ZM 10.2 195.6L 55.6 185.1L 56.2 164.4L 12.4 174.6ZM 56.2 164.4L 15.6 152.7L 14.3 173.1L 55.6 185.1ZM 14.3 173.1L 61.1 166.1L 64.2 145.4L 15.6 152.7ZM 64.2 145.4L 21.4 124.9L 17.5 145.2L 61.1 166.1ZM 17.5 145.2L 80.3 141.1L 82.7 121L 21.4 124.9ZM 82.7 121L 26.5 103.8L 24.5 124.1L 80.3 141.1ZM 24.5 124.1L 107.8 115.7L 109 95.5L 26.5 103.8ZM 109 95.5L 33.9 78.9L 32.4 99.1L 107.8 115.7ZM 32.4 99.1L 289.2 79.7L 288.4 59.7L 33.9 78.9ZM 288.4 59.7L 49.8 59.7L 50.7 79.7L 289.2 79.7ZM 50.7 79.7L 272.1 58L 271.4 38L 49.8 59.7ZM 271.4 38L 76.1 31.8L 76.4 51.9L 272.1 58ZM 76.4 51.9L 242.2 43.2L 242.9 23.1L 76.1 31.8ZM 242.9 23.1L 149.5 11.2L 152 31.7L 242.2 43.2ZM 152 31.7L 174.5 23L 167.3 4.3L 149.5 11.2ZM 239.4 319.3L 253.2 318.7L 270.6 308.8L 277.2 299.1L 280.7 294L 287.7 281.2L 290.1 271.5L 294.7 270.6L 306.5 248L 287.8 251.6L 270.1 273.2L 270.2 279.9L 268.9 280.7L 257.9 293.2L 254.5 300.8L 241.6 299.4ZM 306.5 248L 297.9 228.7L 284.4 247.6L 294.7 270.6ZM 284.4 247.6L 317.4 250.3L 323.7 230.8L 297.9 228.7ZM 323.7 230.8L 294 213.2L 289.9 234L 317.4 250.3ZM 289.9 234L 327.3 228.6L 330.5 208L 294 213.2ZM 330.5 208L 292.5 189.7L 289 210.2L 327.3 228.6ZM 289 210.2L 328.9 205.9L 332.4 185.4L 292.5 189.7ZM 332.4 185.4L 289.7 164.9L 285.5 185.1L 328.9 205.9ZM 285.5 185.1L 333.7 183.4L 335.9 163.3L 289.7 164.9ZM 335.9 163.3L 283.7 149.9L 283.2 170.4L 333.7 183.4ZM 283.2 170.4L 330.6 160.6L 331 140.1L 283.7 149.9ZM 331 140.1L 267.7 124.2L 265.1 144.2L 330.6 160.6ZM 265.1 144.2L 327.9 144.4L 329.8 124.4L 267.7 124.2ZM 329.8 124.4L 242.3 107.4L 241.1 127.6L 327.9 144.4ZM 241.1 127.6L 317.8 121.9L 318.3 101.8L 242.3 107.4ZM 318.3 101.8L 220.7 90.1L 220.4 110.2L 317.8 121.9ZM 220.4 110.2L 308.8 102.3L 307 82.3L 220.7 90.1Z" fill-rule="nonzero"></path></g></g></g><g id="g-root-2.cu_sy_91htl4xc4p3g-fill" data-item-order="999757946" data-item-id="2.cu_sy_91htl4xc4p3g" data-item-class="Part Indexed Fill Stroke" data-item-index="2" data-renderer-id="0" transform="translate(356, 326)"><g id="2.cu_sy_91htl4xc4p3g-fill" stroke="none" fill="#ecf7d5"><g><path d="M 139 262.7L 154.9 266.5L 159.6 247.1L 143.7 243.2ZM 78.9 254L 102.1 251.7L 104.4 231.4L 76.9 234.1ZM 104.4 231.4L 53.5 214L 56.6 236.1L 102.1 251.7ZM 56.6 236.1L 67.8 228.4L 65.9 205.4L 53.5 214ZM 65.9 205.4L 41 193.5L 37.4 213.9L 67.8 228.4ZM 37.4 213.9L 48.8 212.8L 54.9 192.2L 41 193.5ZM 54.9 192.2L 30 172.3L 25.5 194.3L 48.8 212.8ZM 25.5 194.3L 50.1 187.7L 50.8 166.8L 30 172.3ZM 50.8 166.8L 14 154.2L 12.3 174.7L 50.1 187.7ZM 12.3 174.7L 48 168.7L 50.7 148L 14 154.2ZM 50.7 148L 16.3 132.4L 13.5 153.1L 48 168.7ZM 13.5 153.1L 59.8 145.7L 61 125.2L 16.3 132.4ZM 61 125.2L 11.6 110.9L 10 131.3L 59.8 145.7ZM 10 131.3L 74.4 123L 76 102.6L 11.6 110.9ZM 76 102.6L 22.8 86.6L 21.1 107L 74.4 123ZM 21.1 107L 230.6 82.3L 229.3 62.3L 22.8 86.6ZM 229.3 62.3L 27.2 64.5L 28.5 84.5L 230.6 82.3ZM 28.5 84.5L 217.1 61.8L 215.8 41.8L 27.2 64.5ZM 215.8 41.8L 50.6 42.3L 51.9 62.3L 217.1 61.8ZM 51.9 62.3L 190.4 44.3L 190.8 24.1L 50.6 42.3ZM 190.8 24.1L 113.7 11.4L 113.7 31.6L 190.4 44.3ZM 113.7 31.6L 120.6 30.4L 117.2 10.7L 113.7 11.4ZM 193.5 240.5L 198.6 235L 205.3 226L 210.7 210.9L 223 211L 231.3 191L 212.5 190.9L 190.8 208.4L 188.3 220.5L 183.8 223ZM 231.3 191L 210.4 170.3L 203.9 192.1L 223 211ZM 203.9 192.1L 236.4 185.4L 240 164.2L 210.4 170.3ZM 240 164.2L 212.2 147.2L 207.5 167.8L 236.4 185.4ZM 207.5 167.8L 240.8 164.5L 245.3 143.9L 212.2 147.2ZM 245.3 143.9L 206.8 121.5L 201.5 141.6L 240.8 164.5ZM 201.5 141.6L 246.9 140.8L 248.9 120.8L 206.8 121.5ZM 248.9 120.8L 187.4 107.2L 186.5 127.5L 246.9 140.8ZM 186.5 127.5L 247.1 120L 247.4 99.8L 187.4 107.2ZM 247.4 99.8L 163.1 86.7L 163 106.9L 247.1 120ZM 163 106.9L 238.5 96.1L 235.7 76.3L 163.1 86.7Z" fill-rule="nonzero"></path></g></g></g><g id="g-root-2.cu_sy_91htl4xc4p3g-fill" data-item-order="999757946" data-item-id="2.cu_sy_91htl4xc4p3g" data-item-class="Part Indexed Fill Stroke" data-item-index="2" data-renderer-id="0" transform="translate(356, 326)"><g id="2.cu_sy_91htl4xc4p3g-fill" stroke="none" fill="#ecf7d5"><g><path d="M 139 262.7L 154.9 266.5L 159.6 247.1L 143.7 243.2ZM 78.9 254L 102.1 251.7L 104.4 231.4L 76.9 234.1ZM 104.4 231.4L 53.5 214L 56.6 236.1L 102.1 251.7ZM 56.6 236.1L 67.8 228.4L 65.9 205.4L 53.5 214ZM 65.9 205.4L 41 193.5L 37.4 213.9L 67.8 228.4ZM 37.4 213.9L 48.8 212.8L 54.9 192.2L 41 193.5ZM 54.9 192.2L 30 172.3L 25.5 194.3L 48.8 212.8ZM 25.5 194.3L 50.1 187.7L 50.8 166.8L 30 172.3ZM 50.8 166.8L 14 154.2L 12.3 174.7L 50.1 187.7ZM 12.3 174.7L 48 168.7L 50.7 148L 14 154.2ZM 50.7 148L 16.3 132.4L 13.5 153.1L 48 168.7ZM 13.5 153.1L 59.8 145.7L 61 125.2L 16.3 132.4ZM 61 125.2L 11.6 110.9L 10 131.3L 59.8 145.7ZM 10 131.3L 74.4 123L 76 102.6L 11.6 110.9ZM 76 102.6L 22.8 86.6L 21.1 107L 74.4 123ZM 21.1 107L 230.6 82.3L 229.3 62.3L 22.8 86.6ZM 229.3 62.3L 27.2 64.5L 28.5 84.5L 230.6 82.3ZM 28.5 84.5L 217.1 61.8L 215.8 41.8L 27.2 64.5ZM 215.8 41.8L 50.6 42.3L 51.9 62.3L 217.1 61.8ZM 51.9 62.3L 190.4 44.3L 190.8 24.1L 50.6 42.3ZM 190.8 24.1L 113.7 11.4L 113.7 31.6L 190.4 44.3ZM 113.7 31.6L 120.6 30.4L 117.2 10.7L 113.7 11.4ZM 193.5 240.5L 198.6 235L 205.3 226L 210.7 210.9L 223 211L 231.3 191L 212.5 190.9L 190.8 208.4L 188.3 220.5L 183.8 223ZM 231.3 191L 210.4 170.3L 203.9 192.1L 223 211ZM 203.9 192.1L 236.4 185.4L 240 164.2L 210.4 170.3ZM 240 164.2L 212.2 147.2L 207.5 167.8L 236.4 185.4ZM 207.5 167.8L 240.8 164.5L 245.3 143.9L 212.2 147.2ZM 245.3 143.9L 206.8 121.5L 201.5 141.6L 240.8 164.5ZM 201.5 141.6L 246.9 140.8L 248.9 120.8L 206.8 121.5ZM 248.9 120.8L 187.4 107.2L 186.5 127.5L 246.9 140.8ZM 186.5 127.5L 247.1 120L 247.4 99.8L 187.4 107.2ZM 247.4 99.8L 163.1 86.7L 163 106.9L 247.1 120ZM 163 106.9L 238.5 96.1L 235.7 76.3L 163.1 86.7Z" fill-rule="nonzero"></path></g></g></g><g id="g-root-1.cu_sy_91htl4xc4p3f-fill" data-item-order="999757948" data-item-id="1.cu_sy_91htl4xc4p3f" data-item-class="Part Indexed Indexed_1 Fill Stroke ColorFillGray" data-item-index="1" data-renderer-id="0" transform="translate(398, 410)"><g id="1.cu_sy_91htl4xc4p3f-fill" stroke="none" fill="#eaeaea"><g><path d="M 164.7 116.8L 164.6 116.6L 143.1 110.8L 145.1 120.8ZM 143.1 110.8L 105.6 153.5L 122.7 164.4L 164.6 116.6ZM 122.7 164.4L 166.6 65.1L 148.9 55.6L 105.6 153.5ZM 148.9 55.6L 80.6 161.8L 98.5 170.9L 166.6 65.1ZM 98.5 170.9L 149.3 37.2L 131.1 28.8L 80.6 161.8ZM 131.1 28.8L 62.5 153L 80.5 161.7L 149.3 37.2ZM 80.5 161.7L 138.8 23.5L 121 14.2L 62.5 153ZM 121 14.2L 36.4 147.7L 54 157.4L 138.8 23.5ZM 54 157.4L 119.9 19.6L 102.2 10.3L 36.4 147.7ZM 102.2 10.3L 28 140.7L 46 149.4L 119.9 19.6ZM 46 149.4L 99.2 17.1L 81.5 7.5L 28 140.7ZM 81.5 7.5L 10.6 109.1L 28.2 118.8L 99.2 17.1ZM 28.2 118.8L 67.7 26.2L 50.5 15.3L 10.6 109.1ZM 50.5 15.3L 10.9 59.7L 26.5 72.2L 67.7 26.2ZM 26.5 72.2L 35.6 59.4L 19.4 47.8L 10.9 59.7Z" fill-rule="nonzero"></path></g></g></g><g id="g-root-1.cu_sy_91htl4xc4p3f-fill" data-item-order="999757948" data-item-id="1.cu_sy_91htl4xc4p3f" data-item-class="Part Indexed Indexed_1 Fill Stroke ColorFillGray" data-item-index="1" data-renderer-id="0" transform="translate(398, 410)"><g id="1.cu_sy_91htl4xc4p3f-fill" stroke="none" fill="#eaeaea"><g><path d="M 164.7 116.8L 164.6 116.6L 143.1 110.8L 145.1 120.8ZM 143.1 110.8L 105.6 153.5L 122.7 164.4L 164.6 116.6ZM 122.7 164.4L 166.6 65.1L 148.9 55.6L 105.6 153.5ZM 148.9 55.6L 80.6 161.8L 98.5 170.9L 166.6 65.1ZM 98.5 170.9L 149.3 37.2L 131.1 28.8L 80.6 161.8ZM 131.1 28.8L 62.5 153L 80.5 161.7L 149.3 37.2ZM 80.5 161.7L 138.8 23.5L 121 14.2L 62.5 153ZM 121 14.2L 36.4 147.7L 54 157.4L 138.8 23.5ZM 54 157.4L 119.9 19.6L 102.2 10.3L 36.4 147.7ZM 102.2 10.3L 28 140.7L 46 149.4L 119.9 19.6ZM 46 149.4L 99.2 17.1L 81.5 7.5L 28 140.7ZM 81.5 7.5L 10.6 109.1L 28.2 118.8L 99.2 17.1ZM 28.2 118.8L 67.7 26.2L 50.5 15.3L 10.6 109.1ZM 50.5 15.3L 10.9 59.7L 26.5 72.2L 67.7 26.2ZM 26.5 72.2L 35.6 59.4L 19.4 47.8L 10.9 59.7Z" fill-rule="nonzero"></path></g></g></g><g id="g-root-tx_informin_1qbyc5kxc4o3w-fill" data-item-order="1000000000" data-item-id="tx_informin_1qbyc5kxc4o3w" data-item-class="Label Stroke Indexed" data-item-index="4" data-renderer-id="0" transform="translate(2, 170)"><g id="tx_informin_1qbyc5kxc4o3w-fill" stroke="none" fill="#484848"><g><text style="font: 20px &quot;Shantell Sans&quot;, cursive; white-space: pre;" font-weight="20px" font-size="&quot;Shantell" font-family="Sans', cursive"><tspan x="103.2" y="35.5" dominant-baseline="ideographic">Informing </tspan><tspan x="12.65" y="59.5" dominant-baseline="ideographic">stakeholders about </tspan><tspan x="120.39" y="83.5" dominant-baseline="ideographic">changes</tspan></text></g></g></g><g id="g-root-tx_informin_1qbyc5kxc4o3w-fill" data-item-order="1000000000" data-item-id="tx_informin_1qbyc5kxc4o3w" data-item-class="Label Stroke Indexed" data-item-index="4" data-renderer-id="0" transform="translate(2, 170)"><g id="tx_informin_1qbyc5kxc4o3w-fill" stroke="none" fill="#484848"><g><text style="font: 20px &quot;Shantell Sans&quot;, cursive; white-space: pre;" font-weight="20px" font-size="&quot;Shantell" font-family="Sans', cursive"><tspan x="103.2" y="35.5" dominant-baseline="ideographic">Informing </tspan><tspan x="12.65" y="59.5" dominant-baseline="ideographic">stakeholders about </tspan><tspan x="120.39" y="83.5" dominant-baseline="ideographic">changes</tspan></text></g></g></g><g id="g-root-tx_timeline_1hgbbwoxc4poh-fill" data-item-order="1000000000" data-item-id="tx_timeline_1hgbbwoxc4poh" data-item-class="Label Stroke Indexed InsideFill" data-item-index="4" data-renderer-id="0" transform="translate(398, 182)"><g id="tx_timeline_1hgbbwoxc4poh-fill" stroke="none" fill="#484848"><g><text style="font: 20px &quot;Shantell Sans&quot;, cursive; white-space: pre;" font-weight="20px" font-size="&quot;Shantell" font-family="Sans', cursive"><tspan x="47.79" y="35.5" dominant-baseline="ideographic">Timeline </tspan><tspan x="14.55" y="59.5" dominant-baseline="ideographic">Communication</tspan></text></g></g></g><g id="g-root-tx_timeline_1hgbbwoxc4poh-fill" data-item-order="1000000000" data-item-id="tx_timeline_1hgbbwoxc4poh" data-item-class="Label Stroke Indexed InsideFill" data-item-index="4" data-renderer-id="0" transform="translate(398, 182)"><g id="tx_timeline_1hgbbwoxc4poh-fill" stroke="none" fill="#484848"><g><text style="font: 20px &quot;Shantell Sans&quot;, cursive; white-space: pre;" font-weight="20px" font-size="&quot;Shantell" font-family="Sans', cursive"><tspan x="47.79" y="35.5" dominant-baseline="ideographic">Timeline </tspan><tspan x="14.55" y="59.5" dominant-baseline="ideographic">Communication</tspan></text></g></g></g><g id="g-root-tx_usageana_18kobnsxc4qh6-fill" data-item-order="1000000000" data-item-id="tx_usageana_18kobnsxc4qh6" data-item-class="Label Stroke Indexed InsideFill" data-item-index="5" data-renderer-id="0" transform="translate(398, 110)"><g id="tx_usageana_18kobnsxc4qh6-fill" stroke="none" fill="#484848"><g><text style="font: 20px &quot;Shantell Sans&quot;, cursive; white-space: pre;" font-weight="20px" font-size="&quot;Shantell" font-family="Sans', cursive"><tspan x="15.2" y="35.5" dominant-baseline="ideographic">Usage Analysis</tspan></text></g></g></g><g id="g-root-tx_usageana_18kobnsxc4qh6-fill" data-item-order="1000000000" data-item-id="tx_usageana_18kobnsxc4qh6" data-item-class="Label Stroke Indexed InsideFill" data-item-index="5" data-renderer-id="0" transform="translate(398, 110)"><g id="tx_usageana_18kobnsxc4qh6-fill" stroke="none" fill="#484848"><g><text style="font: 20px &quot;Shantell Sans&quot;, cursive; white-space: pre;" font-weight="20px" font-size="&quot;Shantell" font-family="Sans', cursive"><tspan x="15.2" y="35.5" dominant-baseline="ideographic">Usage Analysis</tspan></text></g></g></g><g id="g-root-tx_executio_1qbyc5kxc4o3v-fill" data-item-order="1000000000" data-item-id="tx_executio_1qbyc5kxc4o3v" data-item-class="Label Stroke Indexed" data-item-index="3" data-renderer-id="0" transform="translate(26, 266)"><g id="tx_executio_1qbyc5kxc4o3v-fill" stroke="none" fill="#484848"><g><text style="font: 20px &quot;Shantell Sans&quot;, cursive; white-space: pre;" font-weight="20px" font-size="&quot;Shantell" font-family="Sans', cursive"><tspan x="39.23" y="35.5" dominant-baseline="ideographic">Execution and </tspan><tspan x="12.77" y="59.5" dominant-baseline="ideographic">completion tasks</tspan></text></g></g></g><g id="g-root-tx_executio_1qbyc5kxc4o3v-fill" data-item-order="1000000000" data-item-id="tx_executio_1qbyc5kxc4o3v" data-item-class="Label Stroke Indexed" data-item-index="3" data-renderer-id="0" transform="translate(26, 266)"><g id="tx_executio_1qbyc5kxc4o3v-fill" stroke="none" fill="#484848"><g><text style="font: 20px &quot;Shantell Sans&quot;, cursive; white-space: pre;" font-weight="20px" font-size="&quot;Shantell" font-family="Sans', cursive"><tspan x="39.23" y="35.5" dominant-baseline="ideographic">Execution and </tspan><tspan x="12.77" y="59.5" dominant-baseline="ideographic">completion tasks</tspan></text></g></g></g><g id="g-root-tx_sunsetpr_1hgbbwoxc4pog-fill" data-item-order="1000000000" data-item-id="tx_sunsetpr_1hgbbwoxc4pog" data-item-class="Label Stroke Indexed InsideFill" data-item-index="3" data-renderer-id="0" transform="translate(398, 278)"><g id="tx_sunsetpr_1hgbbwoxc4pog-fill" stroke="none" fill="#484848"><g><text style="font: 20px &quot;Shantell Sans&quot;, cursive; white-space: pre;" font-weight="20px" font-size="&quot;Shantell" font-family="Sans', cursive"><tspan x="16.78" y="35.5" dominant-baseline="ideographic">Sunset Process</tspan></text></g></g></g><g id="g-root-tx_sunsetpr_1hgbbwoxc4pog-fill" data-item-order="1000000000" data-item-id="tx_sunsetpr_1hgbbwoxc4pog" data-item-class="Label Stroke Indexed InsideFill" data-item-index="3" data-renderer-id="0" transform="translate(398, 278)"><g id="tx_sunsetpr_1hgbbwoxc4pog-fill" stroke="none" fill="#484848"><g><text style="font: 20px &quot;Shantell Sans&quot;, cursive; white-space: pre;" font-weight="20px" font-size="&quot;Shantell" font-family="Sans', cursive"><tspan x="16.78" y="35.5" dominant-baseline="ideographic">Sunset Process</tspan></text></g></g></g><g id="g-root-tx_planning_6hafcxc4nia-fill" data-item-order="1000000000" data-item-id="tx_planning_6hafcxc4nia" data-item-class="Label Stroke Indexed" data-item-index="2" data-renderer-id="0" transform="translate(38, 338)"><g id="tx_planning_6hafcxc4nia-fill" stroke="none" fill="#484848"><g><text style="font: 20px &quot;Shantell Sans&quot;, cursive; white-space: pre;" font-weight="20px" font-size="&quot;Shantell" font-family="Sans', cursive"><tspan x="35.8" y="35.5" dominant-baseline="ideographic">Planning and </tspan><tspan x="19.23" y="59.5" dominant-baseline="ideographic">communication </tspan><tspan x="114.15" y="83.5" dominant-baseline="ideographic">steps</tspan></text></g></g></g><g id="g-root-tx_planning_6hafcxc4nia-fill" data-item-order="1000000000" data-item-id="tx_planning_6hafcxc4nia" data-item-class="Label Stroke Indexed" data-item-index="2" data-renderer-id="0" transform="translate(38, 338)"><g id="tx_planning_6hafcxc4nia-fill" stroke="none" fill="#484848"><g><text style="font: 20px &quot;Shantell Sans&quot;, cursive; white-space: pre;" font-weight="20px" font-size="&quot;Shantell" font-family="Sans', cursive"><tspan x="35.8" y="35.5" dominant-baseline="ideographic">Planning and </tspan><tspan x="19.23" y="59.5" dominant-baseline="ideographic">communication </tspan><tspan x="114.15" y="83.5" dominant-baseline="ideographic">steps</tspan></text></g></g></g><g id="g-root-tx_assessin_1qbyc5kxc4o3x-fill" data-item-order="1000000000" data-item-id="tx_assessin_1qbyc5kxc4o3x" data-item-class="Label Stroke Indexed" data-item-index="5" data-renderer-id="0" transform="translate(14, 98)"><g id="tx_assessin_1qbyc5kxc4o3x-fill" stroke="none" fill="#484848"><g><text style="font: 20px &quot;Shantell Sans&quot;, cursive; white-space: pre;" font-weight="20px" font-size="&quot;Shantell" font-family="Sans', cursive"><tspan x="17.98" y="35.5" dominant-baseline="ideographic">Assessing current </tspan><tspan x="50.84" y="59.5" dominant-baseline="ideographic">product usage</tspan></text></g></g></g><g id="g-root-tx_assessin_1qbyc5kxc4o3x-fill" data-item-order="1000000000" data-item-id="tx_assessin_1qbyc5kxc4o3x" data-item-class="Label Stroke Indexed" data-item-index="5" data-renderer-id="0" transform="translate(14, 98)"><g id="tx_assessin_1qbyc5kxc4o3x-fill" stroke="none" fill="#484848"><g><text style="font: 20px &quot;Shantell Sans&quot;, cursive; white-space: pre;" font-weight="20px" font-size="&quot;Shantell" font-family="Sans', cursive"><tspan x="17.98" y="35.5" dominant-baseline="ideographic">Assessing current </tspan><tspan x="50.84" y="59.5" dominant-baseline="ideographic">product usage</tspan></text></g></g></g><g id="g-root-tx_deprecat_1lw4u14xc4ow7-fill" data-item-order="1000000000" data-item-id="tx_deprecat_1lw4u14xc4ow7" data-item-class="Label Stroke Indexed InsideFill" data-item-index="2" data-renderer-id="0" transform="translate(410, 350)"><g id="tx_deprecat_1lw4u14xc4ow7-fill" stroke="none" fill="#484848"><g><text style="font: 20px &quot;Shantell Sans&quot;, cursive; white-space: pre;" font-weight="20px" font-size="&quot;Shantell" font-family="Sans', cursive"><tspan x="15.32" y="35.5" dominant-baseline="ideographic">Deprecation </tspan><tspan x="31.26" y="59.5" dominant-baseline="ideographic">Strategy</tspan></text></g></g></g><g id="g-root-tx_deprecat_1lw4u14xc4ow7-fill" data-item-order="1000000000" data-item-id="tx_deprecat_1lw4u14xc4ow7" data-item-class="Label Stroke Indexed InsideFill" data-item-index="2" data-renderer-id="0" transform="translate(410, 350)"><g id="tx_deprecat_1lw4u14xc4ow7-fill" stroke="none" fill="#484848"><g><text style="font: 20px &quot;Shantell Sans&quot;, cursive; white-space: pre;" font-weight="20px" font-size="&quot;Shantell" font-family="Sans', cursive"><tspan x="15.32" y="35.5" dominant-baseline="ideographic">Deprecation </tspan><tspan x="31.26" y="59.5" dominant-baseline="ideographic">Strategy</tspan></text></g></g></g><g id="g-root-tx_retireme_1lw4u14xc4ow6-fill" data-item-order="1000000000" data-item-id="tx_retireme_1lw4u14xc4ow6" data-item-class="Label Stroke Indexed Indexed_1 InsideFill InsideGrayFill ColorFillGray" data-item-index="1" data-renderer-id="0" transform="translate(416, 464)"><g id="tx_retireme_1lw4u14xc4ow6-fill" stroke="none" fill="#484848"><g><text style="font: 20px &quot;Shantell Sans&quot;, cursive; white-space: pre;" font-weight="20px" font-size="&quot;Shantell" font-family="Sans', cursive"><tspan x="14.38" y="35.5" dominant-baseline="ideographic">Retirement </tspan><tspan x="39.2" y="59.5" dominant-baseline="ideographic">Phase</tspan></text></g></g></g><g id="g-root-tx_corestra_6hafcxc4ni9-fill" data-item-order="1000000000" data-item-id="tx_corestra_6hafcxc4ni9" data-item-class="Label Stroke Indexed Indexed_1" data-item-index="1" data-renderer-id="0" transform="translate(2, 464)"><g id="tx_corestra_6hafcxc4ni9-fill" stroke="none" fill="#484848"><g><text style="font: 20px &quot;Shantell Sans&quot;, cursive; white-space: pre;" font-weight="20px" font-size="&quot;Shantell" font-family="Sans', cursive"><tspan x="33.94" y="35.5" dominant-baseline="ideographic">Core strategy for </tspan><tspan x="17.95" y="59.5" dominant-baseline="ideographic">product retirement</tspan></text></g></g></g><g id="g-root-tx_corestra_6hafcxc4ni9-fill" data-item-order="1000000000" data-item-id="tx_corestra_6hafcxc4ni9" data-item-class="Label Stroke Indexed Indexed_1" data-item-index="1" data-renderer-id="0" transform="translate(2, 464)"><g id="tx_corestra_6hafcxc4ni9-fill" stroke="none" fill="#484848"><g><text style="font: 20px &quot;Shantell Sans&quot;, cursive; white-space: pre;" font-weight="20px" font-size="&quot;Shantell" font-family="Sans', cursive"><tspan x="33.94" y="35.5" dominant-baseline="ideographic">Core strategy for </tspan><tspan x="17.95" y="59.5" dominant-baseline="ideographic">product retirement</tspan></text></g></g></g><g id="g-root-tx_retireme_1lw4u14xc4ow6-fill" data-item-order="1000000000" data-item-id="tx_retireme_1lw4u14xc4ow6" data-item-class="Label Stroke Indexed Indexed_1 InsideFill InsideGrayFill ColorFillGray" data-item-index="1" data-renderer-id="0" transform="translate(416, 464)"><g id="tx_retireme_1lw4u14xc4ow6-fill" stroke="none" fill="#484848"><g><text style="font: 20px &quot;Shantell Sans&quot;, cursive; white-space: pre;" font-weight="20px" font-size="&quot;Shantell" font-family="Sans', cursive"><tspan x="14.38" y="35.5" dominant-baseline="ideographic">Retirement </tspan><tspan x="39.2" y="59.5" dominant-baseline="ideographic">Phase</tspan></text></g></g></g><g id="g-root-tx_productr_4lobgoxc4pvs-fill" data-item-order="1000000000" data-item-id="tx_productr_4lobgoxc4pvs" data-item-class="Label Stroke Title" data-item-index="none" data-renderer-id="0" transform="translate(164, 2)"><g id="tx_productr_4lobgoxc4pvs-fill" stroke="none" fill="#484848"><g><text style="font: bold 25px &quot;Shantell Sans&quot;, cursive; white-space: pre;" font-weight="bold" font-size="25" font-family="'Shantell Sans', cursive"><tspan x="12.52" y="44.5" dominant-baseline="ideographic">Product Retirement Strategy</tspan></text></g></g></g><g id="g-root-tx_productr_4lobgoxc4pvs-fill" data-item-order="1000000000" data-item-id="tx_productr_4lobgoxc4pvs" data-item-class="Label Stroke Title" data-item-index="none" data-renderer-id="0" transform="translate(164, 2)"><g id="tx_productr_4lobgoxc4pvs-fill" stroke="none" fill="#484848"><g><text style="font: bold 25px &quot;Shantell Sans&quot;, cursive; white-space: pre;" font-weight="bold" font-size="25" font-family="'Shantell Sans', cursive"><tspan x="12.52" y="44.5" dominant-baseline="ideographic">Product Retirement Strategy</tspan></text></g></g></g><g id="g-root-5.cu_sy_4lobgoxc4pvr-stroke" data-item-order="999757940" data-item-id="5.cu_sy_4lobgoxc4pvr" data-item-class="Part Indexed Fill Stroke" data-item-index="5" data-renderer-id="0" transform="translate(230, 74)"><g id="5.cu_sy_4lobgoxc4pvr-stroke" fill="none" stroke-linecap="round" stroke-linejoin="round" stroke-miterlimit="4" stroke="#484848" stroke-width="4"><g><path d="M 256 502C 282.5 502 308.1 498.3 331.9 490.1C 358.7 480.8 382.9 466.8 405.8 451.1C 426.1 437.2 444 419.3 456.8 398.2C 468.6 378.7 479.3 358.5 488.3 337.1C 498.8 312.3 502.9 284.4 502 256C 501.1 228.2 497 201.6 488.9 176.5C 481.7 154.3 471.1 133.5 457.6 115C 443.1 95.2 425.3 78.5 407.3 62C 386.2 42.8 358.9 31.8 331.6 21.8C 308.1 13.2 282.3 8.4 256 10C 234.4 11.3 213.8 14.6 193.4 18C 173.2 21.4 154.4 30.2 137.3 40.5C 118.3 51.9 99.9 64.3 84.3 79.8C 68.8 95.2 53.5 111.5 43.9 131.3C 34.9 149.9 25.8 168.6 19.3 188.8C 12.5 209.9 10 232.7 10 256C 10 285.7 16.7 313.7 25 340.5C 32.8 366 47.1 388.8 63.5 409C 79.6 428.8 98.4 446.3 119.6 460.6C 139.2 473.8 161.5 482.7 184.1 491.2C 206.4 499.6 231.1 503.8 256 502C 240.9 501.9 226.5 498.6 212.1 497.2C 197.5 495.8 183.7 490 171 483.4C 158.9 477 147.2 470.3 136 462.8C 125.9 456 117.8 446.9 108.7 438.9C 99.5 430.8 93.1 420 85.7 410.2C 78.1 400 72.4 388.4 67.7 376.4C 62.6 363.7 57.2 350.7 55.7 336.7C 54.3 324 52.4 311.2 52 298C 51.6 284.3 55 271.1 55.9 258C 56.8 245.7 60.7 233.6 66.3 222.9C 71.1 213.7 74.8 203.9 79.9 194.9C 85.7 184.8 93.5 175.9 100.1 166.4C 106.8 156.8 115.4 148.4 124.9 141.7C 135.1 134.5 145.8 128.1 155.6 120.4C 163.7 114 174.5 112.3 183.6 107.2C 193.8 101.6 205.6 98.9 217.4 97.6C 230.1 96.3 242.8 94.8 256 94C 272.2 93 288 95.7 303 99.5C 317 102.9 329.8 109.2 343.1 113.5C 358.8 118.5 372.4 128.7 384.5 139.5C 395.5 149.4 407.9 158.4 415.6 171C 422.7 182.5 432.9 192.3 437.6 205C 443.1 219.8 448.9 234.5 454.3 249.8C 459.5 264.8 461 281.4 460 298C 459.2 310.7 457.9 323 456.6 335.2C 455.1 349.2 451.5 363 444.9 375.1C 438 387.9 431.9 400.9 424.4 413.2C 417.4 424.7 407.1 433.7 398.5 444C 389.5 454.6 377.1 461.6 365.9 469.9C 356.1 477.1 344 480.7 333.2 486.9C 321.1 493.9 306.8 497.9 292.4 498.8C 280.4 499.5 268.4 503.3 256 502M 256 502C 255.9 502 256.1 502 256 502"></path><path d="M 256 502C 391.862 502 502 391.862 502 256C 502 120.138 391.862 10 256 10C 120.138 10 10 120.138 10 256C 10 391.7287 120.3218 501.7842 256 502C 143.5177 501.7842 52 410.5328 52 298C 52 185.3339 143.3339 94 256 94C 368.6661 94 460 185.3339 460 298C 460 410.6661 368.6661 502 256 502ZM 256 502C 255.8666 502 256.1332 502.0007 256 502Z"></path></g></g></g><g id="g-root-5.cu_sy_4lobgoxc4pvr-stroke" data-item-order="999757940" data-item-id="5.cu_sy_4lobgoxc4pvr" data-item-class="Part Indexed Fill Stroke" data-item-index="5" data-renderer-id="0" transform="translate(230, 74)"><g id="5.cu_sy_4lobgoxc4pvr-stroke" fill="none" stroke-linecap="round" stroke-linejoin="round" stroke-miterlimit="4" stroke="#484848" stroke-width="4"><g><path d="M 256 502C 282.5 502 308.1 498.3 331.9 490.1C 358.7 480.8 382.9 466.8 405.8 451.1C 426.1 437.2 444 419.3 456.8 398.2C 468.6 378.7 479.3 358.5 488.3 337.1C 498.8 312.3 502.9 284.4 502 256C 501.1 228.2 497 201.6 488.9 176.5C 481.7 154.3 471.1 133.5 457.6 115C 443.1 95.2 425.3 78.5 407.3 62C 386.2 42.8 358.9 31.8 331.6 21.8C 308.1 13.2 282.3 8.4 256 10C 234.4 11.3 213.8 14.6 193.4 18C 173.2 21.4 154.4 30.2 137.3 40.5C 118.3 51.9 99.9 64.3 84.3 79.8C 68.8 95.2 53.5 111.5 43.9 131.3C 34.9 149.9 25.8 168.6 19.3 188.8C 12.5 209.9 10 232.7 10 256C 10 285.7 16.7 313.7 25 340.5C 32.8 366 47.1 388.8 63.5 409C 79.6 428.8 98.4 446.3 119.6 460.6C 139.2 473.8 161.5 482.7 184.1 491.2C 206.4 499.6 231.1 503.8 256 502C 240.9 501.9 226.5 498.6 212.1 497.2C 197.5 495.8 183.7 490 171 483.4C 158.9 477 147.2 470.3 136 462.8C 125.9 456 117.8 446.9 108.7 438.9C 99.5 430.8 93.1 420 85.7 410.2C 78.1 400 72.4 388.4 67.7 376.4C 62.6 363.7 57.2 350.7 55.7 336.7C 54.3 324 52.4 311.2 52 298C 51.6 284.3 55 271.1 55.9 258C 56.8 245.7 60.7 233.6 66.3 222.9C 71.1 213.7 74.8 203.9 79.9 194.9C 85.7 184.8 93.5 175.9 100.1 166.4C 106.8 156.8 115.4 148.4 124.9 141.7C 135.1 134.5 145.8 128.1 155.6 120.4C 163.7 114 174.5 112.3 183.6 107.2C 193.8 101.6 205.6 98.9 217.4 97.6C 230.1 96.3 242.8 94.8 256 94C 272.2 93 288 95.7 303 99.5C 317 102.9 329.8 109.2 343.1 113.5C 358.8 118.5 372.4 128.7 384.5 139.5C 395.5 149.4 407.9 158.4 415.6 171C 422.7 182.5 432.9 192.3 437.6 205C 443.1 219.8 448.9 234.5 454.3 249.8C 459.5 264.8 461 281.4 460 298C 459.2 310.7 457.9 323 456.6 335.2C 455.1 349.2 451.5 363 444.9 375.1C 438 387.9 431.9 400.9 424.4 413.2C 417.4 424.7 407.1 433.7 398.5 444C 389.5 454.6 377.1 461.6 365.9 469.9C 356.1 477.1 344 480.7 333.2 486.9C 321.1 493.9 306.8 497.9 292.4 498.8C 280.4 499.5 268.4 503.3 256 502M 256 502C 255.9 502 256.1 502 256 502"></path><path d="M 256 502C 391.862 502 502 391.862 502 256C 502 120.138 391.862 10 256 10C 120.138 10 10 120.138 10 256C 10 391.7287 120.3218 501.7842 256 502C 143.5177 501.7842 52 410.5328 52 298C 52 185.3339 143.3339 94 256 94C 368.6661 94 460 185.3339 460 298C 460 410.6661 368.6661 502 256 502ZM 256 502C 255.8666 502 256.1332 502.0007 256 502Z"></path></g></g></g><g id="g-root-4.cu_sy_91htl4xc4p3i-stroke" data-item-order="999757942" data-item-id="4.cu_sy_91htl4xc4p3i" data-item-class="Part Indexed Fill Stroke" data-item-index="4" data-renderer-id="0" transform="translate(272, 158)"><g id="4.cu_sy_91htl4xc4p3i-stroke" fill="none" stroke-linecap="round" stroke-linejoin="round" stroke-miterlimit="4" stroke="#484848" stroke-width="4"><g><path d="M 214 418C 231.2 417.1 248.4 417.5 263.9 411.9C 281.2 405.6 298.2 399.6 314.3 391.7C 329.5 384.2 342.7 373.2 354.8 361.6C 367.7 349.2 378.5 334.9 388.4 319.9C 398.9 304.1 404.6 285.5 411 267.1C 416.7 250.6 416.4 232.3 418 214C 420.4 186 410.4 159.8 402 134.7C 394 110.8 376.7 91.8 361 72.5C 343.5 51.1 318.5 36.9 292.7 25.7C 268.6 15.3 241.9 10.8 214 10C 183.9 9.1 156 18 129.6 28.2C 104.9 37.8 83.5 54.4 65.9 73.8C 47.5 93.9 34 117.7 22.7 143C 13.1 164.5 11 189 10 214C 9 238.7 13.3 262.9 22.5 284.4C 30.3 302.5 37.6 321 50.3 335.6C 65.3 352.8 80.8 369.5 99.5 382.7C 116 394.3 135.2 401.3 154.3 409C 172.6 416.4 193.2 418.3 214 418C 190.5 418.9 168.4 412.1 147.9 403.8C 128 395.8 109.3 383.7 96.2 367C 84.2 351.7 71.6 336.5 64.4 318.1C 56.8 298.8 51 278 52 256C 53.3 228.9 59.1 203.5 70.5 180.8C 82.3 157 100.2 136.1 122.7 122.2C 149.4 105.6 180.1 93 214 94C 238.4 94.7 261.7 99.1 282.3 109.1C 299.2 117.2 314.7 127.7 327.8 140.7C 343.9 156.7 358.2 175.4 365.1 197.3C 370.9 216 378 235.4 376 256C 373.3 283.9 367.6 309.7 356.3 333.4C 344.2 359 323 379.2 298.9 394C 274.2 409.2 245.1 417.5 214 418M 214 418C 213.9 418 214.1 418 214 418"></path><path d="M 214 418C 326.6661 418 418 326.6661 418 214C 418 101.3339 326.6661 10 214 10C 101.3339 10 10 101.3339 10 214C 10 326.5328 101.5177 417.7842 214 418C 124.7137 417.7843 52 345.3368 52 256C 52 166.5299 124.5299 94 214 94C 303.4701 94 376 166.5299 376 256C 376 345.4701 303.4701 418 214 418ZM 214 418C 213.8666 418 214.1332 418.0007 214 418Z"></path></g></g></g><g id="g-root-4.cu_sy_91htl4xc4p3i-stroke" data-item-order="999757942" data-item-id="4.cu_sy_91htl4xc4p3i" data-item-class="Part Indexed Fill Stroke" data-item-index="4" data-renderer-id="0" transform="translate(272, 158)"><g id="4.cu_sy_91htl4xc4p3i-stroke" fill="none" stroke-linecap="round" stroke-linejoin="round" stroke-miterlimit="4" stroke="#484848" stroke-width="4"><g><path d="M 214 418C 231.2 417.1 248.4 417.5 263.9 411.9C 281.2 405.6 298.2 399.6 314.3 391.7C 329.5 384.2 342.7 373.2 354.8 361.6C 367.7 349.2 378.5 334.9 388.4 319.9C 398.9 304.1 404.6 285.5 411 267.1C 416.7 250.6 416.4 232.3 418 214C 420.4 186 410.4 159.8 402 134.7C 394 110.8 376.7 91.8 361 72.5C 343.5 51.1 318.5 36.9 292.7 25.7C 268.6 15.3 241.9 10.8 214 10C 183.9 9.1 156 18 129.6 28.2C 104.9 37.8 83.5 54.4 65.9 73.8C 47.5 93.9 34 117.7 22.7 143C 13.1 164.5 11 189 10 214C 9 238.7 13.3 262.9 22.5 284.4C 30.3 302.5 37.6 321 50.3 335.6C 65.3 352.8 80.8 369.5 99.5 382.7C 116 394.3 135.2 401.3 154.3 409C 172.6 416.4 193.2 418.3 214 418C 190.5 418.9 168.4 412.1 147.9 403.8C 128 395.8 109.3 383.7 96.2 367C 84.2 351.7 71.6 336.5 64.4 318.1C 56.8 298.8 51 278 52 256C 53.3 228.9 59.1 203.5 70.5 180.8C 82.3 157 100.2 136.1 122.7 122.2C 149.4 105.6 180.1 93 214 94C 238.4 94.7 261.7 99.1 282.3 109.1C 299.2 117.2 314.7 127.7 327.8 140.7C 343.9 156.7 358.2 175.4 365.1 197.3C 370.9 216 378 235.4 376 256C 373.3 283.9 367.6 309.7 356.3 333.4C 344.2 359 323 379.2 298.9 394C 274.2 409.2 245.1 417.5 214 418M 214 418C 213.9 418 214.1 418 214 418"></path><path d="M 214 418C 326.6661 418 418 326.6661 418 214C 418 101.3339 326.6661 10 214 10C 101.3339 10 10 101.3339 10 214C 10 326.5328 101.5177 417.7842 214 418C 124.7137 417.7843 52 345.3368 52 256C 52 166.5299 124.5299 94 214 94C 303.4701 94 376 166.5299 376 256C 376 345.4701 303.4701 418 214 418ZM 214 418C 213.8666 418 214.1332 418.0007 214 418Z"></path></g></g></g><g id="g-root-3.cu_sy_91htl4xc4p3h-stroke" data-item-order="999757944" data-item-id="3.cu_sy_91htl4xc4p3h" data-item-class="Part Indexed Fill Stroke" data-item-index="3" data-renderer-id="0" transform="translate(314, 242)"><g id="3.cu_sy_91htl4xc4p3h-stroke" fill="none" stroke-linecap="round" stroke-linejoin="round" stroke-miterlimit="4" stroke="#484848" stroke-width="4"><g><path d="M 172 334C 203.8 335 232.8 323.6 258.6 308.9C 281.5 295.9 299 275.3 312.5 252.6C 326.6 229.1 334.5 201.4 334 172C 333.6 148.9 329.6 126.8 320.5 107.1C 311.5 87.8 300.3 69.6 284.7 55.6C 271 43.3 256.1 32.2 239 24.5C 218.6 15.2 195.9 9.7 172 10C 153.5 10.2 135.2 11.7 119.2 18.8C 104.2 25.5 89.4 32 76.3 41.3C 61.9 51.5 50 64.8 39.4 78.9C 30.1 91.3 23 105.4 18.4 120.5C 13.4 136.8 10.7 154 10 172C 9.1 194.3 15.5 215.1 22.7 234.8C 30.1 255.2 43.5 272.8 58.9 287.8C 73.3 301.8 90 313.9 109.1 321.2C 128.7 328.7 149.8 335.7 172 334C 151.6 333.9 132.4 328.8 115.6 319.8C 97.2 309.9 80 296.5 70.6 278C 60.6 258.4 52.8 237.5 52 214C 51.2 191.2 56.8 168.8 69.4 151.7C 81.8 135 95.8 119.7 113.7 109.1C 130.7 99 150.9 92.2 172 94C 193.6 95.8 214.8 98.4 231.5 109.7C 249.5 121.9 264.9 137 276.7 155.2C 287.4 172 292.7 192.7 292 214C 291.3 235.7 286 256 276.1 273.7C 265.4 292.9 248.7 307.5 230 319.1C 213.3 329.4 193 334 172 334M 172 334C 171.9 334 172.1 334 172 334"></path><path d="M 172 334C 261.4701 334 334 261.4701 334 172C 334 82.5299 261.4701 10 172 10C 82.5299 10 10 82.5299 10 172C 10 261.3368 82.7137 333.7843 172 334C 105.9097 333.7844 52 280.1408 52 214C 52 147.7258 105.7258 94 172 94C 238.2742 94 292 147.7258 292 214C 292 280.2742 238.2742 334 172 334ZM 172 334C 171.8666 334 172.1332 334.0007 172 334Z"></path></g></g></g><g id="g-root-3.cu_sy_91htl4xc4p3h-stroke" data-item-order="999757944" data-item-id="3.cu_sy_91htl4xc4p3h" data-item-class="Part Indexed Fill Stroke" data-item-index="3" data-renderer-id="0" transform="translate(314, 242)"><g id="3.cu_sy_91htl4xc4p3h-stroke" fill="none" stroke-linecap="round" stroke-linejoin="round" stroke-miterlimit="4" stroke="#484848" stroke-width="4"><g><path d="M 172 334C 203.8 335 232.8 323.6 258.6 308.9C 281.5 295.9 299 275.3 312.5 252.6C 326.6 229.1 334.5 201.4 334 172C 333.6 148.9 329.6 126.8 320.5 107.1C 311.5 87.8 300.3 69.6 284.7 55.6C 271 43.3 256.1 32.2 239 24.5C 218.6 15.2 195.9 9.7 172 10C 153.5 10.2 135.2 11.7 119.2 18.8C 104.2 25.5 89.4 32 76.3 41.3C 61.9 51.5 50 64.8 39.4 78.9C 30.1 91.3 23 105.4 18.4 120.5C 13.4 136.8 10.7 154 10 172C 9.1 194.3 15.5 215.1 22.7 234.8C 30.1 255.2 43.5 272.8 58.9 287.8C 73.3 301.8 90 313.9 109.1 321.2C 128.7 328.7 149.8 335.7 172 334C 151.6 333.9 132.4 328.8 115.6 319.8C 97.2 309.9 80 296.5 70.6 278C 60.6 258.4 52.8 237.5 52 214C 51.2 191.2 56.8 168.8 69.4 151.7C 81.8 135 95.8 119.7 113.7 109.1C 130.7 99 150.9 92.2 172 94C 193.6 95.8 214.8 98.4 231.5 109.7C 249.5 121.9 264.9 137 276.7 155.2C 287.4 172 292.7 192.7 292 214C 291.3 235.7 286 256 276.1 273.7C 265.4 292.9 248.7 307.5 230 319.1C 213.3 329.4 193 334 172 334M 172 334C 171.9 334 172.1 334 172 334"></path><path d="M 172 334C 261.4701 334 334 261.4701 334 172C 334 82.5299 261.4701 10 172 10C 82.5299 10 10 82.5299 10 172C 10 261.3368 82.7137 333.7843 172 334C 105.9097 333.7844 52 280.1408 52 214C 52 147.7258 105.7258 94 172 94C 238.2742 94 292 147.7258 292 214C 292 280.2742 238.2742 334 172 334ZM 172 334C 171.8666 334 172.1332 334.0007 172 334Z"></path></g></g></g><g id="g-root-2.cu_sy_91htl4xc4p3g-stroke" data-item-order="999757946" data-item-id="2.cu_sy_91htl4xc4p3g" data-item-class="Part Indexed Fill Stroke" data-item-index="2" data-renderer-id="0" transform="translate(356, 326)"><g id="2.cu_sy_91htl4xc4p3g-stroke" fill="none" stroke-linecap="round" stroke-linejoin="round" stroke-miterlimit="4" stroke="#484848" stroke-width="4"><g><path d="M 130 250C 152.1 250 172.8 244 190.6 233.6C 209.7 222.4 224.1 205.4 235.8 186.6C 246 170.4 251.6 150.4 250 130C 248.2 106.7 242.7 85.2 231.8 66.4C 221 47.9 204.2 33.4 185.1 23.4C 168.7 14.8 149.9 9.4 130 10C 114.7 10.5 100.7 14.6 86.7 18.1C 71.1 21.9 59 33.5 46.8 43.5C 34.2 53.9 27 69.2 19.2 83.8C 12 97.4 12 113.8 10 130C 8 146.5 12.3 162.9 19.5 176.8C 26.6 190.5 34.6 203.6 45.2 214.7C 55.4 225.5 68.2 233.5 81.9 239.8C 96.6 246.6 113 249.1 130 250C 106.6 248 85.6 239.2 71.1 222.9C 59 209.4 50.7 191.4 52 172C 53.5 149.2 61.4 128.1 77.4 114.4C 91.7 102.2 109.8 93.9 130 94C 153.2 94.1 174.4 103.8 188.3 120.2C 200.3 134.2 208.4 152.1 208 172C 207.5 195.7 197.7 217.3 180.8 231.2C 166.9 242.6 149.3 252 130 250M 130 250C 129.9 250 130.1 250 130 250"></path><path d="M 130 250C 196.2742 250 250 196.2742 250 130C 250 63.7258 196.2742 10 130 10C 63.7258 10 10 63.7258 10 130C 10 196.1408 63.9097 249.7844 130 250C 87.1057 249.7847 52 214.9449 52 172C 52 128.9218 86.9218 94 130 94C 173.0782 94 208 128.9218 208 172C 208 215.0782 173.0782 250 130 250ZM 130 250C 129.8666 250 130.1332 250.0007 130 250Z"></path></g></g></g><g id="g-root-2.cu_sy_91htl4xc4p3g-stroke" data-item-order="999757946" data-item-id="2.cu_sy_91htl4xc4p3g" data-item-class="Part Indexed Fill Stroke" data-item-index="2" data-renderer-id="0" transform="translate(356, 326)"><g id="2.cu_sy_91htl4xc4p3g-stroke" fill="none" stroke-linecap="round" stroke-linejoin="round" stroke-miterlimit="4" stroke="#484848" stroke-width="4"><g><path d="M 130 250C 152.1 250 172.8 244 190.6 233.6C 209.7 222.4 224.1 205.4 235.8 186.6C 246 170.4 251.6 150.4 250 130C 248.2 106.7 242.7 85.2 231.8 66.4C 221 47.9 204.2 33.4 185.1 23.4C 168.7 14.8 149.9 9.4 130 10C 114.7 10.5 100.7 14.6 86.7 18.1C 71.1 21.9 59 33.5 46.8 43.5C 34.2 53.9 27 69.2 19.2 83.8C 12 97.4 12 113.8 10 130C 8 146.5 12.3 162.9 19.5 176.8C 26.6 190.5 34.6 203.6 45.2 214.7C 55.4 225.5 68.2 233.5 81.9 239.8C 96.6 246.6 113 249.1 130 250C 106.6 248 85.6 239.2 71.1 222.9C 59 209.4 50.7 191.4 52 172C 53.5 149.2 61.4 128.1 77.4 114.4C 91.7 102.2 109.8 93.9 130 94C 153.2 94.1 174.4 103.8 188.3 120.2C 200.3 134.2 208.4 152.1 208 172C 207.5 195.7 197.7 217.3 180.8 231.2C 166.9 242.6 149.3 252 130 250M 130 250C 129.9 250 130.1 250 130 250"></path><path d="M 130 250C 196.2742 250 250 196.2742 250 130C 250 63.7258 196.2742 10 130 10C 63.7258 10 10 63.7258 10 130C 10 196.1408 63.9097 249.7844 130 250C 87.1057 249.7847 52 214.9449 52 172C 52 128.9218 86.9218 94 130 94C 173.0782 94 208 128.9218 208 172C 208 215.0782 173.0782 250 130 250ZM 130 250C 129.8666 250 130.1332 250.0007 130 250Z"></path></g></g></g><g id="g-root-1.cu_sy_91htl4xc4p3f-stroke" data-item-order="999757948" data-item-id="1.cu_sy_91htl4xc4p3f" data-item-class="Part Indexed Indexed_1 Fill Stroke ColorFillGray" data-item-index="1" data-renderer-id="0" transform="translate(398, 410)"><g id="1.cu_sy_91htl4xc4p3f-stroke" fill="none" stroke-linecap="round" stroke-linejoin="round" stroke-miterlimit="4" stroke="#484848" stroke-width="4"><g><path d="M 166 88C 165.1 108.9 157.3 127.6 144.3 142C 130.5 157.2 110.1 164.3 88 166C 65.6 166.9 45 156.6 31 141.1C 18.3 126.9 8.8 108.5 10 88C 11.2 68.3 17 50 29.4 36.5C 44.1 20.6 64.7 9.2 88 10C 110 10.7 130.7 18.3 144 33.8C 156.8 48.5 164.8 67 166 88M 88 166C 87.9 166 88.1 166 88 166"></path><path d="M 166 88C 166 131.0782 131.0782 166 88 166C 45.1057 165.7847 10 130.9449 10 88C 10 44.9218 44.9218 10 88 10C 131.0782 10 166 44.9218 166 88ZM 88 166C 87.8666 166 88.1332 166.0007 88 166Z"></path></g></g></g><g id="g-root-1.cu_sy_91htl4xc4p3f-stroke" data-item-order="999757948" data-item-id="1.cu_sy_91htl4xc4p3f" data-item-class="Part Indexed Indexed_1 Fill Stroke ColorFillGray" data-item-index="1" data-renderer-id="0" transform="translate(398, 410)"><g id="1.cu_sy_91htl4xc4p3f-stroke" fill="none" stroke-linecap="round" stroke-linejoin="round" stroke-miterlimit="4" stroke="#484848" stroke-width="4"><g><path d="M 166 88C 165.1 108.9 157.3 127.6 144.3 142C 130.5 157.2 110.1 164.3 88 166C 65.6 166.9 45 156.6 31 141.1C 18.3 126.9 8.8 108.5 10 88C 11.2 68.3 17 50 29.4 36.5C 44.1 20.6 64.7 9.2 88 10C 110 10.7 130.7 18.3 144 33.8C 156.8 48.5 164.8 67 166 88M 88 166C 87.9 166 88.1 166 88 166"></path><path d="M 166 88C 166 131.0782 131.0782 166 88 166C 45.1057 165.7847 10 130.9449 10 88C 10 44.9218 44.9218 10 88 10C 131.0782 10 166 44.9218 166 88ZM 88 166C 87.8666 166 88.1332 166.0007 88 166Z"></path></g></g></g><g id="g-root-tx_informin_1qbyc5kxc4o3w-stroke" data-item-order="1000000000" data-item-id="tx_informin_1qbyc5kxc4o3w" data-item-class="Label Stroke Indexed" data-item-index="4" data-renderer-id="0" transform="translate(2, 170)"></g><g id="g-root-tx_informin_1qbyc5kxc4o3w-stroke" data-item-order="1000000000" data-item-id="tx_informin_1qbyc5kxc4o3w" data-item-class="Label Stroke Indexed" data-item-index="4" data-renderer-id="0" transform="translate(2, 170)"></g><g id="g-root-tx_timeline_1hgbbwoxc4poh-stroke" data-item-order="1000000000" data-item-id="tx_timeline_1hgbbwoxc4poh" data-item-class="Label Stroke Indexed InsideFill" data-item-index="4" data-renderer-id="0" transform="translate(398, 182)"></g><g id="g-root-tx_timeline_1hgbbwoxc4poh-stroke" data-item-order="1000000000" data-item-id="tx_timeline_1hgbbwoxc4poh" data-item-class="Label Stroke Indexed InsideFill" data-item-index="4" data-renderer-id="0" transform="translate(398, 182)"></g><g id="g-root-tx_usageana_18kobnsxc4qh6-stroke" data-item-order="1000000000" data-item-id="tx_usageana_18kobnsxc4qh6" data-item-class="Label Stroke Indexed InsideFill" data-item-index="5" data-renderer-id="0" transform="translate(398, 110)"></g><g id="g-root-tx_usageana_18kobnsxc4qh6-stroke" data-item-order="1000000000" data-item-id="tx_usageana_18kobnsxc4qh6" data-item-class="Label Stroke Indexed InsideFill" data-item-index="5" data-renderer-id="0" transform="translate(398, 110)"></g><g id="g-root-tx_executio_1qbyc5kxc4o3v-stroke" data-item-order="1000000000" data-item-id="tx_executio_1qbyc5kxc4o3v" data-item-class="Label Stroke Indexed" data-item-index="3" data-renderer-id="0" transform="translate(26, 266)"></g><g id="g-root-tx_executio_1qbyc5kxc4o3v-stroke" data-item-order="1000000000" data-item-id="tx_executio_1qbyc5kxc4o3v" data-item-class="Label Stroke Indexed" data-item-index="3" data-renderer-id="0" transform="translate(26, 266)"></g><g id="g-root-tx_sunsetpr_1hgbbwoxc4pog-stroke" data-item-order="1000000000" data-item-id="tx_sunsetpr_1hgbbwoxc4pog" data-item-class="Label Stroke Indexed InsideFill" data-item-index="3" data-renderer-id="0" transform="translate(398, 278)"></g><g id="g-root-tx_sunsetpr_1hgbbwoxc4pog-stroke" data-item-order="1000000000" data-item-id="tx_sunsetpr_1hgbbwoxc4pog" data-item-class="Label Stroke Indexed InsideFill" data-item-index="3" data-renderer-id="0" transform="translate(398, 278)"></g><g id="g-root-tx_planning_6hafcxc4nia-stroke" data-item-order="1000000000" data-item-id="tx_planning_6hafcxc4nia" data-item-class="Label Stroke Indexed" data-item-index="2" data-renderer-id="0" transform="translate(38, 338)"></g><g id="g-root-tx_planning_6hafcxc4nia-stroke" data-item-order="1000000000" data-item-id="tx_planning_6hafcxc4nia" data-item-class="Label Stroke Indexed" data-item-index="2" data-renderer-id="0" transform="translate(38, 338)"></g><g id="g-root-tx_assessin_1qbyc5kxc4o3x-stroke" data-item-order="1000000000" data-item-id="tx_assessin_1qbyc5kxc4o3x" data-item-class="Label Stroke Indexed" data-item-index="5" data-renderer-id="0" transform="translate(14, 98)"></g><g id="g-root-tx_assessin_1qbyc5kxc4o3x-stroke" data-item-order="1000000000" data-item-id="tx_assessin_1qbyc5kxc4o3x" data-item-class="Label Stroke Indexed" data-item-index="5" data-renderer-id="0" transform="translate(14, 98)"></g><g id="g-root-tx_deprecat_1lw4u14xc4ow7-stroke" data-item-order="1000000000" data-item-id="tx_deprecat_1lw4u14xc4ow7" data-item-class="Label Stroke Indexed InsideFill" data-item-index="2" data-renderer-id="0" transform="translate(410, 350)"></g><g id="g-root-tx_deprecat_1lw4u14xc4ow7-stroke" data-item-order="1000000000" data-item-id="tx_deprecat_1lw4u14xc4ow7" data-item-class="Label Stroke Indexed InsideFill" data-item-index="2" data-renderer-id="0" transform="translate(410, 350)"></g><g id="g-root-tx_retireme_1lw4u14xc4ow6-stroke" data-item-order="1000000000" data-item-id="tx_retireme_1lw4u14xc4ow6" data-item-class="Label Stroke Indexed Indexed_1 InsideFill InsideGrayFill ColorFillGray" data-item-index="1" data-renderer-id="0" transform="translate(416, 464)"></g><g id="g-root-tx_corestra_6hafcxc4ni9-stroke" data-item-order="1000000000" data-item-id="tx_corestra_6hafcxc4ni9" data-item-class="Label Stroke Indexed Indexed_1" data-item-index="1" data-renderer-id="0" transform="translate(2, 464)"></g><g id="g-root-tx_corestra_6hafcxc4ni9-stroke" data-item-order="1000000000" data-item-id="tx_corestra_6hafcxc4ni9" data-item-class="Label Stroke Indexed Indexed_1" data-item-index="1" data-renderer-id="0" transform="translate(2, 464)"></g><g id="g-root-tx_retireme_1lw4u14xc4ow6-stroke" data-item-order="1000000000" data-item-id="tx_retireme_1lw4u14xc4ow6" data-item-class="Label Stroke Indexed Indexed_1 InsideFill InsideGrayFill ColorFillGray" data-item-index="1" data-renderer-id="0" transform="translate(416, 464)"></g><g id="g-root-tx_productr_4lobgoxc4pvs-stroke" data-item-order="1000000000" data-item-id="tx_productr_4lobgoxc4pvs" data-item-class="Label Stroke Title" data-item-index="none" data-renderer-id="0" transform="translate(164, 2)"></g><g id="g-root-tx_productr_4lobgoxc4pvs-stroke" data-item-order="1000000000" data-item-id="tx_productr_4lobgoxc4pvs" data-item-class="Label Stroke Title" data-item-index="none" data-renderer-id="0" transform="translate(164, 2)"></g></g></g></svg>