<?xml version="1.0" encoding="utf-8" standalone="yes"?>
<!DOCTYPE svg PUBLIC "-//W3C//DTD SVG 1.1//EN" "http://www.w3.org/Graphics/SVG/1.1/DTD/svg11.dtd">
<svg width="792" height="433" viewBox="0 0 792 433" style="fill:none;stroke:none;fill-rule:evenodd;clip-rule:evenodd;stroke-linecap:round;stroke-linejoin:round;stroke-miterlimit:1.5;" version="1.1" xmlns="http://www.w3.org/2000/svg" xmlns:xlink="http://www.w3.org/1999/xlink"><style id="fontImports">@import url("https://fonts.googleapis.com/css2?family=Shantell+Sans:wght@300..800&amp;display=block");</style><g id="items" style="isolation: isolate"><g id="blend" style="mix-blend-mode:normal"><g id="g-root-4.cu_sy_hvwo3yicz0n8-fill" data-item-order="999928518" data-item-id="4.cu_sy_hvwo3yicz0n8" data-item-class="Part Indexed Fill Stroke" data-item-index="4" data-renderer-id="0" transform="translate(444.16845703125, 260.3671875)"><g id="4.cu_sy_hvwo3yicz0n8-fill" stroke="none" fill="#fff9ce"><g><path d="M 28.4966 135.818L 143.661 135.878C 142.249 87.2093 122.726 43.0818 91.5959 10L 10 91.512001C 20.4126 103.606801 27.1545 118.952001 28.4966 135.818Z"></path></g></g></g><g id="g-root-4.cu_sy_hvwo3yicz0n8-fill" data-item-order="999928518" data-item-id="4.cu_sy_hvwo3yicz0n8" data-item-class="Part Indexed Fill Stroke" data-item-index="4" data-renderer-id="0" transform="translate(444.16845703125, 260.3671875)"><g id="4.cu_sy_hvwo3yicz0n8-fill" stroke="none" fill="#fff9ce"><g><path d="M 28.4966 135.818L 143.661 135.878C 142.249 87.2093 122.726 43.0818 91.5959 10L 10 91.512001C 20.4126 103.606801 27.1545 118.952001 28.4966 135.818Z"></path></g></g></g><g id="g-root-3.cu_sy_hvwo3yicz0n7-fill" data-item-order="999928520" data-item-id="3.cu_sy_hvwo3yicz0n7" data-item-class="Part Indexed Fill Stroke" data-item-index="3" data-renderer-id="0" transform="translate(391.72265625, 200.005859375)"><g id="3.cu_sy_hvwo3yicz0n7-fill" stroke="none" fill="#ecf7d5"><g><path d="M 54.2876 143.707L 135.884 62.1953C 102.8306 31.0287 58.7202 11.4613 10.0593 10L 10 125.165C 26.8633 126.524 42.2024 133.282 54.2876 143.707Z"></path></g></g></g><g id="g-root-3.cu_sy_hvwo3yicz0n7-fill" data-item-order="999928520" data-item-id="3.cu_sy_hvwo3yicz0n7" data-item-class="Part Indexed Fill Stroke" data-item-index="3" data-renderer-id="0" transform="translate(391.72265625, 200.005859375)"><g id="3.cu_sy_hvwo3yicz0n7-fill" stroke="none" fill="#ecf7d5"><g><path d="M 54.2876 143.707L 135.884 62.1953C 102.8306 31.0287 58.7202 11.4613 10.0593 10L 10 125.165C 26.8633 126.524 42.2024 133.282 54.2876 143.707Z"></path></g></g></g><g id="g-root-2.cu_sy_mb3p5aicz30q-fill" data-item-order="999928522" data-item-id="2.cu_sy_mb3p5aicz30q" data-item-class="Part Indexed Fill Stroke" data-item-index="2" data-renderer-id="0" transform="translate(254.361328125, 200)"><g id="2.cu_sy_mb3p5aicz30q-fill" stroke="none" fill="#d5f7e8"><g><path d="M 91.0519 143.201C 103.3025 132.847 118.81 126.225 135.818 125.092L 135.878 10C 87.2093 11.4122 43.0818 30.9356 10 62.0655L 91.0519 143.201Z"></path></g></g></g><g id="g-root-2.cu_sy_mb3p5aicz30q-fill" data-item-order="999928522" data-item-id="2.cu_sy_mb3p5aicz30q" data-item-class="Part Indexed Fill Stroke" data-item-index="2" data-renderer-id="0" transform="translate(254.361328125, 200)"><g id="2.cu_sy_mb3p5aicz30q-fill" stroke="none" fill="#d5f7e8"><g><path d="M 91.0519 143.201C 103.3025 132.847 118.81 126.225 135.818 125.092L 135.878 10C 87.2093 11.4122 43.0818 30.9356 10 62.0655L 91.0519 143.201Z"></path></g></g></g><g id="g-root-1.cu_sy_mb3p5aicz30p-fill" data-item-order="999928524" data-item-id="1.cu_sy_mb3p5aicz30p" data-item-class="Part Indexed Indexed_1 Fill Stroke" data-item-index="1" data-renderer-id="0" transform="translate(194, 260.2236328125)"><g id="1.cu_sy_mb3p5aicz30p-fill" stroke="none" fill="#cef3ff"><g><path d="M 62.1951 10C 31.0286 43.0529 11.4613 87.1633 10 135.824L 124.165 135.883C 125.545 118.77 132.483 103.2269 143.173 91.0611L 62.1951 10Z"></path></g></g></g><g id="g-root-1.cu_sy_mb3p5aicz30p-fill" data-item-order="999928524" data-item-id="1.cu_sy_mb3p5aicz30p" data-item-class="Part Indexed Indexed_1 Fill Stroke" data-item-index="1" data-renderer-id="0" transform="translate(194, 260.2236328125)"><g id="1.cu_sy_mb3p5aicz30p-fill" stroke="none" fill="#cef3ff"><g><path d="M 62.1951 10C 31.0286 43.0529 11.4613 87.1633 10 135.824L 124.165 135.883C 125.545 118.77 132.483 103.2269 143.173 91.0611L 62.1951 10Z"></path></g></g></g><g id="g-root-tx_anxmlbas_909nv2icz1fy-fill" data-item-order="1000000000" data-item-id="tx_anxmlbas_909nv2icz1fy" data-item-class="Label Stroke Indexed ColorFillBlack ColorStrokeBlack" data-item-index="3" data-renderer-id="0" transform="translate(428, 110)"><g id="tx_anxmlbas_909nv2icz1fy-fill" stroke="none" fill="#484848"><g><text style="font: 15px &quot;Shantell Sans&quot;, cursive; white-space: pre;" font-weight="15px" font-size="&quot;Shantell" font-family="Sans', cursive"><tspan x="32.8" y="29" dominant-baseline="ideographic">An XML-based </tspan><tspan x="15.88" y="47" dominant-baseline="ideographic">protocol known for </tspan><tspan x="19.02" y="65" dominant-baseline="ideographic">security and strict </tspan><tspan x="46.84" y="83" dominant-baseline="ideographic">standards.</tspan></text></g></g></g><g id="g-root-tx_anxmlbas_909nv2icz1fy-fill" data-item-order="1000000000" data-item-id="tx_anxmlbas_909nv2icz1fy" data-item-class="Label Stroke Indexed ColorFillBlack ColorStrokeBlack" data-item-index="3" data-renderer-id="0" transform="translate(428, 110)"><g id="tx_anxmlbas_909nv2icz1fy-fill" stroke="none" fill="#484848"><g><text style="font: 15px &quot;Shantell Sans&quot;, cursive; white-space: pre;" font-weight="15px" font-size="&quot;Shantell" font-family="Sans', cursive"><tspan x="32.8" y="29" dominant-baseline="ideographic">An XML-based </tspan><tspan x="15.88" y="47" dominant-baseline="ideographic">protocol known for </tspan><tspan x="19.02" y="65" dominant-baseline="ideographic">security and strict </tspan><tspan x="46.84" y="83" dominant-baseline="ideographic">standards.</tspan></text></g></g></g><g id="g-root-tx_aflexibl_4kg5qmicz287-fill" data-item-order="1000000000" data-item-id="tx_aflexibl_4kg5qmicz287" data-item-class="Label Stroke Indexed ColorFillBlack ColorStrokeBlack" data-item-index="2" data-renderer-id="0" transform="translate(188, 110)"><g id="tx_aflexibl_4kg5qmicz287-fill" stroke="none" fill="#484848"><g><text style="font: 15px &quot;Shantell Sans&quot;, cursive; white-space: pre;" font-weight="15px" font-size="&quot;Shantell" font-family="Sans', cursive"><tspan x="28.47" y="29" dominant-baseline="ideographic">A flexible query </tspan><tspan x="18.19" y="47" dominant-baseline="ideographic">language allowing </tspan><tspan x="12.09" y="65" dominant-baseline="ideographic">client-specified data </tspan><tspan x="52.91" y="83" dominant-baseline="ideographic">retrieval.</tspan></text></g></g></g><g id="g-root-tx_aflexibl_4kg5qmicz287-fill" data-item-order="1000000000" data-item-id="tx_aflexibl_4kg5qmicz287" data-item-class="Label Stroke Indexed ColorFillBlack ColorStrokeBlack" data-item-index="2" data-renderer-id="0" transform="translate(188, 110)"><g id="tx_aflexibl_4kg5qmicz287-fill" stroke="none" fill="#484848"><g><text style="font: 15px &quot;Shantell Sans&quot;, cursive; white-space: pre;" font-weight="15px" font-size="&quot;Shantell" font-family="Sans', cursive"><tspan x="28.47" y="29" dominant-baseline="ideographic">A flexible query </tspan><tspan x="18.19" y="47" dominant-baseline="ideographic">language allowing </tspan><tspan x="12.09" y="65" dominant-baseline="ideographic">client-specified data </tspan><tspan x="52.91" y="83" dominant-baseline="ideographic">retrieval.</tspan></text></g></g></g><g id="g-root-tx_soap_4mnm6icz30i-fill" data-item-order="1000000000" data-item-id="tx_soap_4mnm6icz30i" data-item-class="Label Stroke Indexed" data-item-index="3" data-renderer-id="0" transform="translate(476.076171875, 74)"><g id="tx_soap_4mnm6icz30i-fill" stroke="none" fill="#93c131"><g><text style="font: bold 20px &quot;Shantell Sans&quot;, cursive; white-space: pre;" font-weight="bold" font-size="20" font-family="'Shantell Sans', cursive"><tspan x="13.03" y="35" dominant-baseline="ideographic">SOAP</tspan></text></g></g></g><g id="g-root-tx_rest_1qaq6fiicz0gc-fill" data-item-order="1000000000" data-item-id="tx_rest_1qaq6fiicz0gc" data-item-class="Label Stroke Indexed Indexed_1" data-item-index="1" data-renderer-id="0" transform="translate(56, 254)"><g id="tx_rest_1qaq6fiicz0gc-fill" stroke="none" fill="#17b0e3"><g><text style="font: bold 20px &quot;Shantell Sans&quot;, cursive; white-space: pre;" font-weight="bold" font-size="20" font-family="'Shantell Sans', cursive"><tspan x="14.31" y="35" dominant-baseline="ideographic">REST</tspan></text></g></g></g><g id="g-root-tx_rest_1qaq6fiicz0gc-fill" data-item-order="1000000000" data-item-id="tx_rest_1qaq6fiicz0gc" data-item-class="Label Stroke Indexed Indexed_1" data-item-index="1" data-renderer-id="0" transform="translate(56, 254)"><g id="tx_rest_1qaq6fiicz0gc-fill" stroke="none" fill="#17b0e3"><g><text style="font: bold 20px &quot;Shantell Sans&quot;, cursive; white-space: pre;" font-weight="bold" font-size="20" font-family="'Shantell Sans', cursive"><tspan x="14.31" y="35" dominant-baseline="ideographic">REST</tspan></text></g></g></g><g id="g-root-ques_142dpn2id39jf-fill" data-item-order="1000000000" data-item-id="ques_142dpn2id39jf" data-item-class="Icon Stroke Indexed InsideFill" data-item-index="2" data-renderer-id="0" transform="translate(311, 242)"></g><g id="g-root-ques_142dpn2id39jf-fill" data-item-order="1000000000" data-item-id="ques_142dpn2id39jf" data-item-class="Icon Stroke Indexed InsideFill" data-item-index="2" data-renderer-id="0" transform="translate(311, 242)"></g><g id="g-root-key_142dpn2id39jg-fill" data-item-order="1000000000" data-item-id="key_142dpn2id39jg" data-item-class="Icon Stroke Indexed InsideFill" data-item-index="3" data-renderer-id="0" transform="translate(413, 242)"></g><g id="g-root-key_142dpn2id39jg-fill" data-item-order="1000000000" data-item-id="key_142dpn2id39jg" data-item-class="Icon Stroke Indexed InsideFill" data-item-index="3" data-renderer-id="0" transform="translate(413, 242)"></g><g id="g-root-tx_soap_4mnm6icz30i-fill" data-item-order="1000000000" data-item-id="tx_soap_4mnm6icz30i" data-item-class="Label Stroke Indexed" data-item-index="3" data-renderer-id="0" transform="translate(476.076171875, 74)"><g id="tx_soap_4mnm6icz30i-fill" stroke="none" fill="#93c131"><g><text style="font: bold 20px &quot;Shantell Sans&quot;, cursive; white-space: pre;" font-weight="bold" font-size="20" font-family="'Shantell Sans', cursive"><tspan x="13.03" y="35" dominant-baseline="ideographic">SOAP</tspan></text></g></g></g><g id="g-root-tx_graphql_1qaq6fiicz0gb-fill" data-item-order="1000000000" data-item-id="tx_graphql_1qaq6fiicz0gb" data-item-class="Label Stroke Indexed" data-item-index="2" data-renderer-id="0" transform="translate(218, 74)"><g id="tx_graphql_1qaq6fiicz0gb-fill" stroke="none" fill="#3bc482"><g><text style="font: bold 20px &quot;Shantell Sans&quot;, cursive; white-space: pre;" font-weight="bold" font-size="20" font-family="'Shantell Sans', cursive"><tspan x="12.62" y="35" dominant-baseline="ideographic">GraphQL</tspan></text></g></g></g><g id="g-root-tx_graphql_1qaq6fiicz0gb-fill" data-item-order="1000000000" data-item-id="tx_graphql_1qaq6fiicz0gb" data-item-class="Label Stroke Indexed" data-item-index="2" data-renderer-id="0" transform="translate(218, 74)"><g id="tx_graphql_1qaq6fiicz0gb-fill" stroke="none" fill="#3bc482"><g><text style="font: bold 20px &quot;Shantell Sans&quot;, cursive; white-space: pre;" font-weight="bold" font-size="20" font-family="'Shantell Sans', cursive"><tspan x="12.62" y="35" dominant-baseline="ideographic">GraphQL</tspan></text></g></g></g><g id="g-root-tx_apitypes_1qaq6fiicz0gd-fill" data-item-order="1000000000" data-item-id="tx_apitypes_1qaq6fiicz0gd" data-item-class="Label Stroke Title ColorFillBlack ColorStrokeBlack" data-item-index="none" data-renderer-id="0" transform="translate(332, 2)"><g id="tx_apitypes_1qaq6fiicz0gd-fill" stroke="none" fill="#484848"><g><text style="font: bold 20px &quot;Shantell Sans&quot;, cursive; white-space: pre;" font-weight="bold" font-size="20" font-family="'Shantell Sans', cursive"><tspan x="12.34" y="35" dominant-baseline="ideographic">API Types</tspan></text></g></g></g><g id="g-root-tx_grpc_4mnm6icz30h-fill" data-item-order="1000000000" data-item-id="tx_grpc_4mnm6icz30h" data-item-class="Label Stroke Indexed" data-item-index="4" data-renderer-id="0" transform="translate(656, 254)"><g id="tx_grpc_4mnm6icz30h-fill" stroke="none" fill="#e3cd09"><g><text style="font: bold 20px &quot;Shantell Sans&quot;, cursive; white-space: pre;" font-weight="bold" font-size="20" font-family="'Shantell Sans', cursive"><tspan x="13.79" y="35" dominant-baseline="ideographic">gRPC</tspan></text></g></g></g><g id="g-root-tx_grpc_4mnm6icz30h-fill" data-item-order="1000000000" data-item-id="tx_grpc_4mnm6icz30h" data-item-class="Label Stroke Indexed" data-item-index="4" data-renderer-id="0" transform="translate(656, 254)"><g id="tx_grpc_4mnm6icz30h-fill" stroke="none" fill="#e3cd09"><g><text style="font: bold 20px &quot;Shantell Sans&quot;, cursive; white-space: pre;" font-weight="bold" font-size="20" font-family="'Shantell Sans', cursive"><tspan x="13.79" y="35" dominant-baseline="ideographic">gRPC</tspan></text></g></g></g><g id="g-root-tx_astatele_4kg5qmicz288-fill" data-item-order="1000000000" data-item-id="tx_astatele_4kg5qmicz288" data-item-class="Label Stroke Indexed Indexed_1 ColorFillBlack ColorStrokeBlack" data-item-index="1" data-renderer-id="0" transform="translate(2, 290)"><g id="tx_astatele_4kg5qmicz288-fill" stroke="none" fill="#484848"><g><text style="font: 15px &quot;Shantell Sans&quot;, cursive; white-space: pre;" font-weight="15px" font-size="&quot;Shantell" font-family="Sans', cursive"><tspan x="14.43" y="29" dominant-baseline="ideographic">A stateless, resource-</tspan><tspan x="25.01" y="47" dominant-baseline="ideographic">based architecture </tspan><tspan x="16.88" y="65" dominant-baseline="ideographic">using standard HTTP </tspan><tspan x="59.66" y="83" dominant-baseline="ideographic">methods.</tspan></text></g></g></g><g id="g-root-tx_astatele_4kg5qmicz288-fill" data-item-order="1000000000" data-item-id="tx_astatele_4kg5qmicz288" data-item-class="Label Stroke Indexed Indexed_1 ColorFillBlack ColorStrokeBlack" data-item-index="1" data-renderer-id="0" transform="translate(2, 290)"><g id="tx_astatele_4kg5qmicz288-fill" stroke="none" fill="#484848"><g><text style="font: 15px &quot;Shantell Sans&quot;, cursive; white-space: pre;" font-weight="15px" font-size="&quot;Shantell" font-family="Sans', cursive"><tspan x="14.43" y="29" dominant-baseline="ideographic">A stateless, resource-</tspan><tspan x="25.01" y="47" dominant-baseline="ideographic">based architecture </tspan><tspan x="16.88" y="65" dominant-baseline="ideographic">using standard HTTP </tspan><tspan x="59.66" y="83" dominant-baseline="ideographic">methods.</tspan></text></g></g></g><g id="g-root-tx_ahighper_909nv2icz1fx-fill" data-item-order="1000000000" data-item-id="tx_ahighper_909nv2icz1fx" data-item-class="Label Stroke Indexed ColorFillBlack ColorStrokeBlack" data-item-index="4" data-renderer-id="0" transform="translate(602, 290)"><g id="tx_ahighper_909nv2icz1fx-fill" stroke="none" fill="#484848"><g><text style="font: 15px &quot;Shantell Sans&quot;, cursive; white-space: pre;" font-weight="15px" font-size="&quot;Shantell" font-family="Sans', cursive"><tspan x="19.13" y="29" dominant-baseline="ideographic">A high-performance </tspan><tspan x="30.6" y="47" dominant-baseline="ideographic">framework using </tspan><tspan x="16.54" y="65" dominant-baseline="ideographic">HTTP/2 and Protocol </tspan><tspan x="64.65" y="83" dominant-baseline="ideographic">Buffers.</tspan></text></g></g></g><g id="g-root-tx_ahighper_909nv2icz1fx-fill" data-item-order="1000000000" data-item-id="tx_ahighper_909nv2icz1fx" data-item-class="Label Stroke Indexed ColorFillBlack ColorStrokeBlack" data-item-index="4" data-renderer-id="0" transform="translate(602, 290)"><g id="tx_ahighper_909nv2icz1fx-fill" stroke="none" fill="#484848"><g><text style="font: 15px &quot;Shantell Sans&quot;, cursive; white-space: pre;" font-weight="15px" font-size="&quot;Shantell" font-family="Sans', cursive"><tspan x="19.13" y="29" dominant-baseline="ideographic">A high-performance </tspan><tspan x="30.6" y="47" dominant-baseline="ideographic">framework using </tspan><tspan x="16.54" y="65" dominant-baseline="ideographic">HTTP/2 and Protocol </tspan><tspan x="64.65" y="83" dominant-baseline="ideographic">Buffers.</tspan></text></g></g></g><g id="g-root-hear_1cw5dseid38r2-fill" data-item-order="1000000000" data-item-id="hear_1cw5dseid38r2" data-item-class="Icon Stroke Indexed Indexed_1 InsideFill" data-item-index="1" data-renderer-id="0" transform="translate(236, 320)"></g><g id="g-root-hear_1cw5dseid38r2-fill" data-item-order="1000000000" data-item-id="hear_1cw5dseid38r2" data-item-class="Icon Stroke Indexed Indexed_1 InsideFill" data-item-index="1" data-renderer-id="0" transform="translate(236, 320)"></g><g id="g-root-1_1cy0pvyid38qq-fill" data-item-order="1000000000" data-item-id="1_1cy0pvyid38qq" data-item-class="Icon Stroke Title ColorStrokeBlack" data-item-index="none" data-renderer-id="0" transform="translate(350, 338)"></g><g id="g-root-1_qrjocuid37yl-fill" data-item-order="1000000000" data-item-id="1_qrjocuid37yl" data-item-class="Icon Stroke Indexed InsideFill" data-item-index="4" data-renderer-id="0" transform="translate(488, 320)"></g><g id="g-root-1_1cy0pvyid38qq-fill" data-item-order="1000000000" data-item-id="1_1cy0pvyid38qq" data-item-class="Icon Stroke Title ColorStrokeBlack" data-item-index="none" data-renderer-id="0" transform="translate(350, 338)"></g><g id="g-root-tx_apitypes_1qaq6fiicz0gd-fill" data-item-order="1000000000" data-item-id="tx_apitypes_1qaq6fiicz0gd" data-item-class="Label Stroke Title ColorFillBlack ColorStrokeBlack" data-item-index="none" data-renderer-id="0" transform="translate(332, 2)"><g id="tx_apitypes_1qaq6fiicz0gd-fill" stroke="none" fill="#484848"><g><text style="font: bold 20px &quot;Shantell Sans&quot;, cursive; white-space: pre;" font-weight="bold" font-size="20" font-family="'Shantell Sans', cursive"><tspan x="12.34" y="35" dominant-baseline="ideographic">API Types</tspan></text></g></g></g><g id="g-root-1_qrjocuid37yl-fill" data-item-order="1000000000" data-item-id="1_qrjocuid37yl" data-item-class="Icon Stroke Indexed InsideFill" data-item-index="4" data-renderer-id="0" transform="translate(488, 320)"></g><g id="g-root-4.cu_sy_hvwo3yicz0n8-stroke" data-item-order="999928518" data-item-id="4.cu_sy_hvwo3yicz0n8" data-item-class="Part Indexed Fill Stroke" data-item-index="4" data-renderer-id="0" transform="translate(444.16845703125, 260.3671875)"><g id="4.cu_sy_hvwo3yicz0n8-stroke" fill="none" stroke-linecap="round" stroke-linejoin="round" stroke-miterlimit="4" stroke="#e3cd09" stroke-width="2"><g><path d="M 28.4966 135.818401L 143.6613 135.877701C 142.2492 87.2093 122.7257 43.0818 91.5959 10L 10 91.512001C 20.4126 103.606801 27.1545 118.952001 28.4966 135.818401Z"></path></g></g></g><g id="g-root-4.cu_sy_hvwo3yicz0n8-stroke" data-item-order="999928518" data-item-id="4.cu_sy_hvwo3yicz0n8" data-item-class="Part Indexed Fill Stroke" data-item-index="4" data-renderer-id="0" transform="translate(444.16845703125, 260.3671875)"><g id="4.cu_sy_hvwo3yicz0n8-stroke" fill="none" stroke-linecap="round" stroke-linejoin="round" stroke-miterlimit="4" stroke="#e3cd09" stroke-width="2"><g><path d="M 28.4966 135.818401L 143.6613 135.877701C 142.2492 87.2093 122.7257 43.0818 91.5959 10L 10 91.512001C 20.4126 103.606801 27.1545 118.952001 28.4966 135.818401Z"></path></g></g></g><g id="g-root-3.cu_sy_hvwo3yicz0n7-stroke" data-item-order="999928520" data-item-id="3.cu_sy_hvwo3yicz0n7" data-item-class="Part Indexed Fill Stroke" data-item-index="3" data-renderer-id="0" transform="translate(391.72265625, 200.005859375)"><g id="3.cu_sy_hvwo3yicz0n7-stroke" fill="none" stroke-linecap="round" stroke-linejoin="round" stroke-miterlimit="4" stroke="#93c131" stroke-width="2"><g><path d="M 54.2876 143.7073L 135.8836 62.1953C 102.8306 31.0287 58.7202 11.4613 10.0593 10L 10 125.1652C 26.8633 126.5242 42.2024 133.2815 54.2876 143.7073Z"></path></g></g></g><g id="g-root-3.cu_sy_hvwo3yicz0n7-stroke" data-item-order="999928520" data-item-id="3.cu_sy_hvwo3yicz0n7" data-item-class="Part Indexed Fill Stroke" data-item-index="3" data-renderer-id="0" transform="translate(391.72265625, 200.005859375)"><g id="3.cu_sy_hvwo3yicz0n7-stroke" fill="none" stroke-linecap="round" stroke-linejoin="round" stroke-miterlimit="4" stroke="#93c131" stroke-width="2"><g><path d="M 54.2876 143.7073L 135.8836 62.1953C 102.8306 31.0287 58.7202 11.4613 10.0593 10L 10 125.1652C 26.8633 126.5242 42.2024 133.2815 54.2876 143.7073Z"></path></g></g></g><g id="g-root-2.cu_sy_mb3p5aicz30q-stroke" data-item-order="999928522" data-item-id="2.cu_sy_mb3p5aicz30q" data-item-class="Part Indexed Fill Stroke" data-item-index="2" data-renderer-id="0" transform="translate(254.361328125, 200)"><g id="2.cu_sy_mb3p5aicz30q-stroke" fill="none" stroke-linecap="round" stroke-linejoin="round" stroke-miterlimit="4" stroke="#3bc482" stroke-width="2"><g><path d="M 91.0519 143.2008C 103.3025 132.8468 118.8096 126.2255 135.8185 125.0916L 135.8777 10C 87.2093 11.4122 43.0818 30.9356 10 62.0655L 91.0519 143.2008Z"></path></g></g></g><g id="g-root-2.cu_sy_mb3p5aicz30q-stroke" data-item-order="999928522" data-item-id="2.cu_sy_mb3p5aicz30q" data-item-class="Part Indexed Fill Stroke" data-item-index="2" data-renderer-id="0" transform="translate(254.361328125, 200)"><g id="2.cu_sy_mb3p5aicz30q-stroke" fill="none" stroke-linecap="round" stroke-linejoin="round" stroke-miterlimit="4" stroke="#3bc482" stroke-width="2"><g><path d="M 91.0519 143.2008C 103.3025 132.8468 118.8096 126.2255 135.8185 125.0916L 135.8777 10C 87.2093 11.4122 43.0818 30.9356 10 62.0655L 91.0519 143.2008Z"></path></g></g></g><g id="g-root-1.cu_sy_mb3p5aicz30p-stroke" data-item-order="999928524" data-item-id="1.cu_sy_mb3p5aicz30p" data-item-class="Part Indexed Indexed_1 Fill Stroke" data-item-index="1" data-renderer-id="0" transform="translate(194, 260.2236328125)"><g id="1.cu_sy_mb3p5aicz30p-stroke" fill="none" stroke-linecap="round" stroke-linejoin="round" stroke-miterlimit="4" stroke="#17b0e3" stroke-width="2"><g><path d="M 62.1951 10C 31.0286 43.0529 11.4613 87.1633 10 135.8241L 124.1653 135.8829C 125.5445 118.7701 132.4829 103.2269 143.1729 91.0611L 62.1951 10Z"></path></g></g></g><g id="g-root-1.cu_sy_mb3p5aicz30p-stroke" data-item-order="999928524" data-item-id="1.cu_sy_mb3p5aicz30p" data-item-class="Part Indexed Indexed_1 Fill Stroke" data-item-index="1" data-renderer-id="0" transform="translate(194, 260.2236328125)"><g id="1.cu_sy_mb3p5aicz30p-stroke" fill="none" stroke-linecap="round" stroke-linejoin="round" stroke-miterlimit="4" stroke="#17b0e3" stroke-width="2"><g><path d="M 62.1951 10C 31.0286 43.0529 11.4613 87.1633 10 135.8241L 124.1653 135.8829C 125.5445 118.7701 132.4829 103.2269 143.1729 91.0611L 62.1951 10Z"></path></g></g></g><g id="g-root-tx_anxmlbas_909nv2icz1fy-stroke" data-item-order="1000000000" data-item-id="tx_anxmlbas_909nv2icz1fy" data-item-class="Label Stroke Indexed ColorFillBlack ColorStrokeBlack" data-item-index="3" data-renderer-id="0" transform="translate(428, 110)"></g><g id="g-root-tx_anxmlbas_909nv2icz1fy-stroke" data-item-order="1000000000" data-item-id="tx_anxmlbas_909nv2icz1fy" data-item-class="Label Stroke Indexed ColorFillBlack ColorStrokeBlack" data-item-index="3" data-renderer-id="0" transform="translate(428, 110)"></g><g id="g-root-tx_aflexibl_4kg5qmicz287-stroke" data-item-order="1000000000" data-item-id="tx_aflexibl_4kg5qmicz287" data-item-class="Label Stroke Indexed ColorFillBlack ColorStrokeBlack" data-item-index="2" data-renderer-id="0" transform="translate(188, 110)"></g><g id="g-root-tx_aflexibl_4kg5qmicz287-stroke" data-item-order="1000000000" data-item-id="tx_aflexibl_4kg5qmicz287" data-item-class="Label Stroke Indexed ColorFillBlack ColorStrokeBlack" data-item-index="2" data-renderer-id="0" transform="translate(188, 110)"></g><g id="g-root-tx_soap_4mnm6icz30i-stroke" data-item-order="1000000000" data-item-id="tx_soap_4mnm6icz30i" data-item-class="Label Stroke Indexed" data-item-index="3" data-renderer-id="0" transform="translate(476.076171875, 74)"></g><g id="g-root-tx_rest_1qaq6fiicz0gc-stroke" data-item-order="1000000000" data-item-id="tx_rest_1qaq6fiicz0gc" data-item-class="Label Stroke Indexed Indexed_1" data-item-index="1" data-renderer-id="0" transform="translate(56, 254)"></g><g id="g-root-tx_rest_1qaq6fiicz0gc-stroke" data-item-order="1000000000" data-item-id="tx_rest_1qaq6fiicz0gc" data-item-class="Label Stroke Indexed Indexed_1" data-item-index="1" data-renderer-id="0" transform="translate(56, 254)"></g><g id="g-root-ques_142dpn2id39jf-stroke" data-item-order="1000000000" data-item-id="ques_142dpn2id39jf" data-item-class="Icon Stroke Indexed InsideFill" data-item-index="2" data-renderer-id="0" transform="translate(311, 242)"><g id="ques_142dpn2id39jf-stroke" fill="none" stroke-linecap="round" stroke-linejoin="round" stroke-miterlimit="4" stroke="#3bc482" stroke-width="2"><g><path d="M 31 57L 13 57C 11.895431 57 11 56.104568 11 55L 11 13C 11 11.895431 11.895431 11 13 11L 39.585999 11C 40.116676 11.000644 40.625343 11.212168 41 11.588L 48.414001 19C 48.789101 19.374985 48.999886 19.88361 49 20.414L 49 27M 27.962 40.947998C 22.865463 40.411976 18.998981 36.109909 19.007992 30.985271C 19.017002 25.860634 22.898588 21.572191 27.996979 21.054092C 33.095367 20.535992 37.760284 23.955933 38.800003 28.974001M 29 25.001999L 29 31.002001L 33 31.002001M 33 45.001999C 33 51.629417 38.372581 57.002003 45 57.002003C 51.627419 57.002003 57 51.629417 57 45.002003C 57 38.374584 51.627419 33.001999 45 33.001999C 38.372581 33.001999 33 38.374584 33 45.002003ZM 41.25 42.084C 41.25 40.012932 42.928932 38.334 45 38.334C 47.071068 38.334 48.75 40.012932 48.75 42.084003C 48.75 44.155071 47.071068 45.834003 45 45.834003L 45 47.834M 45 51.834C 45.276142 51.834 45.5 52.057858 45.5 52.334C 45.5 52.610142 45.276142 52.834 45 52.834C 44.723858 52.834 44.5 52.610142 44.5 52.334C 44.5 52.057858 44.723858 51.834 45 51.834"></path></g></g></g><g id="g-root-ques_142dpn2id39jf-stroke" data-item-order="1000000000" data-item-id="ques_142dpn2id39jf" data-item-class="Icon Stroke Indexed InsideFill" data-item-index="2" data-renderer-id="0" transform="translate(311, 242)"><g id="ques_142dpn2id39jf-stroke" fill="none" stroke-linecap="round" stroke-linejoin="round" stroke-miterlimit="4" stroke="#3bc482" stroke-width="2"><g><path d="M 31 57L 13 57C 11.895431 57 11 56.104568 11 55L 11 13C 11 11.895431 11.895431 11 13 11L 39.585999 11C 40.116676 11.000644 40.625343 11.212168 41 11.588L 48.414001 19C 48.789101 19.374985 48.999886 19.88361 49 20.414L 49 27M 27.962 40.947998C 22.865463 40.411976 18.998981 36.109909 19.007992 30.985271C 19.017002 25.860634 22.898588 21.572191 27.996979 21.054092C 33.095367 20.535992 37.760284 23.955933 38.800003 28.974001M 29 25.001999L 29 31.002001L 33 31.002001M 33 45.001999C 33 51.629417 38.372581 57.002003 45 57.002003C 51.627419 57.002003 57 51.629417 57 45.002003C 57 38.374584 51.627419 33.001999 45 33.001999C 38.372581 33.001999 33 38.374584 33 45.002003ZM 41.25 42.084C 41.25 40.012932 42.928932 38.334 45 38.334C 47.071068 38.334 48.75 40.012932 48.75 42.084003C 48.75 44.155071 47.071068 45.834003 45 45.834003L 45 47.834M 45 51.834C 45.276142 51.834 45.5 52.057858 45.5 52.334C 45.5 52.610142 45.276142 52.834 45 52.834C 44.723858 52.834 44.5 52.610142 44.5 52.334C 44.5 52.057858 44.723858 51.834 45 51.834"></path></g></g></g><g id="g-root-key_142dpn2id39jg-stroke" data-item-order="1000000000" data-item-id="key_142dpn2id39jg" data-item-class="Icon Stroke Indexed InsideFill" data-item-index="3" data-renderer-id="0" transform="translate(413, 242)"><g id="key_142dpn2id39jg-stroke" fill="none" stroke-linecap="round" stroke-linejoin="round" stroke-miterlimit="4" stroke="#93c131" stroke-width="2"><g><path d="M 24.639999 48.845715C 24.639999 52.954716 27.971003 56.285717 32.080002 56.285717C 36.188999 56.285717 39.520004 52.954716 39.520004 48.845718C 39.520004 44.736717 36.188999 41.405716 32.080002 41.405716C 27.971003 41.405716 24.639999 44.736717 24.639999 48.845718M 37.428574 43.600002L 50.662857 30.365715C 50.894451 30.133312 51.209045 30.002684 51.537144 30.002684C 51.865238 30.002684 52.179832 30.133312 52.41143 30.365715L 56.285713 34.308571M 45.828571 35.26857L 49.325714 38.765717M 16.857143 52.857143L 15.142858 52.857143C 13.24931 52.857143 11.714286 51.322121 11.714286 49.428574L 11.714286 15.142858C 11.714286 13.24931 13.24931 11.714286 15.142858 11.714286L 52.857143 11.714286C 54.750694 11.714286 56.285713 13.24931 56.285713 15.142858L 56.285713 23.714287M 11.714286 22L 56.285713 22"></path></g></g></g><g id="g-root-key_142dpn2id39jg-stroke" data-item-order="1000000000" data-item-id="key_142dpn2id39jg" data-item-class="Icon Stroke Indexed InsideFill" data-item-index="3" data-renderer-id="0" transform="translate(413, 242)"><g id="key_142dpn2id39jg-stroke" fill="none" stroke-linecap="round" stroke-linejoin="round" stroke-miterlimit="4" stroke="#93c131" stroke-width="2"><g><path d="M 24.639999 48.845715C 24.639999 52.954716 27.971003 56.285717 32.080002 56.285717C 36.188999 56.285717 39.520004 52.954716 39.520004 48.845718C 39.520004 44.736717 36.188999 41.405716 32.080002 41.405716C 27.971003 41.405716 24.639999 44.736717 24.639999 48.845718M 37.428574 43.600002L 50.662857 30.365715C 50.894451 30.133312 51.209045 30.002684 51.537144 30.002684C 51.865238 30.002684 52.179832 30.133312 52.41143 30.365715L 56.285713 34.308571M 45.828571 35.26857L 49.325714 38.765717M 16.857143 52.857143L 15.142858 52.857143C 13.24931 52.857143 11.714286 51.322121 11.714286 49.428574L 11.714286 15.142858C 11.714286 13.24931 13.24931 11.714286 15.142858 11.714286L 52.857143 11.714286C 54.750694 11.714286 56.285713 13.24931 56.285713 15.142858L 56.285713 23.714287M 11.714286 22L 56.285713 22"></path></g></g></g><g id="g-root-tx_soap_4mnm6icz30i-stroke" data-item-order="1000000000" data-item-id="tx_soap_4mnm6icz30i" data-item-class="Label Stroke Indexed" data-item-index="3" data-renderer-id="0" transform="translate(476.076171875, 74)"></g><g id="g-root-tx_graphql_1qaq6fiicz0gb-stroke" data-item-order="1000000000" data-item-id="tx_graphql_1qaq6fiicz0gb" data-item-class="Label Stroke Indexed" data-item-index="2" data-renderer-id="0" transform="translate(218, 74)"></g><g id="g-root-tx_graphql_1qaq6fiicz0gb-stroke" data-item-order="1000000000" data-item-id="tx_graphql_1qaq6fiicz0gb" data-item-class="Label Stroke Indexed" data-item-index="2" data-renderer-id="0" transform="translate(218, 74)"></g><g id="g-root-tx_apitypes_1qaq6fiicz0gd-stroke" data-item-order="1000000000" data-item-id="tx_apitypes_1qaq6fiicz0gd" data-item-class="Label Stroke Title ColorFillBlack ColorStrokeBlack" data-item-index="none" data-renderer-id="0" transform="translate(332, 2)"></g><g id="g-root-tx_grpc_4mnm6icz30h-stroke" data-item-order="1000000000" data-item-id="tx_grpc_4mnm6icz30h" data-item-class="Label Stroke Indexed" data-item-index="4" data-renderer-id="0" transform="translate(656, 254)"></g><g id="g-root-tx_grpc_4mnm6icz30h-stroke" data-item-order="1000000000" data-item-id="tx_grpc_4mnm6icz30h" data-item-class="Label Stroke Indexed" data-item-index="4" data-renderer-id="0" transform="translate(656, 254)"></g><g id="g-root-tx_astatele_4kg5qmicz288-stroke" data-item-order="1000000000" data-item-id="tx_astatele_4kg5qmicz288" data-item-class="Label Stroke Indexed Indexed_1 ColorFillBlack ColorStrokeBlack" data-item-index="1" data-renderer-id="0" transform="translate(2, 290)"></g><g id="g-root-tx_astatele_4kg5qmicz288-stroke" data-item-order="1000000000" data-item-id="tx_astatele_4kg5qmicz288" data-item-class="Label Stroke Indexed Indexed_1 ColorFillBlack ColorStrokeBlack" data-item-index="1" data-renderer-id="0" transform="translate(2, 290)"></g><g id="g-root-tx_ahighper_909nv2icz1fx-stroke" data-item-order="1000000000" data-item-id="tx_ahighper_909nv2icz1fx" data-item-class="Label Stroke Indexed ColorFillBlack ColorStrokeBlack" data-item-index="4" data-renderer-id="0" transform="translate(602, 290)"></g><g id="g-root-tx_ahighper_909nv2icz1fx-stroke" data-item-order="1000000000" data-item-id="tx_ahighper_909nv2icz1fx" data-item-class="Label Stroke Indexed ColorFillBlack ColorStrokeBlack" data-item-index="4" data-renderer-id="0" transform="translate(602, 290)"></g><g id="g-root-hear_1cw5dseid38r2-stroke" data-item-order="1000000000" data-item-id="hear_1cw5dseid38r2" data-item-class="Icon Stroke Indexed Indexed_1 InsideFill" data-item-index="1" data-renderer-id="0" transform="translate(236, 320)"><g id="hear_1cw5dseid38r2-stroke" fill="none" stroke-linecap="round" stroke-linejoin="round" stroke-miterlimit="4" stroke="#17b0e3" stroke-width="2"><g><path d="M 13.794 45L 29 45.001999M 15.02 21L 52.990002 21M 31 33.001999L 11.018 33M 32.753998 56.967999C 20.623407 56.298813 11.10532 46.31049 11.021425 34.161743C 10.937531 22.012997 20.316765 11.894176 32.436958 11.057522C 44.557156 10.220867 55.237804 18.954956 56.824001 31M 32.535999 11.052C 20.535999 24.052 20.754 40.968002 32.753998 56.967999M 35.458 11.052C 40.677113 16.44335 43.812664 23.512518 44.306004 31.000002M 45 57L 34.771999 46.330002C 32.930214 44.488728 32.473412 41.675423 33.638 39.346001L 33.638 39.346001C 34.508209 37.606316 36.161579 36.390945 38.081676 36.079514C 40.001774 35.768082 41.954536 36.398552 43.330002 37.774002L 45 39.444L 46.669998 37.774002C 48.045467 36.398552 49.99823 35.768082 51.918327 36.079514C 53.838425 36.390945 55.491795 37.606316 56.362003 39.346001L 56.362 39.346001C 57.526585 41.675423 57.069786 44.488728 55.228001 46.330002Z"></path></g></g></g><g id="g-root-hear_1cw5dseid38r2-stroke" data-item-order="1000000000" data-item-id="hear_1cw5dseid38r2" data-item-class="Icon Stroke Indexed Indexed_1 InsideFill" data-item-index="1" data-renderer-id="0" transform="translate(236, 320)"><g id="hear_1cw5dseid38r2-stroke" fill="none" stroke-linecap="round" stroke-linejoin="round" stroke-miterlimit="4" stroke="#17b0e3" stroke-width="2"><g><path d="M 13.794 45L 29 45.001999M 15.02 21L 52.990002 21M 31 33.001999L 11.018 33M 32.753998 56.967999C 20.623407 56.298813 11.10532 46.31049 11.021425 34.161743C 10.937531 22.012997 20.316765 11.894176 32.436958 11.057522C 44.557156 10.220867 55.237804 18.954956 56.824001 31M 32.535999 11.052C 20.535999 24.052 20.754 40.968002 32.753998 56.967999M 35.458 11.052C 40.677113 16.44335 43.812664 23.512518 44.306004 31.000002M 45 57L 34.771999 46.330002C 32.930214 44.488728 32.473412 41.675423 33.638 39.346001L 33.638 39.346001C 34.508209 37.606316 36.161579 36.390945 38.081676 36.079514C 40.001774 35.768082 41.954536 36.398552 43.330002 37.774002L 45 39.444L 46.669998 37.774002C 48.045467 36.398552 49.99823 35.768082 51.918327 36.079514C 53.838425 36.390945 55.491795 37.606316 56.362003 39.346001L 56.362 39.346001C 57.526585 41.675423 57.069786 44.488728 55.228001 46.330002Z"></path></g></g></g><g id="g-root-1_1cy0pvyid38qq-stroke" data-item-order="1000000000" data-item-id="1_1cy0pvyid38qq" data-item-class="Icon Stroke Title ColorStrokeBlack" data-item-index="none" data-renderer-id="0" transform="translate(350, 338)"><g id="1_1cy0pvyid38qq-stroke" fill="none" stroke-linecap="round" stroke-linejoin="round" stroke-miterlimit="4" stroke="#484848" stroke-width="2"><g><path d="M 37 47.496998C 37 52.467564 41.029438 56.497002 46 56.497002C 50.970566 56.497002 55 52.467564 55 47.497002C 55 42.526436 50.970566 38.497002 46 38.497002C 41.029438 38.497002 37 42.526436 37 47.497002ZM 59.5 80.5C 58.563999 70.323997 52.801003 62.5 46 62.5C 39.198997 62.5 33.436001 70.323997 32.5 80.5ZM 61.899998 61.899998C 70.694847 53.1161 70.70076 38.864799 61.913204 30.073603C 53.125652 21.282406 38.874352 21.282406 30.0868 30.073603C 21.29925 38.864799 21.305161 53.1161 30.1 61.900002M 70.395996 70.393005C 83.868423 56.919674 83.867935 35.075901 70.394913 21.603178C 56.921886 8.130452 35.078114 8.130452 21.605089 21.603178C 8.132063 35.075901 8.131576 56.919674 21.604 70.393005"></path></g></g></g><g id="g-root-1_qrjocuid37yl-stroke" data-item-order="1000000000" data-item-id="1_qrjocuid37yl" data-item-class="Icon Stroke Indexed InsideFill" data-item-index="4" data-renderer-id="0" transform="translate(488, 320)"><g id="1_qrjocuid37yl-stroke" fill="none" stroke-linecap="round" stroke-linejoin="round" stroke-miterlimit="4" stroke="#e3cd09" stroke-width="2"><g><path d="M 46.411999 33.860001L 49.490002 41L 55.48 41C 56.09922 40.97747 56.66608 41.345642 56.897285 41.920517C 57.128494 42.495396 56.974392 43.153526 56.512001 43.566002L 51.312 48.198002L 54.192001 54.824001C 54.451164 55.445415 54.285248 56.162895 53.779583 56.607445C 53.273918 57.051998 52.541096 57.124634 51.958 56.788002L 45 52.866001L 38.040001 56.787998C 37.456905 57.124634 36.724083 57.051998 36.218422 56.607445C 35.712753 56.162895 35.546837 55.445415 35.806 54.824001L 38.686001 48.198002L 33.486 43.568001C 33.022644 43.156311 32.867306 42.498215 33.097656 41.922783C 33.328011 41.347351 33.894554 40.978233 34.514 41L 40.514 41L 43.596001 33.860001C 43.875305 33.342522 44.415958 33.019958 45.004002 33.019958C 45.592041 33.019958 46.132694 33.342522 46.411999 33.860001ZM 21 51L 27 51M 27.002001 41L 27.002001 51M 16.5 50C 16.223858 50 16 50.223858 16 50.5C 16 50.776142 16.223858 51 16.5 51C 16.776142 51 17 50.776142 17 50.5C 17 50.223858 16.776142 50 16.5 50L 16.5 50M 11.5 50C 11.223858 50 11 50.223858 11 50.5C 11 50.776142 11.223858 51 11.5 51C 11.776142 51 12 50.776142 12 50.5C 12 50.223858 11.776142 50 11.5 50L 11.5 50M 18.5 35.5C 18.223858 35.5 18 35.723858 18 36C 18 36.276142 18.223858 36.5 18.5 36.5C 18.776142 36.5 19 36.276142 19 36C 19 35.723858 18.776142 35.5 18.5 35.5L 18.5 35.5M 23.5 35.5C 23.223858 35.5 23 35.723858 23 36C 23 36.276142 23.223858 36.5 23.5 36.5C 23.776142 36.5 24 36.276142 24 36C 24 35.723858 23.776142 35.5 23.5 35.5L 23.5 35.5M 35 31L 16 31C 13.238577 31 11 33.238579 11 36C 11 38.761425 13.238577 41 16 41L 29 41M 18.5 25.5C 18.223858 25.5 18 25.723858 18 26C 18 26.276142 18.223858 26.5 18.5 26.5C 18.776142 26.5 19 26.276142 19 26C 19 25.723858 18.776142 25.5 18.5 25.5L 18.5 25.5M 23.5 25.5C 23.223858 25.5 23 25.723858 23 26C 23 26.276142 23.223858 26.5 23.5 26.5C 23.776142 26.5 24 26.276142 24 26C 24 25.723858 23.776142 25.5 23.5 25.5L 23.5 25.5M 45 26C 45 23.238577 42.761425 21 40 21L 16 21C 13.238577 21 11 23.238577 11 26C 11 28.761423 13.238577 31 16 31L 35 31M 18.5 15.5C 18.223858 15.5 18 15.723858 18 16C 18 16.276142 18.223858 16.5 18.5 16.5C 18.776142 16.5 19 16.276142 19 16C 19 15.723858 18.776142 15.5 18.5 15.5L 18.5 15.5M 23.5 15.5C 23.223858 15.5 23 15.723858 23 16C 23 16.276142 23.223858 16.5 23.5 16.5C 23.776142 16.5 24 16.276142 24 16C 24 15.723858 23.776142 15.5 23.5 15.5L 23.5 15.5M 45 16C 45 13.238576 42.761425 11 40 11L 16 11C 13.238577 11 11 13.238577 11 16C 11 18.761425 13.238577 21 16 21L 40 21C 42.761425 21 45 18.761425 45 16Z"></path></g></g></g><g id="g-root-1_1cy0pvyid38qq-stroke" data-item-order="1000000000" data-item-id="1_1cy0pvyid38qq" data-item-class="Icon Stroke Title ColorStrokeBlack" data-item-index="none" data-renderer-id="0" transform="translate(350, 338)"><g id="1_1cy0pvyid38qq-stroke" fill="none" stroke-linecap="round" stroke-linejoin="round" stroke-miterlimit="4" stroke="#484848" stroke-width="2"><g><path d="M 37 47.496998C 37 52.467564 41.029438 56.497002 46 56.497002C 50.970566 56.497002 55 52.467564 55 47.497002C 55 42.526436 50.970566 38.497002 46 38.497002C 41.029438 38.497002 37 42.526436 37 47.497002ZM 59.5 80.5C 58.563999 70.323997 52.801003 62.5 46 62.5C 39.198997 62.5 33.436001 70.323997 32.5 80.5ZM 61.899998 61.899998C 70.694847 53.1161 70.70076 38.864799 61.913204 30.073603C 53.125652 21.282406 38.874352 21.282406 30.0868 30.073603C 21.29925 38.864799 21.305161 53.1161 30.1 61.900002M 70.395996 70.393005C 83.868423 56.919674 83.867935 35.075901 70.394913 21.603178C 56.921886 8.130452 35.078114 8.130452 21.605089 21.603178C 8.132063 35.075901 8.131576 56.919674 21.604 70.393005"></path></g></g></g><g id="g-root-tx_apitypes_1qaq6fiicz0gd-stroke" data-item-order="1000000000" data-item-id="tx_apitypes_1qaq6fiicz0gd" data-item-class="Label Stroke Title ColorFillBlack ColorStrokeBlack" data-item-index="none" data-renderer-id="0" transform="translate(332, 2)"></g><g id="g-root-1_qrjocuid37yl-stroke" data-item-order="1000000000" data-item-id="1_qrjocuid37yl" data-item-class="Icon Stroke Indexed InsideFill" data-item-index="4" data-renderer-id="0" transform="translate(488, 320)"><g id="1_qrjocuid37yl-stroke" fill="none" stroke-linecap="round" stroke-linejoin="round" stroke-miterlimit="4" stroke="#e3cd09" stroke-width="2"><g><path d="M 46.411999 33.860001L 49.490002 41L 55.48 41C 56.09922 40.97747 56.66608 41.345642 56.897285 41.920517C 57.128494 42.495396 56.974392 43.153526 56.512001 43.566002L 51.312 48.198002L 54.192001 54.824001C 54.451164 55.445415 54.285248 56.162895 53.779583 56.607445C 53.273918 57.051998 52.541096 57.124634 51.958 56.788002L 45 52.866001L 38.040001 56.787998C 37.456905 57.124634 36.724083 57.051998 36.218422 56.607445C 35.712753 56.162895 35.546837 55.445415 35.806 54.824001L 38.686001 48.198002L 33.486 43.568001C 33.022644 43.156311 32.867306 42.498215 33.097656 41.922783C 33.328011 41.347351 33.894554 40.978233 34.514 41L 40.514 41L 43.596001 33.860001C 43.875305 33.342522 44.415958 33.019958 45.004002 33.019958C 45.592041 33.019958 46.132694 33.342522 46.411999 33.860001ZM 21 51L 27 51M 27.002001 41L 27.002001 51M 16.5 50C 16.223858 50 16 50.223858 16 50.5C 16 50.776142 16.223858 51 16.5 51C 16.776142 51 17 50.776142 17 50.5C 17 50.223858 16.776142 50 16.5 50L 16.5 50M 11.5 50C 11.223858 50 11 50.223858 11 50.5C 11 50.776142 11.223858 51 11.5 51C 11.776142 51 12 50.776142 12 50.5C 12 50.223858 11.776142 50 11.5 50L 11.5 50M 18.5 35.5C 18.223858 35.5 18 35.723858 18 36C 18 36.276142 18.223858 36.5 18.5 36.5C 18.776142 36.5 19 36.276142 19 36C 19 35.723858 18.776142 35.5 18.5 35.5L 18.5 35.5M 23.5 35.5C 23.223858 35.5 23 35.723858 23 36C 23 36.276142 23.223858 36.5 23.5 36.5C 23.776142 36.5 24 36.276142 24 36C 24 35.723858 23.776142 35.5 23.5 35.5L 23.5 35.5M 35 31L 16 31C 13.238577 31 11 33.238579 11 36C 11 38.761425 13.238577 41 16 41L 29 41M 18.5 25.5C 18.223858 25.5 18 25.723858 18 26C 18 26.276142 18.223858 26.5 18.5 26.5C 18.776142 26.5 19 26.276142 19 26C 19 25.723858 18.776142 25.5 18.5 25.5L 18.5 25.5M 23.5 25.5C 23.223858 25.5 23 25.723858 23 26C 23 26.276142 23.223858 26.5 23.5 26.5C 23.776142 26.5 24 26.276142 24 26C 24 25.723858 23.776142 25.5 23.5 25.5L 23.5 25.5M 45 26C 45 23.238577 42.761425 21 40 21L 16 21C 13.238577 21 11 23.238577 11 26C 11 28.761423 13.238577 31 16 31L 35 31M 18.5 15.5C 18.223858 15.5 18 15.723858 18 16C 18 16.276142 18.223858 16.5 18.5 16.5C 18.776142 16.5 19 16.276142 19 16C 19 15.723858 18.776142 15.5 18.5 15.5L 18.5 15.5M 23.5 15.5C 23.223858 15.5 23 15.723858 23 16C 23 16.276142 23.223858 16.5 23.5 16.5C 23.776142 16.5 24 16.276142 24 16C 24 15.723858 23.776142 15.5 23.5 15.5L 23.5 15.5M 45 16C 45 13.238576 42.761425 11 40 11L 16 11C 13.238577 11 11 13.238577 11 16C 11 18.761425 13.238577 21 16 21L 40 21C 42.761425 21 45 18.761425 45 16Z"></path></g></g></g></g></g></svg>