<?xml version="1.0" encoding="utf-8" standalone="yes"?>
<!DOCTYPE svg PUBLIC "-//W3C//DTD SVG 1.1//EN" "http://www.w3.org/Graphics/SVG/1.1/DTD/svg11.dtd">
<svg width="1072" height="432" viewBox="0 0 1072 432" style="fill:none;stroke:none;fill-rule:evenodd;clip-rule:evenodd;stroke-linecap:round;stroke-linejoin:round;stroke-miterlimit:1.5;" version="1.1" xmlns="http://www.w3.org/2000/svg" xmlns:xlink="http://www.w3.org/1999/xlink"><style id="fontImports">@import url("https://fonts.googleapis.com/css2?family=Shantell+Sans:wght@300..800&amp;display=block");</style><g id="items" style="isolation: isolate"><g id="blend" style="mix-blend-mode:normal"><g id="g-root-1.cu_sy_1unes87ws5jin-fill" data-item-order="999760928" data-item-id="1.cu_sy_1unes87ws5jin" data-item-class="Part Indexed Indexed_1 Fill Stroke" data-item-index="1" data-renderer-id="0" transform="translate(4, 74)"><g id="1.cu_sy_1unes87ws5jin-fill" stroke="none" fill="#cedfff"><g><path d="M 2.9 96.9L 10.6 107.3L 29.9 99.7L 19 85ZM 29.9 99.7L 23.9 43.7L 4.4 49.3L 10.6 107.3ZM 4.4 49.3L 34.5 110.4L 53.4 103.6L 23.9 43.7ZM 53.4 103.6L 31.4 9.7L 12.4 16L 34.5 110.4ZM 12.4 16L 51.8 107.5L 71.1 101.7L 31.4 9.7ZM 71.1 101.7L 54.5 4.9L 35.2 10.4L 51.8 107.5ZM 35.2 10.4L 76.7 111L 96.1 105.5L 54.5 4.9ZM 96.1 105.5L 79.4 5.6L 60.1 11.2L 76.7 111ZM 60.1 11.2L 100.1 105.1L 119.3 99L 79.4 5.6ZM 119.3 99L 100.4 8.4L 81.3 14.7L 100.1 105.1ZM 81.3 14.7L 122.7 103.3L 142.2 97.8L 100.4 8.4ZM 142.2 97.8L 131.5 8.2L 112 13.6L 122.7 103.3ZM 112 13.6L 152.9 103.9L 172 97.5L 131.5 8.2ZM 172 97.5L 151.3 6.1L 132.2 12.6L 152.9 103.9ZM 132.2 12.6L 168 88.7L 187.3 82.7L 151.3 6.1ZM 187.3 82.7L 175.4 10.8L 156.2 17.2L 168 88.7ZM 156.2 17.2L 163.9 32L 187 33.2L 175.4 10.8ZM 187 33.2L 202.8 9.3L 178.7 9.5L 163.9 32ZM 178.7 9.5L 189.8 25.8L 213.5 25.1L 202.8 9.3ZM 213.5 25.1L 224.5 6.9L 203 3.8L 189.8 25.8ZM 203 3.8L 206.3 16.4L 225.6 11.3L 224.5 6.9Z" fill-rule="nonzero"></path></g></g></g><g id="g-root-1.cu_sy_1unes87ws5jin-fill" data-item-order="999760928" data-item-id="1.cu_sy_1unes87ws5jin" data-item-class="Part Indexed Indexed_1 Fill Stroke" data-item-index="1" data-renderer-id="0" transform="translate(4, 74)"><g id="1.cu_sy_1unes87ws5jin-fill" stroke="none" fill="#cedfff"><g><path d="M 2.9 96.9L 10.6 107.3L 29.9 99.7L 19 85ZM 29.9 99.7L 23.9 43.7L 4.4 49.3L 10.6 107.3ZM 4.4 49.3L 34.5 110.4L 53.4 103.6L 23.9 43.7ZM 53.4 103.6L 31.4 9.7L 12.4 16L 34.5 110.4ZM 12.4 16L 51.8 107.5L 71.1 101.7L 31.4 9.7ZM 71.1 101.7L 54.5 4.9L 35.2 10.4L 51.8 107.5ZM 35.2 10.4L 76.7 111L 96.1 105.5L 54.5 4.9ZM 96.1 105.5L 79.4 5.6L 60.1 11.2L 76.7 111ZM 60.1 11.2L 100.1 105.1L 119.3 99L 79.4 5.6ZM 119.3 99L 100.4 8.4L 81.3 14.7L 100.1 105.1ZM 81.3 14.7L 122.7 103.3L 142.2 97.8L 100.4 8.4ZM 142.2 97.8L 131.5 8.2L 112 13.6L 122.7 103.3ZM 112 13.6L 152.9 103.9L 172 97.5L 131.5 8.2ZM 172 97.5L 151.3 6.1L 132.2 12.6L 152.9 103.9ZM 132.2 12.6L 168 88.7L 187.3 82.7L 151.3 6.1ZM 187.3 82.7L 175.4 10.8L 156.2 17.2L 168 88.7ZM 156.2 17.2L 163.9 32L 187 33.2L 175.4 10.8ZM 187 33.2L 202.8 9.3L 178.7 9.5L 163.9 32ZM 178.7 9.5L 189.8 25.8L 213.5 25.1L 202.8 9.3ZM 213.5 25.1L 224.5 6.9L 203 3.8L 189.8 25.8ZM 203 3.8L 206.3 16.4L 225.6 11.3L 224.5 6.9Z" fill-rule="nonzero"></path></g></g></g><g id="g-root-2.cu_sy_1q87r6vws5h54-fill" data-item-order="999760930" data-item-id="2.cu_sy_1q87r6vws5h54" data-item-class="Part Indexed Fill Stroke" data-item-index="2" data-renderer-id="0" transform="translate(172.00009155273438, 74)"><g id="2.cu_sy_1q87r6vws5h54-fill" stroke="none" fill="#cef3ff"><g><path d="M 1.099908 125.1L 7.999908 136.1L 27.699908 130L 18.099908 114.5ZM 27.699908 130L 25.099908 73.4L 5.299908 77.3L 7.999908 136.1ZM 5.299908 77.3L 25.499908 133.7L 44.899908 128.6L 25.099908 73.4ZM 44.899908 128.6L 28.299908 34.8L 9.099908 41.2L 25.499908 133.7ZM 9.099908 41.2L 55.599908 134.6L 74.599908 127.9L 28.299908 34.8ZM 74.599908 127.9L 50.599908 16.8L 31.499908 23.1L 55.599908 134.6ZM 31.499908 23.1L 36.399908 34.1L 54.699908 25.9L 50.599908 16.8ZM 39.499908 37.4L 79.299908 133.1L 98.799908 127.9L 57.999908 29.7ZM 98.799908 127.9L 86.499908 31.5L 66.999908 36.4L 79.299908 133.1ZM 66.999908 36.4L 104.599908 132.6L 123.799908 126.9L 86.499908 31.5ZM 123.799908 126.9L 103.699908 33.4L 84.499908 39.5L 104.599908 132.6ZM 84.499908 39.5L 125.099908 133.8L 144.399908 128.1L 103.699908 33.4ZM 144.399908 128.1L 127.699908 29.8L 108.299908 35.3L 125.099908 133.8ZM 108.299908 35.3L 144.799908 127.4L 164.299908 122.3L 127.699908 29.8ZM 164.299908 122.3L 152.799908 34.1L 133.299908 39.4L 144.799908 127.4ZM 133.299908 39.4L 162.799908 108L 182.499908 103.4L 152.799908 34.1ZM 182.499908 103.4L 178.599908 31.2L 158.899908 36.8L 162.799908 108ZM 158.899908 36.8L 167.799908 53.2L 190.899908 53.8L 178.599908 31.2ZM 190.899908 53.8L 202.599908 35L 181.199908 31.6L 167.799908 53.2ZM 181.199908 31.6L 182.899908 38.6L 206.399908 50L 202.599908 35ZM 206.399908 50L 229.799908 39.6L 209.099908 26.9L 182.899908 38.6ZM 209.099908 26.9L 209.899908 42.9L 229.899908 41.9L 229.799908 39.6Z" fill-rule="nonzero"></path></g></g></g><g id="g-root-2.cu_sy_1q87r6vws5h54-fill" data-item-order="999760930" data-item-id="2.cu_sy_1q87r6vws5h54" data-item-class="Part Indexed Fill Stroke" data-item-index="2" data-renderer-id="0" transform="translate(172.00009155273438, 74)"><g id="2.cu_sy_1q87r6vws5h54-fill" stroke="none" fill="#cef3ff"><g><path d="M 1.099908 125.1L 7.999908 136.1L 27.699908 130L 18.099908 114.5ZM 27.699908 130L 25.099908 73.4L 5.299908 77.3L 7.999908 136.1ZM 5.299908 77.3L 25.499908 133.7L 44.899908 128.6L 25.099908 73.4ZM 44.899908 128.6L 28.299908 34.8L 9.099908 41.2L 25.499908 133.7ZM 9.099908 41.2L 55.599908 134.6L 74.599908 127.9L 28.299908 34.8ZM 74.599908 127.9L 50.599908 16.8L 31.499908 23.1L 55.599908 134.6ZM 31.499908 23.1L 36.399908 34.1L 54.699908 25.9L 50.599908 16.8ZM 39.499908 37.4L 79.299908 133.1L 98.799908 127.9L 57.999908 29.7ZM 98.799908 127.9L 86.499908 31.5L 66.999908 36.4L 79.299908 133.1ZM 66.999908 36.4L 104.599908 132.6L 123.799908 126.9L 86.499908 31.5ZM 123.799908 126.9L 103.699908 33.4L 84.499908 39.5L 104.599908 132.6ZM 84.499908 39.5L 125.099908 133.8L 144.399908 128.1L 103.699908 33.4ZM 144.399908 128.1L 127.699908 29.8L 108.299908 35.3L 125.099908 133.8ZM 108.299908 35.3L 144.799908 127.4L 164.299908 122.3L 127.699908 29.8ZM 164.299908 122.3L 152.799908 34.1L 133.299908 39.4L 144.799908 127.4ZM 133.299908 39.4L 162.799908 108L 182.499908 103.4L 152.799908 34.1ZM 182.499908 103.4L 178.599908 31.2L 158.899908 36.8L 162.799908 108ZM 158.899908 36.8L 167.799908 53.2L 190.899908 53.8L 178.599908 31.2ZM 190.899908 53.8L 202.599908 35L 181.199908 31.6L 167.799908 53.2ZM 181.199908 31.6L 182.899908 38.6L 206.399908 50L 202.599908 35ZM 206.399908 50L 229.799908 39.6L 209.099908 26.9L 182.899908 38.6ZM 209.099908 26.9L 209.899908 42.9L 229.899908 41.9L 229.799908 39.6Z" fill-rule="nonzero"></path></g></g></g><g id="g-root-3.cu_sy_1q87r6vws5h55-fill" data-item-order="999760932" data-item-id="3.cu_sy_1q87r6vws5h55" data-item-class="Part Indexed Fill Stroke" data-item-index="3" data-renderer-id="0" transform="translate(340.0000915527344, 98)"><g id="3.cu_sy_1q87r6vws5h55-fill" stroke="none" fill="#d5f7e8"><g><path d="M 3.299908 124.5L 8.699908 133.6L 28.599908 127.9L 20.399908 114.2ZM 28.599908 127.9L 27.699908 72.1L 7.799908 76.5L 8.699908 133.6ZM 7.799908 76.5L 30.299908 127.2L 49.699908 121.6L 27.699908 72.1ZM 49.699908 121.6L 36.799908 34.1L 17.399908 39.4L 30.299908 127.2ZM 17.399908 39.4L 54.599908 130.7L 73.899908 125.2L 36.799908 34.1ZM 73.899908 125.2L 59.099908 34.1L 39.699908 39.3L 54.599908 130.7ZM 39.699908 39.3L 73.299908 126.4L 92.899908 121.5L 59.099908 34.1ZM 92.899908 121.5L 81.399908 30.2L 61.799908 35L 73.299908 126.4ZM 61.799908 35L 98.199908 134.6L 117.899908 130.1L 81.399908 30.2ZM 117.899908 130.1L 108.599908 33.7L 88.899908 38.2L 98.199908 134.6ZM 88.899908 38.2L 122.899908 129.8L 142.199908 124.4L 108.599908 33.7ZM 142.199908 124.4L 124.599908 33.4L 105.599908 40.1L 122.899908 129.8ZM 105.599908 40.1L 151.499908 127.3L 170.499908 120.6L 124.599908 33.4ZM 170.499908 120.6L 153.299908 34.1L 134.099908 39.9L 151.499908 127.3ZM 134.099908 39.9L 164.499908 112.4L 183.999908 107.3L 153.299908 34.1ZM 183.999908 107.3L 175.199908 35.9L 155.999908 43.7L 164.499908 112.4ZM 155.999908 43.7L 168.799908 60.4L 191.099908 56.6L 175.199908 35.9ZM 191.099908 56.6L 198.999908 32.8L 176.699908 36.6L 168.799908 60.4ZM 176.699908 36.6L 185.799908 48.5L 210.699908 47.9L 198.999908 32.8ZM 210.699908 47.9L 222.599908 31.2L 200.999908 27.1L 185.799908 48.5ZM 200.999908 27.1L 205.499908 45.5L 224.899908 40.7L 222.599908 31.2ZM 12.599908 29.4L 12.599908 29.8L 33.699908 38L 32.399908 27.1ZM 33.699908 38L 51.099908 22.9L 30.699908 14.1L 12.599908 29.8ZM 30.699908 14.1L 31.499908 36.1L 51.499908 35.4L 51.099908 22.9Z" fill-rule="nonzero"></path></g></g></g><g id="g-root-3.cu_sy_1q87r6vws5h55-fill" data-item-order="999760932" data-item-id="3.cu_sy_1q87r6vws5h55" data-item-class="Part Indexed Fill Stroke" data-item-index="3" data-renderer-id="0" transform="translate(340.0000915527344, 98)"><g id="3.cu_sy_1q87r6vws5h55-fill" stroke="none" fill="#d5f7e8"><g><path d="M 3.299908 124.5L 8.699908 133.6L 28.599908 127.9L 20.399908 114.2ZM 28.599908 127.9L 27.699908 72.1L 7.799908 76.5L 8.699908 133.6ZM 7.799908 76.5L 30.299908 127.2L 49.699908 121.6L 27.699908 72.1ZM 49.699908 121.6L 36.799908 34.1L 17.399908 39.4L 30.299908 127.2ZM 17.399908 39.4L 54.599908 130.7L 73.899908 125.2L 36.799908 34.1ZM 73.899908 125.2L 59.099908 34.1L 39.699908 39.3L 54.599908 130.7ZM 39.699908 39.3L 73.299908 126.4L 92.899908 121.5L 59.099908 34.1ZM 92.899908 121.5L 81.399908 30.2L 61.799908 35L 73.299908 126.4ZM 61.799908 35L 98.199908 134.6L 117.899908 130.1L 81.399908 30.2ZM 117.899908 130.1L 108.599908 33.7L 88.899908 38.2L 98.199908 134.6ZM 88.899908 38.2L 122.899908 129.8L 142.199908 124.4L 108.599908 33.7ZM 142.199908 124.4L 124.599908 33.4L 105.599908 40.1L 122.899908 129.8ZM 105.599908 40.1L 151.499908 127.3L 170.499908 120.6L 124.599908 33.4ZM 170.499908 120.6L 153.299908 34.1L 134.099908 39.9L 151.499908 127.3ZM 134.099908 39.9L 164.499908 112.4L 183.999908 107.3L 153.299908 34.1ZM 183.999908 107.3L 175.199908 35.9L 155.999908 43.7L 164.499908 112.4ZM 155.999908 43.7L 168.799908 60.4L 191.099908 56.6L 175.199908 35.9ZM 191.099908 56.6L 198.999908 32.8L 176.699908 36.6L 168.799908 60.4ZM 176.699908 36.6L 185.799908 48.5L 210.699908 47.9L 198.999908 32.8ZM 210.699908 47.9L 222.599908 31.2L 200.999908 27.1L 185.799908 48.5ZM 200.999908 27.1L 205.499908 45.5L 224.899908 40.7L 222.599908 31.2ZM 12.599908 29.4L 12.599908 29.8L 33.699908 38L 32.399908 27.1ZM 33.699908 38L 51.099908 22.9L 30.699908 14.1L 12.599908 29.8ZM 30.699908 14.1L 31.499908 36.1L 51.499908 35.4L 51.099908 22.9Z" fill-rule="nonzero"></path></g></g></g><g id="g-root-4.cu_sy_1q87r6vws5h56-fill" data-item-order="999760934" data-item-id="4.cu_sy_1q87r6vws5h56" data-item-class="Part Indexed Fill Stroke" data-item-index="4" data-renderer-id="0" transform="translate(508.0001220703125, 122)"><g id="4.cu_sy_1q87r6vws5h56-fill" stroke="none" fill="#ecf7d5"><g><path d="M -2.700122 129.6L -1.400122 137.7L 18.499878 135.7L 17.099878 126.5ZM 18.499878 135.7L 15.899878 69.2L -4.000122 73.4L -1.400122 137.7ZM -4.000122 73.4L 24.399878 145.5L 43.399878 139.3L 15.899878 69.2ZM 43.399878 139.3L 12.899878 24.9L -5.900122 32.1L 24.399878 145.5ZM -5.900122 32.1L 51.099878 145L 69.899878 137.8L 12.899878 24.9ZM 69.899878 137.8L 38.699878 20.1L 19.999878 27.6L 51.099878 145ZM 19.999878 27.6L 21.899878 30.6L 48.399878 38.4L 64.299878 30.3L 37.999878 21.6L 39.199878 20.9L 38.699878 20.1ZM 37.999878 21.6L 96.799878 144.3L 115.599878 137.2L 64.299878 30.3ZM 115.599878 137.2L 81.099878 17L 62.299878 23.9L 96.799878 144.3ZM 62.299878 23.9L 118.399878 146.5L 137.399878 139.9L 81.099878 17ZM 137.399878 139.9L 108.599878 23.4L 89.799878 30.3L 118.399878 146.5ZM 89.799878 30.3L 143.799878 139.4L 162.699878 132.5L 108.599878 23.4ZM 162.699878 132.5L 136.899878 24.6L 117.899878 31.1L 143.799878 139.4ZM 117.899878 31.1L 169.699878 143.8L 188.599878 137L 136.899878 24.6ZM 188.599878 137L 159.099878 24.4L 140.099878 30.8L 169.699878 143.8ZM 140.099878 30.8L 173.099878 109.4L 192.499878 104L 159.099878 24.4ZM 192.499878 104L 179.599878 17L 160.099878 22.2L 173.099878 109.4ZM 160.099878 22.2L 176.199878 63.9L 197.299878 63L 179.599878 17ZM 197.299878 63L 209.799878 19.8L 188.599878 21.4L 176.199878 63.9ZM 188.599878 21.4L 202.399878 51.6L 223.499878 49.7L 209.799878 19.8ZM 223.499878 49.7L 230.199878 23.9L 209.099878 25.8L 202.399878 51.6ZM 209.099878 25.8L 219.399878 48.4L 237.599878 40.2L 230.199878 23.9ZM 20.699878 31.8L 75.499878 146.7L 94.399878 139.9L 38.799878 23.1ZM 94.399878 139.9L 63.099878 13.6L 42.699878 14.5L 75.499878 146.7ZM 42.699878 14.5L 40.999878 25.8L 60.699878 28.8L 63.099878 13.6Z" fill-rule="nonzero"></path></g></g></g><g id="g-root-4.cu_sy_1q87r6vws5h56-fill" data-item-order="999760934" data-item-id="4.cu_sy_1q87r6vws5h56" data-item-class="Part Indexed Fill Stroke" data-item-index="4" data-renderer-id="0" transform="translate(508.0001220703125, 122)"><g id="4.cu_sy_1q87r6vws5h56-fill" stroke="none" fill="#ecf7d5"><g><path d="M -2.700122 129.6L -1.400122 137.7L 18.499878 135.7L 17.099878 126.5ZM 18.499878 135.7L 15.899878 69.2L -4.000122 73.4L -1.400122 137.7ZM -4.000122 73.4L 24.399878 145.5L 43.399878 139.3L 15.899878 69.2ZM 43.399878 139.3L 12.899878 24.9L -5.900122 32.1L 24.399878 145.5ZM -5.900122 32.1L 51.099878 145L 69.899878 137.8L 12.899878 24.9ZM 69.899878 137.8L 38.699878 20.1L 19.999878 27.6L 51.099878 145ZM 19.999878 27.6L 21.899878 30.6L 48.399878 38.4L 64.299878 30.3L 37.999878 21.6L 39.199878 20.9L 38.699878 20.1ZM 37.999878 21.6L 96.799878 144.3L 115.599878 137.2L 64.299878 30.3ZM 115.599878 137.2L 81.099878 17L 62.299878 23.9L 96.799878 144.3ZM 62.299878 23.9L 118.399878 146.5L 137.399878 139.9L 81.099878 17ZM 137.399878 139.9L 108.599878 23.4L 89.799878 30.3L 118.399878 146.5ZM 89.799878 30.3L 143.799878 139.4L 162.699878 132.5L 108.599878 23.4ZM 162.699878 132.5L 136.899878 24.6L 117.899878 31.1L 143.799878 139.4ZM 117.899878 31.1L 169.699878 143.8L 188.599878 137L 136.899878 24.6ZM 188.599878 137L 159.099878 24.4L 140.099878 30.8L 169.699878 143.8ZM 140.099878 30.8L 173.099878 109.4L 192.499878 104L 159.099878 24.4ZM 192.499878 104L 179.599878 17L 160.099878 22.2L 173.099878 109.4ZM 160.099878 22.2L 176.199878 63.9L 197.299878 63L 179.599878 17ZM 197.299878 63L 209.799878 19.8L 188.599878 21.4L 176.199878 63.9ZM 188.599878 21.4L 202.399878 51.6L 223.499878 49.7L 209.799878 19.8ZM 223.499878 49.7L 230.199878 23.9L 209.099878 25.8L 202.399878 51.6ZM 209.099878 25.8L 219.399878 48.4L 237.599878 40.2L 230.199878 23.9ZM 20.699878 31.8L 75.499878 146.7L 94.399878 139.9L 38.799878 23.1ZM 94.399878 139.9L 63.099878 13.6L 42.699878 14.5L 75.499878 146.7ZM 42.699878 14.5L 40.999878 25.8L 60.699878 28.8L 63.099878 13.6Z" fill-rule="nonzero"></path></g></g></g><g id="g-root-5.cu_sy_1lse92fws5hxf-fill" data-item-order="999760936" data-item-id="5.cu_sy_1lse92fws5hxf" data-item-class="Part Indexed Fill Stroke" data-item-index="5" data-renderer-id="0" transform="translate(676, 146)"><g id="5.cu_sy_1lse92fws5hxf-fill" stroke="none" fill="#fff9ce"><g><path d="M 4.8 123.2L 6.5 130.6L 26.5 128.2L 24.3 118.7ZM 26.5 128.2L 26.4 66.5L 6.4 70.9L 6.5 130.6ZM 6.4 70.9L 32.2 127.9L 51.3 121.5L 26.4 66.5ZM 51.3 121.5L 31.2 33.8L 12.2 40.5L 32.2 127.9ZM 12.2 40.5L 57.2 133.5L 76.3 127.1L 31.2 33.8ZM 76.3 127.1L 58.3 36.3L 39.2 42.9L 57.2 133.5ZM 39.2 42.9L 81.7 127L 100.8 120.4L 58.3 36.3ZM 100.8 120.4L 82.8 30.6L 63.6 36.3L 81.7 127ZM 63.6 36.3L 100.4 128.5L 119.8 123.3L 82.8 30.6ZM 119.8 123.3L 107 34.5L 87.6 39.8L 100.4 128.5ZM 87.6 39.8L 125.9 133.7L 145.1 127.8L 107 34.5ZM 145.1 127.8L 124.4 28.9L 105.2 35L 125.9 133.7ZM 105.2 35L 145.1 126.4L 164.6 121.1L 124.4 28.9ZM 164.6 121.1L 153.8 31.2L 134.3 36.4L 145.1 126.4ZM 134.3 36.4L 167.1 112.5L 186.6 107.3L 153.8 31.2ZM 186.6 107.3L 178.6 33.9L 158.8 36.8L 167.1 112.5ZM 158.8 36.8L 162 54.3L 183.5 60.9L 178.6 33.9ZM 183.5 60.9L 204.6 39.1L 176.6 39.3L 162 54.3ZM 176.6 39.3L 182.6 45.3L 210.7 45.2L 204.6 39.1ZM 210.7 45.2L 212 44L 216.8 46.4L 225.7 28.4L 222.8 27L 196.1 31.6L 182.6 45.3ZM 32.3 19.4L 32.8 36.1L 52.8 35.6L 52.3 18.9Z" fill-rule="nonzero"></path></g></g></g><g id="g-root-5.cu_sy_1lse92fws5hxf-fill" data-item-order="999760936" data-item-id="5.cu_sy_1lse92fws5hxf" data-item-class="Part Indexed Fill Stroke" data-item-index="5" data-renderer-id="0" transform="translate(676, 146)"><g id="5.cu_sy_1lse92fws5hxf-fill" stroke="none" fill="#fff9ce"><g><path d="M 4.8 123.2L 6.5 130.6L 26.5 128.2L 24.3 118.7ZM 26.5 128.2L 26.4 66.5L 6.4 70.9L 6.5 130.6ZM 6.4 70.9L 32.2 127.9L 51.3 121.5L 26.4 66.5ZM 51.3 121.5L 31.2 33.8L 12.2 40.5L 32.2 127.9ZM 12.2 40.5L 57.2 133.5L 76.3 127.1L 31.2 33.8ZM 76.3 127.1L 58.3 36.3L 39.2 42.9L 57.2 133.5ZM 39.2 42.9L 81.7 127L 100.8 120.4L 58.3 36.3ZM 100.8 120.4L 82.8 30.6L 63.6 36.3L 81.7 127ZM 63.6 36.3L 100.4 128.5L 119.8 123.3L 82.8 30.6ZM 119.8 123.3L 107 34.5L 87.6 39.8L 100.4 128.5ZM 87.6 39.8L 125.9 133.7L 145.1 127.8L 107 34.5ZM 145.1 127.8L 124.4 28.9L 105.2 35L 125.9 133.7ZM 105.2 35L 145.1 126.4L 164.6 121.1L 124.4 28.9ZM 164.6 121.1L 153.8 31.2L 134.3 36.4L 145.1 126.4ZM 134.3 36.4L 167.1 112.5L 186.6 107.3L 153.8 31.2ZM 186.6 107.3L 178.6 33.9L 158.8 36.8L 167.1 112.5ZM 158.8 36.8L 162 54.3L 183.5 60.9L 178.6 33.9ZM 183.5 60.9L 204.6 39.1L 176.6 39.3L 162 54.3ZM 176.6 39.3L 182.6 45.3L 210.7 45.2L 204.6 39.1ZM 210.7 45.2L 212 44L 216.8 46.4L 225.7 28.4L 222.8 27L 196.1 31.6L 182.6 45.3ZM 32.3 19.4L 32.8 36.1L 52.8 35.6L 52.3 18.9Z" fill-rule="nonzero"></path></g></g></g><g id="g-root-6.cu_sy_1lse92fws5hxg-fill" data-item-order="999760938" data-item-id="6.cu_sy_1lse92fws5hxg" data-item-class="Part Indexed Fill Stroke" data-item-index="6" data-renderer-id="0" transform="translate(844, 170)"><g id="6.cu_sy_1lse92fws5hxg-fill" stroke="none" fill="#fde6cf"><g><path d="M 4.1 34.4L 5.4 44.7L 26.8 53.3L 23.9 31.8ZM 26.8 53.3L 47.5 37.1L 29.3 25.9L 5.4 44.7ZM 29.3 25.9L 8.5 129.6L 27.7 135.7L 47.5 37.1ZM 27.7 135.7L 70.9 39.8L 51.7 33.6L 8.5 129.6ZM 51.7 33.6L 31.7 129.6L 50.9 135.6L 70.9 39.8ZM 50.9 135.6L 93.5 35.9L 74.3 30.1L 31.7 129.6ZM 74.3 30.1L 56.3 128.2L 75.7 133.8L 93.5 35.9ZM 75.7 133.8L 111.9 42L 92.7 36.2L 56.3 128.2ZM 92.7 36.2L 73.9 126.1L 92.9 132.8L 111.9 42ZM 92.9 132.8L 137.8 42.7L 118.7 36L 73.9 126.1ZM 118.7 36L 99.1 125.6L 118.2 131.8L 137.8 42.7ZM 118.2 131.8L 157.4 41.1L 138.2 35.1L 99.1 125.6ZM 138.2 35.1L 121.6 122.5L 140.8 129L 157.4 41.1ZM 140.8 129L 187.9 37.3L 169.1 30.2L 121.6 122.5ZM 169.1 30.2L 146.2 122L 165.1 129.1L 187.9 37.3ZM 165.1 129.1L 201.5 57.9L 182.7 50.8L 146.2 122ZM 182.7 50.8L 165 121.8L 183.5 130L 201.5 57.9ZM 183.5 130L 218.1 78L 199 70.7L 165 121.8ZM 199 70.7L 196.9 84.7L 216.7 87.7L 218.1 78ZM 34 15.8L 29.4 24.7L 47.2 33.8L 51.8 24.9Z" fill-rule="nonzero"></path></g></g></g><g id="g-root-6.cu_sy_1lse92fws5hxg-fill" data-item-order="999760938" data-item-id="6.cu_sy_1lse92fws5hxg" data-item-class="Part Indexed Fill Stroke" data-item-index="6" data-renderer-id="0" transform="translate(844, 170)"><g id="6.cu_sy_1lse92fws5hxg-fill" stroke="none" fill="#fde6cf"><g><path d="M 4.1 34.4L 5.4 44.7L 26.8 53.3L 23.9 31.8ZM 26.8 53.3L 47.5 37.1L 29.3 25.9L 5.4 44.7ZM 29.3 25.9L 8.5 129.6L 27.7 135.7L 47.5 37.1ZM 27.7 135.7L 70.9 39.8L 51.7 33.6L 8.5 129.6ZM 51.7 33.6L 31.7 129.6L 50.9 135.6L 70.9 39.8ZM 50.9 135.6L 93.5 35.9L 74.3 30.1L 31.7 129.6ZM 74.3 30.1L 56.3 128.2L 75.7 133.8L 93.5 35.9ZM 75.7 133.8L 111.9 42L 92.7 36.2L 56.3 128.2ZM 92.7 36.2L 73.9 126.1L 92.9 132.8L 111.9 42ZM 92.9 132.8L 137.8 42.7L 118.7 36L 73.9 126.1ZM 118.7 36L 99.1 125.6L 118.2 131.8L 137.8 42.7ZM 118.2 131.8L 157.4 41.1L 138.2 35.1L 99.1 125.6ZM 138.2 35.1L 121.6 122.5L 140.8 129L 157.4 41.1ZM 140.8 129L 187.9 37.3L 169.1 30.2L 121.6 122.5ZM 169.1 30.2L 146.2 122L 165.1 129.1L 187.9 37.3ZM 165.1 129.1L 201.5 57.9L 182.7 50.8L 146.2 122ZM 182.7 50.8L 165 121.8L 183.5 130L 201.5 57.9ZM 183.5 130L 218.1 78L 199 70.7L 165 121.8ZM 199 70.7L 196.9 84.7L 216.7 87.7L 218.1 78ZM 34 15.8L 29.4 24.7L 47.2 33.8L 51.8 24.9Z" fill-rule="nonzero"></path></g></g></g><g id="g-root-tx_designph_141qpnrws5h4w-fill" data-item-order="1000000000" data-item-id="tx_designph_141qpnrws5h4w" data-item-class="Label Stroke Indexed InsideFill" data-item-index="2" data-renderer-id="0" transform="translate(190, 134)"><g id="tx_designph_141qpnrws5h4w-fill" stroke="none" fill="#484848"><g><text style="font: 20px &quot;Shantell Sans&quot;, cursive; white-space: pre;" font-weight="20px" font-size="&quot;Shantell" font-family="Sans', cursive"><tspan x="12.51" y="35" dominant-baseline="ideographic">Design Phase</tspan></text></g></g></g><g id="g-root-tx_designph_141qpnrws5h4w-fill" data-item-order="1000000000" data-item-id="tx_designph_141qpnrws5h4w" data-item-class="Label Stroke Indexed InsideFill" data-item-index="2" data-renderer-id="0" transform="translate(190, 134)"><g id="tx_designph_141qpnrws5h4w-fill" stroke="none" fill="#484848"><g><text style="font: 20px &quot;Shantell Sans&quot;, cursive; white-space: pre;" font-weight="20px" font-size="&quot;Shantell" font-family="Sans', cursive"><tspan x="12.51" y="35" dominant-baseline="ideographic">Design Phase</tspan></text></g></g></g><g id="g-root-tx_developm_v63pevws5hxm-fill" data-item-order="1000000000" data-item-id="tx_developm_v63pevws5hxm" data-item-class="Label Stroke Indexed InsideFill" data-item-index="3" data-renderer-id="0" transform="translate(352, 146)"><g id="tx_developm_v63pevws5hxm-fill" stroke="none" fill="#484848"><g><text style="font: 20px &quot;Shantell Sans&quot;, cursive; white-space: pre;" font-weight="20px" font-size="&quot;Shantell" font-family="Sans', cursive"><tspan x="16.77" y="35" dominant-baseline="ideographic">Development </tspan><tspan x="50.16" y="59" dominant-baseline="ideographic">Phase</tspan></text></g></g></g><g id="g-root-tx_developm_v63pevws5hxm-fill" data-item-order="1000000000" data-item-id="tx_developm_v63pevws5hxm" data-item-class="Label Stroke Indexed InsideFill" data-item-index="3" data-renderer-id="0" transform="translate(352, 146)"><g id="tx_developm_v63pevws5hxm-fill" stroke="none" fill="#484848"><g><text style="font: 20px &quot;Shantell Sans&quot;, cursive; white-space: pre;" font-weight="20px" font-size="&quot;Shantell" font-family="Sans', cursive"><tspan x="16.77" y="35" dominant-baseline="ideographic">Development </tspan><tspan x="50.16" y="59" dominant-baseline="ideographic">Phase</tspan></text></g></g></g><g id="g-root-tx_planning_18gxqp3ws5jie-fill" data-item-order="1000000000" data-item-id="tx_planning_18gxqp3ws5jie" data-item-class="Label Stroke Indexed Indexed_1 InsideFill" data-item-index="1" data-renderer-id="0" transform="translate(40, 98)"><g id="tx_planning_18gxqp3ws5jie-fill" stroke="none" fill="#484848"><g><text style="font: 20px &quot;Shantell Sans&quot;, cursive; white-space: pre;" font-weight="20px" font-size="&quot;Shantell" font-family="Sans', cursive"><tspan x="12.56" y="35" dominant-baseline="ideographic">Planning </tspan><tspan x="26.16" y="59" dominant-baseline="ideographic">Phase</tspan></text></g></g></g><g id="g-root-tx_planning_18gxqp3ws5jie-fill" data-item-order="1000000000" data-item-id="tx_planning_18gxqp3ws5jie" data-item-class="Label Stroke Indexed Indexed_1 InsideFill" data-item-index="1" data-renderer-id="0" transform="translate(40, 98)"><g id="tx_planning_18gxqp3ws5jie-fill" stroke="none" fill="#484848"><g><text style="font: 20px &quot;Shantell Sans&quot;, cursive; white-space: pre;" font-weight="20px" font-size="&quot;Shantell" font-family="Sans', cursive"><tspan x="12.56" y="35" dominant-baseline="ideographic">Planning </tspan><tspan x="26.16" y="59" dominant-baseline="ideographic">Phase</tspan></text></g></g></g><g id="g-root-tx_deployme_v63pevws5hxo-fill" data-item-order="1000000000" data-item-id="tx_deployme_v63pevws5hxo" data-item-class="Label Stroke Indexed InsideFill" data-item-index="4" data-renderer-id="0" transform="translate(526, 170)"><g id="tx_deployme_v63pevws5hxo-fill" stroke="none" fill="#484848"><g><text style="font: 20px &quot;Shantell Sans&quot;, cursive; white-space: pre;" font-weight="20px" font-size="&quot;Shantell" font-family="Sans', cursive"><tspan x="15.8" y="35" dominant-baseline="ideographic">Deployment </tspan><tspan x="44.15" y="59" dominant-baseline="ideographic">Phase</tspan></text></g></g></g><g id="g-root-tx_deployme_v63pevws5hxo-fill" data-item-order="1000000000" data-item-id="tx_deployme_v63pevws5hxo" data-item-class="Label Stroke Indexed InsideFill" data-item-index="4" data-renderer-id="0" transform="translate(526, 170)"><g id="tx_deployme_v63pevws5hxo-fill" stroke="none" fill="#484848"><g><text style="font: 20px &quot;Shantell Sans&quot;, cursive; white-space: pre;" font-weight="20px" font-size="&quot;Shantell" font-family="Sans', cursive"><tspan x="15.8" y="35" dominant-baseline="ideographic">Deployment </tspan><tspan x="44.15" y="59" dominant-baseline="ideographic">Phase</tspan></text></g></g></g><g id="g-root-tx_apilifec_1cwr8tjws5iq5-fill" data-item-order="1000000000" data-item-id="tx_apilifec_1cwr8tjws5iq5" data-item-class="Label Stroke Title ColorFillBlack ColorStrokeBlack" data-item-index="none" data-renderer-id="0" transform="translate(334, 2)"><g id="tx_apilifec_1cwr8tjws5iq5-fill" stroke="none" fill="#484848"><g><text style="font: bold 25px &quot;Shantell Sans&quot;, cursive; white-space: pre;" font-weight="bold" font-size="25" font-family="'Shantell Sans', cursive"><tspan x="15.55" y="45" dominant-baseline="ideographic">API Lifecycle Management</tspan></text></g></g></g><g id="g-root-tx_initialp_18gxqp3ws5jif-fill" data-item-order="1000000000" data-item-id="tx_initialp_18gxqp3ws5jif" data-item-class="Label Stroke Indexed Indexed_1" data-item-index="1" data-renderer-id="0" transform="translate(16, 194)"><g id="tx_initialp_18gxqp3ws5jif-fill" stroke="none" fill="#484848"><g><text style="font: 20px &quot;Shantell Sans&quot;, cursive; white-space: pre;" font-weight="20px" font-size="&quot;Shantell" font-family="Sans', cursive"><tspan x="12" y="35" dominant-baseline="ideographic">Initial phase </tspan><tspan x="12" y="59" dominant-baseline="ideographic">where goals </tspan><tspan x="12" y="83" dominant-baseline="ideographic">and </tspan><tspan x="12" y="107" dominant-baseline="ideographic">requirements </tspan><tspan x="12" y="131" dominant-baseline="ideographic">are defined</tspan></text></g></g></g><g id="g-root-tx_initialp_18gxqp3ws5jif-fill" data-item-order="1000000000" data-item-id="tx_initialp_18gxqp3ws5jif" data-item-class="Label Stroke Indexed Indexed_1" data-item-index="1" data-renderer-id="0" transform="translate(16, 194)"><g id="tx_initialp_18gxqp3ws5jif-fill" stroke="none" fill="#484848"><g><text style="font: 20px &quot;Shantell Sans&quot;, cursive; white-space: pre;" font-weight="20px" font-size="&quot;Shantell" font-family="Sans', cursive"><tspan x="12" y="35" dominant-baseline="ideographic">Initial phase </tspan><tspan x="12" y="59" dominant-baseline="ideographic">where goals </tspan><tspan x="12" y="83" dominant-baseline="ideographic">and </tspan><tspan x="12" y="107" dominant-baseline="ideographic">requirements </tspan><tspan x="12" y="131" dominant-baseline="ideographic">are defined</tspan></text></g></g></g><g id="g-root-tx_manageme_qqa7afws5ipy-fill" data-item-order="1000000000" data-item-id="tx_manageme_qqa7afws5ipy" data-item-class="Label Stroke Indexed InsideFill" data-item-index="5" data-renderer-id="0" transform="translate(688, 194)"><g id="tx_manageme_qqa7afws5ipy-fill" stroke="none" fill="#484848"><g><text style="font: 20px &quot;Shantell Sans&quot;, cursive; white-space: pre;" font-weight="20px" font-size="&quot;Shantell" font-family="Sans', cursive"><tspan x="14.91" y="35" dominant-baseline="ideographic">Management </tspan><tspan x="50.65" y="59" dominant-baseline="ideographic">Phase</tspan></text></g></g></g><g id="g-root-tx_manageme_qqa7afws5ipy-fill" data-item-order="1000000000" data-item-id="tx_manageme_qqa7afws5ipy" data-item-class="Label Stroke Indexed InsideFill" data-item-index="5" data-renderer-id="0" transform="translate(688, 194)"><g id="tx_manageme_qqa7afws5ipy-fill" stroke="none" fill="#484848"><g><text style="font: 20px &quot;Shantell Sans&quot;, cursive; white-space: pre;" font-weight="20px" font-size="&quot;Shantell" font-family="Sans', cursive"><tspan x="14.91" y="35" dominant-baseline="ideographic">Management </tspan><tspan x="50.65" y="59" dominant-baseline="ideographic">Phase</tspan></text></g></g></g><g id="g-root-tx_phasefoc_141qpnrws5h4x-fill" data-item-order="1000000000" data-item-id="tx_phasefoc_141qpnrws5h4x" data-item-class="Label Stroke Indexed" data-item-index="2" data-renderer-id="0" transform="translate(184, 218)"><g id="tx_phasefoc_141qpnrws5h4x-fill" stroke="none" fill="#484848"><g><text style="font: 20px &quot;Shantell Sans&quot;, cursive; white-space: pre;" font-weight="20px" font-size="&quot;Shantell" font-family="Sans', cursive"><tspan x="12" y="35" dominant-baseline="ideographic">Phase focused </tspan><tspan x="12" y="59" dominant-baseline="ideographic">on structuring </tspan><tspan x="12" y="83" dominant-baseline="ideographic">and detailing </tspan><tspan x="12" y="107" dominant-baseline="ideographic">the API</tspan></text></g></g></g><g id="g-root-tx_phasefoc_141qpnrws5h4x-fill" data-item-order="1000000000" data-item-id="tx_phasefoc_141qpnrws5h4x" data-item-class="Label Stroke Indexed" data-item-index="2" data-renderer-id="0" transform="translate(184, 218)"><g id="tx_phasefoc_141qpnrws5h4x-fill" stroke="none" fill="#484848"><g><text style="font: 20px &quot;Shantell Sans&quot;, cursive; white-space: pre;" font-weight="20px" font-size="&quot;Shantell" font-family="Sans', cursive"><tspan x="12" y="35" dominant-baseline="ideographic">Phase focused </tspan><tspan x="12" y="59" dominant-baseline="ideographic">on structuring </tspan><tspan x="12" y="83" dominant-baseline="ideographic">and detailing </tspan><tspan x="12" y="107" dominant-baseline="ideographic">the API</tspan></text></g></g></g><g id="g-root-tx_retireme_magp5zws5ji8-fill" data-item-order="1000000000" data-item-id="tx_retireme_magp5zws5ji8" data-item-class="Label Stroke Indexed InsideFill" data-item-index="6" data-renderer-id="0" transform="translate(868, 218)"><g id="tx_retireme_magp5zws5ji8-fill" stroke="none" fill="#484848"><g><text style="font: 20px &quot;Shantell Sans&quot;, cursive; white-space: pre;" font-weight="20px" font-size="&quot;Shantell" font-family="Sans', cursive"><tspan x="13.34" y="35" dominant-baseline="ideographic">Retirement </tspan><tspan x="38.15" y="59" dominant-baseline="ideographic">Phase</tspan></text></g></g></g><g id="g-root-tx_retireme_magp5zws5ji8-fill" data-item-order="1000000000" data-item-id="tx_retireme_magp5zws5ji8" data-item-class="Label Stroke Indexed InsideFill" data-item-index="6" data-renderer-id="0" transform="translate(868, 218)"><g id="tx_retireme_magp5zws5ji8-fill" stroke="none" fill="#484848"><g><text style="font: 20px &quot;Shantell Sans&quot;, cursive; white-space: pre;" font-weight="20px" font-size="&quot;Shantell" font-family="Sans', cursive"><tspan x="13.34" y="35" dominant-baseline="ideographic">Retirement </tspan><tspan x="38.15" y="59" dominant-baseline="ideographic">Phase</tspan></text></g></g></g><g id="g-root-tx_phasewhe_v63pevws5hxn-fill" data-item-order="1000000000" data-item-id="tx_phasewhe_v63pevws5hxn" data-item-class="Label Stroke Indexed" data-item-index="3" data-renderer-id="0" transform="translate(352, 242)"><g id="tx_phasewhe_v63pevws5hxn-fill" stroke="none" fill="#484848"><g><text style="font: 20px &quot;Shantell Sans&quot;, cursive; white-space: pre;" font-weight="20px" font-size="&quot;Shantell" font-family="Sans', cursive"><tspan x="12" y="35" dominant-baseline="ideographic">Phase where </tspan><tspan x="12" y="59" dominant-baseline="ideographic">the API is </tspan><tspan x="12" y="83" dominant-baseline="ideographic">built and </tspan><tspan x="12" y="107" dominant-baseline="ideographic">coded</tspan></text></g></g></g><g id="g-root-tx_phasewhe_v63pevws5hxn-fill" data-item-order="1000000000" data-item-id="tx_phasewhe_v63pevws5hxn" data-item-class="Label Stroke Indexed" data-item-index="3" data-renderer-id="0" transform="translate(352, 242)"><g id="tx_phasewhe_v63pevws5hxn-fill" stroke="none" fill="#484848"><g><text style="font: 20px &quot;Shantell Sans&quot;, cursive; white-space: pre;" font-weight="20px" font-size="&quot;Shantell" font-family="Sans', cursive"><tspan x="12" y="35" dominant-baseline="ideographic">Phase where </tspan><tspan x="12" y="59" dominant-baseline="ideographic">the API is </tspan><tspan x="12" y="83" dominant-baseline="ideographic">built and </tspan><tspan x="12" y="107" dominant-baseline="ideographic">coded</tspan></text></g></g></g><g id="g-root-tx_phasewhe_qqa7afws5ipx-fill" data-item-order="1000000000" data-item-id="tx_phasewhe_qqa7afws5ipx" data-item-class="Label Stroke Indexed" data-item-index="4" data-renderer-id="0" transform="translate(520, 266)"><g id="tx_phasewhe_qqa7afws5ipx-fill" stroke="none" fill="#484848"><g><text style="font: 20px &quot;Shantell Sans&quot;, cursive; white-space: pre;" font-weight="20px" font-size="&quot;Shantell" font-family="Sans', cursive"><tspan x="12" y="35" dominant-baseline="ideographic">Phase where </tspan><tspan x="12" y="59" dominant-baseline="ideographic">the API is </tspan><tspan x="12" y="83" dominant-baseline="ideographic">released to </tspan><tspan x="12" y="107" dominant-baseline="ideographic">users</tspan></text></g></g></g><g id="g-root-tx_finalpha_dfg607ws5h55-fill" data-item-order="1000000000" data-item-id="tx_finalpha_dfg607ws5h55" data-item-class="Label Stroke Indexed" data-item-index="6" data-renderer-id="0" transform="translate(856, 314)"><g id="tx_finalpha_dfg607ws5h55-fill" stroke="none" fill="#484848"><g><text style="font: 20px &quot;Shantell Sans&quot;, cursive; white-space: pre;" font-weight="20px" font-size="&quot;Shantell" font-family="Sans', cursive"><tspan x="12" y="35" dominant-baseline="ideographic">Final phase </tspan><tspan x="12" y="59" dominant-baseline="ideographic">where the </tspan><tspan x="12" y="83" dominant-baseline="ideographic">API is phased </tspan><tspan x="12" y="107" dominant-baseline="ideographic">out</tspan></text></g></g></g><g id="g-root-tx_phaseinv_hun71jws5jin-fill" data-item-order="1000000000" data-item-id="tx_phaseinv_hun71jws5jin" data-item-class="Label Stroke Indexed" data-item-index="5" data-renderer-id="0" transform="translate(688, 290)"><g id="tx_phaseinv_hun71jws5jin-fill" stroke="none" fill="#484848"><g><text style="font: 20px &quot;Shantell Sans&quot;, cursive; white-space: pre;" font-weight="20px" font-size="&quot;Shantell" font-family="Sans', cursive"><tspan x="12" y="35" dominant-baseline="ideographic">Phase involving </tspan><tspan x="12" y="59" dominant-baseline="ideographic">monitoring and </tspan><tspan x="12" y="83" dominant-baseline="ideographic">updating the </tspan><tspan x="12" y="107" dominant-baseline="ideographic">API</tspan></text></g></g></g><g id="g-root-tx_phaseinv_hun71jws5jin-fill" data-item-order="1000000000" data-item-id="tx_phaseinv_hun71jws5jin" data-item-class="Label Stroke Indexed" data-item-index="5" data-renderer-id="0" transform="translate(688, 290)"><g id="tx_phaseinv_hun71jws5jin-fill" stroke="none" fill="#484848"><g><text style="font: 20px &quot;Shantell Sans&quot;, cursive; white-space: pre;" font-weight="20px" font-size="&quot;Shantell" font-family="Sans', cursive"><tspan x="12" y="35" dominant-baseline="ideographic">Phase involving </tspan><tspan x="12" y="59" dominant-baseline="ideographic">monitoring and </tspan><tspan x="12" y="83" dominant-baseline="ideographic">updating the </tspan><tspan x="12" y="107" dominant-baseline="ideographic">API</tspan></text></g></g></g><g id="g-root-tx_finalpha_dfg607ws5h55-fill" data-item-order="1000000000" data-item-id="tx_finalpha_dfg607ws5h55" data-item-class="Label Stroke Indexed" data-item-index="6" data-renderer-id="0" transform="translate(856, 314)"><g id="tx_finalpha_dfg607ws5h55-fill" stroke="none" fill="#484848"><g><text style="font: 20px &quot;Shantell Sans&quot;, cursive; white-space: pre;" font-weight="20px" font-size="&quot;Shantell" font-family="Sans', cursive"><tspan x="12" y="35" dominant-baseline="ideographic">Final phase </tspan><tspan x="12" y="59" dominant-baseline="ideographic">where the </tspan><tspan x="12" y="83" dominant-baseline="ideographic">API is phased </tspan><tspan x="12" y="107" dominant-baseline="ideographic">out</tspan></text></g></g></g><g id="g-root-tx_apilifec_1cwr8tjws5iq5-fill" data-item-order="1000000000" data-item-id="tx_apilifec_1cwr8tjws5iq5" data-item-class="Label Stroke Title ColorFillBlack ColorStrokeBlack" data-item-index="none" data-renderer-id="0" transform="translate(334, 2)"><g id="tx_apilifec_1cwr8tjws5iq5-fill" stroke="none" fill="#484848"><g><text style="font: bold 25px &quot;Shantell Sans&quot;, cursive; white-space: pre;" font-weight="bold" font-size="25" font-family="'Shantell Sans', cursive"><tspan x="15.55" y="45" dominant-baseline="ideographic">API Lifecycle Management</tspan></text></g></g></g><g id="g-root-tx_phasewhe_qqa7afws5ipx-fill" data-item-order="1000000000" data-item-id="tx_phasewhe_qqa7afws5ipx" data-item-class="Label Stroke Indexed" data-item-index="4" data-renderer-id="0" transform="translate(520, 266)"><g id="tx_phasewhe_qqa7afws5ipx-fill" stroke="none" fill="#484848"><g><text style="font: 20px &quot;Shantell Sans&quot;, cursive; white-space: pre;" font-weight="20px" font-size="&quot;Shantell" font-family="Sans', cursive"><tspan x="12" y="35" dominant-baseline="ideographic">Phase where </tspan><tspan x="12" y="59" dominant-baseline="ideographic">the API is </tspan><tspan x="12" y="83" dominant-baseline="ideographic">released to </tspan><tspan x="12" y="107" dominant-baseline="ideographic">users</tspan></text></g></g></g><g id="g-root-1.cu_sy_1unes87ws5jin-stroke" data-item-order="999760928" data-item-id="1.cu_sy_1unes87ws5jin" data-item-class="Part Indexed Indexed_1 Fill Stroke" data-item-index="1" data-renderer-id="0" transform="translate(4, 74)"><g id="1.cu_sy_1unes87ws5jin-stroke" fill="none" stroke-linecap="round" stroke-linejoin="round" stroke-miterlimit="4" stroke="#484848" stroke-width="4"><g><path d="M 10 10C 10.6 42 10.3 74 10 106C 28.6 105.2 47.2 105.8 65.8 106C 84 106.2 102.2 104.2 120.2 106C 139.4 107.9 158.8 106.9 178 106C 177.9 82 177.3 58 178 34C 193.8 25.7 209.2 16.2 226 10C 202.9 10.6 179.8 9.2 156.8 10C 131.8 10.9 106.8 9.9 81.8 10C 57.9 10.1 33.9 9.2 10 10"></path><path d="M 10 10L 10 106L 178 106L 178 34L 226 10L 10 10Z"></path></g></g></g><g id="g-root-1.cu_sy_1unes87ws5jin-stroke" data-item-order="999760928" data-item-id="1.cu_sy_1unes87ws5jin" data-item-class="Part Indexed Indexed_1 Fill Stroke" data-item-index="1" data-renderer-id="0" transform="translate(4, 74)"><g id="1.cu_sy_1unes87ws5jin-stroke" fill="none" stroke-linecap="round" stroke-linejoin="round" stroke-miterlimit="4" stroke="#484848" stroke-width="4"><g><path d="M 10 10C 10.6 42 10.3 74 10 106C 28.6 105.2 47.2 105.8 65.8 106C 84 106.2 102.2 104.2 120.2 106C 139.4 107.9 158.8 106.9 178 106C 177.9 82 177.3 58 178 34C 193.8 25.7 209.2 16.2 226 10C 202.9 10.6 179.8 9.2 156.8 10C 131.8 10.9 106.8 9.9 81.8 10C 57.9 10.1 33.9 9.2 10 10"></path><path d="M 10 10L 10 106L 178 106L 178 34L 226 10L 10 10Z"></path></g></g></g><g id="g-root-2.cu_sy_1q87r6vws5h54-stroke" data-item-order="999760930" data-item-id="2.cu_sy_1q87r6vws5h54" data-item-class="Part Indexed Fill Stroke" data-item-index="2" data-renderer-id="0" transform="translate(172.00009155273438, 74)"><g id="2.cu_sy_1q87r6vws5h54-stroke" fill="none" stroke-linecap="round" stroke-linejoin="round" stroke-miterlimit="4" stroke="#484848" stroke-width="4"><g><path d="M 9.999908 34C 10.599908 66 9.599908 98 9.999908 130C 27.999908 130.5 46.099908 129.7 64.199908 130C 82.499908 130.3 100.899908 129.4 119.299908 130C 138.899908 130.6 158.499908 131.5 177.999908 130C 178.399908 106 178.099908 82 177.999908 58C 193.299908 48.7 210.799908 43.4 225.999908 34C 210.199908 33.3 194.399908 35.2 178.599908 34C 163.799908 32.9 148.999908 34.5 134.099908 34C 119.899908 33.5 105.699908 35.2 91.599908 34C 76.699908 32.7 61.699908 35.1 46.799908 34C 34.599908 33.1 22.199908 35.6 9.999908 34M 57.999908 34C 57.399908 26 57.699908 18 57.999908 10C 41.799908 17.6 25.799908 25.6 9.999908 34C 25.999908 33.1 41.999908 34.7 57.999908 34"></path><path d="M 10 34L 10 130L 178 130L 178 58L 226 34L 10 34ZM 58 34L 58 10L 10 34L 58 34Z"></path></g></g></g><g id="g-root-2.cu_sy_1q87r6vws5h54-stroke" data-item-order="999760930" data-item-id="2.cu_sy_1q87r6vws5h54" data-item-class="Part Indexed Fill Stroke" data-item-index="2" data-renderer-id="0" transform="translate(172.00009155273438, 74)"><g id="2.cu_sy_1q87r6vws5h54-stroke" fill="none" stroke-linecap="round" stroke-linejoin="round" stroke-miterlimit="4" stroke="#484848" stroke-width="4"><g><path d="M 9.999908 34C 10.599908 66 9.599908 98 9.999908 130C 27.999908 130.5 46.099908 129.7 64.199908 130C 82.499908 130.3 100.899908 129.4 119.299908 130C 138.899908 130.6 158.499908 131.5 177.999908 130C 178.399908 106 178.099908 82 177.999908 58C 193.299908 48.7 210.799908 43.4 225.999908 34C 210.199908 33.3 194.399908 35.2 178.599908 34C 163.799908 32.9 148.999908 34.5 134.099908 34C 119.899908 33.5 105.699908 35.2 91.599908 34C 76.699908 32.7 61.699908 35.1 46.799908 34C 34.599908 33.1 22.199908 35.6 9.999908 34M 57.999908 34C 57.399908 26 57.699908 18 57.999908 10C 41.799908 17.6 25.799908 25.6 9.999908 34C 25.999908 33.1 41.999908 34.7 57.999908 34"></path><path d="M 10 34L 10 130L 178 130L 178 58L 226 34L 10 34ZM 58 34L 58 10L 10 34L 58 34Z"></path></g></g></g><g id="g-root-3.cu_sy_1q87r6vws5h55-stroke" data-item-order="999760932" data-item-id="3.cu_sy_1q87r6vws5h55" data-item-class="Part Indexed Fill Stroke" data-item-index="3" data-renderer-id="0" transform="translate(340.0000915527344, 98)"><g id="3.cu_sy_1q87r6vws5h55-stroke" fill="none" stroke-linecap="round" stroke-linejoin="round" stroke-miterlimit="4" stroke="#484848" stroke-width="4"><g><path d="M 9.999908 34C 11.499908 49.3 9.199908 64.8 9.999908 80.1C 10.799908 96.7 11.299908 113.4 9.999908 130C 35.799908 130.6 61.699908 130.8 87.499908 130C 117.699908 129.1 147.799908 130.3 177.999908 130C 179.599908 106.1 176.799908 82 177.999908 58C 194.299908 50.6 209.699908 41.3 225.999908 34C 208.799908 32 191.299908 33.7 173.999908 34C 155.799908 34.4 137.599908 32.9 119.499908 34C 100.699908 35.1 81.899908 34.3 63.099908 34C 45.399908 33.7 27.699908 33.2 9.999908 34M 57.999908 34C 56.399908 26.2 56.999908 17.9 57.999908 10C 41.499908 16.9 25.399908 24.9 9.999908 34C 25.999908 34.1 41.999908 33.8 57.999908 34"></path><path d="M 10 34L 10 130L 178 130L 178 58L 226 34L 10 34ZM 58.000022 34L 58.000022 10L 10.000122 34L 58.000022 34Z"></path></g></g></g><g id="g-root-3.cu_sy_1q87r6vws5h55-stroke" data-item-order="999760932" data-item-id="3.cu_sy_1q87r6vws5h55" data-item-class="Part Indexed Fill Stroke" data-item-index="3" data-renderer-id="0" transform="translate(340.0000915527344, 98)"><g id="3.cu_sy_1q87r6vws5h55-stroke" fill="none" stroke-linecap="round" stroke-linejoin="round" stroke-miterlimit="4" stroke="#484848" stroke-width="4"><g><path d="M 9.999908 34C 11.499908 49.3 9.199908 64.8 9.999908 80.1C 10.799908 96.7 11.299908 113.4 9.999908 130C 35.799908 130.6 61.699908 130.8 87.499908 130C 117.699908 129.1 147.799908 130.3 177.999908 130C 179.599908 106.1 176.799908 82 177.999908 58C 194.299908 50.6 209.699908 41.3 225.999908 34C 208.799908 32 191.299908 33.7 173.999908 34C 155.799908 34.4 137.599908 32.9 119.499908 34C 100.699908 35.1 81.899908 34.3 63.099908 34C 45.399908 33.7 27.699908 33.2 9.999908 34M 57.999908 34C 56.399908 26.2 56.999908 17.9 57.999908 10C 41.499908 16.9 25.399908 24.9 9.999908 34C 25.999908 34.1 41.999908 33.8 57.999908 34"></path><path d="M 10 34L 10 130L 178 130L 178 58L 226 34L 10 34ZM 58.000022 34L 58.000022 10L 10.000122 34L 58.000022 34Z"></path></g></g></g><g id="g-root-4.cu_sy_1q87r6vws5h56-stroke" data-item-order="999760934" data-item-id="4.cu_sy_1q87r6vws5h56" data-item-class="Part Indexed Fill Stroke" data-item-index="4" data-renderer-id="0" transform="translate(508.0001220703125, 122)"><g id="4.cu_sy_1q87r6vws5h56-stroke" fill="none" stroke-linecap="round" stroke-linejoin="round" stroke-miterlimit="4" stroke="#484848" stroke-width="4"><g><path d="M 9.999878 130C 10.999878 113.7 9.499878 97.3 9.999878 80.9C 10.399878 65.3 11.599878 49.6 9.999878 34C 35.199878 32.8 60.399878 35.6 85.599878 34C 108.399878 32.5 131.399878 35.6 154.199878 34C 178.099878 32.3 202.099878 34.9 225.999878 34C 210.399878 42.7 193.699878 49.4 177.999878 58C 176.699878 82 179.799878 106.1 177.999878 130C 164.399878 130.1 150.799878 131.2 137.299878 130C 123.999878 128.9 110.699878 130.8 97.399878 130C 83.099878 129.2 68.799878 130.9 54.599878 130C 39.699878 129.1 24.799878 130.6 9.999878 130M 57.999878 34C 59.599878 26.2 58.399878 18 57.999878 10C 42.899878 19.6 26.499878 27.2 9.999878 34C 25.999878 34.6 42.099878 32.3 57.999878 34"></path><path d="M 10 130L 10 34L 226 34L 178 58L 178 130L 10 130ZM 57.9999 34L 57.9999 10L 10 34L 57.9999 34Z"></path></g></g></g><g id="g-root-4.cu_sy_1q87r6vws5h56-stroke" data-item-order="999760934" data-item-id="4.cu_sy_1q87r6vws5h56" data-item-class="Part Indexed Fill Stroke" data-item-index="4" data-renderer-id="0" transform="translate(508.0001220703125, 122)"><g id="4.cu_sy_1q87r6vws5h56-stroke" fill="none" stroke-linecap="round" stroke-linejoin="round" stroke-miterlimit="4" stroke="#484848" stroke-width="4"><g><path d="M 9.999878 130C 10.999878 113.7 9.499878 97.3 9.999878 80.9C 10.399878 65.3 11.599878 49.6 9.999878 34C 35.199878 32.8 60.399878 35.6 85.599878 34C 108.399878 32.5 131.399878 35.6 154.199878 34C 178.099878 32.3 202.099878 34.9 225.999878 34C 210.399878 42.7 193.699878 49.4 177.999878 58C 176.699878 82 179.799878 106.1 177.999878 130C 164.399878 130.1 150.799878 131.2 137.299878 130C 123.999878 128.9 110.699878 130.8 97.399878 130C 83.099878 129.2 68.799878 130.9 54.599878 130C 39.699878 129.1 24.799878 130.6 9.999878 130M 57.999878 34C 59.599878 26.2 58.399878 18 57.999878 10C 42.899878 19.6 26.499878 27.2 9.999878 34C 25.999878 34.6 42.099878 32.3 57.999878 34"></path><path d="M 10 130L 10 34L 226 34L 178 58L 178 130L 10 130ZM 57.9999 34L 57.9999 10L 10 34L 57.9999 34Z"></path></g></g></g><g id="g-root-5.cu_sy_1lse92fws5hxf-stroke" data-item-order="999760936" data-item-id="5.cu_sy_1lse92fws5hxf" data-item-class="Part Indexed Fill Stroke" data-item-index="5" data-renderer-id="0" transform="translate(676, 146)"><g id="5.cu_sy_1lse92fws5hxf-stroke" fill="none" stroke-linecap="round" stroke-linejoin="round" stroke-miterlimit="4" stroke="#484848" stroke-width="4"><g><path d="M 10 34C 10.3 50.7 10.9 67.4 10 84.1C 9.2 99.4 11.1 114.8 10 130C 28.3 131.1 46.8 130.9 65.2 130C 82.8 129.1 100.5 129.1 118.1 130C 138 131 158 129.9 178 130C 178.7 106 177 82 178 58C 194.6 51.4 210.2 42.5 226 34C 208.9 32.1 191.5 35 174.2 34C 155 32.9 135.7 34.1 116.5 34C 99 33.9 81.6 34.1 64.1 34C 46.1 33.9 28 34 10 34M 58 34C 56.5 26.1 59 17.9 58 10C 42 17.9 25.9 25.8 10 34C 26 35.2 42 32.7 58 34"></path><path d="M 10.000122 34L 10.000122 130L 178.000122 130L 178.000122 58L 226.000122 34L 10.000122 34ZM 58.0001 34L 58.0001 10L 10 34L 58.0001 34Z"></path></g></g></g><g id="g-root-5.cu_sy_1lse92fws5hxf-stroke" data-item-order="999760936" data-item-id="5.cu_sy_1lse92fws5hxf" data-item-class="Part Indexed Fill Stroke" data-item-index="5" data-renderer-id="0" transform="translate(676, 146)"><g id="5.cu_sy_1lse92fws5hxf-stroke" fill="none" stroke-linecap="round" stroke-linejoin="round" stroke-miterlimit="4" stroke="#484848" stroke-width="4"><g><path d="M 10 34C 10.3 50.7 10.9 67.4 10 84.1C 9.2 99.4 11.1 114.8 10 130C 28.3 131.1 46.8 130.9 65.2 130C 82.8 129.1 100.5 129.1 118.1 130C 138 131 158 129.9 178 130C 178.7 106 177 82 178 58C 194.6 51.4 210.2 42.5 226 34C 208.9 32.1 191.5 35 174.2 34C 155 32.9 135.7 34.1 116.5 34C 99 33.9 81.6 34.1 64.1 34C 46.1 33.9 28 34 10 34M 58 34C 56.5 26.1 59 17.9 58 10C 42 17.9 25.9 25.8 10 34C 26 35.2 42 32.7 58 34"></path><path d="M 10.000122 34L 10.000122 130L 178.000122 130L 178.000122 58L 226.000122 34L 10.000122 34ZM 58.0001 34L 58.0001 10L 10 34L 58.0001 34Z"></path></g></g></g><g id="g-root-6.cu_sy_1lse92fws5hxg-stroke" data-item-order="999760938" data-item-id="6.cu_sy_1lse92fws5hxg" data-item-class="Part Indexed Fill Stroke" data-item-index="6" data-renderer-id="0" transform="translate(844, 170)"><g id="6.cu_sy_1lse92fws5hxg-stroke" fill="none" stroke-linecap="round" stroke-linejoin="round" stroke-miterlimit="4" stroke="#484848" stroke-width="4"><g><path d="M 10 34C 8.9 66 10.8 98 10 130C 33.8 131.1 57.7 130 81.6 130C 109.7 129.9 137.9 128.7 166 130C 165.4 134.3 165.8 138.7 166 143C 183.1 123.6 199.5 103.5 214 82C 199.6 60.8 181.6 42.3 166 22C 164.8 25.8 165.3 30.1 166 34C 140.9 33.5 115.9 34.6 90.8 34C 63.9 33.3 36.9 35.6 10 34M 58 34C 58.8 26 57.8 18 58 10C 42.2 18.4 25.5 25 10 34C 26 33.5 42.1 35.7 58 34"></path><path d="M 10 34L 10 130L 166 130L 166 143L 214 82L 166 22L 166 34L 10 34ZM 58 34L 58 10L 10 34L 58 34Z"></path></g></g></g><g id="g-root-6.cu_sy_1lse92fws5hxg-stroke" data-item-order="999760938" data-item-id="6.cu_sy_1lse92fws5hxg" data-item-class="Part Indexed Fill Stroke" data-item-index="6" data-renderer-id="0" transform="translate(844, 170)"><g id="6.cu_sy_1lse92fws5hxg-stroke" fill="none" stroke-linecap="round" stroke-linejoin="round" stroke-miterlimit="4" stroke="#484848" stroke-width="4"><g><path d="M 10 34C 8.9 66 10.8 98 10 130C 33.8 131.1 57.7 130 81.6 130C 109.7 129.9 137.9 128.7 166 130C 165.4 134.3 165.8 138.7 166 143C 183.1 123.6 199.5 103.5 214 82C 199.6 60.8 181.6 42.3 166 22C 164.8 25.8 165.3 30.1 166 34C 140.9 33.5 115.9 34.6 90.8 34C 63.9 33.3 36.9 35.6 10 34M 58 34C 58.8 26 57.8 18 58 10C 42.2 18.4 25.5 25 10 34C 26 33.5 42.1 35.7 58 34"></path><path d="M 10 34L 10 130L 166 130L 166 143L 214 82L 166 22L 166 34L 10 34ZM 58 34L 58 10L 10 34L 58 34Z"></path></g></g></g><g id="g-root-tx_designph_141qpnrws5h4w-stroke" data-item-order="1000000000" data-item-id="tx_designph_141qpnrws5h4w" data-item-class="Label Stroke Indexed InsideFill" data-item-index="2" data-renderer-id="0" transform="translate(190, 134)"></g><g id="g-root-tx_designph_141qpnrws5h4w-stroke" data-item-order="1000000000" data-item-id="tx_designph_141qpnrws5h4w" data-item-class="Label Stroke Indexed InsideFill" data-item-index="2" data-renderer-id="0" transform="translate(190, 134)"></g><g id="g-root-tx_developm_v63pevws5hxm-stroke" data-item-order="1000000000" data-item-id="tx_developm_v63pevws5hxm" data-item-class="Label Stroke Indexed InsideFill" data-item-index="3" data-renderer-id="0" transform="translate(352, 146)"></g><g id="g-root-tx_developm_v63pevws5hxm-stroke" data-item-order="1000000000" data-item-id="tx_developm_v63pevws5hxm" data-item-class="Label Stroke Indexed InsideFill" data-item-index="3" data-renderer-id="0" transform="translate(352, 146)"></g><g id="g-root-tx_planning_18gxqp3ws5jie-stroke" data-item-order="1000000000" data-item-id="tx_planning_18gxqp3ws5jie" data-item-class="Label Stroke Indexed Indexed_1 InsideFill" data-item-index="1" data-renderer-id="0" transform="translate(40, 98)"></g><g id="g-root-tx_planning_18gxqp3ws5jie-stroke" data-item-order="1000000000" data-item-id="tx_planning_18gxqp3ws5jie" data-item-class="Label Stroke Indexed Indexed_1 InsideFill" data-item-index="1" data-renderer-id="0" transform="translate(40, 98)"></g><g id="g-root-tx_deployme_v63pevws5hxo-stroke" data-item-order="1000000000" data-item-id="tx_deployme_v63pevws5hxo" data-item-class="Label Stroke Indexed InsideFill" data-item-index="4" data-renderer-id="0" transform="translate(526, 170)"></g><g id="g-root-tx_deployme_v63pevws5hxo-stroke" data-item-order="1000000000" data-item-id="tx_deployme_v63pevws5hxo" data-item-class="Label Stroke Indexed InsideFill" data-item-index="4" data-renderer-id="0" transform="translate(526, 170)"></g><g id="g-root-tx_apilifec_1cwr8tjws5iq5-stroke" data-item-order="1000000000" data-item-id="tx_apilifec_1cwr8tjws5iq5" data-item-class="Label Stroke Title ColorFillBlack ColorStrokeBlack" data-item-index="none" data-renderer-id="0" transform="translate(334, 2)"></g><g id="g-root-tx_initialp_18gxqp3ws5jif-stroke" data-item-order="1000000000" data-item-id="tx_initialp_18gxqp3ws5jif" data-item-class="Label Stroke Indexed Indexed_1" data-item-index="1" data-renderer-id="0" transform="translate(16, 194)"></g><g id="g-root-tx_initialp_18gxqp3ws5jif-stroke" data-item-order="1000000000" data-item-id="tx_initialp_18gxqp3ws5jif" data-item-class="Label Stroke Indexed Indexed_1" data-item-index="1" data-renderer-id="0" transform="translate(16, 194)"></g><g id="g-root-tx_manageme_qqa7afws5ipy-stroke" data-item-order="1000000000" data-item-id="tx_manageme_qqa7afws5ipy" data-item-class="Label Stroke Indexed InsideFill" data-item-index="5" data-renderer-id="0" transform="translate(688, 194)"></g><g id="g-root-tx_manageme_qqa7afws5ipy-stroke" data-item-order="1000000000" data-item-id="tx_manageme_qqa7afws5ipy" data-item-class="Label Stroke Indexed InsideFill" data-item-index="5" data-renderer-id="0" transform="translate(688, 194)"></g><g id="g-root-tx_phasefoc_141qpnrws5h4x-stroke" data-item-order="1000000000" data-item-id="tx_phasefoc_141qpnrws5h4x" data-item-class="Label Stroke Indexed" data-item-index="2" data-renderer-id="0" transform="translate(184, 218)"></g><g id="g-root-tx_phasefoc_141qpnrws5h4x-stroke" data-item-order="1000000000" data-item-id="tx_phasefoc_141qpnrws5h4x" data-item-class="Label Stroke Indexed" data-item-index="2" data-renderer-id="0" transform="translate(184, 218)"></g><g id="g-root-tx_retireme_magp5zws5ji8-stroke" data-item-order="1000000000" data-item-id="tx_retireme_magp5zws5ji8" data-item-class="Label Stroke Indexed InsideFill" data-item-index="6" data-renderer-id="0" transform="translate(868, 218)"></g><g id="g-root-tx_retireme_magp5zws5ji8-stroke" data-item-order="1000000000" data-item-id="tx_retireme_magp5zws5ji8" data-item-class="Label Stroke Indexed InsideFill" data-item-index="6" data-renderer-id="0" transform="translate(868, 218)"></g><g id="g-root-tx_phasewhe_v63pevws5hxn-stroke" data-item-order="1000000000" data-item-id="tx_phasewhe_v63pevws5hxn" data-item-class="Label Stroke Indexed" data-item-index="3" data-renderer-id="0" transform="translate(352, 242)"></g><g id="g-root-tx_phasewhe_v63pevws5hxn-stroke" data-item-order="1000000000" data-item-id="tx_phasewhe_v63pevws5hxn" data-item-class="Label Stroke Indexed" data-item-index="3" data-renderer-id="0" transform="translate(352, 242)"></g><g id="g-root-tx_phasewhe_qqa7afws5ipx-stroke" data-item-order="1000000000" data-item-id="tx_phasewhe_qqa7afws5ipx" data-item-class="Label Stroke Indexed" data-item-index="4" data-renderer-id="0" transform="translate(520, 266)"></g><g id="g-root-tx_finalpha_dfg607ws5h55-stroke" data-item-order="1000000000" data-item-id="tx_finalpha_dfg607ws5h55" data-item-class="Label Stroke Indexed" data-item-index="6" data-renderer-id="0" transform="translate(856, 314)"></g><g id="g-root-tx_phaseinv_hun71jws5jin-stroke" data-item-order="1000000000" data-item-id="tx_phaseinv_hun71jws5jin" data-item-class="Label Stroke Indexed" data-item-index="5" data-renderer-id="0" transform="translate(688, 290)"></g><g id="g-root-tx_phaseinv_hun71jws5jin-stroke" data-item-order="1000000000" data-item-id="tx_phaseinv_hun71jws5jin" data-item-class="Label Stroke Indexed" data-item-index="5" data-renderer-id="0" transform="translate(688, 290)"></g><g id="g-root-tx_finalpha_dfg607ws5h55-stroke" data-item-order="1000000000" data-item-id="tx_finalpha_dfg607ws5h55" data-item-class="Label Stroke Indexed" data-item-index="6" data-renderer-id="0" transform="translate(856, 314)"></g><g id="g-root-tx_apilifec_1cwr8tjws5iq5-stroke" data-item-order="1000000000" data-item-id="tx_apilifec_1cwr8tjws5iq5" data-item-class="Label Stroke Title ColorFillBlack ColorStrokeBlack" data-item-index="none" data-renderer-id="0" transform="translate(334, 2)"></g><g id="g-root-tx_phasewhe_qqa7afws5ipx-stroke" data-item-order="1000000000" data-item-id="tx_phasewhe_qqa7afws5ipx" data-item-class="Label Stroke Indexed" data-item-index="4" data-renderer-id="0" transform="translate(520, 266)"></g></g></g></svg>