<?xml version="1.0" encoding="utf-8" standalone="yes"?>
<!DOCTYPE svg PUBLIC "-//W3C//DTD SVG 1.1//EN" "http://www.w3.org/Graphics/SVG/1.1/DTD/svg11.dtd">
<svg width="792" height="445" viewBox="0 0 792 445" style="fill:none;stroke:none;fill-rule:evenodd;clip-rule:evenodd;stroke-linecap:round;stroke-linejoin:round;stroke-miterlimit:1.5;" version="1.1" xmlns="http://www.w3.org/2000/svg" xmlns:xlink="http://www.w3.org/1999/xlink"><style id="fontImports">@import url("https://fonts.googleapis.com/css2?family=Shantell+Sans:wght@300..800&amp;display=block");</style><g id="items" style="isolation: isolate"><g id="blend" style="mix-blend-mode:normal"><g id="g-root-4.cu_sy_dhcjzcxcabyf-fill" data-item-order="999928517" data-item-id="4.cu_sy_dhcjzcxcabyf" data-item-class="Part Indexed Fill Stroke" data-item-index="4" data-renderer-id="0" transform="translate(444.16845703125, 272.3671875)"><g id="4.cu_sy_dhcjzcxcabyf-fill" stroke="none" fill="#f0cffd"><g><path d="M 4.131543 90.832812L 4.631543 93.332812L 26.431543 99.532812L 23.731543 86.732813ZM 26.431543 99.532812L 63.831543 60.732813L 46.631543 49.832812L 4.631543 93.332812ZM 46.631543 49.832812L 21.131543 117.732813L 39.531543 125.732813L 63.831543 60.732813ZM 39.531543 125.732813L 90.031543 23.432813L 71.231543 16.332812L 21.131543 117.732813ZM 71.231543 16.332812L 40.231543 127.832812L 58.931543 134.932813L 90.031543 23.432813ZM 58.931543 134.932813L 110.031543 30.932813L 91.431543 23.532812L 40.231543 127.832812ZM 91.431543 23.532812L 59.531543 126.332812L 77.831543 134.732813L 110.031543 30.932813ZM 77.831543 134.732813L 126.931543 56.632813L 108.831543 47.732813L 59.531543 126.332812ZM 108.831543 47.732813L 80.331543 125.132813L 97.731543 135.632813L 126.931543 56.632813ZM 97.731543 135.632813L 139.531543 89.432813L 121.831543 79.132813L 80.331543 125.132813ZM 121.831543 79.132813L 105.431543 128.832812L 122.331543 141.632813L 139.531543 89.432813ZM 122.331543 141.632813L 147.331543 124.732813L 125.831543 115.132813L 105.431543 128.832812ZM 125.831543 115.132813L 128.331543 133.332812L 148.131543 130.532812L 147.331543 124.732813Z" fill-rule="nonzero"></path></g></g></g><g id="g-root-4.cu_sy_dhcjzcxcabyf-fill" data-item-order="999928517" data-item-id="4.cu_sy_dhcjzcxcabyf" data-item-class="Part Indexed Fill Stroke" data-item-index="4" data-renderer-id="0" transform="translate(444.16845703125, 272.3671875)"><g id="4.cu_sy_dhcjzcxcabyf-fill" stroke="none" fill="#f0cffd"><g><path d="M 4.131543 90.832812L 4.631543 93.332812L 26.431543 99.532812L 23.731543 86.732813ZM 26.431543 99.532812L 63.831543 60.732813L 46.631543 49.832812L 4.631543 93.332812ZM 46.631543 49.832812L 21.131543 117.732813L 39.531543 125.732813L 63.831543 60.732813ZM 39.531543 125.732813L 90.031543 23.432813L 71.231543 16.332812L 21.131543 117.732813ZM 71.231543 16.332812L 40.231543 127.832812L 58.931543 134.932813L 90.031543 23.432813ZM 58.931543 134.932813L 110.031543 30.932813L 91.431543 23.532812L 40.231543 127.832812ZM 91.431543 23.532812L 59.531543 126.332812L 77.831543 134.732813L 110.031543 30.932813ZM 77.831543 134.732813L 126.931543 56.632813L 108.831543 47.732813L 59.531543 126.332812ZM 108.831543 47.732813L 80.331543 125.132813L 97.731543 135.632813L 126.931543 56.632813ZM 97.731543 135.632813L 139.531543 89.432813L 121.831543 79.132813L 80.331543 125.132813ZM 121.831543 79.132813L 105.431543 128.832812L 122.331543 141.632813L 139.531543 89.432813ZM 122.331543 141.632813L 147.331543 124.732813L 125.831543 115.132813L 105.431543 128.832812ZM 125.831543 115.132813L 128.331543 133.332812L 148.131543 130.532812L 147.331543 124.732813Z" fill-rule="nonzero"></path></g></g></g><g id="g-root-3.cu_sy_dhcjzcxcabye-fill" data-item-order="999928519" data-item-id="3.cu_sy_dhcjzcxcabye" data-item-class="Part Indexed Fill Stroke" data-item-index="3" data-renderer-id="0" transform="translate(391.72265625, 212.005859375)"><g id="3.cu_sy_dhcjzcxcabye-fill" stroke="none" fill="#ffd0ce"><g><path d="M 49.677344 149.594141L 55.877344 148.794141L 59.077344 128.294141L 47.277344 129.694141ZM 59.077344 128.294141L 24.877344 112.394141L 23.877344 133.994141L 55.877344 148.794141ZM 23.877344 133.994141L 91.977344 109.994141L 87.677344 90.294141L 24.877344 112.394141ZM 87.677344 90.294141L 11.377344 97.194141L 15.477344 116.894141L 91.977344 109.994141ZM 15.477344 116.894141L 120.377344 81.494141L 115.777344 61.994141L 11.377344 97.194141ZM 115.777344 61.994141L 10.877344 76.094141L 15.577344 95.594141L 120.377344 81.494141ZM 15.577344 95.594141L 122.077344 57.894141L 117.477344 38.294141L 10.877344 76.094141ZM 117.477344 38.294141L 7.877344 52.294141L 11.877344 71.994141L 122.077344 57.894141ZM 11.877344 71.994141L 94.977344 48.494141L 91.777344 28.594141L 7.877344 52.294141ZM 91.777344 28.594141L 11.577344 32.494141L 15.577344 52.294141L 94.977344 48.494141ZM 15.577344 52.294141L 66.977344 33.894141L 64.677344 13.494141L 11.577344 32.494141ZM 64.677344 13.494141L 6.677344 5.994141L 9.277344 26.494141L 66.977344 33.894141ZM 9.277344 26.494141L 22.677344 21.194141L 15.277344 2.594141L 6.677344 5.994141Z" fill-rule="nonzero"></path></g></g></g><g id="g-root-3.cu_sy_dhcjzcxcabye-fill" data-item-order="999928519" data-item-id="3.cu_sy_dhcjzcxcabye" data-item-class="Part Indexed Fill Stroke" data-item-index="3" data-renderer-id="0" transform="translate(391.72265625, 212.005859375)"><g id="3.cu_sy_dhcjzcxcabye-fill" stroke="none" fill="#ffd0ce"><g><path d="M 49.677344 149.594141L 55.877344 148.794141L 59.077344 128.294141L 47.277344 129.694141ZM 59.077344 128.294141L 24.877344 112.394141L 23.877344 133.994141L 55.877344 148.794141ZM 23.877344 133.994141L 91.977344 109.994141L 87.677344 90.294141L 24.877344 112.394141ZM 87.677344 90.294141L 11.377344 97.194141L 15.477344 116.894141L 91.977344 109.994141ZM 15.477344 116.894141L 120.377344 81.494141L 115.777344 61.994141L 11.377344 97.194141ZM 115.777344 61.994141L 10.877344 76.094141L 15.577344 95.594141L 120.377344 81.494141ZM 15.577344 95.594141L 122.077344 57.894141L 117.477344 38.294141L 10.877344 76.094141ZM 117.477344 38.294141L 7.877344 52.294141L 11.877344 71.994141L 122.077344 57.894141ZM 11.877344 71.994141L 94.977344 48.494141L 91.777344 28.594141L 7.877344 52.294141ZM 91.777344 28.594141L 11.577344 32.494141L 15.577344 52.294141L 94.977344 48.494141ZM 15.577344 52.294141L 66.977344 33.894141L 64.677344 13.494141L 11.577344 32.494141ZM 64.677344 13.494141L 6.677344 5.994141L 9.277344 26.494141L 66.977344 33.894141ZM 9.277344 26.494141L 22.677344 21.194141L 15.277344 2.594141L 6.677344 5.994141Z" fill-rule="nonzero"></path></g></g></g><g id="g-root-2.cu_sy_dhcjzcxcabyd-fill" data-item-order="999928521" data-item-id="2.cu_sy_dhcjzcxcabyd" data-item-class="Part Indexed Fill Stroke" data-item-index="2" data-renderer-id="0" transform="translate(254.361328125, 212)"><g id="2.cu_sy_dhcjzcxcabyd-fill" stroke="none" fill="#fde6cf"><g><path d="M 12.338672 53.7L 10.638672 62L 28.938672 72L 31.938672 57.8ZM 28.938672 72L 59.438672 42.2L 42.638672 30.6L 10.638672 62ZM 42.638672 30.6L 25.138672 70.4L 42.138672 81.4L 59.438672 42.2ZM 42.138672 81.4L 89.038672 30.1L 72.738672 18.2L 25.138672 70.4ZM 72.738672 18.2L 33.138672 87.6L 49.538672 99.2L 89.038672 30.1ZM 49.538672 99.2L 120.938672 17.4L 104.238672 6.3L 33.138672 87.6ZM 104.238672 6.3L 52.238672 111.8L 69.238672 122.7L 120.938672 17.4ZM 69.238672 122.7L 144.038672 31.7L 127.438672 20.3L 52.238672 111.8ZM 127.438672 20.3L 68.338672 123.2L 84.738672 134.8L 144.038672 31.7ZM 84.738672 134.8L 140.738672 69.4L 123.738672 58.6L 68.338672 123.2ZM 123.738672 58.6L 93.538672 126.2L 109.238672 140.2L 140.738672 69.4ZM 109.238672 140.2L 141.138672 121.3L 126.238672 106.9L 93.538672 126.2ZM 126.238672 106.9L 119.638672 118.8L 137.138672 128.5L 141.138672 121.3Z" fill-rule="nonzero"></path></g></g></g><g id="g-root-2.cu_sy_dhcjzcxcabyd-fill" data-item-order="999928521" data-item-id="2.cu_sy_dhcjzcxcabyd" data-item-class="Part Indexed Fill Stroke" data-item-index="2" data-renderer-id="0" transform="translate(254.361328125, 212)"><g id="2.cu_sy_dhcjzcxcabyd-fill" stroke="none" fill="#fde6cf"><g><path d="M 12.338672 53.7L 10.638672 62L 28.938672 72L 31.938672 57.8ZM 28.938672 72L 59.438672 42.2L 42.638672 30.6L 10.638672 62ZM 42.638672 30.6L 25.138672 70.4L 42.138672 81.4L 59.438672 42.2ZM 42.138672 81.4L 89.038672 30.1L 72.738672 18.2L 25.138672 70.4ZM 72.738672 18.2L 33.138672 87.6L 49.538672 99.2L 89.038672 30.1ZM 49.538672 99.2L 120.938672 17.4L 104.238672 6.3L 33.138672 87.6ZM 104.238672 6.3L 52.238672 111.8L 69.238672 122.7L 120.938672 17.4ZM 69.238672 122.7L 144.038672 31.7L 127.438672 20.3L 52.238672 111.8ZM 127.438672 20.3L 68.338672 123.2L 84.738672 134.8L 144.038672 31.7ZM 84.738672 134.8L 140.738672 69.4L 123.738672 58.6L 68.338672 123.2ZM 123.738672 58.6L 93.538672 126.2L 109.238672 140.2L 140.738672 69.4ZM 109.238672 140.2L 141.138672 121.3L 126.238672 106.9L 93.538672 126.2ZM 126.238672 106.9L 119.638672 118.8L 137.138672 128.5L 141.138672 121.3Z" fill-rule="nonzero"></path></g></g></g><g id="g-root-1.cu_sy_hx623sxcab64-fill" data-item-order="999928523" data-item-id="1.cu_sy_hx623sxcab64" data-item-class="Part Indexed Indexed_1 Fill Stroke" data-item-index="1" data-renderer-id="0" transform="translate(194, 272.22265625)"><g id="1.cu_sy_hx623sxcab64-fill" stroke="none" fill="#d5f7e8"><g><path d="M 150.2 84.776367L 146.6 80.776367L 125 86.576367L 135.3 98.176367ZM 125 86.576367L 116.9 126.176367L 137.6 124.776367L 146.6 80.776367ZM 137.6 124.776367L 112.5 51.176367L 92.7 55.076367L 116.9 126.176367ZM 92.7 55.076367L 97.6 133.976367L 117.4 129.976367L 112.5 51.176367ZM 117.4 129.976367L 78.9 20.276367L 59.4 25.076367L 97.6 133.976367ZM 59.4 25.076367L 75.6 137.076367L 95.1 132.376367L 78.9 20.276367ZM 95.1 132.376367L 59.8 28.176367L 40.1 32.376367L 75.6 137.076367ZM 40.1 32.376367L 50.6 134.776367L 70.2 130.176367L 59.8 28.176367ZM 70.2 130.176367L 42.8 56.876367L 23.1 61.276367L 50.6 134.776367ZM 23.1 61.276367L 29.3 136.476367L 49 131.876367L 42.8 56.876367ZM 49 131.876367L 29.9 83.776367L 9.4 86.476367L 29.3 136.476367ZM 9.4 86.476367L 3.7 137.276367L 25 126.976367L 29.9 83.776367ZM 25 126.976367L 16.7 121.876367L 6.2 138.776367L 3.7 137.276367Z" fill-rule="nonzero"></path></g></g></g><g id="g-root-1.cu_sy_hx623sxcab64-fill" data-item-order="999928523" data-item-id="1.cu_sy_hx623sxcab64" data-item-class="Part Indexed Indexed_1 Fill Stroke" data-item-index="1" data-renderer-id="0" transform="translate(194, 272.22265625)"><g id="1.cu_sy_hx623sxcab64-fill" stroke="none" fill="#d5f7e8"><g><path d="M 150.2 84.776367L 146.6 80.776367L 125 86.576367L 135.3 98.176367ZM 125 86.576367L 116.9 126.176367L 137.6 124.776367L 146.6 80.776367ZM 137.6 124.776367L 112.5 51.176367L 92.7 55.076367L 116.9 126.176367ZM 92.7 55.076367L 97.6 133.976367L 117.4 129.976367L 112.5 51.176367ZM 117.4 129.976367L 78.9 20.276367L 59.4 25.076367L 97.6 133.976367ZM 59.4 25.076367L 75.6 137.076367L 95.1 132.376367L 78.9 20.276367ZM 95.1 132.376367L 59.8 28.176367L 40.1 32.376367L 75.6 137.076367ZM 40.1 32.376367L 50.6 134.776367L 70.2 130.176367L 59.8 28.176367ZM 70.2 130.176367L 42.8 56.876367L 23.1 61.276367L 50.6 134.776367ZM 23.1 61.276367L 29.3 136.476367L 49 131.876367L 42.8 56.876367ZM 49 131.876367L 29.9 83.776367L 9.4 86.476367L 29.3 136.476367ZM 9.4 86.476367L 3.7 137.276367L 25 126.976367L 29.9 83.776367ZM 25 126.976367L 16.7 121.876367L 6.2 138.776367L 3.7 137.276367Z" fill-rule="nonzero"></path></g></g></g><g id="g-root-tx_bestprac_6iip4xcaadl-fill" data-item-order="1000000000" data-item-id="tx_bestprac_6iip4xcaadl" data-item-class="Label Stroke Indexed ColorFillBlack ColorStrokeBlack" data-item-index="3" data-renderer-id="0" transform="translate(410, 122)"><g id="tx_bestprac_6iip4xcaadl-fill" stroke="none" fill="#484848"><g><text style="font: 15px &quot;Shantell Sans&quot;, cursive; white-space: pre;" font-weight="15px" font-size="&quot;Shantell" font-family="Sans', cursive"><tspan x="38.02" y="29" dominant-baseline="ideographic">Best practices and </tspan><tspan x="55.53" y="47" dominant-baseline="ideographic">strategies for </tspan><tspan x="16.5" y="65" dominant-baseline="ideographic">implementing versioning </tspan><tspan x="65.92" y="83" dominant-baseline="ideographic">effectively.</tspan></text></g></g></g><g id="g-root-tx_bestprac_6iip4xcaadl-fill" data-item-order="1000000000" data-item-id="tx_bestprac_6iip4xcaadl" data-item-class="Label Stroke Indexed ColorFillBlack ColorStrokeBlack" data-item-index="3" data-renderer-id="0" transform="translate(410, 122)"><g id="tx_bestprac_6iip4xcaadl-fill" stroke="none" fill="#484848"><g><text style="font: 15px &quot;Shantell Sans&quot;, cursive; white-space: pre;" font-weight="15px" font-size="&quot;Shantell" font-family="Sans', cursive"><tspan x="38.02" y="29" dominant-baseline="ideographic">Best practices and </tspan><tspan x="55.53" y="47" dominant-baseline="ideographic">strategies for </tspan><tspan x="16.5" y="65" dominant-baseline="ideographic">implementing versioning </tspan><tspan x="65.92" y="83" dominant-baseline="ideographic">effectively.</tspan></text></g></g></g><g id="g-root-tx_managing_1urt2jsxcaayq-fill" data-item-order="1000000000" data-item-id="tx_managing_1urt2jsxcaayq" data-item-class="Label Stroke Indexed ColorFillBlack ColorStrokeBlack" data-item-index="2" data-renderer-id="0" transform="translate(182, 122)"><g id="tx_managing_1urt2jsxcaayq-fill" stroke="none" fill="#484848"><g><text style="font: 15px &quot;Shantell Sans&quot;, cursive; white-space: pre;" font-weight="15px" font-size="&quot;Shantell" font-family="Sans', cursive"><tspan x="40.25" y="29" dominant-baseline="ideographic">Managing the </tspan><tspan x="16.19" y="47" dominant-baseline="ideographic">lifecycle and support </tspan><tspan x="38.96" y="65" dominant-baseline="ideographic">policies of API </tspan><tspan x="60.08" y="83" dominant-baseline="ideographic">versions.</tspan></text></g></g></g><g id="g-root-tx_managing_1urt2jsxcaayq-fill" data-item-order="1000000000" data-item-id="tx_managing_1urt2jsxcaayq" data-item-class="Label Stroke Indexed ColorFillBlack ColorStrokeBlack" data-item-index="2" data-renderer-id="0" transform="translate(182, 122)"><g id="tx_managing_1urt2jsxcaayq-fill" stroke="none" fill="#484848"><g><text style="font: 15px &quot;Shantell Sans&quot;, cursive; white-space: pre;" font-weight="15px" font-size="&quot;Shantell" font-family="Sans', cursive"><tspan x="40.25" y="29" dominant-baseline="ideographic">Managing the </tspan><tspan x="16.19" y="47" dominant-baseline="ideographic">lifecycle and support </tspan><tspan x="38.96" y="65" dominant-baseline="ideographic">policies of API </tspan><tspan x="60.08" y="83" dominant-baseline="ideographic">versions.</tspan></text></g></g></g><g id="g-root-tx_implemen_1lw62awxcabrh-fill" data-item-order="1000000000" data-item-id="tx_implemen_1lw62awxcabrh" data-item-class="Label Stroke Indexed" data-item-index="3" data-renderer-id="0" transform="translate(416.076171875, 62)"><g id="tx_implemen_1lw62awxcabrh-fill" stroke="none" fill="#e15e5a"><g><text style="font: bold 20px &quot;Shantell Sans&quot;, cursive; white-space: pre;" font-weight="bold" font-size="20" font-family="'Shantell Sans', cursive"><tspan x="14.24" y="35.5" dominant-baseline="ideographic">Implementation </tspan><tspan x="43.91" y="59.5" dominant-baseline="ideographic">Guidelines</tspan></text></g></g></g><g id="g-root-1_1hit548xm2uq3-fill" data-item-order="1000000000" data-item-id="1_1hit548xm2uq3" data-item-class="Icon Stroke Indexed InsideFill" data-item-index="2" data-renderer-id="0" transform="translate(311, 254)"></g><g id="g-root-tx_communic_1lw62awxcabrg-fill" data-item-order="1000000000" data-item-id="tx_communic_1lw62awxcabrg" data-item-class="Label Stroke Indexed" data-item-index="4" data-renderer-id="0" transform="translate(602, 242)"><g id="tx_communic_1lw62awxcabrg-fill" stroke="none" fill="#b65edf"><g><text style="font: bold 20px &quot;Shantell Sans&quot;, cursive; white-space: pre;" font-weight="bold" font-size="20" font-family="'Shantell Sans', cursive"><tspan x="12.87" y="35.5" dominant-baseline="ideographic">Communication </tspan><tspan x="46.52" y="59.5" dominant-baseline="ideographic">Strategy</tspan></text></g></g></g><g id="g-root-tx_versiont_1hgck6gxcacjr-fill" data-item-order="1000000000" data-item-id="tx_versiont_1hgck6gxcacjr" data-item-class="Label Stroke Indexed Indexed_1" data-item-index="1" data-renderer-id="0" transform="translate(8, 266)"><g id="tx_versiont_1hgck6gxcacjr-fill" stroke="none" fill="#3bc482"><g><text style="font: bold 20px &quot;Shantell Sans&quot;, cursive; white-space: pre;" font-weight="bold" font-size="20" font-family="'Shantell Sans', cursive"><tspan x="16.9" y="35.5" dominant-baseline="ideographic">Version Types</tspan></text></g></g></g><g id="g-root-tx_versiont_1hgck6gxcacjr-fill" data-item-order="1000000000" data-item-id="tx_versiont_1hgck6gxcacjr" data-item-class="Label Stroke Indexed Indexed_1" data-item-index="1" data-renderer-id="0" transform="translate(8, 266)"><g id="tx_versiont_1hgck6gxcacjr-fill" stroke="none" fill="#3bc482"><g><text style="font: bold 20px &quot;Shantell Sans&quot;, cursive; white-space: pre;" font-weight="bold" font-size="20" font-family="'Shantell Sans', cursive"><tspan x="16.9" y="35.5" dominant-baseline="ideographic">Version Types</tspan></text></g></g></g><g id="g-root-path_1utn6egxm2wax-fill" data-item-order="1000000000" data-item-id="path_1utn6egxm2wax" data-item-class="Icon Stroke Title" data-item-index="none" data-renderer-id="0" transform="translate(350, 350)"></g><g id="g-root-pens_1d2zmzsxm2vic-fill" data-item-order="1000000000" data-item-id="pens_1d2zmzsxm2vic" data-item-class="Icon Stroke Indexed InsideFill" data-item-index="3" data-renderer-id="0" transform="translate(413, 254)"></g><g id="g-root-pens_1d2zmzsxm2vic-fill" data-item-order="1000000000" data-item-id="pens_1d2zmzsxm2vic" data-item-class="Icon Stroke Indexed InsideFill" data-item-index="3" data-renderer-id="0" transform="translate(413, 254)"></g><g id="g-root-tx_communic_1lw62awxcabrg-fill" data-item-order="1000000000" data-item-id="tx_communic_1lw62awxcabrg" data-item-class="Label Stroke Indexed" data-item-index="4" data-renderer-id="0" transform="translate(602, 242)"><g id="tx_communic_1lw62awxcabrg-fill" stroke="none" fill="#b65edf"><g><text style="font: bold 20px &quot;Shantell Sans&quot;, cursive; white-space: pre;" font-weight="bold" font-size="20" font-family="'Shantell Sans', cursive"><tspan x="12.87" y="35.5" dominant-baseline="ideographic">Communication </tspan><tspan x="46.52" y="59.5" dominant-baseline="ideographic">Strategy</tspan></text></g></g></g><g id="g-root-tx_implemen_1lw62awxcabrh-fill" data-item-order="1000000000" data-item-id="tx_implemen_1lw62awxcabrh" data-item-class="Label Stroke Indexed" data-item-index="3" data-renderer-id="0" transform="translate(416.076171875, 62)"><g id="tx_implemen_1lw62awxcabrh-fill" stroke="none" fill="#e15e5a"><g><text style="font: bold 20px &quot;Shantell Sans&quot;, cursive; white-space: pre;" font-weight="bold" font-size="20" font-family="'Shantell Sans', cursive"><tspan x="14.24" y="35.5" dominant-baseline="ideographic">Implementation </tspan><tspan x="43.91" y="59.5" dominant-baseline="ideographic">Guidelines</tspan></text></g></g></g><g id="g-root-tx_versionm_1hgck6gxcacjq-fill" data-item-order="1000000000" data-item-id="tx_versionm_1hgck6gxcacjq" data-item-class="Label Stroke Indexed" data-item-index="2" data-renderer-id="0" transform="translate(194, 62)"><g id="tx_versionm_1hgck6gxcacjq-fill" stroke="none" fill="#dd8433"><g><text style="font: bold 20px &quot;Shantell Sans&quot;, cursive; white-space: pre;" font-weight="bold" font-size="20" font-family="'Shantell Sans', cursive"><tspan x="43.27" y="35.5" dominant-baseline="ideographic">Version </tspan><tspan x="12.46" y="59.5" dominant-baseline="ideographic">Management</tspan></text></g></g></g><g id="g-root-tx_versionm_1hgck6gxcacjq-fill" data-item-order="1000000000" data-item-id="tx_versionm_1hgck6gxcacjq" data-item-class="Label Stroke Indexed" data-item-index="2" data-renderer-id="0" transform="translate(194, 62)"><g id="tx_versionm_1hgck6gxcacjq-fill" stroke="none" fill="#dd8433"><g><text style="font: bold 20px &quot;Shantell Sans&quot;, cursive; white-space: pre;" font-weight="bold" font-size="20" font-family="'Shantell Sans', cursive"><tspan x="43.27" y="35.5" dominant-baseline="ideographic">Version </tspan><tspan x="12.46" y="59.5" dominant-baseline="ideographic">Management</tspan></text></g></g></g><g id="g-root-tx_versioni_1d15j54xcaa68-fill" data-item-order="1000000000" data-item-id="tx_versioni_1d15j54xcaa68" data-item-class="Label Stroke Title ColorFillBlack ColorStrokeBlack" data-item-index="none" data-renderer-id="0" transform="translate(242, 2)"><g id="tx_versioni_1d15j54xcaa68-fill" stroke="none" fill="#484848"><g><text style="font: bold 25px &quot;Shantell Sans&quot;, cursive; white-space: pre;" font-weight="bold" font-size="25" font-family="'Shantell Sans', cursive"><tspan x="14.04" y="44.5" dominant-baseline="ideographic">Versioning Strategies</tspan></text></g></g></g><g id="g-root-tx_differen_1urt2jsxcaayr-fill" data-item-order="1000000000" data-item-id="tx_differen_1urt2jsxcaayr" data-item-class="Label Stroke Indexed Indexed_1 ColorFillBlack ColorStrokeBlack" data-item-index="1" data-renderer-id="0" transform="translate(2, 302)"><g id="tx_differen_1urt2jsxcaayr-fill" stroke="none" fill="#484848"><g><text style="font: 15px &quot;Shantell Sans&quot;, cursive; white-space: pre;" font-weight="15px" font-size="&quot;Shantell" font-family="Sans', cursive"><tspan x="16.24" y="32" dominant-baseline="ideographic">Different methods to </tspan><tspan x="14.34" y="50" dominant-baseline="ideographic">indicate API versions </tspan><tspan x="40.42" y="68" dominant-baseline="ideographic">through URIs, </tspan><tspan x="50.33" y="86" dominant-baseline="ideographic">headers, or </tspan><tspan x="48.76" y="104" dominant-baseline="ideographic">parameters.</tspan></text></g></g></g><g id="g-root-tx_differen_1urt2jsxcaayr-fill" data-item-order="1000000000" data-item-id="tx_differen_1urt2jsxcaayr" data-item-class="Label Stroke Indexed Indexed_1 ColorFillBlack ColorStrokeBlack" data-item-index="1" data-renderer-id="0" transform="translate(2, 302)"><g id="tx_differen_1urt2jsxcaayr-fill" stroke="none" fill="#484848"><g><text style="font: 15px &quot;Shantell Sans&quot;, cursive; white-space: pre;" font-weight="15px" font-size="&quot;Shantell" font-family="Sans', cursive"><tspan x="16.24" y="32" dominant-baseline="ideographic">Different methods to </tspan><tspan x="14.34" y="50" dominant-baseline="ideographic">indicate API versions </tspan><tspan x="40.42" y="68" dominant-baseline="ideographic">through URIs, </tspan><tspan x="50.33" y="86" dominant-baseline="ideographic">headers, or </tspan><tspan x="48.76" y="104" dominant-baseline="ideographic">parameters.</tspan></text></g></g></g><g id="g-root-tx_strategi_91j1uwxcacqo-fill" data-item-order="1000000000" data-item-id="tx_strategi_91j1uwxcacqo" data-item-class="Label Stroke Indexed ColorFillBlack ColorStrokeBlack" data-item-index="4" data-renderer-id="0" transform="translate(608, 302)"><g id="tx_strategi_91j1uwxcacqo-fill" stroke="none" fill="#484848"><g><text style="font: 15px &quot;Shantell Sans&quot;, cursive; white-space: pre;" font-weight="15px" font-size="&quot;Shantell" font-family="Sans', cursive"><tspan x="35.93" y="32" dominant-baseline="ideographic">Strategies for </tspan><tspan x="22.44" y="50" dominant-baseline="ideographic">documenting and </tspan><tspan x="31.14" y="68" dominant-baseline="ideographic">communicating </tspan><tspan x="16.95" y="86" dominant-baseline="ideographic">version changes to </tspan><tspan x="60.2" y="104" dominant-baseline="ideographic">clients.</tspan></text></g></g></g><g id="g-root-tx_strategi_91j1uwxcacqo-fill" data-item-order="1000000000" data-item-id="tx_strategi_91j1uwxcacqo" data-item-class="Label Stroke Indexed ColorFillBlack ColorStrokeBlack" data-item-index="4" data-renderer-id="0" transform="translate(608, 302)"><g id="tx_strategi_91j1uwxcacqo-fill" stroke="none" fill="#484848"><g><text style="font: 15px &quot;Shantell Sans&quot;, cursive; white-space: pre;" font-weight="15px" font-size="&quot;Shantell" font-family="Sans', cursive"><tspan x="35.93" y="32" dominant-baseline="ideographic">Strategies for </tspan><tspan x="22.44" y="50" dominant-baseline="ideographic">documenting and </tspan><tspan x="31.14" y="68" dominant-baseline="ideographic">communicating </tspan><tspan x="16.95" y="86" dominant-baseline="ideographic">version changes to </tspan><tspan x="60.2" y="104" dominant-baseline="ideographic">clients.</tspan></text></g></g></g><g id="g-root-2_1qdtoa0xm2x36-fill" data-item-order="1000000000" data-item-id="2_1qdtoa0xm2x36" data-item-class="Icon Stroke Indexed Indexed_1 InsideFill" data-item-index="1" data-renderer-id="0" transform="translate(236, 332)"></g><g id="g-root-2_1qdtoa0xm2x36-fill" data-item-order="1000000000" data-item-id="2_1qdtoa0xm2x36" data-item-class="Icon Stroke Indexed Indexed_1 InsideFill" data-item-index="1" data-renderer-id="0" transform="translate(236, 332)"></g><g id="g-root-mega_1d2zmzsxm2vid-fill" data-item-order="1000000000" data-item-id="mega_1d2zmzsxm2vid" data-item-class="Icon Stroke Indexed InsideFill" data-item-index="4" data-renderer-id="0" transform="translate(488, 332)"></g><g id="g-root-mega_1d2zmzsxm2vid-fill" data-item-order="1000000000" data-item-id="mega_1d2zmzsxm2vid" data-item-class="Icon Stroke Indexed InsideFill" data-item-index="4" data-renderer-id="0" transform="translate(488, 332)"></g><g id="g-root-path_1utn6egxm2wax-fill" data-item-order="1000000000" data-item-id="path_1utn6egxm2wax" data-item-class="Icon Stroke Title" data-item-index="none" data-renderer-id="0" transform="translate(350, 350)"></g><g id="g-root-tx_versioni_1d15j54xcaa68-fill" data-item-order="1000000000" data-item-id="tx_versioni_1d15j54xcaa68" data-item-class="Label Stroke Title ColorFillBlack ColorStrokeBlack" data-item-index="none" data-renderer-id="0" transform="translate(242, 2)"><g id="tx_versioni_1d15j54xcaa68-fill" stroke="none" fill="#484848"><g><text style="font: bold 25px &quot;Shantell Sans&quot;, cursive; white-space: pre;" font-weight="bold" font-size="25" font-family="'Shantell Sans', cursive"><tspan x="14.04" y="44.5" dominant-baseline="ideographic">Versioning Strategies</tspan></text></g></g></g><g id="g-root-1_1hit548xm2uq3-fill" data-item-order="1000000000" data-item-id="1_1hit548xm2uq3" data-item-class="Icon Stroke Indexed InsideFill" data-item-index="2" data-renderer-id="0" transform="translate(311, 254)"></g><g id="g-root-4.cu_sy_dhcjzcxcabyf-stroke" data-item-order="999928517" data-item-id="4.cu_sy_dhcjzcxcabyf" data-item-class="Part Indexed Fill Stroke" data-item-index="4" data-renderer-id="0" transform="translate(444.16845703125, 272.3671875)"><g id="4.cu_sy_dhcjzcxcabyf-stroke" fill="none" stroke-linecap="round" stroke-linejoin="round" stroke-miterlimit="4" stroke="#484848" stroke-width="4"><g><path d="M 28.531543 135.832813C 49.031543 136.232813 69.731543 134.432813 90.231543 135.832813C 108.031543 137.132813 125.931543 137.032812 143.631543 135.832813C 143.231543 111.032812 138.031543 87.132813 128.231543 65.732813C 118.831543 45.232813 106.031543 26.932813 91.631543 10.032812C 84.031543 19.132813 74.931543 26.832812 66.431543 35.132813C 57.731543 43.532812 49.631543 52.632813 40.731543 60.832812C 30.031543 70.632813 19.431543 80.532812 10.031543 91.532812C 20.431543 103.632813 26.131543 119.032812 28.531543 135.832813"></path><path d="M 28.4966 135.818401L 143.6613 135.877701C 142.2492 87.2093 122.7257 43.0818 91.5959 10L 10 91.512001C 20.4126 103.606801 27.1545 118.952001 28.4966 135.818401Z"></path></g></g></g><g id="g-root-4.cu_sy_dhcjzcxcabyf-stroke" data-item-order="999928517" data-item-id="4.cu_sy_dhcjzcxcabyf" data-item-class="Part Indexed Fill Stroke" data-item-index="4" data-renderer-id="0" transform="translate(444.16845703125, 272.3671875)"><g id="4.cu_sy_dhcjzcxcabyf-stroke" fill="none" stroke-linecap="round" stroke-linejoin="round" stroke-miterlimit="4" stroke="#484848" stroke-width="4"><g><path d="M 28.531543 135.832813C 49.031543 136.232813 69.731543 134.432813 90.231543 135.832813C 108.031543 137.132813 125.931543 137.032812 143.631543 135.832813C 143.231543 111.032812 138.031543 87.132813 128.231543 65.732813C 118.831543 45.232813 106.031543 26.932813 91.631543 10.032812C 84.031543 19.132813 74.931543 26.832812 66.431543 35.132813C 57.731543 43.532812 49.631543 52.632813 40.731543 60.832812C 30.031543 70.632813 19.431543 80.532812 10.031543 91.532812C 20.431543 103.632813 26.131543 119.032812 28.531543 135.832813"></path><path d="M 28.4966 135.818401L 143.6613 135.877701C 142.2492 87.2093 122.7257 43.0818 91.5959 10L 10 91.512001C 20.4126 103.606801 27.1545 118.952001 28.4966 135.818401Z"></path></g></g></g><g id="g-root-3.cu_sy_dhcjzcxcabye-stroke" data-item-order="999928519" data-item-id="3.cu_sy_dhcjzcxcabye" data-item-class="Part Indexed Fill Stroke" data-item-index="3" data-renderer-id="0" transform="translate(391.72265625, 212.005859375)"><g id="3.cu_sy_dhcjzcxcabye-stroke" fill="none" stroke-linecap="round" stroke-linejoin="round" stroke-miterlimit="4" stroke="#484848" stroke-width="4"><g><path d="M 54.277344 143.694141C 63.877344 134.094141 73.077344 124.194141 83.077344 114.994141C 91.277344 107.394141 99.577344 99.694141 106.877344 91.194141C 115.777344 80.794141 126.477344 72.094141 135.877344 62.194141C 125.077344 50.994141 111.977344 41.894141 98.177344 34.494141C 85.577344 27.594141 72.377344 21.494141 58.277344 17.594141C 42.777344 13.394141 26.677344 11.794141 10.077344 9.994141C 9.077344 22.494141 9.877344 34.994141 10.077344 47.494141C 10.277344 60.594141 10.677344 73.794141 9.977344 86.894141C 9.377344 99.594141 9.377344 112.394141 9.977344 125.194141C 26.777344 127.394141 42.777344 132.594141 54.277344 143.694141"></path><path d="M 54.2876 143.7073L 135.8836 62.1953C 102.8306 31.0287 58.7202 11.4613 10.0593 10L 10 125.1652C 26.8633 126.5242 42.2024 133.2815 54.2876 143.7073Z"></path></g></g></g><g id="g-root-3.cu_sy_dhcjzcxcabye-stroke" data-item-order="999928519" data-item-id="3.cu_sy_dhcjzcxcabye" data-item-class="Part Indexed Fill Stroke" data-item-index="3" data-renderer-id="0" transform="translate(391.72265625, 212.005859375)"><g id="3.cu_sy_dhcjzcxcabye-stroke" fill="none" stroke-linecap="round" stroke-linejoin="round" stroke-miterlimit="4" stroke="#484848" stroke-width="4"><g><path d="M 54.277344 143.694141C 63.877344 134.094141 73.077344 124.194141 83.077344 114.994141C 91.277344 107.394141 99.577344 99.694141 106.877344 91.194141C 115.777344 80.794141 126.477344 72.094141 135.877344 62.194141C 125.077344 50.994141 111.977344 41.894141 98.177344 34.494141C 85.577344 27.594141 72.377344 21.494141 58.277344 17.594141C 42.777344 13.394141 26.677344 11.794141 10.077344 9.994141C 9.077344 22.494141 9.877344 34.994141 10.077344 47.494141C 10.277344 60.594141 10.677344 73.794141 9.977344 86.894141C 9.377344 99.594141 9.377344 112.394141 9.977344 125.194141C 26.777344 127.394141 42.777344 132.594141 54.277344 143.694141"></path><path d="M 54.2876 143.7073L 135.8836 62.1953C 102.8306 31.0287 58.7202 11.4613 10.0593 10L 10 125.1652C 26.8633 126.5242 42.2024 133.2815 54.2876 143.7073Z"></path></g></g></g><g id="g-root-2.cu_sy_dhcjzcxcabyd-stroke" data-item-order="999928521" data-item-id="2.cu_sy_dhcjzcxcabyd" data-item-class="Part Indexed Fill Stroke" data-item-index="2" data-renderer-id="0" transform="translate(254.361328125, 212)"><g id="2.cu_sy_dhcjzcxcabyd-stroke" fill="none" stroke-linecap="round" stroke-linejoin="round" stroke-miterlimit="4" stroke="#484848" stroke-width="4"><g><path d="M 91.038672 143.2C 103.038672 132.5 118.938672 127.4 135.838672 125.1C 136.038672 113.3 137.738672 101.3 135.838672 89.6C 133.738672 76.8 134.038672 63.5 135.838672 50.6C 137.738672 37.2 136.338672 23.5 135.838672 10C 113.838672 11.4 93.238672 16.6 73.138672 22.5C 48.838672 29.5 26.738672 43.7 10.038672 62.1C 19.538672 70.7 28.238672 80.3 37.338672 89.4C 46.238672 98.4 56.438672 106.1 64.038672 116.2C 71.738672 126.4 81.238672 135.1 91.038672 143.2"></path><path d="M 91.0519 143.2008C 103.3025 132.8468 118.8096 126.2255 135.8185 125.0916L 135.8777 10C 87.2093 11.4122 43.0818 30.9356 10 62.0655L 91.0519 143.2008Z"></path></g></g></g><g id="g-root-2.cu_sy_dhcjzcxcabyd-stroke" data-item-order="999928521" data-item-id="2.cu_sy_dhcjzcxcabyd" data-item-class="Part Indexed Fill Stroke" data-item-index="2" data-renderer-id="0" transform="translate(254.361328125, 212)"><g id="2.cu_sy_dhcjzcxcabyd-stroke" fill="none" stroke-linecap="round" stroke-linejoin="round" stroke-miterlimit="4" stroke="#484848" stroke-width="4"><g><path d="M 91.038672 143.2C 103.038672 132.5 118.938672 127.4 135.838672 125.1C 136.038672 113.3 137.738672 101.3 135.838672 89.6C 133.738672 76.8 134.038672 63.5 135.838672 50.6C 137.738672 37.2 136.338672 23.5 135.838672 10C 113.838672 11.4 93.238672 16.6 73.138672 22.5C 48.838672 29.5 26.738672 43.7 10.038672 62.1C 19.538672 70.7 28.238672 80.3 37.338672 89.4C 46.238672 98.4 56.438672 106.1 64.038672 116.2C 71.738672 126.4 81.238672 135.1 91.038672 143.2"></path><path d="M 91.0519 143.2008C 103.3025 132.8468 118.8096 126.2255 135.8185 125.0916L 135.8777 10C 87.2093 11.4122 43.0818 30.9356 10 62.0655L 91.0519 143.2008Z"></path></g></g></g><g id="g-root-1.cu_sy_hx623sxcab64-stroke" data-item-order="999928523" data-item-id="1.cu_sy_hx623sxcab64" data-item-class="Part Indexed Indexed_1 Fill Stroke" data-item-index="1" data-renderer-id="0" transform="translate(194, 272.22265625)"><g id="1.cu_sy_hx623sxcab64-stroke" fill="none" stroke-linecap="round" stroke-linejoin="round" stroke-miterlimit="4" stroke="#484848" stroke-width="4"><g><path d="M 62.2 9.976367C 50.7 20.876367 42.7 34.876367 34.1 48.376367C 25.6 61.676367 21.7 77.376367 16.2 92.676367C 11.4 106.076367 12.4 121.176367 10 135.776367C 30.5 136.576367 51 135.776367 71.5 135.876367C 89.1 135.876367 106.6 135.376367 124.2 135.876367C 126.3 118.876367 131.6 102.376367 143.2 91.076367C 128.9 75.776367 112.6 62.276367 98.8 46.576367C 87.4 33.676367 73.9 22.676367 62.2 9.976367"></path><path d="M 62.1951 10C 31.0286 43.0529 11.4613 87.1633 10 135.8241L 124.1653 135.8829C 125.5445 118.7701 132.4829 103.2269 143.1729 91.0611L 62.1951 10Z"></path></g></g></g><g id="g-root-1.cu_sy_hx623sxcab64-stroke" data-item-order="999928523" data-item-id="1.cu_sy_hx623sxcab64" data-item-class="Part Indexed Indexed_1 Fill Stroke" data-item-index="1" data-renderer-id="0" transform="translate(194, 272.22265625)"><g id="1.cu_sy_hx623sxcab64-stroke" fill="none" stroke-linecap="round" stroke-linejoin="round" stroke-miterlimit="4" stroke="#484848" stroke-width="4"><g><path d="M 62.2 9.976367C 50.7 20.876367 42.7 34.876367 34.1 48.376367C 25.6 61.676367 21.7 77.376367 16.2 92.676367C 11.4 106.076367 12.4 121.176367 10 135.776367C 30.5 136.576367 51 135.776367 71.5 135.876367C 89.1 135.876367 106.6 135.376367 124.2 135.876367C 126.3 118.876367 131.6 102.376367 143.2 91.076367C 128.9 75.776367 112.6 62.276367 98.8 46.576367C 87.4 33.676367 73.9 22.676367 62.2 9.976367"></path><path d="M 62.1951 10C 31.0286 43.0529 11.4613 87.1633 10 135.8241L 124.1653 135.8829C 125.5445 118.7701 132.4829 103.2269 143.1729 91.0611L 62.1951 10Z"></path></g></g></g><g id="g-root-tx_bestprac_6iip4xcaadl-stroke" data-item-order="1000000000" data-item-id="tx_bestprac_6iip4xcaadl" data-item-class="Label Stroke Indexed ColorFillBlack ColorStrokeBlack" data-item-index="3" data-renderer-id="0" transform="translate(410, 122)"></g><g id="g-root-tx_bestprac_6iip4xcaadl-stroke" data-item-order="1000000000" data-item-id="tx_bestprac_6iip4xcaadl" data-item-class="Label Stroke Indexed ColorFillBlack ColorStrokeBlack" data-item-index="3" data-renderer-id="0" transform="translate(410, 122)"></g><g id="g-root-tx_managing_1urt2jsxcaayq-stroke" data-item-order="1000000000" data-item-id="tx_managing_1urt2jsxcaayq" data-item-class="Label Stroke Indexed ColorFillBlack ColorStrokeBlack" data-item-index="2" data-renderer-id="0" transform="translate(182, 122)"></g><g id="g-root-tx_managing_1urt2jsxcaayq-stroke" data-item-order="1000000000" data-item-id="tx_managing_1urt2jsxcaayq" data-item-class="Label Stroke Indexed ColorFillBlack ColorStrokeBlack" data-item-index="2" data-renderer-id="0" transform="translate(182, 122)"></g><g id="g-root-tx_implemen_1lw62awxcabrh-stroke" data-item-order="1000000000" data-item-id="tx_implemen_1lw62awxcabrh" data-item-class="Label Stroke Indexed" data-item-index="3" data-renderer-id="0" transform="translate(416.076171875, 62)"></g><g id="g-root-1_1hit548xm2uq3-stroke" data-item-order="1000000000" data-item-id="1_1hit548xm2uq3" data-item-class="Icon Stroke Indexed InsideFill" data-item-index="2" data-renderer-id="0" transform="translate(311, 254)"><g id="1_1hit548xm2uq3-stroke" fill="none" stroke-linecap="round" stroke-linejoin="round" stroke-miterlimit="4" stroke="#484848" stroke-width="2"><g><path d="M 17.799999 49C 16.799999 49.200001 16 49 15 49C 12.8 49.200001 11.6 47.200001 11 45C 8.2 35.400002 12.2 25 11 15C 10.8 12.8 12.8 10.4 15 11C 27.200001 14.4 40.599998 13.2 53 11C 55.200001 10.6 57.200001 12.8 57 15C 55.599998 25 59.400002 35.200001 57 45C 56.400002 47.200001 55.200001 49.200001 53 49C 52 49 51 49.400002 50 49M 11 21C 26.200001 22 41.599998 21.4 57 21M 18 15.6C 18.200001 15.6 18.6 15.8 18.6 16C 18.4 16.200001 18.200001 16.4 18 16.6C 17.799999 16.6 17.6 16.200001 17.6 16C 17.4 15.8 17.799999 15.6 18 15.6M 24 15.6C 24.200001 15.4 24.6 15.8 24.6 16C 24.6 16.200001 24.200001 16.6 24 16.6C 23.799999 16.4 23.4 16.200001 23.6 16C 23.6 15.8 23.799999 15.4 24 15.6M 30 15.6C 30.200001 15.6 30.6 15.8 30.6 16C 30.6 16.200001 30.200001 16.4 30 16.6C 29.799999 16.6 29.6 16.200001 29.6 16C 29.4 15.8 29.799999 15.6 30 15.6M 22 45C 22.4 51.599998 27.6 55.200001 34 57C 40.400002 58.799999 46.200001 51.599998 46 45C 45.799999 38.400002 40.400002 31.6 34 33C 27.6 34.400002 19.6 38.799999 22 45M 34 33C 34.200001 31 33.400002 28.799999 34 27M 31 27C 33 27.6 35 27.4 37 27M 24 33C 25 33.799999 25.6 35 26.6 35.599998M 44 33C 43.200001 34 42.400002 34.799999 41.400002 35.599998M 35 44C 36.200001 43 37.200001 41.799999 38.200001 40.799999M 33.599998 44.599998C 33.799999 44.400002 34.200001 44.400002 34.400002 44.599998C 34.599998 44.799999 34.599998 45.200001 34.400002 45.400002C 34.200001 45.599998 33.799999 45.599998 33.599998 45.400002C 33.400002 45.200001 33.599998 45 33.599998 44.599998"></path><path d="M 17.812 49L 15 49C 12.790861 49 11 47.209141 11 45L 11 15C 11 12.790861 12.790861 11 15 11L 53 11C 55.209141 11 57 12.790861 57 15L 57 45C 57 47.209141 55.209141 49 53 49L 49.976002 49M 11 21L 57 21M 18 15.5C 18.276142 15.5 18.5 15.723858 18.5 16C 18.5 16.276142 18.276142 16.5 18 16.5C 17.723858 16.5 17.5 16.276142 17.5 16C 17.5 15.723858 17.723858 15.5 18 15.5M 24 15.5C 24.276142 15.5 24.5 15.723858 24.5 16C 24.5 16.276142 24.276142 16.5 24 16.5C 23.723858 16.5 23.5 16.276142 23.5 16C 23.5 15.723858 23.723858 15.5 24 15.5M 30 15.5C 30.276142 15.5 30.5 15.723858 30.5 16C 30.5 16.276142 30.276142 16.5 30 16.5C 29.723858 16.5 29.5 16.276142 29.5 16C 29.5 15.723858 29.723858 15.5 30 15.5M 22 45C 22 51.627419 27.372583 57 34 57C 40.627419 57 46 51.627419 46 45C 46 38.372581 40.627419 33 34 33C 27.372583 33 22 38.372581 22 45ZM 34 33L 34 27M 31 27L 37 27M 24 33L 26.573999 35.573997M 44 33L 41.426003 35.573997M 35.059998 43.939999L 38.242001 40.757999M 33.646 44.646C 33.841393 44.451099 34.157745 44.451366 34.352806 44.646595C 34.547874 44.841824 34.547874 45.158176 34.352806 45.353405C 34.157745 45.548634 33.841393 45.548901 33.646 45.354C 33.452332 45.157734 33.452332 44.842266 33.646 44.646"></path></g></g></g><g id="g-root-tx_communic_1lw62awxcabrg-stroke" data-item-order="1000000000" data-item-id="tx_communic_1lw62awxcabrg" data-item-class="Label Stroke Indexed" data-item-index="4" data-renderer-id="0" transform="translate(602, 242)"></g><g id="g-root-tx_versiont_1hgck6gxcacjr-stroke" data-item-order="1000000000" data-item-id="tx_versiont_1hgck6gxcacjr" data-item-class="Label Stroke Indexed Indexed_1" data-item-index="1" data-renderer-id="0" transform="translate(8, 266)"></g><g id="g-root-tx_versiont_1hgck6gxcacjr-stroke" data-item-order="1000000000" data-item-id="tx_versiont_1hgck6gxcacjr" data-item-class="Label Stroke Indexed Indexed_1" data-item-index="1" data-renderer-id="0" transform="translate(8, 266)"></g><g id="g-root-path_1utn6egxm2wax-stroke" data-item-order="1000000000" data-item-id="path_1utn6egxm2wax" data-item-class="Icon Stroke Title" data-item-index="none" data-renderer-id="0" transform="translate(350, 350)"><g id="path_1utn6egxm2wax-stroke" fill="none" stroke-linecap="round" stroke-linejoin="round" stroke-miterlimit="4" stroke="#484848" stroke-width="2"><g><path d="M 72.699997 18.4C 75.399994 19.9 76.600006 22.900002 78.100006 25.299999M 77.800003 37.300003C 76.899994 40 74.199997 41.800003 72.699997 44.199997M 19.299999 76.600006C 16.299999 75.699997 14.8 72.399994 13.9 69.699997M 14.2 57.699997C 16 55.599998 17.5 52.900002 19.299999 50.800003M 58 14.5C 59.5 14.5 61 15.1 62.5 14.5M 32.5 80.5C 34 80.199997 35.5 80.199997 37 80.5M 52 47.5C 55 47.5 58 47.5 61 47.5M 31 47.5C 34 47.5 37 47.5 40 47.5M 46 28C 45.699997 45.400002 44.5 63.100002 46 80.5M 37 37C 40.599998 34.599998 43.599998 31.599998 46 28C 49.300003 30.700001 51.400002 34.900002 55 37M 41.5 16C 41.800003 18.4 43.599998 20.799999 46 20.5C 48.400002 20.200001 49.900002 18.4 50.5 16C 51.099998 13.6 48.400002 11.8 46 11.5C 43.599998 11.2 41.5 13.6 41.5 16"></path><path d="M 72.822998 18.348999C 75.139435 20.201525 76.913673 22.644213 77.959 25.420002M 77.856995 37.320999C 76.763214 40.079144 74.945282 42.490952 72.595001 44.302002M 19.177 76.651001C 16.860567 74.798477 15.086329 72.355789 14.041 69.580002M 14.143 57.679001C 15.236788 54.920853 17.054712 52.509045 19.405001 50.697998M 58 14.5L 62.5 14.5M 32.5 80.5L 37 80.5M 52 47.5L 61 47.5M 31 47.5L 40 47.5M 46 28L 46 80.5M 37 37L 46 28L 55 37M 41.5 16C 41.5 18.485281 43.514721 20.5 46 20.5C 48.485283 20.5 50.5 18.485281 50.5 16C 50.5 13.514719 48.485283 11.5 46 11.5C 43.514721 11.5 41.5 13.514719 41.5 16Z"></path></g></g></g><g id="g-root-pens_1d2zmzsxm2vic-stroke" data-item-order="1000000000" data-item-id="pens_1d2zmzsxm2vic" data-item-class="Icon Stroke Indexed InsideFill" data-item-index="3" data-renderer-id="0" transform="translate(413, 254)"><g id="pens_1d2zmzsxm2vic-stroke" fill="none" stroke-linecap="round" stroke-linejoin="round" stroke-miterlimit="4" stroke="#484848" stroke-width="2"><g><path d="M 47.599998 22.200001C 45.799999 25.4 46.799999 29.4 46 33C 45.799999 40.799999 46.599998 48.599998 48.799999 56C 49 56.599998 49.400002 57 50 57C 50.599998 57 51 56.599998 51.200001 56C 53 48.400002 51.599998 40.400002 54 33C 53.799999 29.4 54.599998 25.200001 52.400002 22.200001M 50 11C 52 13.2 54 16.4 54 19C 54 21.200001 52.200001 23.200001 50 23C 47.799999 22.799999 45.200001 21.200001 46 19C 47.200001 15.6 51 15.2 50 11M 18 17C 20 17.6 22 16.6 24 17C 25.6 22.799999 22 29.4 24 35C 22 34.599998 19.799999 35.599998 18 35C 17.4 29 18.6 23 18 17M 38 18C 40.200001 28.200001 38.400002 38.599998 38 49C 36 49 34 49 32 49C 34.200001 38.799999 30.4 28.200001 32 18C 33 18.4 34 18.799999 35 19C 36 18.799999 37 18.4 38 18M 14 35C 12.6 30.6 14.6 25.6 14 21C 13.8 18.799999 15.8 16.799999 18 17M 24 14C 24 12.4 22.6 10.8 21 11C 19.4 11.2 17.799999 12.4 18 14C 18.200001 15 17.799999 16 18 17C 19.799999 17.6 22 17.4 24 17C 24 16 24 15 24 14M 18 35C 19.799999 34.400002 22 34.400002 24 35C 24.200001 39.599998 24.200001 44.400002 24 49C 22 49 20 48.799999 18 49C 18.200001 44.400002 16.200001 39.400002 18 35M 32 18C 33.200001 15.8 34.400002 13.4 35 11C 36.200001 13.2 36.200001 16.200001 38 18M 18 49C 18.200001 51.400002 19 53.799999 19.799999 56C 20 56.599998 20.4 57.200001 21 57C 21.6 56.799999 22 56.599998 22.200001 56C 23.799999 54.200001 23.200001 51.200001 24 49M 38 54C 37.599998 55.599998 36.599998 57 35 57C 33.400002 57 32.200001 55.599998 32 54C 32 53.599998 32 53.400002 32 53C 34 53.400002 36.200001 52.400002 38 53C 38.200001 53.400002 38 53.599998 38 54M 32 49C 34 48.799999 36 49.599998 38 49C 38.200001 50.400002 38 51.599998 38 53C 36 53.400002 34 53.400002 32 53C 32 51.599998 31.6 50.200001 32 49"></path><path d="M 47.599998 22.200001C 46.539066 25.701864 45.999939 29.34095 46 33C 46.130428 40.746658 47.057983 48.459309 48.767998 56.015999C 48.899742 56.59029 49.410797 56.997387 50.000004 56.997387C 50.589207 56.997387 51.100262 56.59029 51.232002 56.016003C 52.942013 48.459309 53.869568 40.746658 53.999996 33C 54.000057 29.34095 53.460934 25.701864 52.399998 22.200001M 50 11C 52.666 12.334 54 16.334 54 19C 54 21.209139 52.209141 23 50 23C 47.790859 23 46 21.209139 46 19C 46 15.43 50.666 15.292 50 11ZM 18 17L 24 17L 24 35L 18 35ZM 38 18L 38 49L 32 49L 32 18L 35 19L 38 18ZM 14 35L 14 21C 14 18.790861 15.790861 17 18 17M 24 14C 24 12.343145 22.656855 11 21 11C 19.343147 11 18 12.343145 18 14L 18 17L 24 17ZM 18 35L 24 35L 24 49L 18 49ZM 32 18L 35 11L 38 18M 18 49C 18.452644 51.37326 19.029438 53.721153 19.728001 56.034C 19.886505 56.605602 20.40683 57.001274 21 57.001274C 21.593172 57.001274 22.113495 56.605602 22.271999 56.034C 22.970562 53.721153 23.547356 51.37326 24 49M 38 54C 38 55.656857 36.656853 57 35 57C 33.343147 57 32 55.656857 32 54L 32 53L 38 53ZM 32 49L 38 49L 38 53L 32 53Z"></path></g></g></g><g id="g-root-pens_1d2zmzsxm2vic-stroke" data-item-order="1000000000" data-item-id="pens_1d2zmzsxm2vic" data-item-class="Icon Stroke Indexed InsideFill" data-item-index="3" data-renderer-id="0" transform="translate(413, 254)"><g id="pens_1d2zmzsxm2vic-stroke" fill="none" stroke-linecap="round" stroke-linejoin="round" stroke-miterlimit="4" stroke="#484848" stroke-width="2"><g><path d="M 47.599998 22.200001C 45.799999 25.4 46.799999 29.4 46 33C 45.799999 40.799999 46.599998 48.599998 48.799999 56C 49 56.599998 49.400002 57 50 57C 50.599998 57 51 56.599998 51.200001 56C 53 48.400002 51.599998 40.400002 54 33C 53.799999 29.4 54.599998 25.200001 52.400002 22.200001M 50 11C 52 13.2 54 16.4 54 19C 54 21.200001 52.200001 23.200001 50 23C 47.799999 22.799999 45.200001 21.200001 46 19C 47.200001 15.6 51 15.2 50 11M 18 17C 20 17.6 22 16.6 24 17C 25.6 22.799999 22 29.4 24 35C 22 34.599998 19.799999 35.599998 18 35C 17.4 29 18.6 23 18 17M 38 18C 40.200001 28.200001 38.400002 38.599998 38 49C 36 49 34 49 32 49C 34.200001 38.799999 30.4 28.200001 32 18C 33 18.4 34 18.799999 35 19C 36 18.799999 37 18.4 38 18M 14 35C 12.6 30.6 14.6 25.6 14 21C 13.8 18.799999 15.8 16.799999 18 17M 24 14C 24 12.4 22.6 10.8 21 11C 19.4 11.2 17.799999 12.4 18 14C 18.200001 15 17.799999 16 18 17C 19.799999 17.6 22 17.4 24 17C 24 16 24 15 24 14M 18 35C 19.799999 34.400002 22 34.400002 24 35C 24.200001 39.599998 24.200001 44.400002 24 49C 22 49 20 48.799999 18 49C 18.200001 44.400002 16.200001 39.400002 18 35M 32 18C 33.200001 15.8 34.400002 13.4 35 11C 36.200001 13.2 36.200001 16.200001 38 18M 18 49C 18.200001 51.400002 19 53.799999 19.799999 56C 20 56.599998 20.4 57.200001 21 57C 21.6 56.799999 22 56.599998 22.200001 56C 23.799999 54.200001 23.200001 51.200001 24 49M 38 54C 37.599998 55.599998 36.599998 57 35 57C 33.400002 57 32.200001 55.599998 32 54C 32 53.599998 32 53.400002 32 53C 34 53.400002 36.200001 52.400002 38 53C 38.200001 53.400002 38 53.599998 38 54M 32 49C 34 48.799999 36 49.599998 38 49C 38.200001 50.400002 38 51.599998 38 53C 36 53.400002 34 53.400002 32 53C 32 51.599998 31.6 50.200001 32 49"></path><path d="M 47.599998 22.200001C 46.539066 25.701864 45.999939 29.34095 46 33C 46.130428 40.746658 47.057983 48.459309 48.767998 56.015999C 48.899742 56.59029 49.410797 56.997387 50.000004 56.997387C 50.589207 56.997387 51.100262 56.59029 51.232002 56.016003C 52.942013 48.459309 53.869568 40.746658 53.999996 33C 54.000057 29.34095 53.460934 25.701864 52.399998 22.200001M 50 11C 52.666 12.334 54 16.334 54 19C 54 21.209139 52.209141 23 50 23C 47.790859 23 46 21.209139 46 19C 46 15.43 50.666 15.292 50 11ZM 18 17L 24 17L 24 35L 18 35ZM 38 18L 38 49L 32 49L 32 18L 35 19L 38 18ZM 14 35L 14 21C 14 18.790861 15.790861 17 18 17M 24 14C 24 12.343145 22.656855 11 21 11C 19.343147 11 18 12.343145 18 14L 18 17L 24 17ZM 18 35L 24 35L 24 49L 18 49ZM 32 18L 35 11L 38 18M 18 49C 18.452644 51.37326 19.029438 53.721153 19.728001 56.034C 19.886505 56.605602 20.40683 57.001274 21 57.001274C 21.593172 57.001274 22.113495 56.605602 22.271999 56.034C 22.970562 53.721153 23.547356 51.37326 24 49M 38 54C 38 55.656857 36.656853 57 35 57C 33.343147 57 32 55.656857 32 54L 32 53L 38 53ZM 32 49L 38 49L 38 53L 32 53Z"></path></g></g></g><g id="g-root-tx_communic_1lw62awxcabrg-stroke" data-item-order="1000000000" data-item-id="tx_communic_1lw62awxcabrg" data-item-class="Label Stroke Indexed" data-item-index="4" data-renderer-id="0" transform="translate(602, 242)"></g><g id="g-root-tx_implemen_1lw62awxcabrh-stroke" data-item-order="1000000000" data-item-id="tx_implemen_1lw62awxcabrh" data-item-class="Label Stroke Indexed" data-item-index="3" data-renderer-id="0" transform="translate(416.076171875, 62)"></g><g id="g-root-tx_versionm_1hgck6gxcacjq-stroke" data-item-order="1000000000" data-item-id="tx_versionm_1hgck6gxcacjq" data-item-class="Label Stroke Indexed" data-item-index="2" data-renderer-id="0" transform="translate(194, 62)"></g><g id="g-root-tx_versionm_1hgck6gxcacjq-stroke" data-item-order="1000000000" data-item-id="tx_versionm_1hgck6gxcacjq" data-item-class="Label Stroke Indexed" data-item-index="2" data-renderer-id="0" transform="translate(194, 62)"></g><g id="g-root-tx_versioni_1d15j54xcaa68-stroke" data-item-order="1000000000" data-item-id="tx_versioni_1d15j54xcaa68" data-item-class="Label Stroke Title ColorFillBlack ColorStrokeBlack" data-item-index="none" data-renderer-id="0" transform="translate(242, 2)"></g><g id="g-root-tx_differen_1urt2jsxcaayr-stroke" data-item-order="1000000000" data-item-id="tx_differen_1urt2jsxcaayr" data-item-class="Label Stroke Indexed Indexed_1 ColorFillBlack ColorStrokeBlack" data-item-index="1" data-renderer-id="0" transform="translate(2, 302)"></g><g id="g-root-tx_differen_1urt2jsxcaayr-stroke" data-item-order="1000000000" data-item-id="tx_differen_1urt2jsxcaayr" data-item-class="Label Stroke Indexed Indexed_1 ColorFillBlack ColorStrokeBlack" data-item-index="1" data-renderer-id="0" transform="translate(2, 302)"></g><g id="g-root-tx_strategi_91j1uwxcacqo-stroke" data-item-order="1000000000" data-item-id="tx_strategi_91j1uwxcacqo" data-item-class="Label Stroke Indexed ColorFillBlack ColorStrokeBlack" data-item-index="4" data-renderer-id="0" transform="translate(608, 302)"></g><g id="g-root-tx_strategi_91j1uwxcacqo-stroke" data-item-order="1000000000" data-item-id="tx_strategi_91j1uwxcacqo" data-item-class="Label Stroke Indexed ColorFillBlack ColorStrokeBlack" data-item-index="4" data-renderer-id="0" transform="translate(608, 302)"></g><g id="g-root-2_1qdtoa0xm2x36-stroke" data-item-order="1000000000" data-item-id="2_1qdtoa0xm2x36" data-item-class="Icon Stroke Indexed Indexed_1 InsideFill" data-item-index="1" data-renderer-id="0" transform="translate(236, 332)"><g id="2_1qdtoa0xm2x36-stroke" fill="none" stroke-linecap="round" stroke-linejoin="round" stroke-miterlimit="4" stroke="#484848" stroke-width="2"><g><path d="M 33.599998 41.799999C 31.6 43.400002 29 43 26.6 43C 24 43 22.200001 40.200001 22 37.599998C 22 37.400002 22 37.200001 22 37C 19.6 35.799999 17.6 33.599998 18 31C 18.4 28.4 19.799999 26.6 22 25C 22 24.799999 22 24.6 22 24.6C 22.200001 21.799999 24.4 20.4 27 19.6C 27.200001 19.4 27.4 19.200001 27.6 19C 27.799999 15.4 30.4 12.8 34 12.6C 37.599998 12.2 40.599998 15.4 40.599998 19C 40.599998 19.200001 40.799999 19.200001 41 19.6C 43.799999 19.6 46.200001 21.799999 46 24.6C 46.200001 24.799999 46.400002 25 46.599998 25.200001C 49 25.6 50 28.799999 50 31.4C 50 33.799999 48 35.400002 46 37C 46 37.200001 46 37.400002 46 37.599998C 45.599998 40 43.599998 41.799999 41.400002 43C 39.200001 44.400002 36 43.799999 34.599998 41.799999C 34.200001 41.799999 33.799999 41.799999 33.599998 41.799999M 34 25.6C 35.599998 35.400002 36.599998 45.799999 34 55.599998M 34 36.599998C 38.200001 35.400002 41.799999 33 42 28.6M 34 32.599998C 30.799999 32.799999 28 29.799999 28 26.6"></path><path d="M 33.52 41.844002C 31.590923 43.477024 28.931335 43.943314 26.561775 43.06395C 24.192213 42.184582 22.480709 40.096146 22.084 37.599998L 22 37C 19.596302 35.996925 18.023149 33.656219 18.002243 31.051704C 17.981339 28.447189 19.516712 26.081532 21.903999 25.040001L 22 24.5C 22 21.738575 24.238577 19.5 27 19.5L 27.5 19C 27.5 15.41015 30.410151 12.5 34 12.5C 37.589851 12.5 40.5 15.41015 40.5 19L 41 19.5C 43.761425 19.5 46 21.738575 46 24.5L 46.599998 25.285999C 48.796135 26.47681 50.115795 28.820581 49.995125 31.315872C 49.874454 33.811165 48.334793 36.016655 46.034 36.989998L 45.917999 37.59C 45.525513 40.079552 43.82502 42.165916 41.465805 43.052486C 39.10659 43.939053 36.452911 43.488937 34.518002 41.874001ZM 34 25.5L 34 55.5M 34 36.5C 38.418278 36.5 42 32.918278 42 28.5M 34 32.5C 30.686293 32.5 28 29.813709 28 26.5"></path></g></g></g><g id="g-root-2_1qdtoa0xm2x36-stroke" data-item-order="1000000000" data-item-id="2_1qdtoa0xm2x36" data-item-class="Icon Stroke Indexed Indexed_1 InsideFill" data-item-index="1" data-renderer-id="0" transform="translate(236, 332)"><g id="2_1qdtoa0xm2x36-stroke" fill="none" stroke-linecap="round" stroke-linejoin="round" stroke-miterlimit="4" stroke="#484848" stroke-width="2"><g><path d="M 33.599998 41.799999C 31.6 43.400002 29 43 26.6 43C 24 43 22.200001 40.200001 22 37.599998C 22 37.400002 22 37.200001 22 37C 19.6 35.799999 17.6 33.599998 18 31C 18.4 28.4 19.799999 26.6 22 25C 22 24.799999 22 24.6 22 24.6C 22.200001 21.799999 24.4 20.4 27 19.6C 27.200001 19.4 27.4 19.200001 27.6 19C 27.799999 15.4 30.4 12.8 34 12.6C 37.599998 12.2 40.599998 15.4 40.599998 19C 40.599998 19.200001 40.799999 19.200001 41 19.6C 43.799999 19.6 46.200001 21.799999 46 24.6C 46.200001 24.799999 46.400002 25 46.599998 25.200001C 49 25.6 50 28.799999 50 31.4C 50 33.799999 48 35.400002 46 37C 46 37.200001 46 37.400002 46 37.599998C 45.599998 40 43.599998 41.799999 41.400002 43C 39.200001 44.400002 36 43.799999 34.599998 41.799999C 34.200001 41.799999 33.799999 41.799999 33.599998 41.799999M 34 25.6C 35.599998 35.400002 36.599998 45.799999 34 55.599998M 34 36.599998C 38.200001 35.400002 41.799999 33 42 28.6M 34 32.599998C 30.799999 32.799999 28 29.799999 28 26.6"></path><path d="M 33.52 41.844002C 31.590923 43.477024 28.931335 43.943314 26.561775 43.06395C 24.192213 42.184582 22.480709 40.096146 22.084 37.599998L 22 37C 19.596302 35.996925 18.023149 33.656219 18.002243 31.051704C 17.981339 28.447189 19.516712 26.081532 21.903999 25.040001L 22 24.5C 22 21.738575 24.238577 19.5 27 19.5L 27.5 19C 27.5 15.41015 30.410151 12.5 34 12.5C 37.589851 12.5 40.5 15.41015 40.5 19L 41 19.5C 43.761425 19.5 46 21.738575 46 24.5L 46.599998 25.285999C 48.796135 26.47681 50.115795 28.820581 49.995125 31.315872C 49.874454 33.811165 48.334793 36.016655 46.034 36.989998L 45.917999 37.59C 45.525513 40.079552 43.82502 42.165916 41.465805 43.052486C 39.10659 43.939053 36.452911 43.488937 34.518002 41.874001ZM 34 25.5L 34 55.5M 34 36.5C 38.418278 36.5 42 32.918278 42 28.5M 34 32.5C 30.686293 32.5 28 29.813709 28 26.5"></path></g></g></g><g id="g-root-mega_1d2zmzsxm2vid-stroke" data-item-order="1000000000" data-item-id="mega_1d2zmzsxm2vid" data-item-class="Icon Stroke Indexed InsideFill" data-item-index="4" data-renderer-id="0" transform="translate(488, 332)"><g id="mega_1d2zmzsxm2vid-stroke" fill="none" stroke-linecap="round" stroke-linejoin="round" stroke-miterlimit="4" stroke="#484848" stroke-width="2"><g><path d="M 11.2 49C 12.2 50.799999 14 52.200001 14.6 54.200001M 29.799999 26.6C 35.200001 32 37.799999 39.599998 42.599998 45.799999M 41.799999 44.799999C 32.400002 47.400002 23.6 52.799999 13.8 53.200001C 13.6 52 12.6 51 11.8 50C 18.200001 42.599998 25 35.599998 30.4 27.6C 35.200001 32.599998 37 39.799999 41.799999 44.799999M 28.4 48.799999C 29.200001 50 29.799999 51.599998 29.200001 53C 28.6 54.599998 27.200001 56 25.6 55.799999C 24.200001 55.599998 22.799999 55 21.6 54C 21 53.200001 20.6 52 20 51.200001M 17.200001 35C 16.799999 34.400002 16 34.200001 15.8 33.400002C 15.6 33 15.4 32.599998 15.8 32.200001C 17 30.799999 18.6 29.799999 19.4 28.4C 18.799999 26.799999 18 25 18.200001 23.200001C 18.200001 22.799999 18.4 22.200001 19 22C 20.6 21.4 22.200001 21 24 20.6C 24 18.799999 25.6 17.200001 25.4 15.6C 25.4 15 26.200001 14.6 26.6 14.8C 28.200001 15.6 30.200001 15.4 31.6 16C 32.599998 14.6 34.400002 13.8 35.400002 12.4C 35.799999 12 36.599998 12 36.799999 12.4C 37.599998 14 39.799999 14.6 40.599998 16C 42.400002 16 44.200001 15.6 45.799999 14.8C 46.200001 14.6 46.799999 15 47 15.6C 47.599998 17.200001 48 18.799999 48.400002 20.6C 50.200001 20.799999 52 21.200001 53.400002 22C 54 22.4 54.400002 22.799999 54.200001 23.200001C 53.200001 24.799999 53.799999 26.799999 53 28.4C 54 29.6 55.200001 31 56.599998 32.200001C 57 32.400002 57 33.200001 56.599998 33.400002C 55 34.400002 53.799999 35.799999 53 37.200001C 52.799999 39 53.200001 41 54.200001 42.400002C 54.400002 42.799999 54 43.599998 53.400002 43.599998C 51.799999 43.599998 50 44.200001 48.400002 45C 48.400002 46.799999 47.400002 48.400002 47 50C 46.799999 50.599998 46.200001 50.799999 45.799999 50.799999C 44 50.799999 42.400002 50 40.599998 49.599998C 39.200001 50.400002 38.400002 52.200001 36.799999 53.200001C 36.400002 53.400002 35.799999 53.599998 35.599998 53.200001C 35.400002 53 35 52.799999 34.799999 52.400002"></path><path d="M 11.188 49.063999L 14.546 54.124001M 29.757999 26.530001L 42.52 45.756001M 41.849998 44.743999L 13.874001 53.112L 11.86 50.076L 30.427999 27.542L 41.849998 44.743999ZM 28.431999 48.756001C 29.472109 49.949284 29.762846 51.621738 29.186466 53.096031C 28.610085 54.570324 27.26211 55.602116 25.688461 55.77354C 24.114815 55.944965 22.576298 55.227612 21.695999 53.911999L 19.942001 51.27M 17.176001 34.919998L 15.834 33.498001C 15.470802 33.112778 15.470802 32.511223 15.834 32.125999L 19.434 28.326L 18.234001 23.234001C 18.112358 22.718262 18.414135 22.197174 18.922001 22.046L 23.938 20.552L 25.431999 15.535999C 25.580299 15.0351 26.089161 14.732746 26.6 14.842L 31.690001 16.052L 35.489998 12.452C 35.875221 12.088802 36.476776 12.088802 36.862 12.452L 40.662003 16.052L 45.754002 14.852C 46.269737 14.730358 46.790825 15.032133 46.942001 15.54L 48.436001 20.556L 53.452 22.049999C 53.965611 22.201305 54.268909 22.730316 54.139999 23.25L 52.948002 28.32L 56.548 32.120003C 56.911198 32.505226 56.911198 33.106777 56.548 33.492001L 52.948002 37.292L 54.158001 42.382C 54.280846 42.898399 53.978817 43.420799 53.470001 43.571999L 48.453999 45.066002L 46.959999 50.082001C 46.807961 50.590012 46.285809 50.891018 45.77 50.768002L 40.68 49.568001L 36.879997 53.167999C 36.494774 53.531197 35.893223 53.531197 35.507999 53.167999L 34.785999 52.486"></path></g></g></g><g id="g-root-mega_1d2zmzsxm2vid-stroke" data-item-order="1000000000" data-item-id="mega_1d2zmzsxm2vid" data-item-class="Icon Stroke Indexed InsideFill" data-item-index="4" data-renderer-id="0" transform="translate(488, 332)"><g id="mega_1d2zmzsxm2vid-stroke" fill="none" stroke-linecap="round" stroke-linejoin="round" stroke-miterlimit="4" stroke="#484848" stroke-width="2"><g><path d="M 11.2 49C 12.2 50.799999 14 52.200001 14.6 54.200001M 29.799999 26.6C 35.200001 32 37.799999 39.599998 42.599998 45.799999M 41.799999 44.799999C 32.400002 47.400002 23.6 52.799999 13.8 53.200001C 13.6 52 12.6 51 11.8 50C 18.200001 42.599998 25 35.599998 30.4 27.6C 35.200001 32.599998 37 39.799999 41.799999 44.799999M 28.4 48.799999C 29.200001 50 29.799999 51.599998 29.200001 53C 28.6 54.599998 27.200001 56 25.6 55.799999C 24.200001 55.599998 22.799999 55 21.6 54C 21 53.200001 20.6 52 20 51.200001M 17.200001 35C 16.799999 34.400002 16 34.200001 15.8 33.400002C 15.6 33 15.4 32.599998 15.8 32.200001C 17 30.799999 18.6 29.799999 19.4 28.4C 18.799999 26.799999 18 25 18.200001 23.200001C 18.200001 22.799999 18.4 22.200001 19 22C 20.6 21.4 22.200001 21 24 20.6C 24 18.799999 25.6 17.200001 25.4 15.6C 25.4 15 26.200001 14.6 26.6 14.8C 28.200001 15.6 30.200001 15.4 31.6 16C 32.599998 14.6 34.400002 13.8 35.400002 12.4C 35.799999 12 36.599998 12 36.799999 12.4C 37.599998 14 39.799999 14.6 40.599998 16C 42.400002 16 44.200001 15.6 45.799999 14.8C 46.200001 14.6 46.799999 15 47 15.6C 47.599998 17.200001 48 18.799999 48.400002 20.6C 50.200001 20.799999 52 21.200001 53.400002 22C 54 22.4 54.400002 22.799999 54.200001 23.200001C 53.200001 24.799999 53.799999 26.799999 53 28.4C 54 29.6 55.200001 31 56.599998 32.200001C 57 32.400002 57 33.200001 56.599998 33.400002C 55 34.400002 53.799999 35.799999 53 37.200001C 52.799999 39 53.200001 41 54.200001 42.400002C 54.400002 42.799999 54 43.599998 53.400002 43.599998C 51.799999 43.599998 50 44.200001 48.400002 45C 48.400002 46.799999 47.400002 48.400002 47 50C 46.799999 50.599998 46.200001 50.799999 45.799999 50.799999C 44 50.799999 42.400002 50 40.599998 49.599998C 39.200001 50.400002 38.400002 52.200001 36.799999 53.200001C 36.400002 53.400002 35.799999 53.599998 35.599998 53.200001C 35.400002 53 35 52.799999 34.799999 52.400002"></path><path d="M 11.188 49.063999L 14.546 54.124001M 29.757999 26.530001L 42.52 45.756001M 41.849998 44.743999L 13.874001 53.112L 11.86 50.076L 30.427999 27.542L 41.849998 44.743999ZM 28.431999 48.756001C 29.472109 49.949284 29.762846 51.621738 29.186466 53.096031C 28.610085 54.570324 27.26211 55.602116 25.688461 55.77354C 24.114815 55.944965 22.576298 55.227612 21.695999 53.911999L 19.942001 51.27M 17.176001 34.919998L 15.834 33.498001C 15.470802 33.112778 15.470802 32.511223 15.834 32.125999L 19.434 28.326L 18.234001 23.234001C 18.112358 22.718262 18.414135 22.197174 18.922001 22.046L 23.938 20.552L 25.431999 15.535999C 25.580299 15.0351 26.089161 14.732746 26.6 14.842L 31.690001 16.052L 35.489998 12.452C 35.875221 12.088802 36.476776 12.088802 36.862 12.452L 40.662003 16.052L 45.754002 14.852C 46.269737 14.730358 46.790825 15.032133 46.942001 15.54L 48.436001 20.556L 53.452 22.049999C 53.965611 22.201305 54.268909 22.730316 54.139999 23.25L 52.948002 28.32L 56.548 32.120003C 56.911198 32.505226 56.911198 33.106777 56.548 33.492001L 52.948002 37.292L 54.158001 42.382C 54.280846 42.898399 53.978817 43.420799 53.470001 43.571999L 48.453999 45.066002L 46.959999 50.082001C 46.807961 50.590012 46.285809 50.891018 45.77 50.768002L 40.68 49.568001L 36.879997 53.167999C 36.494774 53.531197 35.893223 53.531197 35.507999 53.167999L 34.785999 52.486"></path></g></g></g><g id="g-root-path_1utn6egxm2wax-stroke" data-item-order="1000000000" data-item-id="path_1utn6egxm2wax" data-item-class="Icon Stroke Title" data-item-index="none" data-renderer-id="0" transform="translate(350, 350)"><g id="path_1utn6egxm2wax-stroke" fill="none" stroke-linecap="round" stroke-linejoin="round" stroke-miterlimit="4" stroke="#484848" stroke-width="2"><g><path d="M 72.699997 18.4C 75.399994 19.9 76.600006 22.900002 78.100006 25.299999M 77.800003 37.300003C 76.899994 40 74.199997 41.800003 72.699997 44.199997M 19.299999 76.600006C 16.299999 75.699997 14.8 72.399994 13.9 69.699997M 14.2 57.699997C 16 55.599998 17.5 52.900002 19.299999 50.800003M 58 14.5C 59.5 14.5 61 15.1 62.5 14.5M 32.5 80.5C 34 80.199997 35.5 80.199997 37 80.5M 52 47.5C 55 47.5 58 47.5 61 47.5M 31 47.5C 34 47.5 37 47.5 40 47.5M 46 28C 45.699997 45.400002 44.5 63.100002 46 80.5M 37 37C 40.599998 34.599998 43.599998 31.599998 46 28C 49.300003 30.700001 51.400002 34.900002 55 37M 41.5 16C 41.800003 18.4 43.599998 20.799999 46 20.5C 48.400002 20.200001 49.900002 18.4 50.5 16C 51.099998 13.6 48.400002 11.8 46 11.5C 43.599998 11.2 41.5 13.6 41.5 16"></path><path d="M 72.822998 18.348999C 75.139435 20.201525 76.913673 22.644213 77.959 25.420002M 77.856995 37.320999C 76.763214 40.079144 74.945282 42.490952 72.595001 44.302002M 19.177 76.651001C 16.860567 74.798477 15.086329 72.355789 14.041 69.580002M 14.143 57.679001C 15.236788 54.920853 17.054712 52.509045 19.405001 50.697998M 58 14.5L 62.5 14.5M 32.5 80.5L 37 80.5M 52 47.5L 61 47.5M 31 47.5L 40 47.5M 46 28L 46 80.5M 37 37L 46 28L 55 37M 41.5 16C 41.5 18.485281 43.514721 20.5 46 20.5C 48.485283 20.5 50.5 18.485281 50.5 16C 50.5 13.514719 48.485283 11.5 46 11.5C 43.514721 11.5 41.5 13.514719 41.5 16Z"></path></g></g></g><g id="g-root-tx_versioni_1d15j54xcaa68-stroke" data-item-order="1000000000" data-item-id="tx_versioni_1d15j54xcaa68" data-item-class="Label Stroke Title ColorFillBlack ColorStrokeBlack" data-item-index="none" data-renderer-id="0" transform="translate(242, 2)"></g><g id="g-root-1_1hit548xm2uq3-stroke" data-item-order="1000000000" data-item-id="1_1hit548xm2uq3" data-item-class="Icon Stroke Indexed InsideFill" data-item-index="2" data-renderer-id="0" transform="translate(311, 254)"><g id="1_1hit548xm2uq3-stroke" fill="none" stroke-linecap="round" stroke-linejoin="round" stroke-miterlimit="4" stroke="#484848" stroke-width="2"><g><path d="M 17.799999 49C 16.799999 49.200001 16 49 15 49C 12.8 49.200001 11.6 47.200001 11 45C 8.2 35.400002 12.2 25 11 15C 10.8 12.8 12.8 10.4 15 11C 27.200001 14.4 40.599998 13.2 53 11C 55.200001 10.6 57.200001 12.8 57 15C 55.599998 25 59.400002 35.200001 57 45C 56.400002 47.200001 55.200001 49.200001 53 49C 52 49 51 49.400002 50 49M 11 21C 26.200001 22 41.599998 21.4 57 21M 18 15.6C 18.200001 15.6 18.6 15.8 18.6 16C 18.4 16.200001 18.200001 16.4 18 16.6C 17.799999 16.6 17.6 16.200001 17.6 16C 17.4 15.8 17.799999 15.6 18 15.6M 24 15.6C 24.200001 15.4 24.6 15.8 24.6 16C 24.6 16.200001 24.200001 16.6 24 16.6C 23.799999 16.4 23.4 16.200001 23.6 16C 23.6 15.8 23.799999 15.4 24 15.6M 30 15.6C 30.200001 15.6 30.6 15.8 30.6 16C 30.6 16.200001 30.200001 16.4 30 16.6C 29.799999 16.6 29.6 16.200001 29.6 16C 29.4 15.8 29.799999 15.6 30 15.6M 22 45C 22.4 51.599998 27.6 55.200001 34 57C 40.400002 58.799999 46.200001 51.599998 46 45C 45.799999 38.400002 40.400002 31.6 34 33C 27.6 34.400002 19.6 38.799999 22 45M 34 33C 34.200001 31 33.400002 28.799999 34 27M 31 27C 33 27.6 35 27.4 37 27M 24 33C 25 33.799999 25.6 35 26.6 35.599998M 44 33C 43.200001 34 42.400002 34.799999 41.400002 35.599998M 35 44C 36.200001 43 37.200001 41.799999 38.200001 40.799999M 33.599998 44.599998C 33.799999 44.400002 34.200001 44.400002 34.400002 44.599998C 34.599998 44.799999 34.599998 45.200001 34.400002 45.400002C 34.200001 45.599998 33.799999 45.599998 33.599998 45.400002C 33.400002 45.200001 33.599998 45 33.599998 44.599998"></path><path d="M 17.812 49L 15 49C 12.790861 49 11 47.209141 11 45L 11 15C 11 12.790861 12.790861 11 15 11L 53 11C 55.209141 11 57 12.790861 57 15L 57 45C 57 47.209141 55.209141 49 53 49L 49.976002 49M 11 21L 57 21M 18 15.5C 18.276142 15.5 18.5 15.723858 18.5 16C 18.5 16.276142 18.276142 16.5 18 16.5C 17.723858 16.5 17.5 16.276142 17.5 16C 17.5 15.723858 17.723858 15.5 18 15.5M 24 15.5C 24.276142 15.5 24.5 15.723858 24.5 16C 24.5 16.276142 24.276142 16.5 24 16.5C 23.723858 16.5 23.5 16.276142 23.5 16C 23.5 15.723858 23.723858 15.5 24 15.5M 30 15.5C 30.276142 15.5 30.5 15.723858 30.5 16C 30.5 16.276142 30.276142 16.5 30 16.5C 29.723858 16.5 29.5 16.276142 29.5 16C 29.5 15.723858 29.723858 15.5 30 15.5M 22 45C 22 51.627419 27.372583 57 34 57C 40.627419 57 46 51.627419 46 45C 46 38.372581 40.627419 33 34 33C 27.372583 33 22 38.372581 22 45ZM 34 33L 34 27M 31 27L 37 27M 24 33L 26.573999 35.573997M 44 33L 41.426003 35.573997M 35.059998 43.939999L 38.242001 40.757999M 33.646 44.646C 33.841393 44.451099 34.157745 44.451366 34.352806 44.646595C 34.547874 44.841824 34.547874 45.158176 34.352806 45.353405C 34.157745 45.548634 33.841393 45.548901 33.646 45.354C 33.452332 45.157734 33.452332 44.842266 33.646 44.646"></path></g></g></g></g></g></svg>