<?xml version="1.0" encoding="utf-8" standalone="yes"?>
<!DOCTYPE svg PUBLIC "-//W3C//DTD SVG 1.1//EN" "http://www.w3.org/Graphics/SVG/1.1/DTD/svg11.dtd">
<svg width="720" height="624" viewBox="0 0 720 624" style="fill:none;stroke:none;fill-rule:evenodd;clip-rule:evenodd;stroke-linecap:round;stroke-linejoin:round;stroke-miterlimit:1.5;" version="1.1" xmlns="http://www.w3.org/2000/svg" xmlns:xlink="http://www.w3.org/1999/xlink"><style id="fontImports">@import url("https://fonts.googleapis.com/css2?family=Shantell+Sans:wght@300..800&amp;display=block");</style><g id="items" style="isolation: isolate"><g id="blend" style="mix-blend-mode:normal"><g id="g-root-5.cu_sy_meugigxm5q87-fill" data-item-order="999889752" data-item-id="5.cu_sy_meugigxm5q87" data-item-class="Part Indexed Fill Stroke" data-item-index="5" data-renderer-id="0" transform="translate(192, 142)"><g id="5.cu_sy_meugigxm5q87-fill" stroke="none" fill="#ffd0ce"><g><path d="M 186.2 17.6L 183.5 15.8L 165 27.2L 174.7 34ZM 165 27.2L 170.9 68.3L 189.9 59.8L 183.5 15.8ZM 189.9 59.8L 159.6 23.9L 142.2 34.2L 170.9 68.3ZM 142.2 34.2L 168.9 102L 186.4 92L 159.6 23.9ZM 186.4 92L 144.4 38.5L 127.3 49.1L 168.9 102ZM 127.3 49.1L 159 117.2L 176.1 106.5L 144.4 38.5ZM 176.1 106.5L 130.8 51.8L 113.4 62.2L 159 117.2ZM 113.4 62.2L 139.3 126.4L 156.8 116.3L 130.8 51.8ZM 156.8 116.3L 115 63.5L 97 72.9L 139.3 126.4ZM 97 72.9L 118 142.5L 136.1 133.2L 115 63.5ZM 136.1 133.2L 93.2 77.4L 75.6 87.3L 118 142.5ZM 75.6 87.3L 101.1 154.2L 118.8 144.5L 93.2 77.4ZM 118.8 144.5L 79 90.5L 61 99.9L 101.1 154.2ZM 61 99.9L 82.3 163.7L 100.2 154.4L 79 90.5ZM 100.2 154.4L 60 99.4L 41.5 108L 82.3 163.7ZM 41.5 108L 51.8 150.3L 70.4 142L 60 99.4ZM 70.4 142L 49.4 111.2L 25.8 112L 51.8 150.3ZM 25.8 112L 11.6 136.7L 34.6 136.8L 49.4 111.2ZM 34.6 136.8L 29 126.8L 11.5 136.6L 11.6 136.7Z" fill-rule="nonzero"></path></g></g></g><g id="g-root-5.cu_sy_meugigxm5q87-fill" data-item-order="999889752" data-item-id="5.cu_sy_meugigxm5q87" data-item-class="Part Indexed Fill Stroke" data-item-index="5" data-renderer-id="0" transform="translate(192, 142)"><g id="5.cu_sy_meugigxm5q87-fill" stroke="none" fill="#ffd0ce"><g><path d="M 186.2 17.6L 183.5 15.8L 165 27.2L 174.7 34ZM 165 27.2L 170.9 68.3L 189.9 59.8L 183.5 15.8ZM 189.9 59.8L 159.6 23.9L 142.2 34.2L 170.9 68.3ZM 142.2 34.2L 168.9 102L 186.4 92L 159.6 23.9ZM 186.4 92L 144.4 38.5L 127.3 49.1L 168.9 102ZM 127.3 49.1L 159 117.2L 176.1 106.5L 144.4 38.5ZM 176.1 106.5L 130.8 51.8L 113.4 62.2L 159 117.2ZM 113.4 62.2L 139.3 126.4L 156.8 116.3L 130.8 51.8ZM 156.8 116.3L 115 63.5L 97 72.9L 139.3 126.4ZM 97 72.9L 118 142.5L 136.1 133.2L 115 63.5ZM 136.1 133.2L 93.2 77.4L 75.6 87.3L 118 142.5ZM 75.6 87.3L 101.1 154.2L 118.8 144.5L 93.2 77.4ZM 118.8 144.5L 79 90.5L 61 99.9L 101.1 154.2ZM 61 99.9L 82.3 163.7L 100.2 154.4L 79 90.5ZM 100.2 154.4L 60 99.4L 41.5 108L 82.3 163.7ZM 41.5 108L 51.8 150.3L 70.4 142L 60 99.4ZM 70.4 142L 49.4 111.2L 25.8 112L 51.8 150.3ZM 25.8 112L 11.6 136.7L 34.6 136.8L 49.4 111.2ZM 34.6 136.8L 29 126.8L 11.5 136.6L 11.6 136.7Z" fill-rule="nonzero"></path></g></g></g><g id="g-root-4.cu_sy_meugigxm5q86-fill" data-item-order="999889754" data-item-id="4.cu_sy_meugigxm5q86" data-item-class="Part Indexed Fill Stroke" data-item-index="4" data-renderer-id="0" transform="translate(192, 265.685546875)"><g id="4.cu_sy_meugigxm5q86-fill" stroke="none" fill="#fde6cf"><g><path d="M 23.4 5.814026L 16.6 6.214026L 14.9 26.414026L 24.7 25.714026ZM 14.9 26.414026L 59.1 36.714026L 58.4 16.014026L 16.6 6.214026ZM 58.4 16.014026L 16.7 28.714026L 19.4 48.814026L 59.1 36.714026ZM 19.4 48.814026L 91.4 51.414026L 88.7 31.314026L 16.7 28.714026ZM 88.7 31.314026L 24.6 51.214026L 27.7 71.214026L 91.4 51.414026ZM 27.7 71.214026L 98 70.314026L 95.1 50.314026L 24.6 51.214026ZM 95.1 50.314026L 34.9 67.014026L 37.7 86.914026L 98 70.314026ZM 37.7 86.914026L 106.3 85.914026L 102.5 66.014026L 34.9 67.014026ZM 102.5 66.014026L 40.2 89.214026L 43.6 109.314026L 106.3 85.914026ZM 43.6 109.314026L 115.3 111.114026L 113.2 91.114026L 40.2 89.214026ZM 113.2 91.114026L 41.6 108.614026L 44.5 128.514026L 115.3 111.114026ZM 44.5 128.514026L 124.9 124.614026L 121.6 104.714026L 41.6 108.614026ZM 121.6 104.714026L 52.3 124.714026L 53.9 145.114026L 124.9 124.614026ZM 53.9 145.114026L 127.2 154.314026L 125.6 133.914026L 52.3 124.714026ZM 125.6 133.914026L 57.3 153.414026L 60.5 173.314026L 127.2 154.314026ZM 60.5 173.314026L 109.9 171.514026L 106.1 151.614026L 57.3 153.414026ZM 106.1 151.614026L 66.6 165.414026L 61.1 188.614026L 109.9 171.514026ZM 61.1 188.614026L 78.3 206.714026L 86.5 186.314026L 66.6 165.414026ZM 86.5 186.314026L 72.5 187.014026L 73.5 207.014026L 78.3 206.714026Z" fill-rule="nonzero"></path></g></g></g><g id="g-root-4.cu_sy_meugigxm5q86-fill" data-item-order="999889754" data-item-id="4.cu_sy_meugigxm5q86" data-item-class="Part Indexed Fill Stroke" data-item-index="4" data-renderer-id="0" transform="translate(192, 265.685546875)"><g id="4.cu_sy_meugigxm5q86-fill" stroke="none" fill="#fde6cf"><g><path d="M 23.4 5.814026L 16.6 6.214026L 14.9 26.414026L 24.7 25.714026ZM 14.9 26.414026L 59.1 36.714026L 58.4 16.014026L 16.6 6.214026ZM 58.4 16.014026L 16.7 28.714026L 19.4 48.814026L 59.1 36.714026ZM 19.4 48.814026L 91.4 51.414026L 88.7 31.314026L 16.7 28.714026ZM 88.7 31.314026L 24.6 51.214026L 27.7 71.214026L 91.4 51.414026ZM 27.7 71.214026L 98 70.314026L 95.1 50.314026L 24.6 51.214026ZM 95.1 50.314026L 34.9 67.014026L 37.7 86.914026L 98 70.314026ZM 37.7 86.914026L 106.3 85.914026L 102.5 66.014026L 34.9 67.014026ZM 102.5 66.014026L 40.2 89.214026L 43.6 109.314026L 106.3 85.914026ZM 43.6 109.314026L 115.3 111.114026L 113.2 91.114026L 40.2 89.214026ZM 113.2 91.114026L 41.6 108.614026L 44.5 128.514026L 115.3 111.114026ZM 44.5 128.514026L 124.9 124.614026L 121.6 104.714026L 41.6 108.614026ZM 121.6 104.714026L 52.3 124.714026L 53.9 145.114026L 124.9 124.614026ZM 53.9 145.114026L 127.2 154.314026L 125.6 133.914026L 52.3 124.714026ZM 125.6 133.914026L 57.3 153.414026L 60.5 173.314026L 127.2 154.314026ZM 60.5 173.314026L 109.9 171.514026L 106.1 151.614026L 57.3 153.414026ZM 106.1 151.614026L 66.6 165.414026L 61.1 188.614026L 109.9 171.514026ZM 61.1 188.614026L 78.3 206.714026L 86.5 186.314026L 66.6 165.414026ZM 86.5 186.314026L 72.5 187.014026L 73.5 207.014026L 78.3 206.714026Z" fill-rule="nonzero"></path></g></g></g><g id="g-root-3.cu_sy_qunymwxm5pfx-fill" data-item-order="999889756" data-item-id="3.cu_sy_qunymwxm5pfx" data-item-class="Part Indexed Fill Stroke" data-item-index="3" data-renderer-id="0" transform="translate(257.025390625, 393.8125)"><g id="3.cu_sy_qunymwxm5pfx-fill" stroke="none" fill="#fff9ce"><g><path d="M 21.574609 65.788477L 14.174609 68.988477L 27.774609 84.888477L 29.674609 84.088477ZM 27.774609 84.888477L 51.674609 47.988477L 32.474609 40.888477L 14.174609 68.988477ZM 32.474609 40.888477L 27.074609 80.388477L 46.574609 84.988477L 51.674609 47.988477ZM 46.574609 84.988477L 71.374609 12.488477L 51.174609 9.588477L 27.074609 80.388477ZM 51.174609 9.588477L 54.074609 81.788477L 74.174609 84.788477L 71.374609 12.488477ZM 74.174609 84.788477L 98.074609 14.888477L 78.174609 11.188477L 54.074609 81.788477ZM 78.174609 11.188477L 75.674609 75.988477L 95.474609 79.688477L 98.074609 14.888477ZM 95.474609 79.688477L 117.974609 13.588477L 98.274609 9.288477L 75.674609 75.988477ZM 98.274609 9.288477L 91.174609 76.988477L 110.874609 81.088477L 117.974609 13.588477ZM 110.874609 81.088477L 133.774609 8.288477L 113.474609 6.088477L 91.174609 76.988477ZM 113.474609 6.088477L 119.774609 78.688477L 139.974609 80.388477L 133.774609 8.288477ZM 139.974609 80.388477L 156.774609 13.888477L 136.974609 10.788477L 119.774609 78.688477ZM 136.974609 10.788477L 132.774609 77.488477L 152.574609 81.588477L 156.774609 13.888477ZM 152.574609 81.588477L 177.274609 13.188477L 157.374609 9.488477L 132.774609 77.488477ZM 157.374609 9.488477L 156.374609 77.488477L 176.274609 82.588477L 177.274609 13.188477ZM 176.274609 82.588477L 197.574609 42.488477L 177.674609 37.288477L 156.374609 77.488477ZM 177.674609 37.288477L 176.374609 78.388477L 196.074609 88.788477L 197.574609 42.488477ZM 196.074609 88.788477L 218.874609 72.288477L 195.074609 64.888477L 176.374609 78.388477ZM 195.074609 64.888477L 202.074609 84.888477L 220.974609 78.288477L 218.874609 72.288477Z" fill-rule="nonzero"></path></g></g></g><g id="g-root-3.cu_sy_qunymwxm5pfx-fill" data-item-order="999889756" data-item-id="3.cu_sy_qunymwxm5pfx" data-item-class="Part Indexed Fill Stroke" data-item-index="3" data-renderer-id="0" transform="translate(257.025390625, 393.8125)"><g id="3.cu_sy_qunymwxm5pfx-fill" stroke="none" fill="#fff9ce"><g><path d="M 21.574609 65.788477L 14.174609 68.988477L 27.774609 84.888477L 29.674609 84.088477ZM 27.774609 84.888477L 51.674609 47.988477L 32.474609 40.888477L 14.174609 68.988477ZM 32.474609 40.888477L 27.074609 80.388477L 46.574609 84.988477L 51.674609 47.988477ZM 46.574609 84.988477L 71.374609 12.488477L 51.174609 9.588477L 27.074609 80.388477ZM 51.174609 9.588477L 54.074609 81.788477L 74.174609 84.788477L 71.374609 12.488477ZM 74.174609 84.788477L 98.074609 14.888477L 78.174609 11.188477L 54.074609 81.788477ZM 78.174609 11.188477L 75.674609 75.988477L 95.474609 79.688477L 98.074609 14.888477ZM 95.474609 79.688477L 117.974609 13.588477L 98.274609 9.288477L 75.674609 75.988477ZM 98.274609 9.288477L 91.174609 76.988477L 110.874609 81.088477L 117.974609 13.588477ZM 110.874609 81.088477L 133.774609 8.288477L 113.474609 6.088477L 91.174609 76.988477ZM 113.474609 6.088477L 119.774609 78.688477L 139.974609 80.388477L 133.774609 8.288477ZM 139.974609 80.388477L 156.774609 13.888477L 136.974609 10.788477L 119.774609 78.688477ZM 136.974609 10.788477L 132.774609 77.488477L 152.574609 81.588477L 156.774609 13.888477ZM 152.574609 81.588477L 177.274609 13.188477L 157.374609 9.488477L 132.774609 77.488477ZM 157.374609 9.488477L 156.374609 77.488477L 176.274609 82.588477L 177.274609 13.188477ZM 176.274609 82.588477L 197.574609 42.488477L 177.674609 37.288477L 156.374609 77.488477ZM 177.674609 37.288477L 176.374609 78.388477L 196.074609 88.788477L 197.574609 42.488477ZM 196.074609 88.788477L 218.874609 72.288477L 195.074609 64.888477L 176.374609 78.388477ZM 195.074609 64.888477L 202.074609 84.888477L 220.974609 78.288477L 218.874609 72.288477Z" fill-rule="nonzero"></path></g></g></g><g id="g-root-2.cu_sy_qunymwxm5pfw-fill" data-item-order="999889758" data-item-id="2.cu_sy_qunymwxm5pfw" data-item-class="Part Indexed Fill Stroke" data-item-index="2" data-renderer-id="0" transform="translate(415.1396484375, 265.685546875)"><g id="2.cu_sy_qunymwxm5pfw-fill" stroke="none" fill="#ecf7d5"><g><path d="M 68.560352 205.914026L 66.060352 207.114026L 63.860352 183.214026L 41.160352 159.314026L 31.660352 177.914026L 50.660352 196.514026L 52.160352 194.414026ZM 31.660352 177.914026L 63.660352 183.414026L 71.760352 164.414026L 41.160352 159.314026ZM 71.760352 164.414026L 20.160352 125.914026L 10.860352 143.914026L 63.660352 183.414026ZM 10.860352 143.914026L 74.460352 164.514026L 82.760352 146.214026L 20.160352 125.914026ZM 82.760352 146.214026L 23.660352 110.614026L 14.560352 128.514026L 74.460352 164.514026ZM 14.560352 128.514026L 75.360352 153.714026L 85.960352 136.414026L 23.660352 110.614026ZM 85.960352 136.414026L 29.060352 87.614026L 19.160352 105.514026L 75.360352 153.714026ZM 19.160352 105.514026L 83.960352 125.714026L 92.160352 107.314026L 29.060352 87.614026ZM 92.160352 107.314026L 32.660352 71.914026L 25.160352 90.714026L 83.960352 125.714026ZM 25.160352 90.714026L 96.060352 107.214026L 104.060352 88.514026L 32.660352 71.914026ZM 104.060352 88.514026L 41.360352 47.714026L 33.360352 66.414026L 96.060352 107.214026ZM 33.360352 66.414026L 103.960352 83.414026L 111.360352 64.614026L 41.360352 47.714026ZM 111.360352 64.614026L 48.260352 28.914026L 40.660352 47.514026L 103.960352 83.414026ZM 40.660352 47.514026L 106.760352 65.114026L 115.760352 46.814026L 48.260352 28.914026ZM 115.760352 46.814026L 84.560352 22.914026L 74.760352 40.514026L 106.760352 65.114026ZM 74.760352 40.514026L 102.860352 51.214026L 124.160352 37.914026L 84.560352 22.914026ZM 124.160352 37.914026L 125.160352 27.614026L 129.760352 26.214026L 123.960352 7.114026L 121.860352 7.714026L 105.060352 28.314026L 102.860352 51.214026Z" fill-rule="nonzero"></path></g></g></g><g id="g-root-2.cu_sy_qunymwxm5pfw-fill" data-item-order="999889758" data-item-id="2.cu_sy_qunymwxm5pfw" data-item-class="Part Indexed Fill Stroke" data-item-index="2" data-renderer-id="0" transform="translate(415.1396484375, 265.685546875)"><g id="2.cu_sy_qunymwxm5pfw-fill" stroke="none" fill="#ecf7d5"><g><path d="M 68.560352 205.914026L 66.060352 207.114026L 63.860352 183.214026L 41.160352 159.314026L 31.660352 177.914026L 50.660352 196.514026L 52.160352 194.414026ZM 31.660352 177.914026L 63.660352 183.414026L 71.760352 164.414026L 41.160352 159.314026ZM 71.760352 164.414026L 20.160352 125.914026L 10.860352 143.914026L 63.660352 183.414026ZM 10.860352 143.914026L 74.460352 164.514026L 82.760352 146.214026L 20.160352 125.914026ZM 82.760352 146.214026L 23.660352 110.614026L 14.560352 128.514026L 74.460352 164.514026ZM 14.560352 128.514026L 75.360352 153.714026L 85.960352 136.414026L 23.660352 110.614026ZM 85.960352 136.414026L 29.060352 87.614026L 19.160352 105.514026L 75.360352 153.714026ZM 19.160352 105.514026L 83.960352 125.714026L 92.160352 107.314026L 29.060352 87.614026ZM 92.160352 107.314026L 32.660352 71.914026L 25.160352 90.714026L 83.960352 125.714026ZM 25.160352 90.714026L 96.060352 107.214026L 104.060352 88.514026L 32.660352 71.914026ZM 104.060352 88.514026L 41.360352 47.714026L 33.360352 66.414026L 96.060352 107.214026ZM 33.360352 66.414026L 103.960352 83.414026L 111.360352 64.614026L 41.360352 47.714026ZM 111.360352 64.614026L 48.260352 28.914026L 40.660352 47.514026L 103.960352 83.414026ZM 40.660352 47.514026L 106.760352 65.114026L 115.760352 46.814026L 48.260352 28.914026ZM 115.760352 46.814026L 84.560352 22.914026L 74.760352 40.514026L 106.760352 65.114026ZM 74.760352 40.514026L 102.860352 51.214026L 124.160352 37.914026L 84.560352 22.914026ZM 124.160352 37.914026L 125.160352 27.614026L 129.760352 26.214026L 123.960352 7.114026L 121.860352 7.714026L 105.060352 28.314026L 102.860352 51.214026Z" fill-rule="nonzero"></path></g></g></g><g id="g-root-1.cu_sy_qunymwxm5pfv-fill" data-item-order="999889760" data-item-id="1.cu_sy_qunymwxm5pfv" data-item-class="Part Indexed Indexed_1 Fill Stroke" data-item-index="1" data-renderer-id="0" transform="translate(362.2392578125, 142)"><g id="1.cu_sy_qunymwxm5pfv-fill" stroke="none" fill="#d5f7e8"><g><path d="M 169.660742 139.8L 173.760742 134L 160.460742 118.2L 153.260742 128.3ZM 160.460742 118.2L 121.960742 136.3L 133.660742 152.9L 173.760742 134ZM 133.660742 152.9L 161.360742 125.1L 148.260742 109.9L 121.960742 136.3ZM 148.260742 109.9L 90.560742 152.7L 104.960742 166.9L 161.360742 125.1ZM 104.960742 166.9L 146.560742 108L 132.160742 93.8L 90.560742 152.7ZM 132.160742 93.8L 72.460742 137.7L 87.160742 151.7L 146.560742 108ZM 87.160742 151.7L 125.260742 94.7L 110.160742 81.3L 72.460742 137.7ZM 110.160742 81.3L 53.760742 129.9L 68.360742 143.6L 125.260742 94.7ZM 68.360742 143.6L 109.260742 89.4L 95.360742 74.6L 53.760742 129.9ZM 95.360742 74.6L 36.160742 113.2L 48.960742 128.7L 109.260742 89.4ZM 48.960742 128.7L 96.860742 78.6L 83.760742 63.3L 36.160742 113.2ZM 83.760742 63.3L 22.860742 105.9L 37.960742 119.8L 96.860742 78.6ZM 37.960742 119.8L 70.960742 62.7L 55.660742 49.2L 22.860742 105.9ZM 55.660742 49.2L 2.060742 90.6L 15.960742 105.1L 70.960742 62.7ZM 15.960742 105.1L 63.060742 49.8L 49.860742 34.4L 2.060742 90.6ZM 49.860742 34.4L 8.060742 60.4L 21.660742 75.5L 63.060742 49.8ZM 21.660742 75.5L 44.560742 45.9L 36.760742 23.2L 8.060742 60.4ZM 36.760742 23.2L 6.060742 15.3L 12.760742 37.7L 44.560742 45.9ZM 12.760742 37.7L 25.660742 23.4L 10.760742 10.1L 6.060742 15.3Z" fill-rule="nonzero"></path></g></g></g><g id="g-root-1.cu_sy_qunymwxm5pfv-fill" data-item-order="999889760" data-item-id="1.cu_sy_qunymwxm5pfv" data-item-class="Part Indexed Indexed_1 Fill Stroke" data-item-index="1" data-renderer-id="0" transform="translate(362.2392578125, 142)"><g id="1.cu_sy_qunymwxm5pfv-fill" stroke="none" fill="#d5f7e8"><g><path d="M 169.660742 139.8L 173.760742 134L 160.460742 118.2L 153.260742 128.3ZM 160.460742 118.2L 121.960742 136.3L 133.660742 152.9L 173.760742 134ZM 133.660742 152.9L 161.360742 125.1L 148.260742 109.9L 121.960742 136.3ZM 148.260742 109.9L 90.560742 152.7L 104.960742 166.9L 161.360742 125.1ZM 104.960742 166.9L 146.560742 108L 132.160742 93.8L 90.560742 152.7ZM 132.160742 93.8L 72.460742 137.7L 87.160742 151.7L 146.560742 108ZM 87.160742 151.7L 125.260742 94.7L 110.160742 81.3L 72.460742 137.7ZM 110.160742 81.3L 53.760742 129.9L 68.360742 143.6L 125.260742 94.7ZM 68.360742 143.6L 109.260742 89.4L 95.360742 74.6L 53.760742 129.9ZM 95.360742 74.6L 36.160742 113.2L 48.960742 128.7L 109.260742 89.4ZM 48.960742 128.7L 96.860742 78.6L 83.760742 63.3L 36.160742 113.2ZM 83.760742 63.3L 22.860742 105.9L 37.960742 119.8L 96.860742 78.6ZM 37.960742 119.8L 70.960742 62.7L 55.660742 49.2L 22.860742 105.9ZM 55.660742 49.2L 2.060742 90.6L 15.960742 105.1L 70.960742 62.7ZM 15.960742 105.1L 63.060742 49.8L 49.860742 34.4L 2.060742 90.6ZM 49.860742 34.4L 8.060742 60.4L 21.660742 75.5L 63.060742 49.8ZM 21.660742 75.5L 44.560742 45.9L 36.760742 23.2L 8.060742 60.4ZM 36.760742 23.2L 6.060742 15.3L 12.760742 37.7L 44.560742 45.9ZM 12.760742 37.7L 25.660742 23.4L 10.760742 10.1L 6.060742 15.3Z" fill-rule="nonzero"></path></g></g></g><g id="g-root-tx_nonfunct_1lynfo8xm5og1-fill" data-item-order="1000000000" data-item-id="tx_nonfunct_1lynfo8xm5og1" data-item-class="Label Stroke Indexed" data-item-index="5" data-renderer-id="0" transform="translate(86, 50)"><g id="tx_nonfunct_1lynfo8xm5og1-fill" stroke="none" fill="#e15e5a"><g><text style="font: bold 20px &quot;Shantell Sans&quot;, cursive; white-space: pre;" font-weight="bold" font-size="20" font-family="'Shantell Sans', cursive"><tspan x="15.72" y="35.5" dominant-baseline="ideographic">Non-Functional </tspan><tspan x="32.98" y="59.5" dominant-baseline="ideographic">Requirements</tspan></text></g></g></g><g id="g-root-tx_stakehol_meugigxm5q88-fill" data-item-order="1000000000" data-item-id="tx_stakehol_meugigxm5q88" data-item-class="Label Stroke Title" data-item-index="none" data-renderer-id="0" transform="translate(146, 2)"><g id="tx_stakehol_meugigxm5q88-fill" stroke="none" fill="#484848"><g><text style="font: bold 25px &quot;Shantell Sans&quot;, cursive; white-space: pre;" font-weight="bold" font-size="25" font-family="'Shantell Sans', cursive"><tspan x="16.23" y="44.5" dominant-baseline="ideographic">Stakeholders and Requirements</tspan></text></g></g></g><g id="g-root-tx_teamswit_1utnyu0xm5q19-fill" data-item-order="1000000000" data-item-id="tx_teamswit_1utnyu0xm5q19" data-item-class="Label Stroke Indexed Indexed_1 ColorFillBlack ColorStrokeBlack" data-item-index="1" data-renderer-id="0" transform="translate(470, 110)"><g id="tx_teamswit_1utnyu0xm5q19-fill" stroke="none" fill="#484848"><g><text style="font: 15px &quot;Shantell Sans&quot;, cursive; white-space: pre;" font-weight="15px" font-size="&quot;Shantell" font-family="Sans', cursive"><tspan x="12" y="29" dominant-baseline="ideographic">Teams within the </tspan><tspan x="12" y="47" dominant-baseline="ideographic">organization </tspan><tspan x="12" y="65" dominant-baseline="ideographic">contributing to the </tspan><tspan x="12" y="83" dominant-baseline="ideographic">project</tspan></text></g></g></g><g id="g-root-tx_teamswit_1utnyu0xm5q19-fill" data-item-order="1000000000" data-item-id="tx_teamswit_1utnyu0xm5q19" data-item-class="Label Stroke Indexed Indexed_1 ColorFillBlack ColorStrokeBlack" data-item-index="1" data-renderer-id="0" transform="translate(470, 110)"><g id="tx_teamswit_1utnyu0xm5q19-fill" stroke="none" fill="#484848"><g><text style="font: 15px &quot;Shantell Sans&quot;, cursive; white-space: pre;" font-weight="15px" font-size="&quot;Shantell" font-family="Sans', cursive"><tspan x="12" y="29" dominant-baseline="ideographic">Teams within the </tspan><tspan x="12" y="47" dominant-baseline="ideographic">organization </tspan><tspan x="12" y="65" dominant-baseline="ideographic">contributing to the </tspan><tspan x="12" y="83" dominant-baseline="ideographic">project</tspan></text></g></g></g><g id="g-root-csv_8zw2gxm8hsd-fill" data-item-order="1000000000" data-item-id="csv_8zw2gxm8hsd" data-item-class="Icon Stroke Indexed InsideFill" data-item-index="5" data-renderer-id="0" transform="translate(272, 212)"></g><g id="g-root-csv_8zw2gxm8hsd-fill" data-item-order="1000000000" data-item-id="csv_8zw2gxm8hsd" data-item-class="Icon Stroke Indexed InsideFill" data-item-index="5" data-renderer-id="0" transform="translate(272, 212)"></g><g id="g-root-chat_8vw93sxm9xqc-fill" data-item-order="1000000000" data-item-id="chat_8vw93sxm9xqc" data-item-class="Icon Stroke Indexed Indexed_1 InsideFill" data-item-index="1" data-renderer-id="0" transform="translate(405, 212)"></g><g id="g-root-chat_8vw93sxm9xqc-fill" data-item-order="1000000000" data-item-id="chat_8vw93sxm9xqc" data-item-class="Icon Stroke Indexed Indexed_1 InsideFill" data-item-index="1" data-renderer-id="0" transform="translate(405, 212)"></g><g id="g-root-tx_astructu_4o6x3sxm5pfn-fill" data-item-order="1000000000" data-item-id="tx_astructu_4o6x3sxm5pfn" data-item-class="Label Stroke Indexed ColorFillBlack ColorStrokeBlack" data-item-index="3" data-renderer-id="0" transform="translate(272, 542)"><g id="tx_astructu_4o6x3sxm5pfn-fill" stroke="none" fill="#484848"><g><text style="font: 15px &quot;Shantell Sans&quot;, cursive; white-space: pre;" font-weight="15px" font-size="&quot;Shantell" font-family="Sans', cursive"><tspan x="16.94" y="32" dominant-baseline="ideographic">A structured approach </tspan><tspan x="48.75" y="50" dominant-baseline="ideographic">to prioritizing </tspan><tspan x="31.54" y="68" dominant-baseline="ideographic">stakeholder needs</tspan></text></g></g></g><g id="g-root-tx_qualitat_hznfh4xm5nup-fill" data-item-order="1000000000" data-item-id="tx_qualitat_hznfh4xm5nup" data-item-class="Label Stroke Indexed ColorFillBlack ColorStrokeBlack" data-item-index="5" data-renderer-id="0" transform="translate(86, 110)"><g id="tx_qualitat_hznfh4xm5nup-fill" stroke="none" fill="#484848"><g><text style="font: 15px &quot;Shantell Sans&quot;, cursive; white-space: pre;" font-weight="15px" font-size="&quot;Shantell" font-family="Sans', cursive"><tspan x="20.07" y="32" dominant-baseline="ideographic">Qualitative attributes </tspan><tspan x="21.87" y="50" dominant-baseline="ideographic">like performance and </tspan><tspan x="119.2" y="68" dominant-baseline="ideographic">security</tspan></text></g></g></g><g id="g-root-tx_qualitat_hznfh4xm5nup-fill" data-item-order="1000000000" data-item-id="tx_qualitat_hznfh4xm5nup" data-item-class="Label Stroke Indexed ColorFillBlack ColorStrokeBlack" data-item-index="5" data-renderer-id="0" transform="translate(86, 110)"><g id="tx_qualitat_hznfh4xm5nup-fill" stroke="none" fill="#484848"><g><text style="font: 15px &quot;Shantell Sans&quot;, cursive; white-space: pre;" font-weight="15px" font-size="&quot;Shantell" font-family="Sans', cursive"><tspan x="20.07" y="32" dominant-baseline="ideographic">Qualitative attributes </tspan><tspan x="21.87" y="50" dominant-baseline="ideographic">like performance and </tspan><tspan x="119.2" y="68" dominant-baseline="ideographic">security</tspan></text></g></g></g><g id="g-root-tx_function_1qegxsoxm5nnq-fill" data-item-order="1000000000" data-item-id="tx_function_1qegxsoxm5nnq" data-item-class="Label Stroke Indexed" data-item-index="4" data-renderer-id="0" transform="translate(26, 284)"><g id="tx_function_1qegxsoxm5nnq-fill" stroke="none" fill="#dd8433"><g><text style="font: bold 20px &quot;Shantell Sans&quot;, cursive; white-space: pre;" font-weight="bold" font-size="20" font-family="'Shantell Sans', cursive"><tspan x="54.14" y="35.5" dominant-baseline="ideographic">Functional </tspan><tspan x="20.98" y="59.5" dominant-baseline="ideographic">Requirements</tspan></text></g></g></g><g id="g-root-tx_function_1qegxsoxm5nnq-fill" data-item-order="1000000000" data-item-id="tx_function_1qegxsoxm5nnq" data-item-class="Label Stroke Indexed" data-item-index="4" data-renderer-id="0" transform="translate(26, 284)"><g id="tx_function_1qegxsoxm5nnq-fill" stroke="none" fill="#dd8433"><g><text style="font: bold 20px &quot;Shantell Sans&quot;, cursive; white-space: pre;" font-weight="bold" font-size="20" font-family="'Shantell Sans', cursive"><tspan x="54.14" y="35.5" dominant-baseline="ideographic">Functional </tspan><tspan x="20.98" y="59.5" dominant-baseline="ideographic">Requirements</tspan></text></g></g></g><g id="g-root-1_m7crh4xm9w5e-fill" data-item-order="1000000000" data-item-id="1_m7crh4xm9w5e" data-item-class="Icon Stroke Title" data-item-index="none" data-renderer-id="0" transform="translate(326, 284)"></g><g id="g-root-1_m7crh4xm9w5e-fill" data-item-order="1000000000" data-item-id="1_m7crh4xm9w5e" data-item-class="Icon Stroke Title" data-item-index="none" data-renderer-id="0" transform="translate(326, 284)"></g><g id="g-root-tx_external_1lynfo8xm5og0-fill" data-item-order="1000000000" data-item-id="tx_external_1lynfo8xm5og0" data-item-class="Label Stroke Indexed" data-item-index="2" data-renderer-id="0" transform="translate(542.076171875, 284)"><g id="tx_external_1lynfo8xm5og0-fill" stroke="none" fill="#93c131"><g><text style="font: bold 20px &quot;Shantell Sans&quot;, cursive; white-space: pre;" font-weight="bold" font-size="20" font-family="'Shantell Sans', cursive"><tspan x="12" y="35.5" dominant-baseline="ideographic">External </tspan><tspan x="12" y="59.5" dominant-baseline="ideographic">Stakeholders</tspan></text></g></g></g><g id="g-root-tx_external_1lynfo8xm5og0-fill" data-item-order="1000000000" data-item-id="tx_external_1lynfo8xm5og0" data-item-class="Label Stroke Indexed" data-item-index="2" data-renderer-id="0" transform="translate(542.076171875, 284)"><g id="tx_external_1lynfo8xm5og0-fill" stroke="none" fill="#93c131"><g><text style="font: bold 20px &quot;Shantell Sans&quot;, cursive; white-space: pre;" font-weight="bold" font-size="20" font-family="'Shantell Sans', cursive"><tspan x="12" y="35.5" dominant-baseline="ideographic">External </tspan><tspan x="12" y="59.5" dominant-baseline="ideographic">Stakeholders</tspan></text></g></g></g><g id="g-root-tx_essentia_940f88xm5one-fill" data-item-order="1000000000" data-item-id="tx_essentia_940f88xm5one" data-item-class="Label Stroke Indexed ColorFillBlack ColorStrokeBlack" data-item-index="4" data-renderer-id="0" transform="translate(2, 344)"><g id="tx_essentia_940f88xm5one-fill" stroke="none" fill="#484848"><g><text style="font: 15px &quot;Shantell Sans&quot;, cursive; white-space: pre;" font-weight="15px" font-size="&quot;Shantell" font-family="Sans', cursive"><tspan x="25.88" y="32" dominant-baseline="ideographic">Essential features and </tspan><tspan x="22.65" y="50" dominant-baseline="ideographic">capabilities the project </tspan><tspan x="98.48" y="68" dominant-baseline="ideographic">must deliver</tspan></text></g></g></g><g id="g-root-tx_essentia_940f88xm5one-fill" data-item-order="1000000000" data-item-id="tx_essentia_940f88xm5one" data-item-class="Label Stroke Indexed ColorFillBlack ColorStrokeBlack" data-item-index="4" data-renderer-id="0" transform="translate(2, 344)"><g id="tx_essentia_940f88xm5one-fill" stroke="none" fill="#484848"><g><text style="font: 15px &quot;Shantell Sans&quot;, cursive; white-space: pre;" font-weight="15px" font-size="&quot;Shantell" font-family="Sans', cursive"><tspan x="25.88" y="32" dominant-baseline="ideographic">Essential features and </tspan><tspan x="22.65" y="50" dominant-baseline="ideographic">capabilities the project </tspan><tspan x="98.48" y="68" dominant-baseline="ideographic">must deliver</tspan></text></g></g></g><g id="g-root-chec_8zw2gxm8hse-fill" data-item-order="1000000000" data-item-id="chec_8zw2gxm8hse" data-item-class="Icon Stroke Indexed InsideFill" data-item-index="4" data-renderer-id="0" transform="translate(236, 332)"></g><g id="g-root-chec_8zw2gxm8hse-fill" data-item-order="1000000000" data-item-id="chec_8zw2gxm8hse" data-item-class="Icon Stroke Indexed InsideFill" data-item-index="4" data-renderer-id="0" transform="translate(236, 332)"></g><g id="g-root-netw_dbpr88xm9wy3-fill" data-item-order="1000000000" data-item-id="netw_dbpr88xm9wy3" data-item-class="Icon Stroke Indexed InsideFill" data-item-index="2" data-renderer-id="0" transform="translate(440, 332)"></g><g id="g-root-netw_dbpr88xm9wy3-fill" data-item-order="1000000000" data-item-id="netw_dbpr88xm9wy3" data-item-class="Icon Stroke Indexed InsideFill" data-item-index="2" data-renderer-id="0" transform="translate(440, 332)"></g><g id="g-root-tx_entities_4o6x3sxm5pfo-fill" data-item-order="1000000000" data-item-id="tx_entities_4o6x3sxm5pfo" data-item-class="Label Stroke Indexed ColorFillBlack ColorStrokeBlack" data-item-index="2" data-renderer-id="0" transform="translate(542, 344)"><g id="tx_entities_4o6x3sxm5pfo-fill" stroke="none" fill="#484848"><g><text style="font: 15px &quot;Shantell Sans&quot;, cursive; white-space: pre;" font-weight="15px" font-size="&quot;Shantell" font-family="Sans', cursive"><tspan x="12" y="29" dominant-baseline="ideographic">Entities outside the </tspan><tspan x="12" y="47" dominant-baseline="ideographic">organization </tspan><tspan x="12" y="65" dominant-baseline="ideographic">interacting with the </tspan><tspan x="12" y="83" dominant-baseline="ideographic">project</tspan></text></g></g></g><g id="g-root-tx_entities_4o6x3sxm5pfo-fill" data-item-order="1000000000" data-item-id="tx_entities_4o6x3sxm5pfo" data-item-class="Label Stroke Indexed ColorFillBlack ColorStrokeBlack" data-item-index="2" data-renderer-id="0" transform="translate(542, 344)"><g id="tx_entities_4o6x3sxm5pfo-fill" stroke="none" fill="#484848"><g><text style="font: 15px &quot;Shantell Sans&quot;, cursive; white-space: pre;" font-weight="15px" font-size="&quot;Shantell" font-family="Sans', cursive"><tspan x="12" y="29" dominant-baseline="ideographic">Entities outside the </tspan><tspan x="12" y="47" dominant-baseline="ideographic">organization </tspan><tspan x="12" y="65" dominant-baseline="ideographic">interacting with the </tspan><tspan x="12" y="83" dominant-baseline="ideographic">project</tspan></text></g></g></g><g id="g-root-tx_internal_1d30ffcxm5p8q-fill" data-item-order="1000000000" data-item-id="tx_internal_1d30ffcxm5p8q" data-item-class="Label Stroke Indexed Indexed_1" data-item-index="1" data-renderer-id="0" transform="translate(470, 50)"><g id="tx_internal_1d30ffcxm5p8q-fill" stroke="none" fill="#3bc482"><g><text style="font: bold 20px &quot;Shantell Sans&quot;, cursive; white-space: pre;" font-weight="bold" font-size="20" font-family="'Shantell Sans', cursive"><tspan x="12" y="35.5" dominant-baseline="ideographic">Internal </tspan><tspan x="12" y="59.5" dominant-baseline="ideographic">Stakeholders</tspan></text></g></g></g><g id="g-root-tx_internal_1d30ffcxm5p8q-fill" data-item-order="1000000000" data-item-id="tx_internal_1d30ffcxm5p8q" data-item-class="Label Stroke Indexed Indexed_1" data-item-index="1" data-renderer-id="0" transform="translate(470, 50)"><g id="tx_internal_1d30ffcxm5p8q-fill" stroke="none" fill="#3bc482"><g><text style="font: bold 20px &quot;Shantell Sans&quot;, cursive; white-space: pre;" font-weight="bold" font-size="20" font-family="'Shantell Sans', cursive"><tspan x="12" y="35.5" dominant-baseline="ideographic">Internal </tspan><tspan x="12" y="59.5" dominant-baseline="ideographic">Stakeholders</tspan></text></g></g></g><g id="g-root-9_94mwbcxm8gzo-fill" data-item-order="1000000000" data-item-id="9_94mwbcxm8gzo" data-item-class="Icon Stroke Indexed InsideFill" data-item-index="3" data-renderer-id="0" transform="translate(338, 406)"></g><g id="g-root-tx_stakehol_meugigxm5q88-fill" data-item-order="1000000000" data-item-id="tx_stakehol_meugigxm5q88" data-item-class="Label Stroke Title" data-item-index="none" data-renderer-id="0" transform="translate(146, 2)"><g id="tx_stakehol_meugigxm5q88-fill" stroke="none" fill="#484848"><g><text style="font: bold 25px &quot;Shantell Sans&quot;, cursive; white-space: pre;" font-weight="bold" font-size="25" font-family="'Shantell Sans', cursive"><tspan x="16.23" y="44.5" dominant-baseline="ideographic">Stakeholders and Requirements</tspan></text></g></g></g><g id="g-root-tx_requirem_1qegxsoxm5nnr-fill" data-item-order="1000000000" data-item-id="tx_requirem_1qegxsoxm5nnr" data-item-class="Label Stroke Indexed" data-item-index="3" data-renderer-id="0" transform="translate(284, 482)"><g id="tx_requirem_1qegxsoxm5nnr-fill" stroke="none" fill="#e3cd09"><g><text style="font: bold 20px &quot;Shantell Sans&quot;, cursive; white-space: pre;" font-weight="bold" font-size="20" font-family="'Shantell Sans', cursive"><tspan x="13.05" y="35.5" dominant-baseline="ideographic">Requirements </tspan><tspan x="48.54" y="59.5" dominant-baseline="ideographic">Matrix</tspan></text></g></g></g><g id="g-root-tx_requirem_1qegxsoxm5nnr-fill" data-item-order="1000000000" data-item-id="tx_requirem_1qegxsoxm5nnr" data-item-class="Label Stroke Indexed" data-item-index="3" data-renderer-id="0" transform="translate(284, 482)"><g id="tx_requirem_1qegxsoxm5nnr-fill" stroke="none" fill="#e3cd09"><g><text style="font: bold 20px &quot;Shantell Sans&quot;, cursive; white-space: pre;" font-weight="bold" font-size="20" font-family="'Shantell Sans', cursive"><tspan x="13.05" y="35.5" dominant-baseline="ideographic">Requirements </tspan><tspan x="48.54" y="59.5" dominant-baseline="ideographic">Matrix</tspan></text></g></g></g><g id="g-root-tx_astructu_4o6x3sxm5pfn-fill" data-item-order="1000000000" data-item-id="tx_astructu_4o6x3sxm5pfn" data-item-class="Label Stroke Indexed ColorFillBlack ColorStrokeBlack" data-item-index="3" data-renderer-id="0" transform="translate(272, 542)"><g id="tx_astructu_4o6x3sxm5pfn-fill" stroke="none" fill="#484848"><g><text style="font: 15px &quot;Shantell Sans&quot;, cursive; white-space: pre;" font-weight="15px" font-size="&quot;Shantell" font-family="Sans', cursive"><tspan x="16.94" y="32" dominant-baseline="ideographic">A structured approach </tspan><tspan x="48.75" y="50" dominant-baseline="ideographic">to prioritizing </tspan><tspan x="31.54" y="68" dominant-baseline="ideographic">stakeholder needs</tspan></text></g></g></g><g id="g-root-tx_nonfunct_1lynfo8xm5og1-fill" data-item-order="1000000000" data-item-id="tx_nonfunct_1lynfo8xm5og1" data-item-class="Label Stroke Indexed" data-item-index="5" data-renderer-id="0" transform="translate(86, 50)"><g id="tx_nonfunct_1lynfo8xm5og1-fill" stroke="none" fill="#e15e5a"><g><text style="font: bold 20px &quot;Shantell Sans&quot;, cursive; white-space: pre;" font-weight="bold" font-size="20" font-family="'Shantell Sans', cursive"><tspan x="15.72" y="35.5" dominant-baseline="ideographic">Non-Functional </tspan><tspan x="32.98" y="59.5" dominant-baseline="ideographic">Requirements</tspan></text></g></g></g><g id="g-root-9_94mwbcxm8gzo-fill" data-item-order="1000000000" data-item-id="9_94mwbcxm8gzo" data-item-class="Icon Stroke Indexed InsideFill" data-item-index="3" data-renderer-id="0" transform="translate(338, 406)"></g><g id="g-root-5.cu_sy_meugigxm5q87-stroke" data-item-order="999889752" data-item-id="5.cu_sy_meugigxm5q87" data-item-class="Part Indexed Fill Stroke" data-item-index="5" data-renderer-id="0" transform="translate(192, 142)"><g id="5.cu_sy_meugigxm5q87-stroke" fill="none" stroke-linecap="round" stroke-linejoin="round" stroke-miterlimit="4" stroke="#484848" stroke-width="4"><g><path d="M 180.2 10C 170 19.5 157.6 26.2 146.5 34.5C 135.3 42.9 123 49.9 112.5 59.2C 102.9 67.8 91.2 73.8 81.2 81.9C 70.2 91 58.1 98.8 46.5 107.1C 34.4 116 22.4 125.1 10 133.7C 24.7 140.2 41.1 142 55.8 148.6C 68.2 154.1 81.7 157.1 94.6 161.2C 108.6 152 121.5 141.2 135.3 131.6C 150.5 121.1 164.7 109.1 180.2 99C 179.6 69.3 178.6 39.6 180.2 10"></path><path d="M 180.2391 10L 10 133.686L 94.6439 161.1885L 180.239 99L 180.2391 10Z"></path></g></g></g><g id="g-root-5.cu_sy_meugigxm5q87-stroke" data-item-order="999889752" data-item-id="5.cu_sy_meugigxm5q87" data-item-class="Part Indexed Fill Stroke" data-item-index="5" data-renderer-id="0" transform="translate(192, 142)"><g id="5.cu_sy_meugigxm5q87-stroke" fill="none" stroke-linecap="round" stroke-linejoin="round" stroke-miterlimit="4" stroke="#484848" stroke-width="4"><g><path d="M 180.2 10C 170 19.5 157.6 26.2 146.5 34.5C 135.3 42.9 123 49.9 112.5 59.2C 102.9 67.8 91.2 73.8 81.2 81.9C 70.2 91 58.1 98.8 46.5 107.1C 34.4 116 22.4 125.1 10 133.7C 24.7 140.2 41.1 142 55.8 148.6C 68.2 154.1 81.7 157.1 94.6 161.2C 108.6 152 121.5 141.2 135.3 131.6C 150.5 121.1 164.7 109.1 180.2 99C 179.6 69.3 178.6 39.6 180.2 10"></path><path d="M 180.2391 10L 10 133.686L 94.6439 161.1885L 180.239 99L 180.2391 10Z"></path></g></g></g><g id="g-root-4.cu_sy_meugigxm5q86-stroke" data-item-order="999889754" data-item-id="4.cu_sy_meugigxm5q86" data-item-class="Part Indexed Fill Stroke" data-item-index="4" data-renderer-id="0" transform="translate(192, 265.685546875)"><g id="4.cu_sy_meugigxm5q86-stroke" fill="none" stroke-linecap="round" stroke-linejoin="round" stroke-miterlimit="4" stroke="#484848" stroke-width="4"><g><path d="M 10 10.014026C 14.4 26.614026 20.1 42.714026 25.9 58.814026C 31.7 75.214026 35.9 92.114026 42 108.414026C 48.5 125.914026 54.5 143.714026 59.3 161.814026C 63.6 178.114026 69.3 194.214026 75 210.114026C 81.8 197.614026 92.5 187.514026 100.2 175.414026C 108.5 162.514026 119 151.014026 127.3 138.114026C 122.6 120.214026 116.3 102.714026 110.1 85.214026C 104.6 69.414026 99.1 53.614026 94.6 37.514026C 80.4 34.714026 67.1 28.714026 53.3 24.114026C 38.9 19.214026 24.5 14.414026 10 10.014026"></path><path d="M 10 10L 75.0256 210.1281L 127.3383 138.1256L 94.6439 37.5025L 10 10Z"></path></g></g></g><g id="g-root-4.cu_sy_meugigxm5q86-stroke" data-item-order="999889754" data-item-id="4.cu_sy_meugigxm5q86" data-item-class="Part Indexed Fill Stroke" data-item-index="4" data-renderer-id="0" transform="translate(192, 265.685546875)"><g id="4.cu_sy_meugigxm5q86-stroke" fill="none" stroke-linecap="round" stroke-linejoin="round" stroke-miterlimit="4" stroke="#484848" stroke-width="4"><g><path d="M 10 10.014026C 14.4 26.614026 20.1 42.714026 25.9 58.814026C 31.7 75.214026 35.9 92.114026 42 108.414026C 48.5 125.914026 54.5 143.714026 59.3 161.814026C 63.6 178.114026 69.3 194.214026 75 210.114026C 81.8 197.614026 92.5 187.514026 100.2 175.414026C 108.5 162.514026 119 151.014026 127.3 138.114026C 122.6 120.214026 116.3 102.714026 110.1 85.214026C 104.6 69.414026 99.1 53.614026 94.6 37.514026C 80.4 34.714026 67.1 28.714026 53.3 24.114026C 38.9 19.214026 24.5 14.414026 10 10.014026"></path><path d="M 10 10L 75.0256 210.1281L 127.3383 138.1256L 94.6439 37.5025L 10 10Z"></path></g></g></g><g id="g-root-3.cu_sy_qunymwxm5pfx-stroke" data-item-order="999889756" data-item-id="3.cu_sy_qunymwxm5pfx" data-item-class="Part Indexed Fill Stroke" data-item-index="3" data-renderer-id="0" transform="translate(257.025390625, 393.8125)"><g id="3.cu_sy_qunymwxm5pfx-stroke" fill="none" stroke-linecap="round" stroke-linejoin="round" stroke-miterlimit="4" stroke="#484848" stroke-width="4"><g><path d="M 9.974609 81.988477C 31.574609 82.088477 53.174609 83.588477 74.574609 81.988477C 99.974609 80.188477 125.674609 79.988477 151.074609 81.988477C 174.074609 83.788477 197.374609 83.588477 220.474609 81.988477C 204.574609 56.988477 184.074609 34.988477 168.074609 9.988477C 148.774609 10.388477 129.274609 8.288477 109.974609 9.988477C 94.174609 11.388477 78.174609 10.588477 62.274609 9.988477C 53.374609 20.288477 45.774609 31.788477 38.174609 43.188477C 29.374609 56.588477 20.174609 69.688477 9.974609 81.988477"></path><path d="M 10 82.0025L 220.4271 82.0025L 168.1141 10L 62.3128 10L 10 82.0025Z"></path></g></g></g><g id="g-root-3.cu_sy_qunymwxm5pfx-stroke" data-item-order="999889756" data-item-id="3.cu_sy_qunymwxm5pfx" data-item-class="Part Indexed Fill Stroke" data-item-index="3" data-renderer-id="0" transform="translate(257.025390625, 393.8125)"><g id="3.cu_sy_qunymwxm5pfx-stroke" fill="none" stroke-linecap="round" stroke-linejoin="round" stroke-miterlimit="4" stroke="#484848" stroke-width="4"><g><path d="M 9.974609 81.988477C 31.574609 82.088477 53.174609 83.588477 74.574609 81.988477C 99.974609 80.188477 125.674609 79.988477 151.074609 81.988477C 174.074609 83.788477 197.374609 83.588477 220.474609 81.988477C 204.574609 56.988477 184.074609 34.988477 168.074609 9.988477C 148.774609 10.388477 129.274609 8.288477 109.974609 9.988477C 94.174609 11.388477 78.174609 10.588477 62.274609 9.988477C 53.374609 20.288477 45.774609 31.788477 38.174609 43.188477C 29.374609 56.588477 20.174609 69.688477 9.974609 81.988477"></path><path d="M 10 82.0025L 220.4271 82.0025L 168.1141 10L 62.3128 10L 10 82.0025Z"></path></g></g></g><g id="g-root-2.cu_sy_qunymwxm5pfw-stroke" data-item-order="999889758" data-item-id="2.cu_sy_qunymwxm5pfw" data-item-class="Part Indexed Fill Stroke" data-item-index="2" data-renderer-id="0" transform="translate(415.1396484375, 265.685546875)"><g id="2.cu_sy_qunymwxm5pfw-stroke" fill="none" stroke-linecap="round" stroke-linejoin="round" stroke-miterlimit="4" stroke="#484848" stroke-width="4"><g><path d="M 127.360352 10.014026C 123.260352 28.214026 116.960352 45.914026 110.060352 63.214026C 103.360352 80.014026 98.560352 97.514026 93.260352 114.814026C 88.860352 129.414026 83.860352 143.814026 79.160352 158.414026C 73.560352 175.614026 69.460352 193.414026 62.360352 210.114026C 43.560352 187.114026 25.860352 163.214026 9.960352 138.114026C 15.360352 119.714026 20.560352 101.114026 27.760352 83.414026C 33.860352 68.514026 38.660352 53.114026 42.660352 37.514026C 70.860352 28.314026 99.560352 20.414026 127.360352 10.014026"></path><path d="M 127.3386 10L 62.313 210.1281L 10 138.1256L 42.6944 37.5025L 127.3386 10Z"></path></g></g></g><g id="g-root-2.cu_sy_qunymwxm5pfw-stroke" data-item-order="999889758" data-item-id="2.cu_sy_qunymwxm5pfw" data-item-class="Part Indexed Fill Stroke" data-item-index="2" data-renderer-id="0" transform="translate(415.1396484375, 265.685546875)"><g id="2.cu_sy_qunymwxm5pfw-stroke" fill="none" stroke-linecap="round" stroke-linejoin="round" stroke-miterlimit="4" stroke="#484848" stroke-width="4"><g><path d="M 127.360352 10.014026C 123.260352 28.214026 116.960352 45.914026 110.060352 63.214026C 103.360352 80.014026 98.560352 97.514026 93.260352 114.814026C 88.860352 129.414026 83.860352 143.814026 79.160352 158.414026C 73.560352 175.614026 69.460352 193.414026 62.360352 210.114026C 43.560352 187.114026 25.860352 163.214026 9.960352 138.114026C 15.360352 119.714026 20.560352 101.114026 27.760352 83.414026C 33.860352 68.514026 38.660352 53.114026 42.660352 37.514026C 70.860352 28.314026 99.560352 20.414026 127.360352 10.014026"></path><path d="M 127.3386 10L 62.313 210.1281L 10 138.1256L 42.6944 37.5025L 127.3386 10Z"></path></g></g></g><g id="g-root-1.cu_sy_qunymwxm5pfv-stroke" data-item-order="999889760" data-item-id="1.cu_sy_qunymwxm5pfv" data-item-class="Part Indexed Indexed_1 Fill Stroke" data-item-index="1" data-renderer-id="0" transform="translate(362.2392578125, 142)"><g id="1.cu_sy_qunymwxm5pfv-stroke" fill="none" stroke-linecap="round" stroke-linejoin="round" stroke-miterlimit="4" stroke="#484848" stroke-width="4"><g><path d="M 9.960742 10C 20.360742 19 32.060742 26.5 43.460742 34.3C 55.660742 42.7 66.760742 52.8 79.460742 60.5C 92.060742 68 102.760742 78.2 115.060742 86.3C 125.660742 93.3 135.260742 101.6 145.760742 108.7C 157.560742 116.6 168.460742 125.8 180.260742 133.7C 164.960742 138.9 149.260742 142.8 134.160742 148.7C 121.560742 153.5 108.660742 157.6 95.560742 161.2C 81.960742 152.4 68.960742 142.6 56.260742 132.6C 41.260742 120.8 26.060742 109.3 9.960742 99C 10.260742 85.3 11.160742 71.6 9.960742 58C 8.560742 42.1 8.960742 26 9.960742 10"></path><path d="M 10.0001 10L 180.2393 133.686L 95.5951 161.1885L 10 99L 10.0001 10Z"></path></g></g></g><g id="g-root-1.cu_sy_qunymwxm5pfv-stroke" data-item-order="999889760" data-item-id="1.cu_sy_qunymwxm5pfv" data-item-class="Part Indexed Indexed_1 Fill Stroke" data-item-index="1" data-renderer-id="0" transform="translate(362.2392578125, 142)"><g id="1.cu_sy_qunymwxm5pfv-stroke" fill="none" stroke-linecap="round" stroke-linejoin="round" stroke-miterlimit="4" stroke="#484848" stroke-width="4"><g><path d="M 9.960742 10C 20.360742 19 32.060742 26.5 43.460742 34.3C 55.660742 42.7 66.760742 52.8 79.460742 60.5C 92.060742 68 102.760742 78.2 115.060742 86.3C 125.660742 93.3 135.260742 101.6 145.760742 108.7C 157.560742 116.6 168.460742 125.8 180.260742 133.7C 164.960742 138.9 149.260742 142.8 134.160742 148.7C 121.560742 153.5 108.660742 157.6 95.560742 161.2C 81.960742 152.4 68.960742 142.6 56.260742 132.6C 41.260742 120.8 26.060742 109.3 9.960742 99C 10.260742 85.3 11.160742 71.6 9.960742 58C 8.560742 42.1 8.960742 26 9.960742 10"></path><path d="M 10.0001 10L 180.2393 133.686L 95.5951 161.1885L 10 99L 10.0001 10Z"></path></g></g></g><g id="g-root-tx_nonfunct_1lynfo8xm5og1-stroke" data-item-order="1000000000" data-item-id="tx_nonfunct_1lynfo8xm5og1" data-item-class="Label Stroke Indexed" data-item-index="5" data-renderer-id="0" transform="translate(86, 50)"></g><g id="g-root-tx_stakehol_meugigxm5q88-stroke" data-item-order="1000000000" data-item-id="tx_stakehol_meugigxm5q88" data-item-class="Label Stroke Title" data-item-index="none" data-renderer-id="0" transform="translate(146, 2)"></g><g id="g-root-tx_teamswit_1utnyu0xm5q19-stroke" data-item-order="1000000000" data-item-id="tx_teamswit_1utnyu0xm5q19" data-item-class="Label Stroke Indexed Indexed_1 ColorFillBlack ColorStrokeBlack" data-item-index="1" data-renderer-id="0" transform="translate(470, 110)"></g><g id="g-root-tx_teamswit_1utnyu0xm5q19-stroke" data-item-order="1000000000" data-item-id="tx_teamswit_1utnyu0xm5q19" data-item-class="Label Stroke Indexed Indexed_1 ColorFillBlack ColorStrokeBlack" data-item-index="1" data-renderer-id="0" transform="translate(470, 110)"></g><g id="g-root-csv_8zw2gxm8hsd-stroke" data-item-order="1000000000" data-item-id="csv_8zw2gxm8hsd" data-item-class="Icon Stroke Indexed InsideFill" data-item-index="5" data-renderer-id="0" transform="translate(272, 212)"><g id="csv_8zw2gxm8hsd-stroke" fill="none" stroke-linecap="round" stroke-linejoin="round" stroke-miterlimit="4" stroke="#484848" stroke-width="2"><g><path d="M 51 57C 52 57.400002 52.599998 56 53 55C 56.200001 44.799999 51.400002 33.599998 53 23C 54 16.4 47.599998 11.2 41 11C 33 10.8 24.799999 13 17 11C 16 10.8 15.4 12 15 13C 10 26 15 41 15 55C 15 56.200001 16 57 17 57C 28.4 56.599998 39.599998 57.400002 51 57M 43 11.2C 42.400002 13.8 42.799999 16.4 43 19C 43 20.200001 44 20.799999 45 21C 47.599998 21.6 50.400002 20.200001 52.799999 21M 27 47C 23.6 46.799999 20.6 44.200001 21 41C 21.4 37.799999 23.799999 34 27 35M 37 35C 35.799999 34.799999 34.799999 35 33.599998 35C 32.400002 35 31.4 35.799999 31 36.799999C 30.799999 38 31.4 38.799999 32.200001 39.799999C 33 41 35 41 35.799999 42.200001C 36.400002 43.200001 37.200001 44 36.799999 45.200001C 36.599998 46.200001 35.400002 47.400002 34.400002 47C 33.400002 46.599998 32.200001 47.200001 31 47M 47 35C 47.200001 36 47.200001 37 47 38C 46.400002 41.200001 45.200001 44 44 47C 41.799999 44.599998 40.599998 41.200001 41 38C 41.200001 37 40.799999 36 41 35"></path><path d="M 51 57C 52.104568 57 53 56.104568 53 55L 53 22.956001C 53.003315 16.353855 47.652145 10.999999 41.049999 11L 17 11C 15.895431 11 15 11.895431 15 13L 15 55C 15 56.104568 15.895431 57 17 57ZM 43 11.168L 43 19C 43 20.104568 43.895432 21 45 21L 52.84 21M 27 47C 23.686291 47 21 44.313709 21 41C 21 37.686295 23.686291 35 27 35M 37 35L 33.599998 35C 32.448231 34.992489 31.428791 35.743656 31.094774 36.845955C 30.760759 37.94825 31.191784 39.138935 32.153999 39.771999L 35.834 42.226002C 36.796234 42.857189 37.229076 44.045841 36.898022 45.147976C 36.566963 46.250114 35.550777 47.00351 34.400002 47L 31 47M 47 35L 47 38C 47.000004 41.245552 45.947334 44.403561 44 47.000004C 42.05267 44.403561 41 41.245552 41 38L 41 35"></path></g></g></g><g id="g-root-csv_8zw2gxm8hsd-stroke" data-item-order="1000000000" data-item-id="csv_8zw2gxm8hsd" data-item-class="Icon Stroke Indexed InsideFill" data-item-index="5" data-renderer-id="0" transform="translate(272, 212)"><g id="csv_8zw2gxm8hsd-stroke" fill="none" stroke-linecap="round" stroke-linejoin="round" stroke-miterlimit="4" stroke="#484848" stroke-width="2"><g><path d="M 51 57C 52 57.400002 52.599998 56 53 55C 56.200001 44.799999 51.400002 33.599998 53 23C 54 16.4 47.599998 11.2 41 11C 33 10.8 24.799999 13 17 11C 16 10.8 15.4 12 15 13C 10 26 15 41 15 55C 15 56.200001 16 57 17 57C 28.4 56.599998 39.599998 57.400002 51 57M 43 11.2C 42.400002 13.8 42.799999 16.4 43 19C 43 20.200001 44 20.799999 45 21C 47.599998 21.6 50.400002 20.200001 52.799999 21M 27 47C 23.6 46.799999 20.6 44.200001 21 41C 21.4 37.799999 23.799999 34 27 35M 37 35C 35.799999 34.799999 34.799999 35 33.599998 35C 32.400002 35 31.4 35.799999 31 36.799999C 30.799999 38 31.4 38.799999 32.200001 39.799999C 33 41 35 41 35.799999 42.200001C 36.400002 43.200001 37.200001 44 36.799999 45.200001C 36.599998 46.200001 35.400002 47.400002 34.400002 47C 33.400002 46.599998 32.200001 47.200001 31 47M 47 35C 47.200001 36 47.200001 37 47 38C 46.400002 41.200001 45.200001 44 44 47C 41.799999 44.599998 40.599998 41.200001 41 38C 41.200001 37 40.799999 36 41 35"></path><path d="M 51 57C 52.104568 57 53 56.104568 53 55L 53 22.956001C 53.003315 16.353855 47.652145 10.999999 41.049999 11L 17 11C 15.895431 11 15 11.895431 15 13L 15 55C 15 56.104568 15.895431 57 17 57ZM 43 11.168L 43 19C 43 20.104568 43.895432 21 45 21L 52.84 21M 27 47C 23.686291 47 21 44.313709 21 41C 21 37.686295 23.686291 35 27 35M 37 35L 33.599998 35C 32.448231 34.992489 31.428791 35.743656 31.094774 36.845955C 30.760759 37.94825 31.191784 39.138935 32.153999 39.771999L 35.834 42.226002C 36.796234 42.857189 37.229076 44.045841 36.898022 45.147976C 36.566963 46.250114 35.550777 47.00351 34.400002 47L 31 47M 47 35L 47 38C 47.000004 41.245552 45.947334 44.403561 44 47.000004C 42.05267 44.403561 41 41.245552 41 38L 41 35"></path></g></g></g><g id="g-root-chat_8vw93sxm9xqc-stroke" data-item-order="1000000000" data-item-id="chat_8vw93sxm9xqc" data-item-class="Icon Stroke Indexed Indexed_1 InsideFill" data-item-index="1" data-renderer-id="0" transform="translate(405, 212)"><g id="chat_8vw93sxm9xqc-stroke" fill="none" stroke-linecap="round" stroke-linejoin="round" stroke-miterlimit="4" stroke="#484848" stroke-width="2"><g><path d="M 33 11C 34.200001 11 34.799999 12 35 13C 36 16.799999 36.200001 21.200001 35 25C 34.599998 26 34.200001 27.200001 33 27C 31.6 26.799999 30.4 27 29 27C 29 28.6 29.200001 30.4 29 32C 27.799999 30 26.200001 28 24 27C 20.6 25.799999 16.6 26.200001 13 27C 12 27.200001 11 26.200001 11 25C 11 21 10.6 17 11 13C 11.2 12 11.8 11 13 11C 19.6 11.2 26.4 12.2 33 11M 56.599998 31C 55.599998 27.6 51.599998 25.799999 48 26C 44.400002 26.200001 41.799999 28.4 39.400002 31M 42.799999 14C 44.799999 15.8 47.400002 17.6 50 17C 51.400002 16.6 52.599998 16.6 54 16.200001M 42 17C 42.599998 20.200001 44.799999 22.200001 48 23C 51.200001 23.799999 53.799999 20.4 54 17C 54.200001 13.6 51.200001 11.6 48 11C 44.799999 10.4 42.200001 13.8 42 17M 28.6 57C 27.200001 53.799999 23.4 53 20 52C 16.6 51 13.4 54.200001 11.4 57M 14.8 40C 18 42.799999 22.200001 43.599998 26 42.200001M 14 43C 14.6 46.200001 16.799999 49.599998 20 49C 23.200001 48.400002 25 46.200001 26 43C 27 39.799999 23.200001 36.200001 20 37C 16.799999 37.799999 15 39.799999 14 43M 30 19C 26 17.4 21 20.6 17 19M 21 16C 20 17.4 18.4 18 17 19C 18.200001 20.200001 20.200001 20.6 21 22M 35 35C 33.799999 35.200001 33.200001 35.799999 33 37C 32.400002 41 34.400002 45.200001 33 49C 32.599998 50 34 51.400002 35 51C 36.200001 50.599998 37.799999 51.400002 39 51C 38.799999 52.599998 39.599998 54.400002 39 56C 41 55 42 52.200001 44 51C 47.599998 50.599998 51.400002 50.599998 55 51C 56.200001 51 57.200001 50 57 49C 56 45.200001 55.599998 40.799999 57 37C 57.400002 36 56 34.799999 55 35C 48.400002 35.599998 41.599998 33.799999 35 35M 38 43C 42 44.599998 47 44.599998 51 43M 47 40C 48 41.200001 49.400002 42.599998 51 43C 49.599998 44 48.200001 44.799999 47 46"></path><path d="M 33 11C 34.104568 11 35 11.895431 35 13L 35 25C 35 26.10457 34.104568 27 33 27L 29 27L 29 32L 24 27L 13 27C 11.895431 27 11 26.10457 11 25L 11 13C 11 11.895431 11.895431 11 13 11ZM 56.66 31C 54.873608 27.906237 51.572475 26.000441 48 26.000441C 44.427525 26.000441 41.126396 27.906237 39.34 31M 42.82 14C 44.71014 15.92837 47.299789 17.010395 50 17C 51.375542 17.004684 52.737255 16.725534 54 16.18M 42 17C 42 20.313709 44.686291 23 48 23C 51.313709 23 54 20.313709 54 17C 54 13.686292 51.313709 11 48 11C 44.686291 11 42 13.686292 42 17M 28.66 57C 26.873606 53.906239 23.572475 52.000439 20 52.000439C 16.427525 52.000439 13.126394 53.906239 11.34 57M 14.82 40C 17.728233 42.985493 22.183178 43.854164 26 42.18M 14 43C 14 46.313709 16.686291 49 20 49C 23.313709 49 26 46.313709 26 43C 26 39.686295 23.313709 37 20 37C 16.686291 37 14 39.686295 14 43M 30 19L 17 19M 21 16L 17 19L 21 22M 35 35C 33.895432 35 33 35.895432 33 37L 33 49C 33 50.104568 33.895432 51 35 51L 39 51L 39 56L 44 51L 55 51C 56.104568 51 57 50.104568 57 49L 57 37C 57 35.895432 56.104568 35 55 35ZM 38 43L 51 43M 47 40L 51 43L 47 46"></path></g></g></g><g id="g-root-chat_8vw93sxm9xqc-stroke" data-item-order="1000000000" data-item-id="chat_8vw93sxm9xqc" data-item-class="Icon Stroke Indexed Indexed_1 InsideFill" data-item-index="1" data-renderer-id="0" transform="translate(405, 212)"><g id="chat_8vw93sxm9xqc-stroke" fill="none" stroke-linecap="round" stroke-linejoin="round" stroke-miterlimit="4" stroke="#484848" stroke-width="2"><g><path d="M 33 11C 34.200001 11 34.799999 12 35 13C 36 16.799999 36.200001 21.200001 35 25C 34.599998 26 34.200001 27.200001 33 27C 31.6 26.799999 30.4 27 29 27C 29 28.6 29.200001 30.4 29 32C 27.799999 30 26.200001 28 24 27C 20.6 25.799999 16.6 26.200001 13 27C 12 27.200001 11 26.200001 11 25C 11 21 10.6 17 11 13C 11.2 12 11.8 11 13 11C 19.6 11.2 26.4 12.2 33 11M 56.599998 31C 55.599998 27.6 51.599998 25.799999 48 26C 44.400002 26.200001 41.799999 28.4 39.400002 31M 42.799999 14C 44.799999 15.8 47.400002 17.6 50 17C 51.400002 16.6 52.599998 16.6 54 16.200001M 42 17C 42.599998 20.200001 44.799999 22.200001 48 23C 51.200001 23.799999 53.799999 20.4 54 17C 54.200001 13.6 51.200001 11.6 48 11C 44.799999 10.4 42.200001 13.8 42 17M 28.6 57C 27.200001 53.799999 23.4 53 20 52C 16.6 51 13.4 54.200001 11.4 57M 14.8 40C 18 42.799999 22.200001 43.599998 26 42.200001M 14 43C 14.6 46.200001 16.799999 49.599998 20 49C 23.200001 48.400002 25 46.200001 26 43C 27 39.799999 23.200001 36.200001 20 37C 16.799999 37.799999 15 39.799999 14 43M 30 19C 26 17.4 21 20.6 17 19M 21 16C 20 17.4 18.4 18 17 19C 18.200001 20.200001 20.200001 20.6 21 22M 35 35C 33.799999 35.200001 33.200001 35.799999 33 37C 32.400002 41 34.400002 45.200001 33 49C 32.599998 50 34 51.400002 35 51C 36.200001 50.599998 37.799999 51.400002 39 51C 38.799999 52.599998 39.599998 54.400002 39 56C 41 55 42 52.200001 44 51C 47.599998 50.599998 51.400002 50.599998 55 51C 56.200001 51 57.200001 50 57 49C 56 45.200001 55.599998 40.799999 57 37C 57.400002 36 56 34.799999 55 35C 48.400002 35.599998 41.599998 33.799999 35 35M 38 43C 42 44.599998 47 44.599998 51 43M 47 40C 48 41.200001 49.400002 42.599998 51 43C 49.599998 44 48.200001 44.799999 47 46"></path><path d="M 33 11C 34.104568 11 35 11.895431 35 13L 35 25C 35 26.10457 34.104568 27 33 27L 29 27L 29 32L 24 27L 13 27C 11.895431 27 11 26.10457 11 25L 11 13C 11 11.895431 11.895431 11 13 11ZM 56.66 31C 54.873608 27.906237 51.572475 26.000441 48 26.000441C 44.427525 26.000441 41.126396 27.906237 39.34 31M 42.82 14C 44.71014 15.92837 47.299789 17.010395 50 17C 51.375542 17.004684 52.737255 16.725534 54 16.18M 42 17C 42 20.313709 44.686291 23 48 23C 51.313709 23 54 20.313709 54 17C 54 13.686292 51.313709 11 48 11C 44.686291 11 42 13.686292 42 17M 28.66 57C 26.873606 53.906239 23.572475 52.000439 20 52.000439C 16.427525 52.000439 13.126394 53.906239 11.34 57M 14.82 40C 17.728233 42.985493 22.183178 43.854164 26 42.18M 14 43C 14 46.313709 16.686291 49 20 49C 23.313709 49 26 46.313709 26 43C 26 39.686295 23.313709 37 20 37C 16.686291 37 14 39.686295 14 43M 30 19L 17 19M 21 16L 17 19L 21 22M 35 35C 33.895432 35 33 35.895432 33 37L 33 49C 33 50.104568 33.895432 51 35 51L 39 51L 39 56L 44 51L 55 51C 56.104568 51 57 50.104568 57 49L 57 37C 57 35.895432 56.104568 35 55 35ZM 38 43L 51 43M 47 40L 51 43L 47 46"></path></g></g></g><g id="g-root-tx_astructu_4o6x3sxm5pfn-stroke" data-item-order="1000000000" data-item-id="tx_astructu_4o6x3sxm5pfn" data-item-class="Label Stroke Indexed ColorFillBlack ColorStrokeBlack" data-item-index="3" data-renderer-id="0" transform="translate(272, 542)"></g><g id="g-root-tx_qualitat_hznfh4xm5nup-stroke" data-item-order="1000000000" data-item-id="tx_qualitat_hznfh4xm5nup" data-item-class="Label Stroke Indexed ColorFillBlack ColorStrokeBlack" data-item-index="5" data-renderer-id="0" transform="translate(86, 110)"></g><g id="g-root-tx_qualitat_hznfh4xm5nup-stroke" data-item-order="1000000000" data-item-id="tx_qualitat_hznfh4xm5nup" data-item-class="Label Stroke Indexed ColorFillBlack ColorStrokeBlack" data-item-index="5" data-renderer-id="0" transform="translate(86, 110)"></g><g id="g-root-tx_function_1qegxsoxm5nnq-stroke" data-item-order="1000000000" data-item-id="tx_function_1qegxsoxm5nnq" data-item-class="Label Stroke Indexed" data-item-index="4" data-renderer-id="0" transform="translate(26, 284)"></g><g id="g-root-tx_function_1qegxsoxm5nnq-stroke" data-item-order="1000000000" data-item-id="tx_function_1qegxsoxm5nnq" data-item-class="Label Stroke Indexed" data-item-index="4" data-renderer-id="0" transform="translate(26, 284)"></g><g id="g-root-1_m7crh4xm9w5e-stroke" data-item-order="1000000000" data-item-id="1_m7crh4xm9w5e" data-item-class="Icon Stroke Title" data-item-index="none" data-renderer-id="0" transform="translate(326, 284)"><g id="1_m7crh4xm9w5e-stroke" fill="none" stroke-linecap="round" stroke-linejoin="round" stroke-miterlimit="4" stroke="#484848" stroke-width="2"><g><path d="M 71.5 35.5C 71.5 37.300003 70 38.800003 68.5 38.5C 64.600006 37.900002 60.399998 38.199997 56.5 38.5C 53.199997 41.199997 50.800003 44.800003 47.5 47.5C 46.599998 44.800003 48.099998 41.5 47.5 38.5C 40.599998 38.199997 33.099998 36.099998 26.5 38.5C 25 39.099998 23.799999 37 23.5 35.5C 22 28.599998 22.900002 21.4 23.5 14.5C 23.799999 13 25 12.1 26.5 11.5C 40 7.6 54.699997 14.2 68.5 11.5C 70 11.2 72.100006 13 71.5 14.5C 69.399994 21.1 73.600006 28.900002 71.5 35.5M 16.299999 58.899998C 16.6 63.399998 20.200001 67.899994 24.700001 67C 29.200001 66.100006 34.300003 63.100002 32.799999 58.899998C 31.599998 54.400002 28.900002 49.300003 24.700001 50.5C 20.200001 51.699997 15.4 54.400002 16.299999 58.899998M 37.900002 80.5C 35.800003 74.5 31 70 24.700001 70C 18.4 70 11.8 74.199997 11.5 80.5M 59.199997 58.899998C 58 63.100002 63.100002 68.5 67.300003 67C 71.800003 65.5 76.899994 63.100002 75.699997 58.899998C 74.199997 54.400002 71.800003 50.800003 67.300003 50.5C 62.800003 49.900002 59.5 54.099998 59.199997 58.899998M 80.5 80.5C 76.899994 75.399994 73.300003 72.399994 67.300003 70C 61.600002 67.600006 54.699997 74.199997 54.099998 80.5M 43 22C 42.699997 19.6 45.099998 17.200001 47.5 17.5C 49.900002 17.799999 52.900002 19.6 52 22C 51.099998 24.400002 49.900002 27.099998 47.5 26.5M 47.5 31C 47.800003 31 48.400002 31.299999 48.400002 31.900002C 48.099998 32.200001 47.800003 32.5 47.5 32.5C 47.199997 32.5 46.599998 32.200001 46.900002 31.900002C 46.900002 31.299999 47.199997 31 47.5 31"></path><path d="M 71.5 35.5C 71.5 37.156857 70.156853 38.5 68.5 38.5L 56.5 38.5L 47.5 47.5L 47.5 38.5L 26.5 38.5C 24.843145 38.5 23.5 37.156857 23.5 35.5L 23.5 14.5C 23.5 12.843145 24.843145 11.5 26.5 11.5L 68.5 11.5C 70.156853 11.5 71.5 12.843145 71.5 14.5ZM 16.389999 58.75C 16.389999 63.306351 20.083651 67 24.639999 67C 29.19635 67 32.889999 63.306351 32.889999 58.75C 32.889999 54.193653 29.19635 50.500004 24.639999 50.500004C 20.083651 50.500004 16.389999 54.193653 16.389999 58.75ZM 37.777 80.5C 36.38903 74.359932 30.933485 69.999969 24.6385 69.999969C 18.343513 69.999969 12.887966 74.359932 11.5 80.499992M 59.110001 58.75C 59.110001 63.306351 62.80365 67 67.360001 67C 71.916351 67 75.610001 63.306351 75.610001 58.75C 75.610001 54.193653 71.916351 50.500004 67.360001 50.500004C 62.80365 50.500004 59.110001 54.193653 59.110001 58.75ZM 80.5 80.5C 79.11203 74.359932 73.656487 69.999969 67.361496 69.999969C 61.066513 69.999969 55.610966 74.359932 54.223 80.499992M 43 22C 43 19.514719 45.014721 17.5 47.5 17.5C 49.985283 17.5 52 19.514719 52 22C 52 24.485283 49.985283 26.5 47.5 26.5M 47.5 31C 47.914215 31 48.25 31.335787 48.25 31.75C 48.25 32.164215 47.914215 32.5 47.5 32.5C 47.085785 32.5 46.75 32.164215 46.75 31.75C 46.75 31.335787 47.085785 31 47.5 31"></path></g></g></g><g id="g-root-1_m7crh4xm9w5e-stroke" data-item-order="1000000000" data-item-id="1_m7crh4xm9w5e" data-item-class="Icon Stroke Title" data-item-index="none" data-renderer-id="0" transform="translate(326, 284)"><g id="1_m7crh4xm9w5e-stroke" fill="none" stroke-linecap="round" stroke-linejoin="round" stroke-miterlimit="4" stroke="#484848" stroke-width="2"><g><path d="M 71.5 35.5C 71.5 37.300003 70 38.800003 68.5 38.5C 64.600006 37.900002 60.399998 38.199997 56.5 38.5C 53.199997 41.199997 50.800003 44.800003 47.5 47.5C 46.599998 44.800003 48.099998 41.5 47.5 38.5C 40.599998 38.199997 33.099998 36.099998 26.5 38.5C 25 39.099998 23.799999 37 23.5 35.5C 22 28.599998 22.900002 21.4 23.5 14.5C 23.799999 13 25 12.1 26.5 11.5C 40 7.6 54.699997 14.2 68.5 11.5C 70 11.2 72.100006 13 71.5 14.5C 69.399994 21.1 73.600006 28.900002 71.5 35.5M 16.299999 58.899998C 16.6 63.399998 20.200001 67.899994 24.700001 67C 29.200001 66.100006 34.300003 63.100002 32.799999 58.899998C 31.599998 54.400002 28.900002 49.300003 24.700001 50.5C 20.200001 51.699997 15.4 54.400002 16.299999 58.899998M 37.900002 80.5C 35.800003 74.5 31 70 24.700001 70C 18.4 70 11.8 74.199997 11.5 80.5M 59.199997 58.899998C 58 63.100002 63.100002 68.5 67.300003 67C 71.800003 65.5 76.899994 63.100002 75.699997 58.899998C 74.199997 54.400002 71.800003 50.800003 67.300003 50.5C 62.800003 49.900002 59.5 54.099998 59.199997 58.899998M 80.5 80.5C 76.899994 75.399994 73.300003 72.399994 67.300003 70C 61.600002 67.600006 54.699997 74.199997 54.099998 80.5M 43 22C 42.699997 19.6 45.099998 17.200001 47.5 17.5C 49.900002 17.799999 52.900002 19.6 52 22C 51.099998 24.400002 49.900002 27.099998 47.5 26.5M 47.5 31C 47.800003 31 48.400002 31.299999 48.400002 31.900002C 48.099998 32.200001 47.800003 32.5 47.5 32.5C 47.199997 32.5 46.599998 32.200001 46.900002 31.900002C 46.900002 31.299999 47.199997 31 47.5 31"></path><path d="M 71.5 35.5C 71.5 37.156857 70.156853 38.5 68.5 38.5L 56.5 38.5L 47.5 47.5L 47.5 38.5L 26.5 38.5C 24.843145 38.5 23.5 37.156857 23.5 35.5L 23.5 14.5C 23.5 12.843145 24.843145 11.5 26.5 11.5L 68.5 11.5C 70.156853 11.5 71.5 12.843145 71.5 14.5ZM 16.389999 58.75C 16.389999 63.306351 20.083651 67 24.639999 67C 29.19635 67 32.889999 63.306351 32.889999 58.75C 32.889999 54.193653 29.19635 50.500004 24.639999 50.500004C 20.083651 50.500004 16.389999 54.193653 16.389999 58.75ZM 37.777 80.5C 36.38903 74.359932 30.933485 69.999969 24.6385 69.999969C 18.343513 69.999969 12.887966 74.359932 11.5 80.499992M 59.110001 58.75C 59.110001 63.306351 62.80365 67 67.360001 67C 71.916351 67 75.610001 63.306351 75.610001 58.75C 75.610001 54.193653 71.916351 50.500004 67.360001 50.500004C 62.80365 50.500004 59.110001 54.193653 59.110001 58.75ZM 80.5 80.5C 79.11203 74.359932 73.656487 69.999969 67.361496 69.999969C 61.066513 69.999969 55.610966 74.359932 54.223 80.499992M 43 22C 43 19.514719 45.014721 17.5 47.5 17.5C 49.985283 17.5 52 19.514719 52 22C 52 24.485283 49.985283 26.5 47.5 26.5M 47.5 31C 47.914215 31 48.25 31.335787 48.25 31.75C 48.25 32.164215 47.914215 32.5 47.5 32.5C 47.085785 32.5 46.75 32.164215 46.75 31.75C 46.75 31.335787 47.085785 31 47.5 31"></path></g></g></g><g id="g-root-tx_external_1lynfo8xm5og0-stroke" data-item-order="1000000000" data-item-id="tx_external_1lynfo8xm5og0" data-item-class="Label Stroke Indexed" data-item-index="2" data-renderer-id="0" transform="translate(542.076171875, 284)"></g><g id="g-root-tx_external_1lynfo8xm5og0-stroke" data-item-order="1000000000" data-item-id="tx_external_1lynfo8xm5og0" data-item-class="Label Stroke Indexed" data-item-index="2" data-renderer-id="0" transform="translate(542.076171875, 284)"></g><g id="g-root-tx_essentia_940f88xm5one-stroke" data-item-order="1000000000" data-item-id="tx_essentia_940f88xm5one" data-item-class="Label Stroke Indexed ColorFillBlack ColorStrokeBlack" data-item-index="4" data-renderer-id="0" transform="translate(2, 344)"></g><g id="g-root-tx_essentia_940f88xm5one-stroke" data-item-order="1000000000" data-item-id="tx_essentia_940f88xm5one" data-item-class="Label Stroke Indexed ColorFillBlack ColorStrokeBlack" data-item-index="4" data-renderer-id="0" transform="translate(2, 344)"></g><g id="g-root-chec_8zw2gxm8hse-stroke" data-item-order="1000000000" data-item-id="chec_8zw2gxm8hse" data-item-class="Icon Stroke Indexed InsideFill" data-item-index="4" data-renderer-id="0" transform="translate(236, 332)"><g id="chec_8zw2gxm8hse-stroke" fill="none" stroke-linecap="round" stroke-linejoin="round" stroke-miterlimit="4" stroke="#484848" stroke-width="2"><g><path d="M 30 57C 24.4 56.400002 18.6 57 13 57C 11.8 57 10.8 56 11 55C 12.4 42.400002 11.4 29.6 11 17C 11 15.8 12 14.6 13 15C 14.2 15.4 15.6 15.2 17 15M 41 15C 42.400002 15 43.599998 15.2 45 15C 46 14.8 46.799999 16 47 17C 47.400002 21 46.599998 25 47 29M 33 15C 32.599998 12.8 31 11.8 29 11C 27 10.2 25 12.8 25 15C 23.6 14.8 22.200001 15.4 21 15C 21.6 17 20.4 19.200001 21 21C 26.200001 19.4 32 23 37 21C 37 19 36.599998 17 37 15C 35.599998 15 34.200001 14.6 33 15M 43 29C 42 26.200001 43.799999 22.799999 43 20C 42.799999 19.4 42.599998 19.200001 42 19C 40.400002 18.6 38.599998 18.6 37 19M 21 19C 19.4 19 17.6 19.6 16 19C 15.4 18.799999 15.2 19.4 15 20C 11.8 30.200001 15.4 41.400002 15 52C 15 52.599998 15.4 53.200001 16 53C 20.4 51.400002 25.6 54.200001 30 53M 21 27C 26.200001 28.4 31.799999 27.6 37 27M 21 33C 25 33.400002 29.200001 33.799999 33 33M 21 39C 23.6 39 26.4 38.599998 29 39M 33 45C 35.200001 51.200001 38.599998 58.400002 45 57C 51.400002 55.599998 56.200001 51.599998 57 45C 57.799999 38.400002 51.599998 33.799999 45 33C 38.400002 32.200001 32.599998 38.400002 33 45M 50.400002 41.599998C 49 44.400002 46.799999 47 44.599998 49.200001C 44.200001 49.599998 43.799999 50 43.400002 49.799999C 43 49.799999 42.599998 49.799999 42.200001 49.400002C 41.400002 48.200001 40.400002 47.200001 39.200001 46.400002"></path><path d="M 30 57L 13 57C 11.895431 57 11 56.104568 11 55L 11 17C 11 15.895431 11.895431 15 13 15L 17 15M 41 15L 45 15C 46.104568 15 47 15.895431 47 17L 47 29M 33 15C 33 12.790861 31.209139 11 29 11C 26.790861 11 25 12.790861 25 15L 21 15L 21 21L 37 21L 37 15ZM 43 29L 43 20C 43 19.447716 42.552284 19 42 19L 37 19M 21 19L 16 19C 15.447716 19 15 19.447716 15 20L 15 52C 15 52.552284 15.447716 53 16 53L 30 53M 21 26.997999L 37 26.997999M 21 32.998001L 33 32.998001M 21 38.998001L 29 38.998001M 33 44.998001C 33 51.62542 38.372581 56.998001 45 56.998001C 51.627419 56.998001 57 51.62542 57 44.998001C 57 38.370583 51.627419 32.998001 45 32.998001C 38.372581 32.998001 33 38.370583 33 44.998001ZM 50.348 41.510002L 44.537998 49.257999C 44.276993 49.605556 43.878059 49.822807 43.444496 49.8535C 43.010933 49.884197 42.585373 49.725319 42.278 49.417999L 39.278 46.417999"></path></g></g></g><g id="g-root-chec_8zw2gxm8hse-stroke" data-item-order="1000000000" data-item-id="chec_8zw2gxm8hse" data-item-class="Icon Stroke Indexed InsideFill" data-item-index="4" data-renderer-id="0" transform="translate(236, 332)"><g id="chec_8zw2gxm8hse-stroke" fill="none" stroke-linecap="round" stroke-linejoin="round" stroke-miterlimit="4" stroke="#484848" stroke-width="2"><g><path d="M 30 57C 24.4 56.400002 18.6 57 13 57C 11.8 57 10.8 56 11 55C 12.4 42.400002 11.4 29.6 11 17C 11 15.8 12 14.6 13 15C 14.2 15.4 15.6 15.2 17 15M 41 15C 42.400002 15 43.599998 15.2 45 15C 46 14.8 46.799999 16 47 17C 47.400002 21 46.599998 25 47 29M 33 15C 32.599998 12.8 31 11.8 29 11C 27 10.2 25 12.8 25 15C 23.6 14.8 22.200001 15.4 21 15C 21.6 17 20.4 19.200001 21 21C 26.200001 19.4 32 23 37 21C 37 19 36.599998 17 37 15C 35.599998 15 34.200001 14.6 33 15M 43 29C 42 26.200001 43.799999 22.799999 43 20C 42.799999 19.4 42.599998 19.200001 42 19C 40.400002 18.6 38.599998 18.6 37 19M 21 19C 19.4 19 17.6 19.6 16 19C 15.4 18.799999 15.2 19.4 15 20C 11.8 30.200001 15.4 41.400002 15 52C 15 52.599998 15.4 53.200001 16 53C 20.4 51.400002 25.6 54.200001 30 53M 21 27C 26.200001 28.4 31.799999 27.6 37 27M 21 33C 25 33.400002 29.200001 33.799999 33 33M 21 39C 23.6 39 26.4 38.599998 29 39M 33 45C 35.200001 51.200001 38.599998 58.400002 45 57C 51.400002 55.599998 56.200001 51.599998 57 45C 57.799999 38.400002 51.599998 33.799999 45 33C 38.400002 32.200001 32.599998 38.400002 33 45M 50.400002 41.599998C 49 44.400002 46.799999 47 44.599998 49.200001C 44.200001 49.599998 43.799999 50 43.400002 49.799999C 43 49.799999 42.599998 49.799999 42.200001 49.400002C 41.400002 48.200001 40.400002 47.200001 39.200001 46.400002"></path><path d="M 30 57L 13 57C 11.895431 57 11 56.104568 11 55L 11 17C 11 15.895431 11.895431 15 13 15L 17 15M 41 15L 45 15C 46.104568 15 47 15.895431 47 17L 47 29M 33 15C 33 12.790861 31.209139 11 29 11C 26.790861 11 25 12.790861 25 15L 21 15L 21 21L 37 21L 37 15ZM 43 29L 43 20C 43 19.447716 42.552284 19 42 19L 37 19M 21 19L 16 19C 15.447716 19 15 19.447716 15 20L 15 52C 15 52.552284 15.447716 53 16 53L 30 53M 21 26.997999L 37 26.997999M 21 32.998001L 33 32.998001M 21 38.998001L 29 38.998001M 33 44.998001C 33 51.62542 38.372581 56.998001 45 56.998001C 51.627419 56.998001 57 51.62542 57 44.998001C 57 38.370583 51.627419 32.998001 45 32.998001C 38.372581 32.998001 33 38.370583 33 44.998001ZM 50.348 41.510002L 44.537998 49.257999C 44.276993 49.605556 43.878059 49.822807 43.444496 49.8535C 43.010933 49.884197 42.585373 49.725319 42.278 49.417999L 39.278 46.417999"></path></g></g></g><g id="g-root-netw_dbpr88xm9wy3-stroke" data-item-order="1000000000" data-item-id="netw_dbpr88xm9wy3" data-item-class="Icon Stroke Indexed InsideFill" data-item-index="2" data-renderer-id="0" transform="translate(440, 332)"><g id="netw_dbpr88xm9wy3-stroke" fill="none" stroke-linecap="round" stroke-linejoin="round" stroke-miterlimit="4" stroke="#484848" stroke-width="2"><g><path d="M 44 24C 46.200001 22 48.200001 20 50.200001 17.799999M 49 15C 49 17.200001 50.799999 18.6 53 19C 55.200001 19.4 56.799999 17.200001 57 15C 57.400002 12.8 55 11.8 53 11C 51 10.2 49 12.8 49 15M 46 46C 47.400002 47.200001 48.599998 49 50.200001 50.200001M 49 53C 48.400002 55 50.799999 56.599998 53 57C 55.200001 57.400002 57.400002 55.200001 57 53C 56.599998 50.799999 55.200001 49.200001 53 49C 50.799999 48.799999 48.400002 50.799999 49 53M 24 24C 22.799999 21.4 19.799999 20 17.799999 17.799999M 11 15C 10.8 17.200001 12.8 18.6 15 19C 17.200001 19.4 19.4 17.200001 19 15C 18.799999 12.8 17.200001 11.2 15 11C 12.8 10.8 11.2 12.8 11 15M 22 46C 20.6 47.200001 18.6 48.400002 17.799999 50.200001M 11 53C 10.8 55.200001 12.8 57 15 57C 17.200001 57 19 55.200001 19 53C 19 50.799999 17.200001 49 15 49C 12.8 49 11.6 50.799999 11 53M 43 33C 45 32.200001 47 32.599998 49 33M 49 33C 49.599998 35.200001 50.799999 37 53 37C 55.200001 37 57.400002 35.200001 57 33C 56.599998 30.799999 55.200001 28.799999 53 29C 50.799999 29.200001 48.799999 30.799999 49 33M 25 33C 23.200001 33.599998 21 32.400002 19 33M 11 33C 11.6 35.200001 13 36.200001 15 37C 17.200001 37.799999 18.799999 35.200001 19 33C 19.200001 30.799999 17.200001 28.4 15 29C 13 29.6 10.4 30.799999 11 33M 34 44C 34.200001 44 34.599998 44.200001 34.599998 44.599998C 34.400002 44.799999 34.200001 45 34 45C 33.799999 45 33.599998 44.799999 33.599998 44.599998M 28 30C 27.4 27 30.6 25.4 33.200001 24C 35.799999 22.6 40.200001 25.4 39.799999 28.4C 39.400002 31.4 39.400002 35.400002 36.400002 35.599998C 34.799999 35.599998 33.799999 37.599998 34 39.200001C 34 39.400002 34 39.799999 34 40"></path><path d="M 44.021999 24.042L 50.236 17.868M 49.021999 15.002C 49.021999 17.21114 50.812862 19.001999 53.021999 19.001999C 55.23114 19.001999 57.021999 17.21114 57.021999 15.002C 57.021999 12.792861 55.23114 11.002 53.021999 11.002C 50.812862 11.002 49.021999 12.792861 49.021999 15.002ZM 45.945999 45.959999L 50.174 50.216M 49.040001 53.001999C 49.040001 55.21114 50.83086 57.001999 53.040001 57.001999C 55.249138 57.001999 57.040001 55.21114 57.040001 53.001999C 57.040001 50.792862 55.249138 49.001999 53.040001 49.001999C 50.83086 49.001999 49.040001 50.792862 49.040001 53.001999ZM 24.021999 24.042L 17.806 17.868M 11.022 15.002C 11.022 17.21114 12.81286 19.001999 15.021999 19.001999C 17.23114 19.001999 19.021999 17.21114 19.021999 15.002C 19.021999 12.792861 17.23114 11.002 15.021999 11.002C 12.81286 11.002 11.022 12.792861 11.022 15.002ZM 22.098 45.959999L 17.868 50.216M 11 53.001999C 11 55.21114 12.790861 57.001999 15 57.001999C 17.209139 57.001999 19 55.21114 19 53.001999C 19 50.792862 17.209139 49.001999 15 49.001999C 12.790861 49.001999 11 50.792862 11 53.001999ZM 43.021999 33.001999L 49.021999 33.001999M 49.021999 33.001999C 49.021999 35.21114 50.812862 37.001999 53.021999 37.001999C 55.23114 37.001999 57.021999 35.21114 57.021999 33.001999C 57.021999 30.792862 55.23114 29.002001 53.021999 29.002001C 50.812862 29.002001 49.021999 30.792862 49.021999 33.001999ZM 25.021999 33.001999L 19.021999 33.001999M 11.022 33.001999C 11.022 35.21114 12.81286 37.001999 15.021999 37.001999C 17.23114 37.001999 19.021999 35.21114 19.021999 33.001999C 19.021999 30.792862 17.23114 29.002001 15.021999 29.002001C 12.81286 29.002001 11.022 30.792862 11.022 33.001999ZM 34.040001 44C 34.316143 44 34.540001 44.223858 34.540001 44.5C 34.540001 44.776142 34.316143 45 34.040001 45C 33.763855 45 33.540001 44.776142 33.540001 44.5C 33.539467 44.367229 33.591972 44.239738 33.685856 44.145855C 33.779739 44.051971 33.907227 43.999466 34.040001 44M 28.040001 30C 28.040455 27.003443 30.251694 24.466644 33.220146 24.057186C 36.188599 23.647732 39.004028 25.491169 39.815701 28.375706C 40.627373 31.260242 39.186394 34.301376 36.440002 35.5C 34.981647 36.136475 34.03923 37.576805 34.040001 39.167999L 34.040001 40"></path></g></g></g><g id="g-root-netw_dbpr88xm9wy3-stroke" data-item-order="1000000000" data-item-id="netw_dbpr88xm9wy3" data-item-class="Icon Stroke Indexed InsideFill" data-item-index="2" data-renderer-id="0" transform="translate(440, 332)"><g id="netw_dbpr88xm9wy3-stroke" fill="none" stroke-linecap="round" stroke-linejoin="round" stroke-miterlimit="4" stroke="#484848" stroke-width="2"><g><path d="M 44 24C 46.200001 22 48.200001 20 50.200001 17.799999M 49 15C 49 17.200001 50.799999 18.6 53 19C 55.200001 19.4 56.799999 17.200001 57 15C 57.400002 12.8 55 11.8 53 11C 51 10.2 49 12.8 49 15M 46 46C 47.400002 47.200001 48.599998 49 50.200001 50.200001M 49 53C 48.400002 55 50.799999 56.599998 53 57C 55.200001 57.400002 57.400002 55.200001 57 53C 56.599998 50.799999 55.200001 49.200001 53 49C 50.799999 48.799999 48.400002 50.799999 49 53M 24 24C 22.799999 21.4 19.799999 20 17.799999 17.799999M 11 15C 10.8 17.200001 12.8 18.6 15 19C 17.200001 19.4 19.4 17.200001 19 15C 18.799999 12.8 17.200001 11.2 15 11C 12.8 10.8 11.2 12.8 11 15M 22 46C 20.6 47.200001 18.6 48.400002 17.799999 50.200001M 11 53C 10.8 55.200001 12.8 57 15 57C 17.200001 57 19 55.200001 19 53C 19 50.799999 17.200001 49 15 49C 12.8 49 11.6 50.799999 11 53M 43 33C 45 32.200001 47 32.599998 49 33M 49 33C 49.599998 35.200001 50.799999 37 53 37C 55.200001 37 57.400002 35.200001 57 33C 56.599998 30.799999 55.200001 28.799999 53 29C 50.799999 29.200001 48.799999 30.799999 49 33M 25 33C 23.200001 33.599998 21 32.400002 19 33M 11 33C 11.6 35.200001 13 36.200001 15 37C 17.200001 37.799999 18.799999 35.200001 19 33C 19.200001 30.799999 17.200001 28.4 15 29C 13 29.6 10.4 30.799999 11 33M 34 44C 34.200001 44 34.599998 44.200001 34.599998 44.599998C 34.400002 44.799999 34.200001 45 34 45C 33.799999 45 33.599998 44.799999 33.599998 44.599998M 28 30C 27.4 27 30.6 25.4 33.200001 24C 35.799999 22.6 40.200001 25.4 39.799999 28.4C 39.400002 31.4 39.400002 35.400002 36.400002 35.599998C 34.799999 35.599998 33.799999 37.599998 34 39.200001C 34 39.400002 34 39.799999 34 40"></path><path d="M 44.021999 24.042L 50.236 17.868M 49.021999 15.002C 49.021999 17.21114 50.812862 19.001999 53.021999 19.001999C 55.23114 19.001999 57.021999 17.21114 57.021999 15.002C 57.021999 12.792861 55.23114 11.002 53.021999 11.002C 50.812862 11.002 49.021999 12.792861 49.021999 15.002ZM 45.945999 45.959999L 50.174 50.216M 49.040001 53.001999C 49.040001 55.21114 50.83086 57.001999 53.040001 57.001999C 55.249138 57.001999 57.040001 55.21114 57.040001 53.001999C 57.040001 50.792862 55.249138 49.001999 53.040001 49.001999C 50.83086 49.001999 49.040001 50.792862 49.040001 53.001999ZM 24.021999 24.042L 17.806 17.868M 11.022 15.002C 11.022 17.21114 12.81286 19.001999 15.021999 19.001999C 17.23114 19.001999 19.021999 17.21114 19.021999 15.002C 19.021999 12.792861 17.23114 11.002 15.021999 11.002C 12.81286 11.002 11.022 12.792861 11.022 15.002ZM 22.098 45.959999L 17.868 50.216M 11 53.001999C 11 55.21114 12.790861 57.001999 15 57.001999C 17.209139 57.001999 19 55.21114 19 53.001999C 19 50.792862 17.209139 49.001999 15 49.001999C 12.790861 49.001999 11 50.792862 11 53.001999ZM 43.021999 33.001999L 49.021999 33.001999M 49.021999 33.001999C 49.021999 35.21114 50.812862 37.001999 53.021999 37.001999C 55.23114 37.001999 57.021999 35.21114 57.021999 33.001999C 57.021999 30.792862 55.23114 29.002001 53.021999 29.002001C 50.812862 29.002001 49.021999 30.792862 49.021999 33.001999ZM 25.021999 33.001999L 19.021999 33.001999M 11.022 33.001999C 11.022 35.21114 12.81286 37.001999 15.021999 37.001999C 17.23114 37.001999 19.021999 35.21114 19.021999 33.001999C 19.021999 30.792862 17.23114 29.002001 15.021999 29.002001C 12.81286 29.002001 11.022 30.792862 11.022 33.001999ZM 34.040001 44C 34.316143 44 34.540001 44.223858 34.540001 44.5C 34.540001 44.776142 34.316143 45 34.040001 45C 33.763855 45 33.540001 44.776142 33.540001 44.5C 33.539467 44.367229 33.591972 44.239738 33.685856 44.145855C 33.779739 44.051971 33.907227 43.999466 34.040001 44M 28.040001 30C 28.040455 27.003443 30.251694 24.466644 33.220146 24.057186C 36.188599 23.647732 39.004028 25.491169 39.815701 28.375706C 40.627373 31.260242 39.186394 34.301376 36.440002 35.5C 34.981647 36.136475 34.03923 37.576805 34.040001 39.167999L 34.040001 40"></path></g></g></g><g id="g-root-tx_entities_4o6x3sxm5pfo-stroke" data-item-order="1000000000" data-item-id="tx_entities_4o6x3sxm5pfo" data-item-class="Label Stroke Indexed ColorFillBlack ColorStrokeBlack" data-item-index="2" data-renderer-id="0" transform="translate(542, 344)"></g><g id="g-root-tx_entities_4o6x3sxm5pfo-stroke" data-item-order="1000000000" data-item-id="tx_entities_4o6x3sxm5pfo" data-item-class="Label Stroke Indexed ColorFillBlack ColorStrokeBlack" data-item-index="2" data-renderer-id="0" transform="translate(542, 344)"></g><g id="g-root-tx_internal_1d30ffcxm5p8q-stroke" data-item-order="1000000000" data-item-id="tx_internal_1d30ffcxm5p8q" data-item-class="Label Stroke Indexed Indexed_1" data-item-index="1" data-renderer-id="0" transform="translate(470, 50)"></g><g id="g-root-tx_internal_1d30ffcxm5p8q-stroke" data-item-order="1000000000" data-item-id="tx_internal_1d30ffcxm5p8q" data-item-class="Label Stroke Indexed Indexed_1" data-item-index="1" data-renderer-id="0" transform="translate(470, 50)"></g><g id="g-root-9_94mwbcxm8gzo-stroke" data-item-order="1000000000" data-item-id="9_94mwbcxm8gzo" data-item-class="Icon Stroke Indexed InsideFill" data-item-index="3" data-renderer-id="0" transform="translate(338, 406)"><g id="9_94mwbcxm8gzo-stroke" fill="none" stroke-linecap="round" stroke-linejoin="round" stroke-miterlimit="4" stroke="#484848" stroke-width="2"><g><path d="M 35 24C 27.6 24.6 20.200001 25 13 24C 12.4 24 12.2 23.6 12 23C 11.4 21 12 19 12 17C 12 16.4 12.4 16.200001 13 16C 20.200001 14.2 27.799999 14.6 35 16C 35.599998 16.200001 36.200001 16.4 36 17C 35.599998 19 36.200001 21 36 23C 36 23.4 35.599998 24.200001 35 24M 55 52C 45 53.200001 34.799999 50.400002 25 52C 24.4 52 24 51.599998 24 51C 23.799999 49 23.799999 47 24 45C 24 44.400002 24.4 43.799999 25 44C 34.400002 47.400002 45 44.599998 55 44C 55.599998 44 56.200001 44.400002 56 45C 55.400002 46.799999 56.599998 49 56 51C 55.799999 51.400002 55.599998 52.200001 55 52M 36 20C 37.799999 19.4 40 19.799999 42 20C 42.599998 20 43.200001 20.4 43 21C 41 26.200001 42.200001 32.400002 43 38M 10 10M 39 34C 39.799999 35.799999 41.799999 36.599998 43 38C 44.799999 37.200001 45.400002 35 47 34"></path><path d="M 35 24L 13 24C 12.4 24 12 23.6 12 23L 12 17C 12 16.4 12.4 16 13 16L 35 16C 35.599998 16 36 16.4 36 17L 36 23C 36 23.4 35.599998 24 35 24ZM 55 52L 25 52C 24.4 52 24 51.599998 24 51L 24 45C 24 44.400002 24.4 44 25 44L 55 44C 55.599998 44 56 44.400002 56 45L 56 51C 56 51.400002 55.599998 52 55 52ZM 36 20L 42 20C 42.599998 20 43 20.4 43 21L 43 38M 10 10M 39 34L 43 38L 47 34"></path></g></g></g><g id="g-root-tx_stakehol_meugigxm5q88-stroke" data-item-order="1000000000" data-item-id="tx_stakehol_meugigxm5q88" data-item-class="Label Stroke Title" data-item-index="none" data-renderer-id="0" transform="translate(146, 2)"></g><g id="g-root-tx_requirem_1qegxsoxm5nnr-stroke" data-item-order="1000000000" data-item-id="tx_requirem_1qegxsoxm5nnr" data-item-class="Label Stroke Indexed" data-item-index="3" data-renderer-id="0" transform="translate(284, 482)"></g><g id="g-root-tx_requirem_1qegxsoxm5nnr-stroke" data-item-order="1000000000" data-item-id="tx_requirem_1qegxsoxm5nnr" data-item-class="Label Stroke Indexed" data-item-index="3" data-renderer-id="0" transform="translate(284, 482)"></g><g id="g-root-tx_astructu_4o6x3sxm5pfn-stroke" data-item-order="1000000000" data-item-id="tx_astructu_4o6x3sxm5pfn" data-item-class="Label Stroke Indexed ColorFillBlack ColorStrokeBlack" data-item-index="3" data-renderer-id="0" transform="translate(272, 542)"></g><g id="g-root-tx_nonfunct_1lynfo8xm5og1-stroke" data-item-order="1000000000" data-item-id="tx_nonfunct_1lynfo8xm5og1" data-item-class="Label Stroke Indexed" data-item-index="5" data-renderer-id="0" transform="translate(86, 50)"></g><g id="g-root-9_94mwbcxm8gzo-stroke" data-item-order="1000000000" data-item-id="9_94mwbcxm8gzo" data-item-class="Icon Stroke Indexed InsideFill" data-item-index="3" data-renderer-id="0" transform="translate(338, 406)"><g id="9_94mwbcxm8gzo-stroke" fill="none" stroke-linecap="round" stroke-linejoin="round" stroke-miterlimit="4" stroke="#484848" stroke-width="2"><g><path d="M 35 24C 27.6 24.6 20.200001 25 13 24C 12.4 24 12.2 23.6 12 23C 11.4 21 12 19 12 17C 12 16.4 12.4 16.200001 13 16C 20.200001 14.2 27.799999 14.6 35 16C 35.599998 16.200001 36.200001 16.4 36 17C 35.599998 19 36.200001 21 36 23C 36 23.4 35.599998 24.200001 35 24M 55 52C 45 53.200001 34.799999 50.400002 25 52C 24.4 52 24 51.599998 24 51C 23.799999 49 23.799999 47 24 45C 24 44.400002 24.4 43.799999 25 44C 34.400002 47.400002 45 44.599998 55 44C 55.599998 44 56.200001 44.400002 56 45C 55.400002 46.799999 56.599998 49 56 51C 55.799999 51.400002 55.599998 52.200001 55 52M 36 20C 37.799999 19.4 40 19.799999 42 20C 42.599998 20 43.200001 20.4 43 21C 41 26.200001 42.200001 32.400002 43 38M 10 10M 39 34C 39.799999 35.799999 41.799999 36.599998 43 38C 44.799999 37.200001 45.400002 35 47 34"></path><path d="M 35 24L 13 24C 12.4 24 12 23.6 12 23L 12 17C 12 16.4 12.4 16 13 16L 35 16C 35.599998 16 36 16.4 36 17L 36 23C 36 23.4 35.599998 24 35 24ZM 55 52L 25 52C 24.4 52 24 51.599998 24 51L 24 45C 24 44.400002 24.4 44 25 44L 55 44C 55.599998 44 56 44.400002 56 45L 56 51C 56 51.400002 55.599998 52 55 52ZM 36 20L 42 20C 42.599998 20 43 20.4 43 21L 43 38M 10 10M 39 34L 43 38L 47 34"></path></g></g></g></g></g></svg>