<?xml version="1.0" encoding="utf-8" standalone="yes"?>
<!DOCTYPE svg PUBLIC "-//W3C//DTD SVG 1.1//EN" "http://www.w3.org/Graphics/SVG/1.1/DTD/svg11.dtd">
<svg width="900" height="360" viewBox="0 0 900 360" style="fill:none;stroke:none;fill-rule:evenodd;clip-rule:evenodd;stroke-linecap:round;stroke-linejoin:round;stroke-miterlimit:1.5;" version="1.1" xmlns="http://www.w3.org/2000/svg" xmlns:xlink="http://www.w3.org/1999/xlink"><style id="fontImports">@import url("https://fonts.googleapis.com/css2?family=Roboto:wght@400;700&amp;display=block");</style><g id="items" style="isolation: isolate"><g id="blend" style="mix-blend-mode:normal"><g id="g-root-4.cu_sy_v8likkswnsi0-fill" data-item-order="999935492" data-item-id="4.cu_sy_v8likkswnsi0" data-item-class="Part Indexed Fill Stroke ColorFillGray" data-item-index="4" data-renderer-id="0" transform="translate(478, 176)"><g id="4.cu_sy_v8likkswnsi0-fill" stroke="none" fill="none"><g><path d="M 81.469 86.464C 81.815 87.751 82 89.104 82 90.5C 82 99.06 75.06 106 66.5 106C 63.433 106 60.575 105.109 58.169 103.573C 56.496 104.481 54.561 105 52.5 105C 49.212 105 46.247 103.68 44.151 101.565C 43.147 101.849 42.09 102 41 102C 34.373 102 29 96.404 29 89.5C 29 88.374 29.143 87.283 29.411 86.246C 27.314 84.326 26 81.566 26 78.5C 26 74.9 27.812 71.723 30.574 69.831C 29.569 67.943 29 65.788 29 63.5C 29 56.044 35.044 50 42.5 50C 43.036 50 43.566 50.031 44.086 50.092C 47.712 47.518 52.175 46 57 46C 62.757 46 67.997 48.161 71.918 51.698C 73.024 51.248 74.233 51 75.5 51C 80.747 51 85 55.253 85 60.5C 85 62.899 84.111 65.09 82.644 66.762C 84.733 69.227 86 72.46 86 76C 86 80.162 84.249 83.899 81.469 86.464ZM 18 34C 18 38.418278 21.581722 42 26 42C 30.418278 42 34 38.418278 34 34C 34 29.581722 30.418278 26 26 26C 21.581722 26 18 29.581722 18 34M 18 14C 18 16.209137 16.209137 18 14 18C 11.790863 18 10 16.209137 10 14C 10 11.790863 11.790863 10 14 10C 16.209137 10 18 11.790863 18 14"></path></g></g></g><g id="g-root-4.cu_sy_v8likkswnsi0-fill" data-item-order="999935492" data-item-id="4.cu_sy_v8likkswnsi0" data-item-class="Part Indexed Fill Stroke ColorFillGray" data-item-index="4" data-renderer-id="0" transform="translate(478, 176)"><g id="4.cu_sy_v8likkswnsi0-fill" stroke="none" fill="none"><g><path d="M 81.469 86.464C 81.815 87.751 82 89.104 82 90.5C 82 99.06 75.06 106 66.5 106C 63.433 106 60.575 105.109 58.169 103.573C 56.496 104.481 54.561 105 52.5 105C 49.212 105 46.247 103.68 44.151 101.565C 43.147 101.849 42.09 102 41 102C 34.373 102 29 96.404 29 89.5C 29 88.374 29.143 87.283 29.411 86.246C 27.314 84.326 26 81.566 26 78.5C 26 74.9 27.812 71.723 30.574 69.831C 29.569 67.943 29 65.788 29 63.5C 29 56.044 35.044 50 42.5 50C 43.036 50 43.566 50.031 44.086 50.092C 47.712 47.518 52.175 46 57 46C 62.757 46 67.997 48.161 71.918 51.698C 73.024 51.248 74.233 51 75.5 51C 80.747 51 85 55.253 85 60.5C 85 62.899 84.111 65.09 82.644 66.762C 84.733 69.227 86 72.46 86 76C 86 80.162 84.249 83.899 81.469 86.464ZM 18 34C 18 38.418278 21.581722 42 26 42C 30.418278 42 34 38.418278 34 34C 34 29.581722 30.418278 26 26 26C 21.581722 26 18 29.581722 18 34M 18 14C 18 16.209137 16.209137 18 14 18C 11.790863 18 10 16.209137 10 14C 10 11.790863 11.790863 10 14 10C 16.209137 10 18 11.790863 18 14"></path></g></g></g><g id="g-root-3.cu_sy_znsjlwswnuvj-fill" data-item-order="999935494" data-item-id="3.cu_sy_znsjlwswnuvj" data-item-class="Part Indexed Fill Stroke ColorFillGray" data-item-index="3" data-renderer-id="0" transform="translate(338, 176)"><g id="3.cu_sy_znsjlwswnuvj-fill" stroke="none" fill="none"><g><path d="M 28.274 49.698C 27.102 49.247 25.83 49 24.5 49C 18.701 49 14 53.701 14 59.5C 14 60.412 14.116 61.297 14.335 62.141C 11.636 65.308 10 69.457 10 74C 10 79.691 12.567 84.764 16.576 88.063C 16.203 89.14 16 90.296 16 91.5C 16 97.299 20.701 102 26.5 102C 27.29 102 28.06 101.913 28.8 101.747C 31.354 104.365 34.979 106 39 106C 43.501 106 47.507 103.951 50.068 100.768C 51.652 102.158 53.727 103 56 103C 60.971 103 65 98.971 65 94C 65 93.139 64.879 92.307 64.654 91.519C 67.982 87.645 70 82.564 70 77C 70 72.663 68.773 68.618 66.656 65.211C 66.881 64.176 67 63.102 67 62C 67 53.716 60.284 47 52 47C 50.211 47 48.495 47.313 46.904 47.888C 44.542 46.682 41.853 46 39 46C 34.933 46 31.199 47.386 28.274 49.698ZM 62 34C 62 38.418278 65.581722 42 70 42C 74.418278 42 78 38.418278 78 34C 78 29.581722 74.418278 26 70 26C 65.581722 26 62 29.581722 62 34M 86 14C 86 16.209137 84.209137 18 82 18C 79.790863 18 78 16.209137 78 14C 78 11.790863 79.790863 10 82 10C 84.209137 10 86 11.790863 86 14"></path></g></g></g><g id="g-root-3.cu_sy_znsjlwswnuvj-fill" data-item-order="999935494" data-item-id="3.cu_sy_znsjlwswnuvj" data-item-class="Part Indexed Fill Stroke ColorFillGray" data-item-index="3" data-renderer-id="0" transform="translate(338, 176)"><g id="3.cu_sy_znsjlwswnuvj-fill" stroke="none" fill="none"><g><path d="M 28.274 49.698C 27.102 49.247 25.83 49 24.5 49C 18.701 49 14 53.701 14 59.5C 14 60.412 14.116 61.297 14.335 62.141C 11.636 65.308 10 69.457 10 74C 10 79.691 12.567 84.764 16.576 88.063C 16.203 89.14 16 90.296 16 91.5C 16 97.299 20.701 102 26.5 102C 27.29 102 28.06 101.913 28.8 101.747C 31.354 104.365 34.979 106 39 106C 43.501 106 47.507 103.951 50.068 100.768C 51.652 102.158 53.727 103 56 103C 60.971 103 65 98.971 65 94C 65 93.139 64.879 92.307 64.654 91.519C 67.982 87.645 70 82.564 70 77C 70 72.663 68.773 68.618 66.656 65.211C 66.881 64.176 67 63.102 67 62C 67 53.716 60.284 47 52 47C 50.211 47 48.495 47.313 46.904 47.888C 44.542 46.682 41.853 46 39 46C 34.933 46 31.199 47.386 28.274 49.698ZM 62 34C 62 38.418278 65.581722 42 70 42C 74.418278 42 78 38.418278 78 34C 78 29.581722 74.418278 26 70 26C 65.581722 26 62 29.581722 62 34M 86 14C 86 16.209137 84.209137 18 82 18C 79.790863 18 78 16.209137 78 14C 78 11.790863 79.790863 10 82 10C 84.209137 10 86 11.790863 86 14"></path></g></g></g><g id="g-root-2.cu_sy_znsjlwswnuvi-fill" data-item-order="999935496" data-item-id="2.cu_sy_znsjlwswnuvi" data-item-class="Part Indexed Fill Stroke ColorFillGray" data-item-index="2" data-renderer-id="0" transform="translate(510, 80)"><g id="2.cu_sy_znsjlwswnuvi-fill" stroke="none" fill="none"><g><path d="M 83 70C 87.95 70 92.518 68.402 96.194 65.706C 97.782 66.533 99.586 67 101.5 67C 107.851 67 113 61.851 113 55.5C 113 52.514 111.862 49.794 109.996 47.75C 112.435 45.827 114 42.846 114 39.5C 114 37.08 113.181 34.852 111.806 33.076C 111.934 32.237 112 31.376 112 30.5C 112 21.387 104.837 14 96 14C 95.01 14 94.04 14.093 93.099 14.27C 90.011 11.613 85.95 10 81.5 10C 76.933 10 72.774 11.7 69.658 14.483C 68.661 14.169 67.6 14 66.5 14C 60.701 14 56 18.701 56 24.5C 56 27.072 56.925 29.428 58.46 31.254C 56.915 33.417 56 36.098 56 39C 56 41.302 56.575 43.464 57.584 45.339C 55.359 47.746 54 50.964 54 54.5C 54 61.956 60.044 68 67.5 68C 69.122 68 70.677 67.714 72.118 67.19C 75.327 68.978 79.041 70 83 70ZM 28 40C 28 44.418278 31.581722 48 36 48C 40.418278 48 44 44.418278 44 40C 44 35.581722 40.418278 32 36 32C 31.581722 32 28 35.581722 28 40M 18 40C 18 42.209137 16.209167 44 14 44C 11.790863 44 10 42.209137 10 40C 10 37.790863 11.790863 36 14 36C 16.209167 36 18 37.790863 18 40"></path></g></g></g><g id="g-root-2.cu_sy_znsjlwswnuvi-fill" data-item-order="999935496" data-item-id="2.cu_sy_znsjlwswnuvi" data-item-class="Part Indexed Fill Stroke ColorFillGray" data-item-index="2" data-renderer-id="0" transform="translate(510, 80)"><g id="2.cu_sy_znsjlwswnuvi-fill" stroke="none" fill="none"><g><path d="M 83 70C 87.95 70 92.518 68.402 96.194 65.706C 97.782 66.533 99.586 67 101.5 67C 107.851 67 113 61.851 113 55.5C 113 52.514 111.862 49.794 109.996 47.75C 112.435 45.827 114 42.846 114 39.5C 114 37.08 113.181 34.852 111.806 33.076C 111.934 32.237 112 31.376 112 30.5C 112 21.387 104.837 14 96 14C 95.01 14 94.04 14.093 93.099 14.27C 90.011 11.613 85.95 10 81.5 10C 76.933 10 72.774 11.7 69.658 14.483C 68.661 14.169 67.6 14 66.5 14C 60.701 14 56 18.701 56 24.5C 56 27.072 56.925 29.428 58.46 31.254C 56.915 33.417 56 36.098 56 39C 56 41.302 56.575 43.464 57.584 45.339C 55.359 47.746 54 50.964 54 54.5C 54 61.956 60.044 68 67.5 68C 69.122 68 70.677 67.714 72.118 67.19C 75.327 68.978 79.041 70 83 70ZM 28 40C 28 44.418278 31.581722 48 36 48C 40.418278 48 44 44.418278 44 40C 44 35.581722 40.418278 32 36 32C 31.581722 32 28 35.581722 28 40M 18 40C 18 42.209137 16.209167 44 14 44C 11.790863 44 10 42.209137 10 40C 10 37.790863 11.790863 36 14 36C 16.209167 36 18 37.790863 18 40"></path></g></g></g><g id="g-root-1.cu_sy_znsjlwswnuvh-fill" data-item-order="999935498" data-item-id="1.cu_sy_znsjlwswnuvh" data-item-class="Part Indexed Indexed_1 Fill Stroke ColorFillGray" data-item-index="1" data-renderer-id="0" transform="translate(278, 80)"><g id="1.cu_sy_znsjlwswnuvh-fill" stroke="none" fill="none"><g><path d="M 20.598 19C 20.565 19 20.533 19 20.5 19C 14.701 19 10 23.701 10 29.5C 10 32.574 11.321 35.339 13.426 37.259C 13.147 38.459 13 39.712 13 41C 13 41.745 13.049 42.478 13.145 43.196C 11.788 45.301 11 47.809 11 50.5C 11 57.956 17.044 64 24.5 64C 24.847 64 25.19 63.987 25.53 63.961C 29.172 67.682 34.308 70 40 70C 45.641 70 50.737 67.723 54.373 64.059C 55.621 64.662 57.021 65 58.5 65C 63.747 65 68 60.747 68 55.5C 68 52.628 66.726 50.055 64.712 48.313C 67.948 45.469 70 41.232 70 36.5C 70 32.425 68.478 28.717 65.99 25.95C 65.996 25.801 66 25.651 66 25.5C 66 20.253 61.747 16 56.5 16C 55.92 16 55.353 16.052 54.802 16.151C 50.681 12.338 45.12 10 39 10C 31.475 10 24.794 13.535 20.598 19ZM 80 40C 80 44.418278 83.581722 48 88 48C 92.418278 48 96 44.418278 96 40C 96 35.581722 92.418278 32 88 32C 83.581722 32 80 35.581722 80 40M 114 40C 114 42.209137 112.209137 44 110 44C 107.790863 44 106 42.209137 106 40C 106 37.790863 107.790863 36 110 36C 112.209137 36 114 37.790863 114 40"></path></g></g></g><g id="g-root-1.cu_sy_znsjlwswnuvh-fill" data-item-order="999935498" data-item-id="1.cu_sy_znsjlwswnuvh" data-item-class="Part Indexed Indexed_1 Fill Stroke ColorFillGray" data-item-index="1" data-renderer-id="0" transform="translate(278, 80)"><g id="1.cu_sy_znsjlwswnuvh-fill" stroke="none" fill="none"><g><path d="M 20.598 19C 20.565 19 20.533 19 20.5 19C 14.701 19 10 23.701 10 29.5C 10 32.574 11.321 35.339 13.426 37.259C 13.147 38.459 13 39.712 13 41C 13 41.745 13.049 42.478 13.145 43.196C 11.788 45.301 11 47.809 11 50.5C 11 57.956 17.044 64 24.5 64C 24.847 64 25.19 63.987 25.53 63.961C 29.172 67.682 34.308 70 40 70C 45.641 70 50.737 67.723 54.373 64.059C 55.621 64.662 57.021 65 58.5 65C 63.747 65 68 60.747 68 55.5C 68 52.628 66.726 50.055 64.712 48.313C 67.948 45.469 70 41.232 70 36.5C 70 32.425 68.478 28.717 65.99 25.95C 65.996 25.801 66 25.651 66 25.5C 66 20.253 61.747 16 56.5 16C 55.92 16 55.353 16.052 54.802 16.151C 50.681 12.338 45.12 10 39 10C 31.475 10 24.794 13.535 20.598 19ZM 80 40C 80 44.418278 83.581722 48 88 48C 92.418278 48 96 44.418278 96 40C 96 35.581722 92.418278 32 88 32C 83.581722 32 80 35.581722 80 40M 114 40C 114 42.209137 112.209137 44 110 44C 107.790863 44 106 42.209137 106 40C 106 37.790863 107.790863 36 110 36C 112.209137 36 114 37.790863 114 40"></path></g></g></g><g id="g-root-comp_1hfp4ckswcky2-fill" data-item-order="1000000000" data-item-id="comp_1hfp4ckswcky2" data-item-class="Icon Stroke Indexed Indexed_1 InsideFill InsideGrayFill" data-item-index="1" data-renderer-id="0" transform="translate(290, 92)"></g><g id="g-root-comp_1hfp4ckswcky2-fill" data-item-order="1000000000" data-item-id="comp_1hfp4ckswcky2" data-item-class="Icon Stroke Indexed Indexed_1 InsideFill InsideGrayFill" data-item-index="1" data-renderer-id="0" transform="translate(290, 92)"></g><g id="g-root-tx_focusond_6hgskswntag-fill" data-item-order="1000000000" data-item-id="tx_focusond_6hgskswntag" data-item-class="Label Stroke Indexed Indexed_1 ColorFillBlack ColorStrokeBlack" data-item-index="1" data-renderer-id="0" transform="translate(38, 98)"><g id="tx_focusond_6hgskswntag-fill" stroke="none" fill="#484848"><g><text style="font: bold 20px Roboto, sans-serif; white-space: pre;" font-weight="bold" font-size="20" font-family="Roboto, sans-serif"><tspan x="19.45" y="33.5" dominant-baseline="ideographic">Focus on Design Quality</tspan></text></g></g></g><g id="g-root-tx_focusond_6hgskswntag-fill" data-item-order="1000000000" data-item-id="tx_focusond_6hgskswntag" data-item-class="Label Stroke Indexed Indexed_1 ColorFillBlack ColorStrokeBlack" data-item-index="1" data-renderer-id="0" transform="translate(38, 98)"><g id="tx_focusond_6hgskswntag-fill" stroke="none" fill="#484848"><g><text style="font: bold 20px Roboto, sans-serif; white-space: pre;" font-weight="bold" font-size="20" font-family="Roboto, sans-serif"><tspan x="19.45" y="33.5" dominant-baseline="ideographic">Focus on Design Quality</tspan></text></g></g></g><g id="g-root-decr_1qbc4lgswck5d-fill" data-item-order="1000000000" data-item-id="decr_1qbc4lgswck5d" data-item-class="Icon Stroke Indexed InsideFill InsideGrayFill" data-item-index="2" data-renderer-id="0" transform="translate(566, 92)"></g><g id="g-root-decr_1qbc4lgswck5d-fill" data-item-order="1000000000" data-item-id="decr_1qbc4lgswck5d" data-item-class="Icon Stroke Indexed InsideFill InsideGrayFill" data-item-index="2" data-renderer-id="0" transform="translate(566, 92)"></g><g id="g-root-tx_prioriti_4mayx0swnsi6-fill" data-item-order="1000000000" data-item-id="tx_prioriti_4mayx0swnsi6" data-item-class="Label Stroke Indexed ColorFillBlack ColorStrokeBlack" data-item-index="2" data-renderer-id="0" transform="translate(626, 98)"><g id="tx_prioriti_4mayx0swnsi6-fill" stroke="none" fill="#484848"><g><text style="font: bold 20px Roboto, sans-serif; white-space: pre;" font-weight="bold" font-size="20" font-family="Roboto, sans-serif"><tspan x="12" y="33.5" dominant-baseline="ideographic">Prioritize Performance</tspan></text></g></g></g><g id="g-root-tx_prioriti_4mayx0swnsi6-fill" data-item-order="1000000000" data-item-id="tx_prioriti_4mayx0swnsi6" data-item-class="Label Stroke Indexed ColorFillBlack ColorStrokeBlack" data-item-index="2" data-renderer-id="0" transform="translate(626, 98)"><g id="tx_prioriti_4mayx0swnsi6-fill" stroke="none" fill="#484848"><g><text style="font: bold 20px Roboto, sans-serif; white-space: pre;" font-weight="bold" font-size="20" font-family="Roboto, sans-serif"><tspan x="12" y="33.5" dominant-baseline="ideographic">Prioritize Performance</tspan></text></g></g></g><g id="g-root-tx_clearint_4mayx0swnsi7-fill" data-item-order="1000000000" data-item-id="tx_clearint_4mayx0swnsi7" data-item-class="Label Stroke Indexed Indexed_1 ColorStrokeBlack" data-item-index="1" data-renderer-id="0" transform="translate(2, 134)"><g id="tx_clearint_4mayx0swnsi7-fill" stroke="none" fill="#484848"><g><text style="font: 20px Roboto, sans-serif; white-space: pre;" font-weight="20px" font-size="Roboto," font-family="sans-serif"><tspan x="18.08" y="33.5" dominant-baseline="ideographic">Clear interfaces, proper error </tspan><tspan x="51.18" y="57.5" dominant-baseline="ideographic">handling, comprehensive </tspan><tspan x="132.16" y="81.5" dominant-baseline="ideographic">documentation.</tspan></text></g></g></g><g id="g-root-tx_clearint_4mayx0swnsi7-fill" data-item-order="1000000000" data-item-id="tx_clearint_4mayx0swnsi7" data-item-class="Label Stroke Indexed Indexed_1 ColorStrokeBlack" data-item-index="1" data-renderer-id="0" transform="translate(2, 134)"><g id="tx_clearint_4mayx0swnsi7-fill" stroke="none" fill="#484848"><g><text style="font: 20px Roboto, sans-serif; white-space: pre;" font-weight="20px" font-size="Roboto," font-family="sans-serif"><tspan x="18.08" y="33.5" dominant-baseline="ideographic">Clear interfaces, proper error </tspan><tspan x="51.18" y="57.5" dominant-baseline="ideographic">handling, comprehensive </tspan><tspan x="132.16" y="81.5" dominant-baseline="ideographic">documentation.</tspan></text></g></g></g><g id="g-root-tx_optimize_dhbi2sswnuv9-fill" data-item-order="1000000000" data-item-id="tx_optimize_dhbi2sswnuv9" data-item-class="Label Stroke Indexed ColorStrokeBlack" data-item-index="2" data-renderer-id="0" transform="translate(626, 134)"><g id="tx_optimize_dhbi2sswnuv9-fill" stroke="none" fill="#484848"><g><text style="font: 20px Roboto, sans-serif; white-space: pre;" font-weight="20px" font-size="Roboto," font-family="sans-serif"><tspan x="12" y="33.5" dominant-baseline="ideographic">Optimize response times, </tspan><tspan x="12" y="57.5" dominant-baseline="ideographic">resource usage, scalability.</tspan></text></g></g></g><g id="g-root-tx_optimize_dhbi2sswnuv9-fill" data-item-order="1000000000" data-item-id="tx_optimize_dhbi2sswnuv9" data-item-class="Label Stroke Indexed ColorStrokeBlack" data-item-index="2" data-renderer-id="0" transform="translate(626, 134)"><g id="tx_optimize_dhbi2sswnuv9-fill" stroke="none" fill="#484848"><g><text style="font: 20px Roboto, sans-serif; white-space: pre;" font-weight="20px" font-size="Roboto," font-family="sans-serif"><tspan x="12" y="33.5" dominant-baseline="ideographic">Optimize response times, </tspan><tspan x="12" y="57.5" dominant-baseline="ideographic">resource usage, scalability.</tspan></text></g></g></g><g id="g-root-face_dgp45gswckcu-fill" data-item-order="1000000000" data-item-id="face_dgp45gswckcu" data-item-class="Icon Stroke Indexed Indexed_0 ColorFillBlack ColorStrokeBlack" data-item-index="0" data-renderer-id="0" transform="translate(410, 74)"></g><g id="g-root-face_dgp45gswckcu-fill" data-item-order="1000000000" data-item-id="face_dgp45gswckcu" data-item-class="Icon Stroke Indexed Indexed_0 ColorFillBlack ColorStrokeBlack" data-item-index="0" data-renderer-id="0" transform="translate(410, 74)"></g><g id="g-root-tx_howtoens_6hgskswntah-fill" data-item-order="1000000000" data-item-id="tx_howtoens_6hgskswntah" data-item-class="Label Stroke Title ColorFillBlack ColorStrokeBlack" data-item-index="none" data-renderer-id="0" transform="translate(302, 2)"><g id="tx_howtoens_6hgskswntah-fill" stroke="none" fill="#484848"><g><text style="font: bold 20px Roboto, sans-serif; white-space: pre;" font-weight="bold" font-size="20" font-family="Roboto, sans-serif"><tspan x="17.11" y="33.5" dominant-baseline="ideographic">How to ensure successful API </tspan><tspan x="88.18" y="57.5" dominant-baseline="ideographic">development?</tspan></text></g></g></g><g id="g-root-tx_ensurese_dhbi2sswnuv8-fill" data-item-order="1000000000" data-item-id="tx_ensurese_dhbi2sswnuv8" data-item-class="Label Stroke Indexed ColorFillBlack ColorStrokeBlack" data-item-index="3" data-renderer-id="0" transform="translate(170, 230)"><g id="tx_ensurese_dhbi2sswnuv8-fill" stroke="none" fill="#484848"><g><text style="font: bold 20px Roboto, sans-serif; white-space: pre;" font-weight="bold" font-size="20" font-family="Roboto, sans-serif"><tspan x="23.05" y="33.5" dominant-baseline="ideographic">Ensure Security</tspan></text></g></g></g><g id="g-root-tx_ensurese_dhbi2sswnuv8-fill" data-item-order="1000000000" data-item-id="tx_ensurese_dhbi2sswnuv8" data-item-class="Label Stroke Indexed ColorFillBlack ColorStrokeBlack" data-item-index="3" data-renderer-id="0" transform="translate(170, 230)"><g id="tx_ensurese_dhbi2sswnuv8-fill" stroke="none" fill="#484848"><g><text style="font: bold 20px Roboto, sans-serif; white-space: pre;" font-weight="bold" font-size="20" font-family="Roboto, sans-serif"><tspan x="23.05" y="33.5" dominant-baseline="ideographic">Ensure Security</tspan></text></g></g></g><g id="g-root-chec_1qbc4lgswck5c-fill" data-item-order="1000000000" data-item-id="chec_1qbc4lgswck5c" data-item-class="Icon Stroke Indexed InsideFill InsideGrayFill" data-item-index="3" data-renderer-id="0" transform="translate(350, 224)"></g><g id="g-root-chec_1qbc4lgswck5c-fill" data-item-order="1000000000" data-item-id="chec_1qbc4lgswck5c" data-item-class="Icon Stroke Indexed InsideFill InsideGrayFill" data-item-index="3" data-renderer-id="0" transform="translate(350, 224)"></g><g id="g-root-incr_1uqj5msswcmiv-fill" data-item-order="1000000000" data-item-id="incr_1uqj5msswcmiv" data-item-class="Icon Stroke Indexed InsideFill InsideGrayFill" data-item-index="4" data-renderer-id="0" transform="translate(506, 224)"></g><g id="g-root-tx_createea_v8likkswnsi1-fill" data-item-order="1000000000" data-item-id="tx_createea_v8likkswnsi1" data-item-class="Label Stroke Indexed ColorStrokeBlack" data-item-index="4" data-renderer-id="0" transform="translate(566, 266)"><g id="tx_createea_v8likkswnsi1-fill" stroke="none" fill="#484848"><g><text style="font: 20px Roboto, sans-serif; white-space: pre;" font-weight="20px" font-size="Roboto," font-family="sans-serif"><tspan x="12" y="33.5" dominant-baseline="ideographic">Create easy-to-understand, </tspan><tspan x="12" y="57.5" dominant-baseline="ideographic">well-documented, and </tspan><tspan x="12" y="81.5" dominant-baseline="ideographic">reliable APIs.</tspan></text></g></g></g><g id="g-root-tx_enhanced_qss0g4swntaa-fill" data-item-order="1000000000" data-item-id="tx_enhanced_qss0g4swntaa" data-item-class="Label Stroke Indexed ColorFillBlack ColorStrokeBlack" data-item-index="4" data-renderer-id="0" transform="translate(566, 230)"><g id="tx_enhanced_qss0g4swntaa-fill" stroke="none" fill="#484848"><g><text style="font: bold 20px Roboto, sans-serif; white-space: pre;" font-weight="bold" font-size="20" font-family="Roboto, sans-serif"><tspan x="12" y="33.5" dominant-baseline="ideographic">Enhance Developer Experience</tspan></text></g></g></g><g id="g-root-tx_enhanced_qss0g4swntaa-fill" data-item-order="1000000000" data-item-id="tx_enhanced_qss0g4swntaa" data-item-class="Label Stroke Indexed ColorFillBlack ColorStrokeBlack" data-item-index="4" data-renderer-id="0" transform="translate(566, 230)"><g id="tx_enhanced_qss0g4swntaa-fill" stroke="none" fill="#484848"><g><text style="font: bold 20px Roboto, sans-serif; white-space: pre;" font-weight="bold" font-size="20" font-family="Roboto, sans-serif"><tspan x="12" y="33.5" dominant-baseline="ideographic">Enhance Developer Experience</tspan></text></g></g></g><g id="g-root-tx_implemen_hx5078swnu2z-fill" data-item-order="1000000000" data-item-id="tx_implemen_hx5078swnu2z" data-item-class="Label Stroke Indexed ColorStrokeBlack" data-item-index="3" data-renderer-id="0" transform="translate(62, 266)"><g id="tx_implemen_hx5078swnu2z-fill" stroke="none" fill="#484848"><g><text style="font: 20px Roboto, sans-serif; white-space: pre;" font-weight="20px" font-size="Roboto," font-family="sans-serif"><tspan x="114.64" y="33.5" dominant-baseline="ideographic">Implement robust </tspan><tspan x="14.45" y="57.5" dominant-baseline="ideographic">authentication, authorization, </tspan><tspan x="93.45" y="81.5" dominant-baseline="ideographic">and data protection.</tspan></text></g></g></g><g id="g-root-tx_implemen_hx5078swnu2z-fill" data-item-order="1000000000" data-item-id="tx_implemen_hx5078swnu2z" data-item-class="Label Stroke Indexed ColorStrokeBlack" data-item-index="3" data-renderer-id="0" transform="translate(62, 266)"><g id="tx_implemen_hx5078swnu2z-fill" stroke="none" fill="#484848"><g><text style="font: 20px Roboto, sans-serif; white-space: pre;" font-weight="20px" font-size="Roboto," font-family="sans-serif"><tspan x="114.64" y="33.5" dominant-baseline="ideographic">Implement robust </tspan><tspan x="14.45" y="57.5" dominant-baseline="ideographic">authentication, authorization, </tspan><tspan x="93.45" y="81.5" dominant-baseline="ideographic">and data protection.</tspan></text></g></g></g><g id="g-root-tx_createea_v8likkswnsi1-fill" data-item-order="1000000000" data-item-id="tx_createea_v8likkswnsi1" data-item-class="Label Stroke Indexed ColorStrokeBlack" data-item-index="4" data-renderer-id="0" transform="translate(566, 266)"><g id="tx_createea_v8likkswnsi1-fill" stroke="none" fill="#484848"><g><text style="font: 20px Roboto, sans-serif; white-space: pre;" font-weight="20px" font-size="Roboto," font-family="sans-serif"><tspan x="12" y="33.5" dominant-baseline="ideographic">Create easy-to-understand, </tspan><tspan x="12" y="57.5" dominant-baseline="ideographic">well-documented, and </tspan><tspan x="12" y="81.5" dominant-baseline="ideographic">reliable APIs.</tspan></text></g></g></g><g id="g-root-tx_howtoens_6hgskswntah-fill" data-item-order="1000000000" data-item-id="tx_howtoens_6hgskswntah" data-item-class="Label Stroke Title ColorFillBlack ColorStrokeBlack" data-item-index="none" data-renderer-id="0" transform="translate(302, 2)"><g id="tx_howtoens_6hgskswntah-fill" stroke="none" fill="#484848"><g><text style="font: bold 20px Roboto, sans-serif; white-space: pre;" font-weight="bold" font-size="20" font-family="Roboto, sans-serif"><tspan x="17.11" y="33.5" dominant-baseline="ideographic">How to ensure successful API </tspan><tspan x="88.18" y="57.5" dominant-baseline="ideographic">development?</tspan></text></g></g></g><g id="g-root-incr_1uqj5msswcmiv-fill" data-item-order="1000000000" data-item-id="incr_1uqj5msswcmiv" data-item-class="Icon Stroke Indexed InsideFill InsideGrayFill" data-item-index="4" data-renderer-id="0" transform="translate(506, 224)"></g><g id="g-root-4.cu_sy_v8likkswnsi0-stroke" data-item-order="999935492" data-item-id="4.cu_sy_v8likkswnsi0" data-item-class="Part Indexed Fill Stroke ColorFillGray" data-item-index="4" data-renderer-id="0" transform="translate(478, 176)"><g id="4.cu_sy_v8likkswnsi0-stroke" fill="none" stroke-linecap="round" stroke-linejoin="round" stroke-miterlimit="4" stroke="#e3cd09" stroke-width="2"><g><path d="M 81.469 86.464C 81.815 87.751 82 89.104 82 90.5C 82 99.06 75.06 106 66.5 106C 63.433 106 60.575 105.109 58.169 103.573C 56.496 104.481 54.561 105 52.5 105C 49.212 105 46.247 103.68 44.151 101.565C 43.147 101.849 42.09 102 41 102C 34.373 102 29 96.404 29 89.5C 29 88.374 29.143 87.283 29.411 86.246C 27.314 84.326 26 81.566 26 78.5C 26 74.9 27.812 71.723 30.574 69.831C 29.569 67.943 29 65.788 29 63.5C 29 56.044 35.044 50 42.5 50C 43.036 50 43.566 50.031 44.086 50.092C 47.712 47.518 52.175 46 57 46C 62.757 46 67.997 48.161 71.918 51.698C 73.024 51.248 74.233 51 75.5 51C 80.747 51 85 55.253 85 60.5C 85 62.899 84.111 65.09 82.644 66.762C 84.733 69.227 86 72.46 86 76C 86 80.162 84.249 83.899 81.469 86.464ZM 18 34C 18 38.418278 21.581722 42 26 42C 30.418278 42 34 38.418278 34 34C 34 29.581722 30.418278 26 26 26C 21.581722 26 18 29.581722 18 34M 18 14C 18 16.209137 16.209137 18 14 18C 11.790863 18 10 16.209137 10 14C 10 11.790863 11.790863 10 14 10C 16.209137 10 18 11.790863 18 14"></path></g></g></g><g id="g-root-4.cu_sy_v8likkswnsi0-stroke" data-item-order="999935492" data-item-id="4.cu_sy_v8likkswnsi0" data-item-class="Part Indexed Fill Stroke ColorFillGray" data-item-index="4" data-renderer-id="0" transform="translate(478, 176)"><g id="4.cu_sy_v8likkswnsi0-stroke" fill="none" stroke-linecap="round" stroke-linejoin="round" stroke-miterlimit="4" stroke="#e3cd09" stroke-width="2"><g><path d="M 81.469 86.464C 81.815 87.751 82 89.104 82 90.5C 82 99.06 75.06 106 66.5 106C 63.433 106 60.575 105.109 58.169 103.573C 56.496 104.481 54.561 105 52.5 105C 49.212 105 46.247 103.68 44.151 101.565C 43.147 101.849 42.09 102 41 102C 34.373 102 29 96.404 29 89.5C 29 88.374 29.143 87.283 29.411 86.246C 27.314 84.326 26 81.566 26 78.5C 26 74.9 27.812 71.723 30.574 69.831C 29.569 67.943 29 65.788 29 63.5C 29 56.044 35.044 50 42.5 50C 43.036 50 43.566 50.031 44.086 50.092C 47.712 47.518 52.175 46 57 46C 62.757 46 67.997 48.161 71.918 51.698C 73.024 51.248 74.233 51 75.5 51C 80.747 51 85 55.253 85 60.5C 85 62.899 84.111 65.09 82.644 66.762C 84.733 69.227 86 72.46 86 76C 86 80.162 84.249 83.899 81.469 86.464ZM 18 34C 18 38.418278 21.581722 42 26 42C 30.418278 42 34 38.418278 34 34C 34 29.581722 30.418278 26 26 26C 21.581722 26 18 29.581722 18 34M 18 14C 18 16.209137 16.209137 18 14 18C 11.790863 18 10 16.209137 10 14C 10 11.790863 11.790863 10 14 10C 16.209137 10 18 11.790863 18 14"></path></g></g></g><g id="g-root-3.cu_sy_znsjlwswnuvj-stroke" data-item-order="999935494" data-item-id="3.cu_sy_znsjlwswnuvj" data-item-class="Part Indexed Fill Stroke ColorFillGray" data-item-index="3" data-renderer-id="0" transform="translate(338, 176)"><g id="3.cu_sy_znsjlwswnuvj-stroke" fill="none" stroke-linecap="round" stroke-linejoin="round" stroke-miterlimit="4" stroke="#b65edf" stroke-width="2"><g><path d="M 28.274 49.698C 27.102 49.247 25.83 49 24.5 49C 18.701 49 14 53.701 14 59.5C 14 60.412 14.116 61.297 14.335 62.141C 11.636 65.308 10 69.457 10 74C 10 79.691 12.567 84.764 16.576 88.063C 16.203 89.14 16 90.296 16 91.5C 16 97.299 20.701 102 26.5 102C 27.29 102 28.06 101.913 28.8 101.747C 31.354 104.365 34.979 106 39 106C 43.501 106 47.507 103.951 50.068 100.768C 51.652 102.158 53.727 103 56 103C 60.971 103 65 98.971 65 94C 65 93.139 64.879 92.307 64.654 91.519C 67.982 87.645 70 82.564 70 77C 70 72.663 68.773 68.618 66.656 65.211C 66.881 64.176 67 63.102 67 62C 67 53.716 60.284 47 52 47C 50.211 47 48.495 47.313 46.904 47.888C 44.542 46.682 41.853 46 39 46C 34.933 46 31.199 47.386 28.274 49.698ZM 62 34C 62 38.418278 65.581722 42 70 42C 74.418278 42 78 38.418278 78 34C 78 29.581722 74.418278 26 70 26C 65.581722 26 62 29.581722 62 34M 86 14C 86 16.209137 84.209137 18 82 18C 79.790863 18 78 16.209137 78 14C 78 11.790863 79.790863 10 82 10C 84.209137 10 86 11.790863 86 14"></path></g></g></g><g id="g-root-3.cu_sy_znsjlwswnuvj-stroke" data-item-order="999935494" data-item-id="3.cu_sy_znsjlwswnuvj" data-item-class="Part Indexed Fill Stroke ColorFillGray" data-item-index="3" data-renderer-id="0" transform="translate(338, 176)"><g id="3.cu_sy_znsjlwswnuvj-stroke" fill="none" stroke-linecap="round" stroke-linejoin="round" stroke-miterlimit="4" stroke="#b65edf" stroke-width="2"><g><path d="M 28.274 49.698C 27.102 49.247 25.83 49 24.5 49C 18.701 49 14 53.701 14 59.5C 14 60.412 14.116 61.297 14.335 62.141C 11.636 65.308 10 69.457 10 74C 10 79.691 12.567 84.764 16.576 88.063C 16.203 89.14 16 90.296 16 91.5C 16 97.299 20.701 102 26.5 102C 27.29 102 28.06 101.913 28.8 101.747C 31.354 104.365 34.979 106 39 106C 43.501 106 47.507 103.951 50.068 100.768C 51.652 102.158 53.727 103 56 103C 60.971 103 65 98.971 65 94C 65 93.139 64.879 92.307 64.654 91.519C 67.982 87.645 70 82.564 70 77C 70 72.663 68.773 68.618 66.656 65.211C 66.881 64.176 67 63.102 67 62C 67 53.716 60.284 47 52 47C 50.211 47 48.495 47.313 46.904 47.888C 44.542 46.682 41.853 46 39 46C 34.933 46 31.199 47.386 28.274 49.698ZM 62 34C 62 38.418278 65.581722 42 70 42C 74.418278 42 78 38.418278 78 34C 78 29.581722 74.418278 26 70 26C 65.581722 26 62 29.581722 62 34M 86 14C 86 16.209137 84.209137 18 82 18C 79.790863 18 78 16.209137 78 14C 78 11.790863 79.790863 10 82 10C 84.209137 10 86 11.790863 86 14"></path></g></g></g><g id="g-root-2.cu_sy_znsjlwswnuvi-stroke" data-item-order="999935496" data-item-id="2.cu_sy_znsjlwswnuvi" data-item-class="Part Indexed Fill Stroke ColorFillGray" data-item-index="2" data-renderer-id="0" transform="translate(510, 80)"><g id="2.cu_sy_znsjlwswnuvi-stroke" fill="none" stroke-linecap="round" stroke-linejoin="round" stroke-miterlimit="4" stroke="#17b0e3" stroke-width="2"><g><path d="M 83 70C 87.95 70 92.518 68.402 96.194 65.706C 97.782 66.533 99.586 67 101.5 67C 107.851 67 113 61.851 113 55.5C 113 52.514 111.862 49.794 109.996 47.75C 112.435 45.827 114 42.846 114 39.5C 114 37.08 113.181 34.852 111.806 33.076C 111.934 32.237 112 31.376 112 30.5C 112 21.387 104.837 14 96 14C 95.01 14 94.04 14.093 93.099 14.27C 90.011 11.613 85.95 10 81.5 10C 76.933 10 72.774 11.7 69.658 14.483C 68.661 14.169 67.6 14 66.5 14C 60.701 14 56 18.701 56 24.5C 56 27.072 56.925 29.428 58.46 31.254C 56.915 33.417 56 36.098 56 39C 56 41.302 56.575 43.464 57.584 45.339C 55.359 47.746 54 50.964 54 54.5C 54 61.956 60.044 68 67.5 68C 69.122 68 70.677 67.714 72.118 67.19C 75.327 68.978 79.041 70 83 70ZM 28 40C 28 44.418278 31.581722 48 36 48C 40.418278 48 44 44.418278 44 40C 44 35.581722 40.418278 32 36 32C 31.581722 32 28 35.581722 28 40M 18 40C 18 42.209137 16.209167 44 14 44C 11.790863 44 10 42.209137 10 40C 10 37.790863 11.790863 36 14 36C 16.209167 36 18 37.790863 18 40"></path></g></g></g><g id="g-root-2.cu_sy_znsjlwswnuvi-stroke" data-item-order="999935496" data-item-id="2.cu_sy_znsjlwswnuvi" data-item-class="Part Indexed Fill Stroke ColorFillGray" data-item-index="2" data-renderer-id="0" transform="translate(510, 80)"><g id="2.cu_sy_znsjlwswnuvi-stroke" fill="none" stroke-linecap="round" stroke-linejoin="round" stroke-miterlimit="4" stroke="#17b0e3" stroke-width="2"><g><path d="M 83 70C 87.95 70 92.518 68.402 96.194 65.706C 97.782 66.533 99.586 67 101.5 67C 107.851 67 113 61.851 113 55.5C 113 52.514 111.862 49.794 109.996 47.75C 112.435 45.827 114 42.846 114 39.5C 114 37.08 113.181 34.852 111.806 33.076C 111.934 32.237 112 31.376 112 30.5C 112 21.387 104.837 14 96 14C 95.01 14 94.04 14.093 93.099 14.27C 90.011 11.613 85.95 10 81.5 10C 76.933 10 72.774 11.7 69.658 14.483C 68.661 14.169 67.6 14 66.5 14C 60.701 14 56 18.701 56 24.5C 56 27.072 56.925 29.428 58.46 31.254C 56.915 33.417 56 36.098 56 39C 56 41.302 56.575 43.464 57.584 45.339C 55.359 47.746 54 50.964 54 54.5C 54 61.956 60.044 68 67.5 68C 69.122 68 70.677 67.714 72.118 67.19C 75.327 68.978 79.041 70 83 70ZM 28 40C 28 44.418278 31.581722 48 36 48C 40.418278 48 44 44.418278 44 40C 44 35.581722 40.418278 32 36 32C 31.581722 32 28 35.581722 28 40M 18 40C 18 42.209137 16.209167 44 14 44C 11.790863 44 10 42.209137 10 40C 10 37.790863 11.790863 36 14 36C 16.209167 36 18 37.790863 18 40"></path></g></g></g><g id="g-root-1.cu_sy_znsjlwswnuvh-stroke" data-item-order="999935498" data-item-id="1.cu_sy_znsjlwswnuvh" data-item-class="Part Indexed Indexed_1 Fill Stroke ColorFillGray" data-item-index="1" data-renderer-id="0" transform="translate(278, 80)"><g id="1.cu_sy_znsjlwswnuvh-stroke" fill="none" stroke-linecap="round" stroke-linejoin="round" stroke-miterlimit="4" stroke="#93c131" stroke-width="2"><g><path d="M 20.598 19C 20.565 19 20.533 19 20.5 19C 14.701 19 10 23.701 10 29.5C 10 32.574 11.321 35.339 13.426 37.259C 13.147 38.459 13 39.712 13 41C 13 41.745 13.049 42.478 13.145 43.196C 11.788 45.301 11 47.809 11 50.5C 11 57.956 17.044 64 24.5 64C 24.847 64 25.19 63.987 25.53 63.961C 29.172 67.682 34.308 70 40 70C 45.641 70 50.737 67.723 54.373 64.059C 55.621 64.662 57.021 65 58.5 65C 63.747 65 68 60.747 68 55.5C 68 52.628 66.726 50.055 64.712 48.313C 67.948 45.469 70 41.232 70 36.5C 70 32.425 68.478 28.717 65.99 25.95C 65.996 25.801 66 25.651 66 25.5C 66 20.253 61.747 16 56.5 16C 55.92 16 55.353 16.052 54.802 16.151C 50.681 12.338 45.12 10 39 10C 31.475 10 24.794 13.535 20.598 19ZM 80 40C 80 44.418278 83.581722 48 88 48C 92.418278 48 96 44.418278 96 40C 96 35.581722 92.418278 32 88 32C 83.581722 32 80 35.581722 80 40M 114 40C 114 42.209137 112.209137 44 110 44C 107.790863 44 106 42.209137 106 40C 106 37.790863 107.790863 36 110 36C 112.209137 36 114 37.790863 114 40"></path></g></g></g><g id="g-root-1.cu_sy_znsjlwswnuvh-stroke" data-item-order="999935498" data-item-id="1.cu_sy_znsjlwswnuvh" data-item-class="Part Indexed Indexed_1 Fill Stroke ColorFillGray" data-item-index="1" data-renderer-id="0" transform="translate(278, 80)"><g id="1.cu_sy_znsjlwswnuvh-stroke" fill="none" stroke-linecap="round" stroke-linejoin="round" stroke-miterlimit="4" stroke="#93c131" stroke-width="2"><g><path d="M 20.598 19C 20.565 19 20.533 19 20.5 19C 14.701 19 10 23.701 10 29.5C 10 32.574 11.321 35.339 13.426 37.259C 13.147 38.459 13 39.712 13 41C 13 41.745 13.049 42.478 13.145 43.196C 11.788 45.301 11 47.809 11 50.5C 11 57.956 17.044 64 24.5 64C 24.847 64 25.19 63.987 25.53 63.961C 29.172 67.682 34.308 70 40 70C 45.641 70 50.737 67.723 54.373 64.059C 55.621 64.662 57.021 65 58.5 65C 63.747 65 68 60.747 68 55.5C 68 52.628 66.726 50.055 64.712 48.313C 67.948 45.469 70 41.232 70 36.5C 70 32.425 68.478 28.717 65.99 25.95C 65.996 25.801 66 25.651 66 25.5C 66 20.253 61.747 16 56.5 16C 55.92 16 55.353 16.052 54.802 16.151C 50.681 12.338 45.12 10 39 10C 31.475 10 24.794 13.535 20.598 19ZM 80 40C 80 44.418278 83.581722 48 88 48C 92.418278 48 96 44.418278 96 40C 96 35.581722 92.418278 32 88 32C 83.581722 32 80 35.581722 80 40M 114 40C 114 42.209137 112.209137 44 110 44C 107.790863 44 106 42.209137 106 40C 106 37.790863 107.790863 36 110 36C 112.209137 36 114 37.790863 114 40"></path></g></g></g><g id="g-root-comp_1hfp4ckswcky2-stroke" data-item-order="1000000000" data-item-id="comp_1hfp4ckswcky2" data-item-class="Icon Stroke Indexed Indexed_1 InsideFill InsideGrayFill" data-item-index="1" data-renderer-id="0" transform="translate(290, 92)"><g id="comp_1hfp4ckswcky2-stroke" fill="none" stroke-linecap="round" stroke-linejoin="round" stroke-miterlimit="4" stroke="#93c131" stroke-width="2"><g><path d="M 12.25 27.25L 12.25 18.25C 12.25 16.593145 13.593145 15.25 15.25 15.25C 16.906855 15.25 18.25 16.593145 18.25 18.25L 18.25 27.25M 18.25 34.18L 18.25 37.75C 18.214483 38.735126 17.985109 39.70359 17.575001 40.599998L 15.58 44.574997C 15.4 44.949997 15.1 44.949997 14.92 44.574997L 13 40.599998C 12.586003 39.689056 12.356586 38.705112 12.325 37.705002L 12.325 34.18M 18.25 19.705L 12.25 19.705M 18.040001 39.25L 12.46 39.25M 32.635002 19.75L 43.555 38.635002C 43.985374 39.335766 43.771271 40.252396 43.074997 40.689999L 42.175003 41.23C 41.470345 41.65765 40.552643 41.4366 40.119999 40.735001L 28.119999 19.735001M 42.685001 40.93L 45.25 45.25M 23.635 15.25C 23.635 12.764719 25.649719 10.75 28.135 10.75C 30.620281 10.75 32.635002 12.764719 32.635002 15.25L 32.635002 19.75L 23.635 19.75ZM 23.635 19.75L 20.83 28.84C 20.483593 29.661345 19.695513 30.210081 18.805 30.25L 11.5 30.25C 11.085787 30.25 10.75 30.585787 10.75 31L 10.75 33.43C 10.75 33.844212 11.085787 34.18 11.5 34.18L 21.76 34.18C 22.64579 34.139198 23.431248 33.59811 23.785 32.784996L 28.135 19.75"></path></g></g></g><g id="g-root-comp_1hfp4ckswcky2-stroke" data-item-order="1000000000" data-item-id="comp_1hfp4ckswcky2" data-item-class="Icon Stroke Indexed Indexed_1 InsideFill InsideGrayFill" data-item-index="1" data-renderer-id="0" transform="translate(290, 92)"><g id="comp_1hfp4ckswcky2-stroke" fill="none" stroke-linecap="round" stroke-linejoin="round" stroke-miterlimit="4" stroke="#93c131" stroke-width="2"><g><path d="M 12.25 27.25L 12.25 18.25C 12.25 16.593145 13.593145 15.25 15.25 15.25C 16.906855 15.25 18.25 16.593145 18.25 18.25L 18.25 27.25M 18.25 34.18L 18.25 37.75C 18.214483 38.735126 17.985109 39.70359 17.575001 40.599998L 15.58 44.574997C 15.4 44.949997 15.1 44.949997 14.92 44.574997L 13 40.599998C 12.586003 39.689056 12.356586 38.705112 12.325 37.705002L 12.325 34.18M 18.25 19.705L 12.25 19.705M 18.040001 39.25L 12.46 39.25M 32.635002 19.75L 43.555 38.635002C 43.985374 39.335766 43.771271 40.252396 43.074997 40.689999L 42.175003 41.23C 41.470345 41.65765 40.552643 41.4366 40.119999 40.735001L 28.119999 19.735001M 42.685001 40.93L 45.25 45.25M 23.635 15.25C 23.635 12.764719 25.649719 10.75 28.135 10.75C 30.620281 10.75 32.635002 12.764719 32.635002 15.25L 32.635002 19.75L 23.635 19.75ZM 23.635 19.75L 20.83 28.84C 20.483593 29.661345 19.695513 30.210081 18.805 30.25L 11.5 30.25C 11.085787 30.25 10.75 30.585787 10.75 31L 10.75 33.43C 10.75 33.844212 11.085787 34.18 11.5 34.18L 21.76 34.18C 22.64579 34.139198 23.431248 33.59811 23.785 32.784996L 28.135 19.75"></path></g></g></g><g id="g-root-tx_focusond_6hgskswntag-stroke" data-item-order="1000000000" data-item-id="tx_focusond_6hgskswntag" data-item-class="Label Stroke Indexed Indexed_1 ColorFillBlack ColorStrokeBlack" data-item-index="1" data-renderer-id="0" transform="translate(38, 98)"></g><g id="g-root-tx_focusond_6hgskswntag-stroke" data-item-order="1000000000" data-item-id="tx_focusond_6hgskswntag" data-item-class="Label Stroke Indexed Indexed_1 ColorFillBlack ColorStrokeBlack" data-item-index="1" data-renderer-id="0" transform="translate(38, 98)"></g><g id="g-root-decr_1qbc4lgswck5d-stroke" data-item-order="1000000000" data-item-id="decr_1qbc4lgswck5d" data-item-class="Icon Stroke Indexed InsideFill InsideGrayFill" data-item-index="2" data-renderer-id="0" transform="translate(566, 92)"><g id="decr_1qbc4lgswck5d-stroke" fill="none" stroke-linecap="round" stroke-linejoin="round" stroke-miterlimit="4" stroke="#17b0e3" stroke-width="2"><g><path d="M 12.256 27.25L 24.256001 27.25C 24.256001 27.25 25.006001 27.25 25.006001 28L 25.006001 31C 25.006001 31 25.006001 31.75 24.256001 31.75L 12.256 31.75C 12.256 31.75 11.506 31.75 11.506 31L 11.506 28C 11.506 28 11.506 27.25 12.256 27.25M 13.756 31.75L 25.756001 31.75C 25.756001 31.75 26.506001 31.75 26.506001 32.5L 26.506001 35.5C 26.506001 35.5 26.506001 36.25 25.756001 36.25L 13.756 36.25C 13.756 36.25 13.006 36.25 13.006 35.5L 13.006 32.5C 13.006 32.5 13.006 31.75 13.756 31.75M 12.256 36.25L 24.256001 36.25C 24.256001 36.25 25.006001 36.25 25.006001 37L 25.006001 40C 25.006001 40 25.006001 40.75 24.256001 40.75L 12.256 40.75C 12.256 40.75 11.506 40.75 11.506 40L 11.506 37C 11.506 37 11.506 36.25 12.256 36.25M 13.756 40.75L 25.756001 40.75C 25.756001 40.75 26.506001 40.75 26.506001 41.5L 26.506001 44.5C 26.506001 44.5 26.506001 45.25 25.756001 45.25L 13.756 45.25C 13.756 45.25 13.006 45.25 13.006 44.5L 13.006 41.5C 13.006 41.5 13.006 40.75 13.756 40.75M 31.756001 36.25L 43.756001 36.25C 43.756001 36.25 44.506001 36.25 44.506001 37L 44.506001 40C 44.506001 40 44.506001 40.75 43.756001 40.75L 31.756001 40.75C 31.756001 40.75 31.006001 40.75 31.006001 40L 31.006001 37C 31.006001 37 31.006001 36.25 31.756001 36.25M 30.256001 40.75L 42.256001 40.75C 42.256001 40.75 43.006001 40.75 43.006001 41.5L 43.006001 44.5C 43.006001 44.5 43.006001 45.25 42.256001 45.25L 30.256001 45.25C 30.256001 45.25 29.506001 45.25 29.506001 44.5L 29.506001 41.5C 29.506001 41.5 29.506001 40.75 30.256001 40.75M 12.25 10.75L 23.306499 21.800501C 23.846905 22.341242 24.707523 22.389053 25.304501 21.911499L 30.6775 17.612499C 31.287258 17.125729 32.168362 17.187687 32.703999 17.755001L 44.5 30.25M 34.006001 30.25L 44.506001 30.25L 44.506001 20.5"></path></g></g></g><g id="g-root-decr_1qbc4lgswck5d-stroke" data-item-order="1000000000" data-item-id="decr_1qbc4lgswck5d" data-item-class="Icon Stroke Indexed InsideFill InsideGrayFill" data-item-index="2" data-renderer-id="0" transform="translate(566, 92)"><g id="decr_1qbc4lgswck5d-stroke" fill="none" stroke-linecap="round" stroke-linejoin="round" stroke-miterlimit="4" stroke="#17b0e3" stroke-width="2"><g><path d="M 12.256 27.25L 24.256001 27.25C 24.256001 27.25 25.006001 27.25 25.006001 28L 25.006001 31C 25.006001 31 25.006001 31.75 24.256001 31.75L 12.256 31.75C 12.256 31.75 11.506 31.75 11.506 31L 11.506 28C 11.506 28 11.506 27.25 12.256 27.25M 13.756 31.75L 25.756001 31.75C 25.756001 31.75 26.506001 31.75 26.506001 32.5L 26.506001 35.5C 26.506001 35.5 26.506001 36.25 25.756001 36.25L 13.756 36.25C 13.756 36.25 13.006 36.25 13.006 35.5L 13.006 32.5C 13.006 32.5 13.006 31.75 13.756 31.75M 12.256 36.25L 24.256001 36.25C 24.256001 36.25 25.006001 36.25 25.006001 37L 25.006001 40C 25.006001 40 25.006001 40.75 24.256001 40.75L 12.256 40.75C 12.256 40.75 11.506 40.75 11.506 40L 11.506 37C 11.506 37 11.506 36.25 12.256 36.25M 13.756 40.75L 25.756001 40.75C 25.756001 40.75 26.506001 40.75 26.506001 41.5L 26.506001 44.5C 26.506001 44.5 26.506001 45.25 25.756001 45.25L 13.756 45.25C 13.756 45.25 13.006 45.25 13.006 44.5L 13.006 41.5C 13.006 41.5 13.006 40.75 13.756 40.75M 31.756001 36.25L 43.756001 36.25C 43.756001 36.25 44.506001 36.25 44.506001 37L 44.506001 40C 44.506001 40 44.506001 40.75 43.756001 40.75L 31.756001 40.75C 31.756001 40.75 31.006001 40.75 31.006001 40L 31.006001 37C 31.006001 37 31.006001 36.25 31.756001 36.25M 30.256001 40.75L 42.256001 40.75C 42.256001 40.75 43.006001 40.75 43.006001 41.5L 43.006001 44.5C 43.006001 44.5 43.006001 45.25 42.256001 45.25L 30.256001 45.25C 30.256001 45.25 29.506001 45.25 29.506001 44.5L 29.506001 41.5C 29.506001 41.5 29.506001 40.75 30.256001 40.75M 12.25 10.75L 23.306499 21.800501C 23.846905 22.341242 24.707523 22.389053 25.304501 21.911499L 30.6775 17.612499C 31.287258 17.125729 32.168362 17.187687 32.703999 17.755001L 44.5 30.25M 34.006001 30.25L 44.506001 30.25L 44.506001 20.5"></path></g></g></g><g id="g-root-tx_prioriti_4mayx0swnsi6-stroke" data-item-order="1000000000" data-item-id="tx_prioriti_4mayx0swnsi6" data-item-class="Label Stroke Indexed ColorFillBlack ColorStrokeBlack" data-item-index="2" data-renderer-id="0" transform="translate(626, 98)"></g><g id="g-root-tx_prioriti_4mayx0swnsi6-stroke" data-item-order="1000000000" data-item-id="tx_prioriti_4mayx0swnsi6" data-item-class="Label Stroke Indexed ColorFillBlack ColorStrokeBlack" data-item-index="2" data-renderer-id="0" transform="translate(626, 98)"></g><g id="g-root-tx_clearint_4mayx0swnsi7-stroke" data-item-order="1000000000" data-item-id="tx_clearint_4mayx0swnsi7" data-item-class="Label Stroke Indexed Indexed_1 ColorStrokeBlack" data-item-index="1" data-renderer-id="0" transform="translate(2, 134)"></g><g id="g-root-tx_clearint_4mayx0swnsi7-stroke" data-item-order="1000000000" data-item-id="tx_clearint_4mayx0swnsi7" data-item-class="Label Stroke Indexed Indexed_1 ColorStrokeBlack" data-item-index="1" data-renderer-id="0" transform="translate(2, 134)"></g><g id="g-root-tx_optimize_dhbi2sswnuv9-stroke" data-item-order="1000000000" data-item-id="tx_optimize_dhbi2sswnuv9" data-item-class="Label Stroke Indexed ColorStrokeBlack" data-item-index="2" data-renderer-id="0" transform="translate(626, 134)"></g><g id="g-root-tx_optimize_dhbi2sswnuv9-stroke" data-item-order="1000000000" data-item-id="tx_optimize_dhbi2sswnuv9" data-item-class="Label Stroke Indexed ColorStrokeBlack" data-item-index="2" data-renderer-id="0" transform="translate(626, 134)"></g><g id="g-root-face_dgp45gswckcu-stroke" data-item-order="1000000000" data-item-id="face_dgp45gswckcu" data-item-class="Icon Stroke Indexed Indexed_0 ColorFillBlack ColorStrokeBlack" data-item-index="0" data-renderer-id="0" transform="translate(410, 74)"><g id="face_dgp45gswckcu-stroke" fill="none" stroke-linecap="round" stroke-linejoin="round" stroke-miterlimit="4" stroke="#484848" stroke-width="2"><g><path d="M 46.599998 39.681999C 43.599998 36.681999 37.599998 35.181999 34.599998 38.181999M 16.9 45.681999C 16.6 44.482002 16.6 43.281998 16.6 41.781998C 16.6 25.581999 29.799999 12.382 46 12.382C 62.199997 12.382 75.399994 25.581999 75.399994 41.781998C 75.399994 52.582001 69.699997 61.882004 61 66.981995M 40.449997 77.800003C 46.449997 75.399994 45.324997 70.111 44.125 65.311005L 53.677002 61.612C 55.891281 60.755096 57.049278 58.316589 56.314003 56.059002L 56.313999 56.058998C 55.93375 54.891376 55.08989 53.931606 53.980541 53.405022C 52.871193 52.878433 51.594067 52.831413 50.449001 53.275002L 32.875 60.084999C 31.375 60.685001 29.575001 59.485001 29.575001 57.985001L 29.458 55.144001C 29.410076 53.986492 28.88414 52.900726 28.005583 52.145561C 27.127028 51.390404 25.974579 51.03352 24.823002 51.160004L 24.823 51.16C 22.704519 51.393932 21.100885 53.183647 21.1 55.315002L 21.1 67.584999C 21.1 75.385002 28.299999 81.084999 35.800003 79.284996C 35.800003 79.284996 38.949997 78.399994 40.449997 77.800003ZM 31.825001 27.681999C 31.20368 27.681999 30.700001 27.178322 30.700001 26.556999C 30.700001 25.93568 31.20368 25.431999 31.825001 25.431999M 31.825001 27.681999C 32.44632 27.681999 32.950001 27.178322 32.950001 26.556999C 32.950001 25.93568 32.44632 25.431999 31.825001 25.431999M 47.800003 27.681999C 47.17868 27.681999 46.675003 27.178322 46.675003 26.556999C 46.675003 25.93568 47.17868 25.431999 47.800003 25.431999M 47.800003 27.681999C 48.421322 27.681999 48.925003 27.178322 48.925003 26.556999C 48.925003 25.93568 48.421322 25.431999 47.800003 25.431999"></path></g></g></g><g id="g-root-face_dgp45gswckcu-stroke" data-item-order="1000000000" data-item-id="face_dgp45gswckcu" data-item-class="Icon Stroke Indexed Indexed_0 ColorFillBlack ColorStrokeBlack" data-item-index="0" data-renderer-id="0" transform="translate(410, 74)"><g id="face_dgp45gswckcu-stroke" fill="none" stroke-linecap="round" stroke-linejoin="round" stroke-miterlimit="4" stroke="#484848" stroke-width="2"><g><path d="M 46.599998 39.681999C 43.599998 36.681999 37.599998 35.181999 34.599998 38.181999M 16.9 45.681999C 16.6 44.482002 16.6 43.281998 16.6 41.781998C 16.6 25.581999 29.799999 12.382 46 12.382C 62.199997 12.382 75.399994 25.581999 75.399994 41.781998C 75.399994 52.582001 69.699997 61.882004 61 66.981995M 40.449997 77.800003C 46.449997 75.399994 45.324997 70.111 44.125 65.311005L 53.677002 61.612C 55.891281 60.755096 57.049278 58.316589 56.314003 56.059002L 56.313999 56.058998C 55.93375 54.891376 55.08989 53.931606 53.980541 53.405022C 52.871193 52.878433 51.594067 52.831413 50.449001 53.275002L 32.875 60.084999C 31.375 60.685001 29.575001 59.485001 29.575001 57.985001L 29.458 55.144001C 29.410076 53.986492 28.88414 52.900726 28.005583 52.145561C 27.127028 51.390404 25.974579 51.03352 24.823002 51.160004L 24.823 51.16C 22.704519 51.393932 21.100885 53.183647 21.1 55.315002L 21.1 67.584999C 21.1 75.385002 28.299999 81.084999 35.800003 79.284996C 35.800003 79.284996 38.949997 78.399994 40.449997 77.800003ZM 31.825001 27.681999C 31.20368 27.681999 30.700001 27.178322 30.700001 26.556999C 30.700001 25.93568 31.20368 25.431999 31.825001 25.431999M 31.825001 27.681999C 32.44632 27.681999 32.950001 27.178322 32.950001 26.556999C 32.950001 25.93568 32.44632 25.431999 31.825001 25.431999M 47.800003 27.681999C 47.17868 27.681999 46.675003 27.178322 46.675003 26.556999C 46.675003 25.93568 47.17868 25.431999 47.800003 25.431999M 47.800003 27.681999C 48.421322 27.681999 48.925003 27.178322 48.925003 26.556999C 48.925003 25.93568 48.421322 25.431999 47.800003 25.431999"></path></g></g></g><g id="g-root-tx_howtoens_6hgskswntah-stroke" data-item-order="1000000000" data-item-id="tx_howtoens_6hgskswntah" data-item-class="Label Stroke Title ColorFillBlack ColorStrokeBlack" data-item-index="none" data-renderer-id="0" transform="translate(302, 2)"></g><g id="g-root-tx_ensurese_dhbi2sswnuv8-stroke" data-item-order="1000000000" data-item-id="tx_ensurese_dhbi2sswnuv8" data-item-class="Label Stroke Indexed ColorFillBlack ColorStrokeBlack" data-item-index="3" data-renderer-id="0" transform="translate(170, 230)"></g><g id="g-root-tx_ensurese_dhbi2sswnuv8-stroke" data-item-order="1000000000" data-item-id="tx_ensurese_dhbi2sswnuv8" data-item-class="Label Stroke Indexed ColorFillBlack ColorStrokeBlack" data-item-index="3" data-renderer-id="0" transform="translate(170, 230)"></g><g id="g-root-chec_1qbc4lgswck5c-stroke" data-item-order="1000000000" data-item-id="chec_1qbc4lgswck5c" data-item-class="Icon Stroke Indexed InsideFill InsideGrayFill" data-item-index="3" data-renderer-id="0" transform="translate(350, 224)"><g id="chec_1qbc4lgswck5c-stroke" fill="none" stroke-linecap="round" stroke-linejoin="round" stroke-miterlimit="4" stroke="#b65edf" stroke-width="2"><g><path d="M 36.25 20.5L 27.1975 33.598L 20.3305 26.728001M 13 15.6625L 13 27.118C 12.987609 34.726158 17.652195 41.559765 24.742001 44.32L 26.342501 44.941002C 27.408998 45.353527 28.591002 45.353527 29.657501 44.941002L 31.257999 44.32C 38.347805 41.559765 43.01239 34.726158 43 27.118L 43 15.6625C 43.007317 14.758466 42.485237 13.933696 41.665001 13.5535C 37.359806 11.662234 32.702095 10.706662 27.999998 10.75C 23.297903 10.706662 18.640194 11.662234 14.335 13.5535C 13.514767 13.933696 12.992685 14.758466 13 15.6625Z"></path></g></g></g><g id="g-root-chec_1qbc4lgswck5c-stroke" data-item-order="1000000000" data-item-id="chec_1qbc4lgswck5c" data-item-class="Icon Stroke Indexed InsideFill InsideGrayFill" data-item-index="3" data-renderer-id="0" transform="translate(350, 224)"><g id="chec_1qbc4lgswck5c-stroke" fill="none" stroke-linecap="round" stroke-linejoin="round" stroke-miterlimit="4" stroke="#b65edf" stroke-width="2"><g><path d="M 36.25 20.5L 27.1975 33.598L 20.3305 26.728001M 13 15.6625L 13 27.118C 12.987609 34.726158 17.652195 41.559765 24.742001 44.32L 26.342501 44.941002C 27.408998 45.353527 28.591002 45.353527 29.657501 44.941002L 31.257999 44.32C 38.347805 41.559765 43.01239 34.726158 43 27.118L 43 15.6625C 43.007317 14.758466 42.485237 13.933696 41.665001 13.5535C 37.359806 11.662234 32.702095 10.706662 27.999998 10.75C 23.297903 10.706662 18.640194 11.662234 14.335 13.5535C 13.514767 13.933696 12.992685 14.758466 13 15.6625Z"></path></g></g></g><g id="g-root-incr_1uqj5msswcmiv-stroke" data-item-order="1000000000" data-item-id="incr_1uqj5msswcmiv" data-item-class="Icon Stroke Indexed InsideFill InsideGrayFill" data-item-index="4" data-renderer-id="0" transform="translate(506, 224)"><g id="incr_1uqj5msswcmiv-stroke" fill="none" stroke-linecap="round" stroke-linejoin="round" stroke-miterlimit="4" stroke="#e3cd09" stroke-width="2"><g><path d="M 10.756 44.875L 45.256001 44.875M 16.75 44.875L 16.75 41.125C 16.75 40.710785 16.414213 40.375 16 40.375L 13 40.375C 12.585787 40.375 12.25 40.710785 12.25 41.125L 12.25 44.875M 25.75 44.875L 25.75 35.125C 25.75 34.710785 25.414213 34.375 25 34.375L 22 34.375C 21.585787 34.375 21.25 34.710785 21.25 35.125L 21.25 44.875M 34.75 44.875L 34.75 29.125C 34.75 28.710787 34.414215 28.375 34 28.375L 31 28.375C 30.585787 28.375 30.25 28.710787 30.25 29.125L 30.25 44.875M 43.75 44.875L 43.75 23.125C 43.75 22.710787 43.414215 22.375 43 22.375L 40 22.375C 39.585785 22.375 39.25 22.710787 39.25 23.125L 39.25 44.875M 14.506 29.875L 41.506001 11.875M 40.756001 17.875L 41.506001 11.875L 35.506001 11.125"></path></g></g></g><g id="g-root-tx_createea_v8likkswnsi1-stroke" data-item-order="1000000000" data-item-id="tx_createea_v8likkswnsi1" data-item-class="Label Stroke Indexed ColorStrokeBlack" data-item-index="4" data-renderer-id="0" transform="translate(566, 266)"></g><g id="g-root-tx_enhanced_qss0g4swntaa-stroke" data-item-order="1000000000" data-item-id="tx_enhanced_qss0g4swntaa" data-item-class="Label Stroke Indexed ColorFillBlack ColorStrokeBlack" data-item-index="4" data-renderer-id="0" transform="translate(566, 230)"></g><g id="g-root-tx_enhanced_qss0g4swntaa-stroke" data-item-order="1000000000" data-item-id="tx_enhanced_qss0g4swntaa" data-item-class="Label Stroke Indexed ColorFillBlack ColorStrokeBlack" data-item-index="4" data-renderer-id="0" transform="translate(566, 230)"></g><g id="g-root-tx_implemen_hx5078swnu2z-stroke" data-item-order="1000000000" data-item-id="tx_implemen_hx5078swnu2z" data-item-class="Label Stroke Indexed ColorStrokeBlack" data-item-index="3" data-renderer-id="0" transform="translate(62, 266)"></g><g id="g-root-tx_implemen_hx5078swnu2z-stroke" data-item-order="1000000000" data-item-id="tx_implemen_hx5078swnu2z" data-item-class="Label Stroke Indexed ColorStrokeBlack" data-item-index="3" data-renderer-id="0" transform="translate(62, 266)"></g><g id="g-root-tx_createea_v8likkswnsi1-stroke" data-item-order="1000000000" data-item-id="tx_createea_v8likkswnsi1" data-item-class="Label Stroke Indexed ColorStrokeBlack" data-item-index="4" data-renderer-id="0" transform="translate(566, 266)"></g><g id="g-root-tx_howtoens_6hgskswntah-stroke" data-item-order="1000000000" data-item-id="tx_howtoens_6hgskswntah" data-item-class="Label Stroke Title ColorFillBlack ColorStrokeBlack" data-item-index="none" data-renderer-id="0" transform="translate(302, 2)"></g><g id="g-root-incr_1uqj5msswcmiv-stroke" data-item-order="1000000000" data-item-id="incr_1uqj5msswcmiv" data-item-class="Icon Stroke Indexed InsideFill InsideGrayFill" data-item-index="4" data-renderer-id="0" transform="translate(506, 224)"><g id="incr_1uqj5msswcmiv-stroke" fill="none" stroke-linecap="round" stroke-linejoin="round" stroke-miterlimit="4" stroke="#e3cd09" stroke-width="2"><g><path d="M 10.756 44.875L 45.256001 44.875M 16.75 44.875L 16.75 41.125C 16.75 40.710785 16.414213 40.375 16 40.375L 13 40.375C 12.585787 40.375 12.25 40.710785 12.25 41.125L 12.25 44.875M 25.75 44.875L 25.75 35.125C 25.75 34.710785 25.414213 34.375 25 34.375L 22 34.375C 21.585787 34.375 21.25 34.710785 21.25 35.125L 21.25 44.875M 34.75 44.875L 34.75 29.125C 34.75 28.710787 34.414215 28.375 34 28.375L 31 28.375C 30.585787 28.375 30.25 28.710787 30.25 29.125L 30.25 44.875M 43.75 44.875L 43.75 23.125C 43.75 22.710787 43.414215 22.375 43 22.375L 40 22.375C 39.585785 22.375 39.25 22.710787 39.25 23.125L 39.25 44.875M 14.506 29.875L 41.506001 11.875M 40.756001 17.875L 41.506001 11.875L 35.506001 11.125"></path></g></g></g></g></g></svg>